<svg xmlns="http://www.w3.org/2000/svg" width="32" height="32" viewBox="0 0 48 48" fill="none">
    <circle cx="24" cy="24" r="24" fill="#EDE9E1"/>
    <path d="M33 13C22.5 14.6 15.6 18.5 15.1 24.4" stroke="#020625" stroke-width="2.2" stroke-linecap="round"/>
    <path d="M33 15.8C22.2 17.5 15.4 21.4 14.8 27.1" stroke="#174AFF" stroke-width="2.2" stroke-linecap="round"/>
    <path d="M33 19C22.3 20.6 14.9 24.8 14.1 30.8" stroke="#FFFFFF" stroke-width="2.2" stroke-linecap="round"/>
    <path d="M33 22C22.3 23.8 14.6 28.1 13.8 34.2" stroke="#FF1D0E" stroke-width="2.2" stroke-linecap="round"/>
    <path d="M14.6 25.8C18.2 30.4 24.8 32.3 32.2 32.5" stroke="#020625" stroke-width="1.1" stroke-linecap="round"/>
    <path d="M14.2 29C17.9 33.4 24.6 35.1 32.2 35.4" stroke="#174AFF" stroke-width="1.1" stroke-linecap="round"/>
    <path d="M13.9 32.2C17.6 36.2 24.3 37.9 32.2 38" stroke="#FF1D0E" stroke-width="1.1" stroke-linecap="round"/>
</svg>
