<svg xmlns="http://www.w3.org/2000/svg" fill="none" viewBox="0 0 32 32">
  <path fill="#fff" fill-rule="evenodd" d="M32 16c0-8.828-7.172-16-16-16S0 7.172 0 16s7.172 16 16 16 16-7.172 16-16" clip-rule="evenodd"/>
  <path fill="#00a3ff" d="m9.004 14.791-.191.293C6.66 18.386 7.14 22.71 9.968 25.48a8.6 8.6 0 0 0 6.024 2.445z"/>
  <path fill="#00a3ff" d="M16 9.867 9.976 13.31 16 16.751z" opacity=".6"/>
  <path fill="#00a3ff" d="m16 4.075-6.024 9.237L16 9.857z"/>
  <path fill="#00a3ff" d="M16 18.783 9.004 14.79 16 27.925zm6.997-3.992.19.293c2.152 3.302 1.672 7.626-1.155 10.396a8.6 8.6 0 0 1-6.024 2.445z" opacity=".6"/>
  <path fill="#00a3ff" d="m16 9.867 6.024 3.444L16 16.751z" opacity=".2"/>
  <path fill="#00a3ff" d="m16 4.075 6.024 9.237L16 9.857z" opacity=".6"/>
  <path fill="#00a3ff" d="m16 18.783 6.996-3.992L16 27.925z" opacity=".2"/>
</svg>
