<svg xmlns="http://www.w3.org/2000/svg" viewBox="0 0 32 32">
  <g fill="none" fill-rule="evenodd">
    <path fill="#f4b731" d="M32 16c0-2.094-.417-4.188-1.218-6.123a16 16 0 0 0-3.468-5.19 16 16 0 0 0-5.191-3.47A16.1 16.1 0 0 0 16 0c-2.094 0-4.188.417-6.123 1.218a16 16 0 0 0-5.19 3.468 16 16 0 0 0-3.47 5.191A16.1 16.1 0 0 0 0 16c0 2.094.417 4.188 1.218 6.123a16 16 0 0 0 3.468 5.19 16 16 0 0 0 5.191 3.47A16.1 16.1 0 0 0 16 32c2.094 0 4.188-.417 6.123-1.218a16 16 0 0 0 5.19-3.468 16 16 0 0 0 3.47-5.191A16.1 16.1 0 0 0 32 16"/>
    <path fill="#fff" d="M16.08 7.313c.545 0 1.085.08 1.62.178a9.8 9.8 0 0 1 3.13 1.149c.645.37 1.233.826 1.76 1.346.403.4.753.848 1.07 1.317.319.473.576.984.78 1.515a.26.26 0 0 0 .3.208h1.79c.23 0 .23 0 .24.218q.037.811 0 1.624c-.008.158-.06.199-.221.199h-1.38c-.14 0-.18 0-.17.178.032.604.054 1.208 0 1.811 0 .168 0 .188.19.188h1.58c.07.09 0 .178 0 .268q.015.173 0 .346v1.198c0 .169-.05.219-.2.219h-1.89a.25.25 0 0 0-.29.188 7.9 7.9 0 0 1-2.101 3.03q-.51.456-1.07.85c-.4.229-.79.466-1.2.654a10.4 10.4 0 0 1-2.36.742 11.5 11.5 0 0 1-2.34.189 253 253 0 0 0-6.94 0v-.01l.002-.002V19.44c0-.13 0-.149-.16-.149H6.05c-.12 0-.17 0-.17-.158v-1.881H8.2c.13 0 .18 0 .18-.169v-1.86c0-.12 0-.149-.16-.149H6.05c-.12 0-.17 0-.17-.158v-1.743c0-.109 0-.138.16-.138h2.15c.15 0 .19 0 .19-.188V7.511c0-.158 0-.198.2-.198zm5.6 11.989H10.59c-.15 0-.2 0-.2.198v3.436c0 .158 0 .198.2.198h5.12q.369.027.729-.05a7.7 7.7 0 0 0 2.171-.475c.25-.094.498-.2.73-.336h.07a6.46 6.46 0 0 0 2.79-2.78c.003-.009.07-.15-.01-.19v-.001a2.3 2.3 0 0 0-.51 0m1-4.238h-12.1c-.15 0-.19.05-.19.189v1.762c0 .227 0 .227.24.227h12.04c.13 0 .19 0 .2-.168a13.5 13.5 0 0 0 0-1.842c0-.119-.06-.168-.19-.168m-6.751-5.871q-2.685.023-5.37 0c-.15-.001-.17.06-.17.188v3.515c0 .148 0 .188.19.188h11.54c.005-.001.1-.02.12-.08h-.048a.2.2 0 0 0 0-.138 4 4 0 0 0-.362-.623 5 5 0 0 0-.74-.921 2.4 2.4 0 0 0-.46-.446 7.2 7.2 0 0 0-3-1.505 7.2 7.2 0 0 0-1.7-.178"/>
  </g>
</svg>
