<svg xmlns="http://www.w3.org/2000/svg" viewBox="0 0 48 48">
  <path fill="none" d="M0 0h48v48H0z"/>
  <path fill="#213147" d="M4.34 14.592v18.816c0 1.21.633 2.304 1.689 2.918l16.3 9.408a3.38 3.38 0 0 0 3.36 0l16.301-9.408a3.37 3.37 0 0 0 1.69-2.918V14.592c0-1.21-.634-2.304-1.69-2.918l-16.3-9.408a3.38 3.38 0 0 0-3.36 0L6.029 11.674a3.35 3.35 0 0 0-1.67 2.918z"/>
  <path fill="#12aaff" d="m27.552 27.648-2.323 6.374a.9.9 0 0 0 0 .557l3.993 10.963 4.628-2.668-5.55-15.226a.4.4 0 0 0-.748 0m4.666-10.714a.4.4 0 0 0-.75 0l-2.322 6.375a.9.9 0 0 0 0 .557l6.547 17.952 4.627-2.67-8.102-22.194z"/>
  <path fill="#9dcced" d="M24 2.976c.115 0 .23.038.326.096l17.626 10.176a.65.65 0 0 1 .326.576v20.352c0 .23-.134.46-.326.576L24.326 44.928c-.096.058-.21.096-.326.096s-.23-.038-.326-.096L6.048 34.752a.65.65 0 0 1-.326-.576V13.805c0-.23.134-.461.326-.576L23.674 3.053A.65.65 0 0 1 24 2.957zM24 0c-.634 0-1.248.154-1.824.48L4.55 10.656a3.62 3.62 0 0 0-1.824 3.149v20.352c0 1.305.692 2.496 1.824 3.149l17.626 10.176c.557.326 1.19.48 1.824.48s1.248-.154 1.824-.48L43.45 37.306a3.62 3.62 0 0 0 1.824-3.15v-20.35a3.62 3.62 0 0 0-1.824-3.149L25.805.48A3.6 3.6 0 0 0 23.98 0z"/>
  <path fill="#213147" d="m12.326 41.837 1.632-4.455 3.264 2.708-3.052 2.803z"/>
  <path fill="#fff" d="M22.502 12.365H18.03a.81.81 0 0 0-.749.518L7.7 39.15l4.626 2.669 10.56-28.935a.396.396 0 0 0-.364-.537zm7.834 0h-4.474a.81.81 0 0 0-.748.518L14.17 42.873l4.627 2.67L30.7 12.882a.396.396 0 0 0-.365-.537z"/>
</svg>
