<svg xmlns="http://www.w3.org/2000/svg" fill="none" viewBox="0 0 48 48">
  <path fill="#fff" d="M9.166 8.24h29.636v26.954H9.166z"/>
  <path fill="#e84142" fill-rule="evenodd" d="M47.984 24.016C47.984 37.262 37.246 48 24 48S.016 37.262.016 24.016 10.754.032 24 .032 47.984 10.77 47.984 24.016m-30.78 9.544h-4.655c-.978 0-1.461 0-1.756-.188a1.18 1.18 0 0 1-.536-.925c-.018-.348.224-.772.707-1.62l11.493-20.258c.489-.86.736-1.29 1.049-1.45a1.19 1.19 0 0 1 1.072 0c.312.16.56.59 1.049 1.45l2.362 4.124.013.021c.528.923.796 1.391.912 1.882.13.536.13 1.102 0 1.638-.117.495-.382.966-.919 1.903L21.958 30.81l-.015.027c-.532.93-.801 1.402-1.175 1.758a3.5 3.5 0 0 1-1.432.831c-.489.135-1.036.135-2.132.135m11.754 0h6.67c.984 0 1.479 0 1.773-.194a1.18 1.18 0 0 0 .537-.93c.016-.337-.22-.745-.683-1.544l-.048-.083-3.341-5.715-.038-.065c-.47-.793-.706-1.194-1.01-1.35a1.18 1.18 0 0 0-1.067 0c-.307.16-.554.578-1.043 1.42l-3.329 5.716-.011.02c-.488.84-.731 1.261-.714 1.606.024.377.218.725.536.931.29.188.784.188 1.768.188" clip-rule="evenodd"/>
</svg>
