<svg xmlns="http://www.w3.org/2000/svg" viewBox="0 0 48 48">
  <path fill="#f0b90b" fill-rule="evenodd" d="M23.999 0c13.255 0 24 10.744 24 23.999s-10.745 24-24 24S0 37.253 0 23.998 10.744 0 23.999 0" clip-rule="evenodd"/>
  <path fill="#fff" d="m13.19 23.999.017 6.346 5.392 3.173v3.715l-8.547-5.013V22.143zm0-6.346v3.698l-3.14-1.858v-3.697l3.14-1.858 3.156 1.858zm7.661-1.857 3.14-1.858 3.156 1.858-3.156 1.857z"/>
  <path fill="#fff" d="M15.459 29.03v-3.716l3.14 1.858v3.698zm5.392 5.819 3.14 1.857 3.156-1.857v3.698l-3.156 1.857-3.14-1.857zm10.8-19.053 3.14-1.858 3.156 1.858v3.697l-3.156 1.858v-3.698zm3.14 14.549.017-6.346 3.14-1.858v10.077l-8.547 5.013v-3.715z"/>
  <path fill="#fff" d="m32.54 29.03-3.141 1.84v-3.698l3.14-1.858z"/>
  <path fill="#fff" d="m32.54 18.968.016 3.716-5.407 3.173v6.36l-3.14 1.841-3.14-1.84v-6.361l-5.408-3.173v-3.716l3.154-1.857 5.374 3.188 5.408-3.188 3.156 1.857zm-17.081-6.344 8.532-5.03 8.548 5.03-3.14 1.858-5.408-3.188-5.392 3.188z"/>
</svg>
