<svg xmlns="http://www.w3.org/2000/svg" viewBox="0 0 200 200">
  <path fill="#f6931a" d="M0 0h200v200H0z"/>
  <path fill="#fff" d="M144.22 75.04c1.96-13.13-8.03-20.18-21.7-24.89l4.43-17.78-10.82-2.7-4.32 17.32c-2.84-.71-5.77-1.38-8.67-2.04l4.35-17.43-10.82-2.7-4.43 17.78c-2.36-.54-4.67-1.07-6.92-1.62l.01-.06-14.93-3.73-2.88 11.56s8.03 1.84 7.86 1.95c4.38 1.1 5.17 4.01 5.04 6.31l-5.05 20.25.57.2-.59-.19-7.08 28.38c-.54 1.33-1.9 3.33-4.96 2.57.1.16-7.87-1.96-7.87-1.96l-5.38 12.39 14.09 3.51c2.62.66 5.19 1.35 7.72 2l-4.48 17.98 10.81 2.7 4.44-17.8c2.95.8 5.82 1.54 8.63 2.24l-4.42 17.71 10.82 2.7 4.48-17.95c18.46 3.49 32.34 2.08 38.18-14.62 4.71-13.44-.23-21.2-9.94-26.25 7.07-1.63 12.4-6.28 13.82-15.89Zm-24.74 34.69c-3.35 13.44-25.98 6.17-33.32 4.35l5.94-23.83c7.34 1.83 30.88 5.45 27.38 19.48m3.35-34.88c-3.05 12.23-21.9 6.02-28.01 4.5l5.39-21.61c6.11 1.52 25.79 4.37 22.61 17.12Z"/>
</svg>
