<svg xmlns="http://www.w3.org/2000/svg" viewBox="0 0 150 150">
  <path fill="#1a1a1a" d="M0 0h150v150H0z"/>
  <path fill="#f8f8f6" d="M43.137 71.131h-.787q-2.36 0-2.36 2.444v21.991q0 2.443 2.36 2.443h3.54q2.36 0 2.36-2.443V72.353q0-1.222 1.18-1.222h4.72q2.36 0 2.36-2.443V31.222Q56.51 30 57.69 30h6.293q1.18 0 1.18 1.222V69.91q0 1.222-1.18 1.222H58.87q-2.36 0-2.36 2.444v21.991c0 1.629 1.18 2.443 2.36 2.443h7.473q2.36 0 2.36-2.443V72.353q0-1.222 1.18-1.222h10.226q1.18 0 1.18 1.222v23.213c0 1.629 1.18 2.443 2.36 2.443h7.473q2.36 0 2.36-2.443V73.575q0-2.444-2.36-2.444H86.01q-1.18 0-1.18-1.222V31.222Q84.83 30 86.01 30h6.293q1.18 0 1.18 1.222v37.466q0 2.443 2.36 2.443h4.72q1.18 0 1.18 1.222v23.213q0 2.443 2.36 2.443h3.547q2.36 0 2.36-2.443V73.575q0-2.444-2.36-2.444h-.787q-1.18 0-1.18-1.222V31.222q0-1.222 1.18-1.222h3.697q1.18 0 1.18 1.222v37.466q0 2.443 2.36 2.443h.393q1.18 0 1.18 1.222v23.213q0 2.443 2.36 2.443h.787q1.18 0 1.18 1.222v19.547q0 1.222-1.18 1.222h-3.697q-1.18 0-1.18-1.222v-18.326c0-1.629-.787-2.443-1.967-2.443s-1.966.814-1.966 2.443v18.326q0 1.222-1.18 1.222h-5.908q-1.18 0-1.18-1.222v-18.326q0-2.443-2.36-2.443h-3.54q-2.36 0-2.36 2.443v18.326q0 1.222-1.18 1.222h-9.833q-1.18 0-1.18-1.222v-18.326q0-2.443-2.36-2.443h-7.866q-2.36 0-2.36 2.443v18.326q0 1.222-1.18 1.222H57.69q-1.18 0-1.18-1.222v-18.326q0-2.443-2.36-2.443h-3.54q-2.36 0-2.36 2.443v18.326q0 1.222-1.18 1.222h-5.9q-1.18 0-1.18-1.222v-18.326c0-1.629-.786-2.443-1.966-2.443s-1.967.814-1.967 2.443v18.326q0 1.222-1.18 1.222H31.18Q30 120 30 118.778V99.231q0-1.222 1.18-1.222h.787q2.36 0 2.36-2.443V72.353q0-1.222 1.18-1.222h.393q2.36 0 2.36-2.443V31.222Q38.26 30 39.44 30h3.697q1.18 0 1.18 1.222V69.91q0 1.222-1.18 1.222Z"/>
</svg>
