<svg xmlns="http://www.w3.org/2000/svg" viewBox="0 0 250 250">
  <defs>
    <linearGradient id="a" x1="55" x2="195" y1="30" y2="220" gradientUnits="userSpaceOnUse">
      <stop stop-color="#ffe69b"/>
      <stop offset="1" stop-color="#d0a82c"/>
    </linearGradient>
  </defs>
  <path fill="#8f711e" d="M125 12c28 0 44 13 55 40 5 13 13 20 29 26q33 12 33 48 0 37.5-33 51c-15 6-23 15-29 30-10 24-27 34-53 34-27 0-45-11-56-35-6-14-14-22-30-29-22-9-33-26-33-50q0-37.5 33-51c15-6 23-14 30-30 10-23 27-34 54-34" opacity=".55"/>
  <path fill="url(#a)" d="M125 8c28 0 44 13 55 40 5 13 13 20 29 26q33 12 33 48 0 37.5-33 51c-15 6-23 15-29 30-10 24-27 34-53 34-27 0-45-11-56-35-6-14-14-22-30-29-22-9-33-26-33-50q0-37.5 33-51c15-6 23-14 30-30C81 19 98 8 125 8"/>
  <path fill="none" stroke="#fff4cb" stroke-width="2.5" d="M125 11c26 0 42 12 52 38 6 14 15 22 31 28 20 8 31 23 31 46s-10 39-31 47c-16 7-25 16-31 32-9 22-25 32-50 32s-42-10-52-33c-7-15-16-24-32-31-21-8-31-24-31-47 0-22 10-37 31-46 16-6 25-15 31-31 10-23 26-35 51-35Z" opacity=".8"/>
  <path d="M81 95h19v59H81zm34 0h34c16 0 26 9 26 23s-10 23-27 23h-14v13h-19zm19 16v14h14c6 0 9-2 9-7s-3-7-9-7z"/>
</svg>
