<svg xmlns="http://www.w3.org/2000/svg" viewBox="0 0 64 64">
  <path fill="#2e5cff" d="M0 0h64v64H0z"/>
  <path fill="#fff" d="M46.98 48.68c0 1.765 0 2.652-.578 3.09s-1.43.199-3.132-.278l-27.368-7.68c-1.027-.289-1.539-.433-1.836-.824-.296-.39-.296-.925-.296-1.988V23c0-1.062 0-1.598.296-1.988.297-.39.809-.535 1.836-.825l27.368-7.68c1.703-.476 2.554-.714 3.132-.277.578.438.578 1.325.578 3.09Zm-26.386-7.371 22.66 6.359V34.949Zm-3.098-2.95L40.148 32l-22.652-6.36Zm3.098-15.668 22.66 6.36V16.332Zm0 0"/>
</svg>
