<svg xmlns="http://www.w3.org/2000/svg" fill="none" viewBox="0 0 32 32">
  <circle cx="16" cy="16" r="16" fill="#3b6fef"/>
  <path fill="#fdfeff" d="M13.817 25.489c-1.28 0-2.53.001-3.78-.001-.967-.002-1.51-.656-1.36-1.613.417-2.67.827-5.343 1.24-8.014.004-.029 0-.06 0-.116q-.741.002-1.47 0c-.611-.003-1.008-.36-1.01-.905-.001-.546.396-.91 1-.913.51-.002 1.02-.008 1.53.003.19.004.275-.041.3-.248.066-.535.162-1.066.253-1.645-.45 0-.874.003-1.297-.002a2.7 2.7 0 0 1-.497-.037.896.896 0 0 1-.715-.869c-.006-.434.285-.837.721-.887.463-.054.934-.032 1.402-.04.216-.004.433-.001.673-.001.13-.832.26-1.64.386-2.45.116-.749.606-1.18 1.368-1.181 1.854-.004 3.707-.016 5.56.002 3.117.032 5.706 2.149 6.354 5.171.721 3.36-1.598 6.857-4.983 7.492-.468.088-.95.114-1.426.13-.612.023-1.226.006-1.865.006l-.38 2.352c-.146.903-.285 1.807-.44 2.709q-.184 1.055-1.564 1.057m.287-4.62c.114-.698.232-1.395.338-2.094.124-.816.59-1.216 1.42-1.226.977-.012 1.961.025 2.932-.068 2.067-.198 3.856-2.113 3.963-4.16.144-2.758-1.885-4.902-4.652-4.908-1.614-.004-3.229 0-4.843 0h-.319l-.277 1.811h.394c1.646.004 3.292.002 4.937.017.288.002.586.035.86.117 1.287.388 2.13 1.678 1.95 2.949-.203 1.425-1.336 2.432-2.76 2.436-1.968.006-3.936.002-5.905.002h-.351l-1.222 7.869c.042.023.06.042.078.042.948.004 1.895.009 2.843 0 .067-.001.179-.108.19-.178.146-.85.277-1.704.424-2.61m2.999-8.816h-4.731l-.292 1.874h2.627c1.114 0 2.228.006 3.342-.003a.946.946 0 0 0 .95-.924c.008-.514-.417-.934-.96-.944-.29-.006-.582-.002-.936-.003"/>
</svg>
