<svg xmlns="http://www.w3.org/2000/svg" viewBox="0 0 500 500">
  <circle cx="250" cy="250" r="250" fill="#f00500"/>
  <path fill="#f4a817" d="M175.44 214.4c2.48.16 5.28-.16 8.16-.4 2.96-.24 5.92-.8 8.72-1.84 1.76-.64 3.36-1.68 4-3.44 1.28-3.36 1.52-6.88.56-10.32-1.52-5.28-5.44-8.88-9.68-12.16-3.68-2.88-7.84-4-12.32-3.2-7.84 1.28-15.76 8.24-16.72 16.4-.4 3.6-.64 7.04 1.44 10.24 1.36 2.16 2.8 4 5.68 4.24 3.28.24 6.56.48 10.16.48m147.44 0c1.76.16 4.56-.24 7.36-.4 2.48-.16 4.8-.72 6.32-3.04 2.08-3.28 2.96-6.88 2.48-10.72-.96-6.72-4.88-11.44-10.56-14.8-4.56-2.64-9.36-3.52-14.48-1.68-2.96 1.04-5.36 3.04-7.6 5.2-4 3.76-7.04 8-7.44 13.68-.4 5.2 1.68 8.4 6.64 9.84 5.28 1.6 10.72 1.84 17.28 1.92m26.88 22.8c0-3.28 0-6.64-1.04-9.76-1.28-4-.96-4.08-4.88-3.68-5.36.48-10.24 2.72-14.96 5.12-6.8 3.36-13.2 7.36-19.44 11.52-5.12 3.36-10.4 6.48-14.8 10.8-3.52 3.44-6.56 7.04-7.36 12.16-.24 1.6.24 2.48 2 2.88 1.6.4 3.2.72 4.88.72 6.24 0 12.4-1.12 18.48-2.64 7.76-1.92 15.36-4.48 22.48-8.16 4.72-2.48 9.2-5.28 12.88-9.28.96-1.04 1.68-2.16 1.6-3.68-.16-2.08.08-4.08.16-6m-198.8-.56c.08 1.44.32 3.84.32 6.16-.08 2.24 1.04 3.76 2.48 5.12 6.08 5.92 13.6 9.36 21.44 12.32 5.04 1.92 10.24 3.36 15.6 4.56 5.28 1.2 10.64 2 16.08 2.16 1.92.08 3.84-.16 5.76-.8 1.6-.56 2.08-1.28 1.84-2.88-.24-1.36-.64-2.72-1.28-3.92-2.4-4.88-6.16-8.56-10.56-11.52-11.28-7.76-22.64-15.28-35.28-20.8-3.84-1.68-7.76-3.04-12.08-2.96-1.44 0-2.08.64-2.64 1.84-1.28 3.2-1.36 6.48-1.68 10.72m-39.6-161.52c-.96-.16-1.12.16-1.92 2-3.04 6.88-3.92 14.24-4.32 21.6-.32 4.56.08 9.12.48 13.68.24 3.2.64 6.32 1.12 9.44.56 3.44 1.12 6.96 1.84 10.4.88 4.56 1.92 9.12 3.04 13.6q2.16 8.4 4.56 16.8c1.36 4.64 2.8 9.2 4.24 13.76.08.32.24.72.64.72s.48-.32.64-.56c3.12-4.88 6.24-9.84 9.76-14.48 4.4-5.76 8.88-11.44 13.92-16.72 4.08-4.24 8.24-8.4 12.8-12.16 4.24-3.52 8.48-6.88 13.04-9.92.8-.56.8-.96.16-1.68-3.04-3.2-6-6.56-9.12-9.68-5.28-5.28-10.64-10.48-16.4-15.28-4.16-3.52-8.32-6.88-12.8-10-4.64-3.2-9.52-6.16-14.56-8.64-2.32-1.12-4.72-2.16-7.12-2.88m228.4 59.84c.72 1.28 2.08 1.84 3.04 2.88 4.32 4.4 8.8 8.64 12.8 13.36 3.2 3.76 6.24 7.6 9.12 11.6 3.04 4.16 6 8.48 8.72 12.8.4.64.48 1.68 1.36 1.68.24 0 .64-1.2.8-1.92 1.68-5.68 3.52-11.36 5.2-17.12 1.84-6.48 3.6-13.04 5.04-19.6 1.6-7.2 2.96-14.48 3.76-21.84.56-4.88.88-9.76 1.04-14.72.16-4.4-.4-8.72-.88-13.04-.08-.32-.24-.56-.24-.88-.48-4.08-1.76-7.92-3.44-11.68-.8-1.84-1.04-1.84-2.96-1.12-6.72 2.64-13.04 6.08-19.04 10.16-9.28 6.4-17.84 13.84-25.92 21.68-4.72 4.56-9.28 9.36-13.68 14.24-.64.72-.8 1.12.16 1.84 3.6 2.64 7.2 5.28 10.72 8.08 1.44 1.28 2.72 2.8 4.4 3.6m-2.08-49.84c4.16-4 8.16-8.16 12.56-11.92 7.92-6.88 16.4-12.88 26.08-17.2 6.24-2.8 12.72-4.88 19.6-5.36.96-.08 1.6.08 2.16 1.04 2.56 4.08 4.16 8.48 5.36 13.04 2.56 9.44 2.88 19.12 2.56 28.8-.32 7.92-1.12 15.76-2.24 23.6-.88 6.24-2 12.4-3.12 18.56-.4 2.32-1.04 4.64-1.36 7.04-.16.48-.32.96-.4 1.44-1.76 8-3.76 16-5.84 23.92-2.48 9.36-5.04 18.64-8.08 27.84-.88 2.72-.32 4.72.72 7.04 2.96 6.64 6.8 12.88 9.28 19.68 1.84 4.88 3.6 9.76 5.04 14.72 2.4 8.08 4.24 16.4 5.6 24.72.8 5.12 1.44 10.24 1.92 15.44.4 4.48.64 8.96.8 13.44.08 1.68.72 3.44.08 5.2-2.32-.32-4.64-.8-6.96-1.04-7.6-.8-15.2-1.2-22.88-.4-8.88.88-17.36 2.88-25.52 6.32-10.64 4.4-20 10.8-28.4 18.72-2.24 2.16-4.4 4.4-6.72 6.64-.88-2.64-1.76-5.2-2.56-7.76-2.48-7.28-6.16-14-9.44-20.88-1.04-2.08-2.24-4-3.76-5.76-5.36-6.16-11.36-11.52-18.24-15.84-10.72-6.56-22.48-9.44-34.88-9.52-6.48 0-12.8 1.28-18.96 3.2-12.16 3.84-22 11.12-30.32 20.56-3.04 3.44-5.04 7.52-7.44 11.36-3.2 5.2-6.08 10.64-8.48 16.24-1.2 2.72-2.32 5.44-3.6 8.32-.56-.64-1.04-1.12-1.52-1.68-14.32-15.84-31.52-26.8-53.04-30.08-8-1.2-16-1.28-24-.64-4 .32-7.92 1.04-11.84 1.68.08-4.48.48-8.96.8-13.44.48-5.84 1.28-11.68 2.32-17.44.8-4.88 1.92-9.76 3.04-14.64 1.84-7.76 4.08-15.36 6.8-22.88.48-1.44 1.28-2.88-.08-4.24-.08-.08.08-.24.16-.48.88 1.12 1.36.96 1.76-.32 2.72-7.28 5.84-14.4 9.12-21.52.32-.72.56-1.36.24-2.16q-4.44-11.16-7.68-22.8c-1.68-5.84-3.2-11.76-4.48-17.76l-2.88-12.96c-.24-3.6-1.12-7.04-1.6-10.64-.8-5.44-1.52-10.96-2.16-16.4-.56-5.68-.96-11.28-1.28-16.96-.24-5.52-.32-11.04-.16-16.56.24-6.8.72-13.6 2.48-20.24.96-3.6 2.16-7.12 4.16-10.32 2.32-3.68 4.16-4.32 8.48-3.68 7.52 1.2 14.08 4.4 20.4 8.48 8.4 5.36 15.84 11.92 22.88 18.88 2.8 2.8 5.68 5.6 8.48 8.4.16.24.32.48.56.72 3.68 4.08 7.44 8 11.12 12.16 5.2 5.84 10.32 11.68 15.36 17.6 1.04 1.2 1.84 1.36 3.28.8 8.88-3.68 18.08-6.24 27.52-8 8.16-1.52 16.4-2.08 24.64-2.32 11.84-.4 23.6.16 35.36 2.08 10.48 1.76 20.72 4.4 30.72 8.16 2.24.88 2.24.88 3.68-1.12 4.4-6.16 9.12-12.08 13.92-18 3.28-4.4 7.12-8.64 10.88-12.88"/>
  <path fill="#f00500" d="M408.4 296.08c.64-1.76-.08-3.44-.08-5.2-.16-4.48-.4-8.96-.8-13.44-.48-5.12-1.12-10.32-1.92-15.44-1.36-8.4-3.2-16.64-5.6-24.72-1.52-4.96-3.28-9.84-5.04-14.72-2.56-6.8-6.32-13.12-9.28-19.68-1.04-2.32-1.6-4.4-.72-7.04 3.04-9.2 5.6-18.48 8.08-27.84 2.08-7.92 4.08-15.92 5.84-23.92.08-.48.24-.96.4-1.44 4.72 6.8 8.8 13.92 12.56 21.28 4.88 9.52 8.88 19.36 12.16 29.52 2.8 8.72 4.96 17.6 6.56 26.64 2.24 12.96 3.28 26.08 3.04 39.2-.16 10-1.04 19.92-2.64 29.84-4.16 24.88-12.56 48.32-25.52 70-13.2 22.08-30 40.88-50.72 56.08-11.44 8.48-23.76 15.44-36.88 20.96-7.68 3.28-15.52 5.92-23.6 8.08-8.72 2.32-17.6 3.84-26.64 4.8-11.04 1.12-22.08 1.2-33.04.24-9.2-.8-18.24-2.4-27.28-4.64-12.32-3.04-24.08-7.44-35.36-13.04-26.96-13.44-49.2-32.56-67.12-56.8-9.44-12.72-17.12-26.48-23.2-41.12-3.52-8.4-6.4-16.96-8.72-25.68-2.4-9.12-4.16-18.32-5.28-27.76-1.68-13.68-1.84-27.36-.8-41.12.88-11.12 2.64-22.16 5.36-33.04C77.68 184.32 86.4 164 98.72 145.2c.08-.08.16-.16.16-.24l2.88 12.96c1.28 6 2.8 11.92 4.48 17.76 2.16 7.68 4.72 15.36 7.68 22.8.32.8.08 1.44-.24 2.16-3.28 7.04-6.4 14.16-9.12 21.52-.48 1.28-.88 1.44-1.76.32l-.16.48c1.36 1.44.56 2.8.08 4.24-2.64 7.52-4.88 15.12-6.8 22.88-1.2 4.88-2.24 9.68-3.04 14.64-.96 5.76-1.84 11.6-2.32 17.44-.32 4.48-.72 8.96-.8 13.44-.4 5.6.16 11.04 1.6 16.48 2.16 8 5.68 15.36 10 22.4 8.72 14.08 20 26 32.48 36.8 17.28 15.04 36.4 27.2 57.2 36.8 4.08 1.92 8.16 3.84 12.4 5.36l9.36 3.36c1.92.64 3.92 1.36 5.92 2q11.04 3.36 22.56 4.56c8.72.88 17.44.32 26.08-1.12 7.76-1.28 15.36-3.2 22.8-5.6q11.52-3.72 22.56-8.88a228 228 0 0 0 29.92-16.64c9.04-5.92 17.52-12.48 25.52-19.84 3.36-3.12 6.8-6.24 9.68-9.84.4-.08.56-.4.72-.72h.08v-.08c.16-.16.32-.24.48-.4 5.44-6.08 10.48-12.48 14.72-19.52 2.32-3.92 4.8-7.76 6.72-11.92 3.52-7.52 6-15.36 7.2-23.68.56-2.96.8-6 .64-9.04M337.68 85.12c-3.76 4.24-7.6 8.4-11.2 12.8-4.8 5.84-9.52 11.76-13.92 18-1.44 2.08-1.44 2-3.68 1.12-9.92-3.76-20.24-6.4-30.72-8.16-11.68-1.92-23.52-2.48-35.36-2.08-8.24.32-16.56.8-24.64 2.32-9.44 1.76-18.64 4.32-27.52 8-1.44.56-2.24.4-3.28-.8-5.04-5.92-10.16-11.76-15.36-17.6-3.68-4.08-7.44-8.08-11.12-12.16-.16-.24-.32-.48-.56-.72 10.8-6.32 22.16-11.6 34.08-15.52q14.88-4.92 30.48-7.2c13.28-1.92 26.56-2.16 39.92-1.12 9.12.72 18.16 2.32 27.12 4.48 15.76 3.92 30.64 10 44.8 17.92q.6.48.96.72"/>
  <path fill="#fffefe" d="M371.68 366.56v-.08zm2.4-2.16-.08.08h.08zm-2.72 2.64c-.08 0-.08-.08-.16 0-.16.08-.16.08 0 .16h.16zm-98.72 53.12h-1.36c.48.32.88.16 1.36 0m-4.48.64c1.04.32 1.76.08 2.56-.32-.96-.32-1.6.16-2.56.32m-15.76-57.04c-4.24-.08-8.48-.08-12.72-.08-2.56 0-2.48 0-2.4 2.56 0 .64.32.96.8 1.28 1.28.8 2.64 1.28 4 1.84.96.4 1.44.32 1.84-.8.72-2.24.8-2.16 3.12-2 .8.08 1.2.4 1.52.96.8 1.28 1.6 2.64 2.4 3.92 1.2 2 3.2 2.16 4.8.32.64-.8 1.36-1.6 2-2.4 2.24-2.64 2.24-2.64 4.88-.4.4.32.64.8 1.28.64 2.16-.48 3.76-2.56 3.84-4.72 0-1.12-.4-1.28-1.36-1.28-4.72.16-9.36.16-14 .16m43.28-12.96h-12.64c-.64 0-.96.4-1.12.8-.4 1.12-1.2 1.36-2.32 1.28-3.28-.08-6.56-.08-9.92-.08-1.68 0-3.68.48-4.96-.24-1.36-.8-2.08-2.72-2.8-4.24-.56-1.04-1.2-1.6-2.4-1.44-.72.16-1.04-.16-1.04-.96.08-3.76 0-7.52 0-11.28 0-.64.16-.96.8-1.2 2.88-.96 5.52-2.48 7.92-4.32 4.72-3.6 8.08-8.16 9.2-14.16.8-4.08.4-8.24.48-12.4.16-4.96-4.88-10.08-9.84-10.08h-27.76c-5.6 0-9.36 3.76-9.36 9.36 0 2.64.16 5.28 0 7.92-.32 5.44 1.92 9.76 5.52 13.52 4.4 4.56 9.76 7.52 15.52 10 .56.24 1.12.32 1.12 1.2v11.36c0 .56-.16 1.04-.8.88-1.52-.4-2.08.64-2.64 1.68-.64 1.2-1.44 2.4-2.08 3.6-.32.56-.64.72-1.28.72-5.92 0-11.76 0-17.68-.32-.48 0-.88 0-.96-.64 0-.96-.64-1.04-1.44-1.04-4.08 0-8.16-.08-12.32-.08-.32 0-.8-.24-.88.32-.08.48-.16.96.24 1.44.72.72 1.36 1.44 2.16 2.08.96.8 1.36 1.68 1.44 2.96.08 1.76.4 3.44.72 5.12.32 1.44.72 1.84 2.08 1.44.96-.32 2-.4 2.16 1.12.24 2.08.88 4.08 1.6 6.08.88 2.64 1.92 5.28 3.6 7.52 1.92-2 2.08-4.32 2-6.8-.16-4.72-.08-9.36-.08-14.08.64.08 1.44.08 2.16.24 6.24 1.28 12.56 1.76 18.88 2 10.24.4 20.32-.48 30.4-2.24 1.12-.16 1.36.08 1.28 1.12-.08 4.8-.08 9.6-.16 14.4 0 2.24 1.52 3.6 2.56 5.44 1.6-4.24 3.2-8.24 4.72-12.24.88-2.32.88-2.32 3.28-2.32.72 0 1.28 0 1.44-.8 1.2-4.16 2.16-8.32 3.2-12.64m81.04 11.12c.08-.08.16-.16.24-.32-.08 0-.08-.08-.16-.08-.08.08-.16.24-.08.4-.16.08-.24.16-.32.24-.4 0-.64.16-.64.56-.16 0-.24.08-.4.08 0 .08.08.08.08.16l.24-.24c.32-.08.48-.32.64-.64.16 0 .24-.08.4-.16m-1.84 1.76c.08-.08.24-.08.08-.24 0 .08-.08.16-.08.24-.08 0-.16.08-.16.08.08 0 .08 0 .16-.08m-1.52 1.52.16-.16c-.16-.16-.16 0-.24.08 0 .08-.08.16-.08.16.08 0 .16 0 .16-.08m4.56-3.84c-2.96 3.6-6.32 6.72-9.68 9.84-7.92 7.36-16.48 13.92-25.52 19.84-9.52 6.32-19.52 11.84-29.92 16.64-7.36 3.36-14.88 6.4-22.56 8.88-7.44 2.4-15.04 4.32-22.8 5.6-8.64 1.44-17.36 2-26.08 1.12q-11.52-1.08-22.56-4.56c-2-.64-4-1.36-5.92-2-3.12-1.12-6.24-2.16-9.36-3.36-4.24-1.6-8.32-3.52-12.4-5.36-20.8-9.6-39.92-21.84-57.2-36.8-12.48-10.8-23.68-22.64-32.48-36.8-4.32-7.04-7.84-14.4-10-22.4-1.44-5.36-2-10.88-1.6-16.48 3.92-.64 7.84-1.36 11.84-1.68 8-.64 16-.56 24 .64 21.52 3.28 38.64 14.16 53.04 30.08.48.48.96 1.04 1.52 1.68 1.2-2.88 2.4-5.6 3.6-8.32 2.4-5.6 5.36-10.96 8.48-16.24 2.32-3.84 4.4-7.92 7.44-11.36 8.32-9.52 18.16-16.8 30.32-20.56 6.16-1.92 12.48-3.2 18.96-3.2 12.48 0 24.24 2.88 34.88 9.52 6.96 4.24 12.96 9.68 18.24 15.76 1.52 1.76 2.8 3.68 3.76 5.76 3.36 6.88 7.04 13.6 9.44 20.88.88 2.56 1.68 5.12 2.56 7.76 2.32-2.24 4.48-4.48 6.72-6.64 8.32-7.92 17.76-14.32 28.4-18.72 8.16-3.36 16.72-5.36 25.52-6.32 7.68-.8 15.28-.4 22.88.4 2.32.24 4.64.72 6.96 1.04.08 3.04-.16 6.08-.56 9.04-1.2 8.24-3.68 16.08-7.2 23.68-1.92 4.16-4.4 8-6.72 11.92-4.16 7.04-9.28 13.44-14.72 19.52-.16.16-.32.24-.48.4-.24-.64.56-.96.48-1.68-.64.56-1.28.88-1.36 1.76-.16.08-.48.08-.48.24-.08.4.24.32.48.4z"/>
  <path fill="#f28f1f" d="M111.36 75.12c2.4.72 4.88 1.76 7.2 2.96 5.04 2.48 9.92 5.44 14.56 8.64 4.48 3.12 8.64 6.48 12.8 10 5.68 4.8 11.12 10 16.4 15.28 3.12 3.12 6.08 6.48 9.12 9.68.64.64.64 1.12-.16 1.68-4.56 3.04-8.8 6.48-13.04 9.92-4.56 3.76-8.64 7.92-12.8 12.16-5.04 5.2-9.6 10.88-13.92 16.72-3.52 4.64-6.64 9.52-9.76 14.48-.16.24-.24.56-.64.56-.48 0-.56-.4-.64-.72-1.44-4.56-2.96-9.2-4.24-13.76-1.6-5.6-3.2-11.2-4.56-16.8-1.12-4.48-2.16-9.04-3.04-13.6-.64-3.44-1.28-6.88-1.84-10.4-.48-3.12-.88-6.32-1.12-9.44-.4-4.56-.8-9.12-.56-13.68.4-7.44 1.28-14.72 4.32-21.6.8-2 .96-2.24 1.92-2.08"/>
  <path fill="#f28b20" d="M389.84 89.04c.48 4.32 1.04 8.72.88 13.04-.16 4.88-.48 9.84-1.04 14.72-.8 7.36-2.16 14.64-3.76 21.84-1.44 6.56-3.12 13.12-5.04 19.6-1.6 5.76-3.44 11.36-5.2 17.12-.24.72-.56 1.92-.8 1.92-.88-.08-.96-1.04-1.36-1.68-2.8-4.4-5.68-8.64-8.72-12.8-2.96-3.92-6-7.84-9.12-11.6-4-4.72-8.48-8.96-12.8-13.36-.96-.96-2.32-1.6-3.04-2.88.24-.32.64-.64.8-1.04 1.92-4 4-7.84 6.32-11.6 3.44-5.68 7.28-11.2 11.76-16.16 4.72-5.2 10-9.68 16.32-12.88 4.56-2.4 9.52-4 14.8-4.24"/>
  <path fill="#1f1712" d="M150.96 236.64c.24-4.24.4-7.52 1.68-10.64.56-1.28 1.2-1.84 2.64-1.84 4.32-.08 8.24 1.28 12.08 2.96 12.64 5.44 24 12.96 35.28 20.8 4.32 3.04 8.08 6.72 10.56 11.52.64 1.28 1.04 2.56 1.28 3.92.24 1.6-.24 2.32-1.84 2.88-1.84.64-3.84.88-5.76.8-5.44-.16-10.8-1.04-16.08-2.16-5.28-1.2-10.48-2.64-15.6-4.56-7.84-2.96-15.28-6.4-21.44-12.32-1.44-1.44-2.56-2.88-2.48-5.12.08-2.4-.24-4.8-.32-6.24"/>
  <path fill="#1f1713" d="M349.76 237.2c-.08 2-.32 4-.24 6 0 1.52-.72 2.64-1.6 3.68-3.6 4-8.08 6.8-12.88 9.28-7.12 3.68-14.72 6.32-22.48 8.16-6.08 1.44-12.16 2.56-18.48 2.64-1.68 0-3.28-.32-4.88-.72-1.68-.4-2.24-1.36-2-2.88.8-5.04 3.92-8.72 7.36-12.16 4.4-4.32 9.68-7.44 14.8-10.8 6.32-4.16 12.72-8.16 19.44-11.52 4.8-2.4 9.6-4.64 14.96-5.12 3.92-.32 3.6-.32 4.88 3.68 1.2 3.12 1.12 6.4 1.12 9.76"/>
  <path fill="#f2991d" d="M389.84 89.04c-5.28.16-10.24 1.84-14.96 4.16-6.32 3.2-11.6 7.68-16.32 12.88-4.48 4.96-8.32 10.4-11.76 16.16-2.24 3.76-4.4 7.6-6.32 11.6-.16.4-.56.72-.8 1.04-1.76-.8-2.96-2.32-4.4-3.52-3.44-2.8-7.12-5.44-10.72-8.08-.96-.72-.8-1.12-.16-1.84 4.4-4.88 8.96-9.68 13.68-14.24 8.16-7.84 16.64-15.28 25.92-21.68 5.92-4.08 12.32-7.52 19.04-10.16 1.92-.8 2.16-.72 2.96 1.12 1.68 3.68 2.96 7.6 3.44 11.68.16.32.32.64.4.88"/>
  <path fill="#fffefe" d="M322.88 214.4c-6.56-.08-12-.32-17.36-1.92-4.96-1.44-7.12-4.64-6.64-9.84.48-5.68 3.52-10 7.44-13.68 2.24-2.08 4.64-4.08 7.6-5.2 5.12-1.84 9.92-.96 14.48 1.68 5.68 3.36 9.6 8.08 10.56 14.8.56 3.84-.32 7.44-2.48 10.72-1.52 2.32-3.84 2.88-6.32 3.04-2.72.16-5.52.56-7.28.4m-147.44 0c-3.6 0-6.88-.24-10.08-.48-2.88-.24-4.32-2.08-5.68-4.24-2.08-3.2-1.84-6.64-1.44-10.24.96-8.16 8.88-15.04 16.72-16.4 4.56-.8 8.64.4 12.32 3.2 4.24 3.28 8.08 6.88 9.68 12.16.96 3.44.72 6.96-.56 10.32-.72 1.84-2.32 2.8-4 3.44-2.8 1.04-5.76 1.6-8.72 1.84s-5.76.56-8.24.4"/>
  <path fill="#f6d9a7" d="M377.84 360.72c.08-.88.8-1.2 1.36-1.76.08.72-.72 1.04-.48 1.68v.08z"/>
  <path fill="#fffefe" d="M377.84 360.72h.8c-.16.32-.32.64-.72.72l-.08-.08z"/>
  <path fill="#1d1919" d="M295.68 350.8c-1.04 4.32-2.08 8.48-3.04 12.72-.16.8-.72.8-1.44.8-2.4 0-2.4 0-3.28 2.32-1.52 4-3.04 7.92-4.72 12.24-1.04-1.92-2.56-3.28-2.56-5.44.08-4.8.08-9.6.16-14.4 0-1.12-.16-1.36-1.28-1.12-10.08 1.76-20.16 2.64-30.4 2.24-6.32-.24-12.64-.72-18.88-2-.72-.16-1.44-.16-2.16-.24 0 4.72-.08 9.44.08 14.08.08 2.56-.08 4.88-2 6.8-1.68-2.24-2.72-4.88-3.6-7.52-.64-2-1.36-3.92-1.6-6.08-.16-1.52-1.2-1.36-2.16-1.12-1.44.4-1.84 0-2.08-1.44-.32-1.68-.64-3.44-.72-5.12-.08-1.28-.48-2.16-1.44-2.96-.8-.64-1.44-1.36-2.16-2.08-.4-.4-.32-.96-.24-1.44.08-.56.56-.32.88-.32 4.08 0 8.16.08 12.32.08.8 0 1.36.16 1.44 1.04 0 .64.48.64.96.64 5.92.32 11.76.32 17.68.32.64 0 1.04-.16 1.28-.72.64-1.2 1.44-2.4 2.08-3.6.56-1.04 1.12-2.08 2.64-1.68.72.16.8-.32.8-.88v-11.36c0-.8-.56-.96-1.12-1.2-5.76-2.48-11.12-5.52-15.52-10-3.6-3.76-5.84-8.08-5.52-13.52.16-2.64 0-5.28 0-7.92 0-5.6 3.76-9.36 9.36-9.36h27.76c4.96 0 10 5.12 9.84 10.08-.16 4.16.24 8.32-.48 12.4-1.12 6-4.4 10.56-9.2 14.16-2.4 1.84-5.04 3.36-7.92 4.32-.64.24-.8.56-.8 1.2v11.2c0 .8.24 1.12 1.04.96 1.2-.24 1.84.32 2.4 1.44.8 1.52 1.52 3.52 2.8 4.24s3.28.24 4.96.24c3.28 0 6.56 0 9.92.08 1.12 0 1.92-.16 2.32-1.28.16-.48.48-.8 1.12-.8z"/>
  <path fill="#171413" d="M252.4 363.76h13.92c.96 0 1.44.16 1.36 1.28-.08 2.16-1.68 4.16-3.84 4.72-.64.16-.88-.32-1.28-.64-2.64-2.24-2.64-2.24-4.88.4-.64.8-1.36 1.6-2 2.4-1.52 1.84-3.52 1.76-4.8-.32-.8-1.28-1.6-2.64-2.4-3.92-.32-.56-.72-.88-1.52-.96-2.32-.16-2.4-.24-3.12 2-.4 1.12-.88 1.2-1.84.8-1.36-.56-2.8-1.04-4.08-1.84-.48-.32-.8-.64-.8-1.28-.08-2.56-.16-2.56 2.4-2.56 4.4-.16 8.64-.16 12.88-.08"/>
  <path fill="#f6d9a7" d="M268.16 420.8c.96-.16 1.68-.64 2.56-.32-.8.4-1.52.64-2.56.32m4.48-.64c-.48.24-.88.32-1.36 0zm105.2-59.44v.64c-.16-.08-.56 0-.48-.4.08-.16.32-.24.48-.24m-2.08 2.08c0-.4.16-.64.64-.56-.16.24-.32.48-.64.56"/>
  <path fill="#f7ddb0" d="m375.76 362.8-.24.24c0-.08-.08-.08-.08-.16.08 0 .16-.08.32-.08m-4.4 4.24v.08s-.08.08-.16 0c-.16-.08-.16-.16 0-.16.08.08.16.08.16.08"/>
  <path fill="#f6d9a7" d="M376.64 361.84c.08-.16.08-.24.16-.4.08 0 .08.08.16.08-.08.16-.16.32-.32.32m-.24.32c.08-.08.16-.24.32-.32l.08.08c-.24.08-.32.16-.4.24"/>
  <path fill="#f7ddb0" d="M374.8 363.68c.08-.08.08-.16.16-.16.24.08 0 .16-.16.16m.08 0c-.08.08-.16.08-.16.16 0-.08.08-.16.16-.16m-.8.72v.08H374zm-.8.72c.08-.08.08-.24.24-.08l-.16.16z"/>
  <path fill="#f7ddb0" d="M373.44 365.2c-.08 0-.16.08-.16.08 0-.08.08-.16.08-.16-.08 0 .08.08.08.08m-.8.48v-.08zm-.96.88v-.08z"/>
</svg>
