<svg xmlns="http://www.w3.org/2000/svg" width="32" height="32" viewBox="0 0 48 48" fill="none">
    <rect width="48" height="48" fill="#000000"/>
    <circle cx="26.5" cy="24" r="11.5" fill="#F1F1F1"/>
    <path d="M5 8L29.6 27.6L43 40L18.1 28.2L5 8Z" fill="#F1F1F1"/>
    <path d="M10 12L33.2 29.6L46 38L29.8 33.4L10 12Z" fill="#000000"/>
    <path d="M28 15.4L40.5 18.7L35.4 24L42.4 30.7L34 29.2L30 36.7L25.6 28.5L28 15.4Z" fill="#000000"/>
    <path d="M29.8 16.8L38 19L33.2 23.9L38.7 29L32.8 27.8L29.9 33.5L27.1 28.2L29.8 16.8Z" fill="#F1F1F1"/>
    <path d="M8 9.3L18.2 14.1L14.4 15.1L8 9.3Z" fill="#F1F1F1"/>
    <path d="M34.2 35.4L42.3 37.8L36.1 33.2L34.2 35.4Z" fill="#F1F1F1"/>
</svg>
