<svg xmlns="http://www.w3.org/2000/svg" viewBox="0 0 400 400">
  <defs>
    <clipPath id="a">
      <circle cx="200" cy="200" r="200"/>
    </clipPath>
  </defs>
  <g clip-path="url(#a)">
    <path d="M0 0h400v400H0z"/>
    <path fill="#111" d="M182 77h1v1h-1zm17 0h2v1h-2zm-25 1h1v1h-1zm39 1h1v1h-1zm-75 3h1v1h-1zm19 0h1v1h-1zm-35 2h1v1h-1zm-5 2h1v1h-1zm-3 1h1v1h-1zm123 0h1v1h-1zM74 89h1v1h-1zm40 0h1v1h-1zm127 0h1v1h-1zM76 90h1v1h-1zm23 0h1v1h-1zm3 0h1v1h-1zm-24 1h1v1h-1zm38 0h1v1h-1zm21 0h1v1h-1zm-18 2h1v1h-1zm129 0h1v1h-1zM77 94h1v1h-1zm27 0h1v1h-1zm16 0h1v1h-1zm6 0h1v1h-1zm-13 1h1v1h-1zm-22 2h1v1h-1zm163 0h1v1h-1zM82 98h1v1h-1zm11 0h1v1h-1zm38 1h1v1h-1zm127 1h1v1h-1zm-143 1h1v1h-1zm17 0h1v1h-1zm-48 1h1v1h-1zm3 0h1v1h-1zm1 1h1v1h-1zm30 0h1v1h-1zm-13 1h1v1h-1zm13 1h1v1h-1zm-9 1h1v1h-1zm-68 1h1v1h-1zm52 0h1v1h-1zm18 0h1v1h-1zm155 0h1v1h-1zm-152 1h1v1h-1zm153 0h1v1h-1zm-221 1h1v1h-1zm-3 1h1v1h-1zm8 2h1v1h-1zm219 1h1v1h-1zm-221 2h1v1h-1zm7 0h1v1h-1zm53 2h1v1h-1zm3 1h1v1h-1zm173 0h1v1h-1zm-167 3h1v1h-1zm160 0h1v1h-1zm-211 1h1v1h-1zm53 0h1v1h-1zm-50 2h1v1h-1zm207 0h1v1h-1zm-216 2h1v1h-1zm230 0h1v1h-1zm-229 1h1v1h-1zm67 0h1v1h-1zm147 0h1v1h-1zm-200 1h1v1h-1zm55 0h1v1h-1zm2 1h1v1h-1zm7 4h1v1h-1zm-70 1h1v1h-1zm15 0h1v1h-1zm57 0h1v1h-1zm-77 1h1v1h-1zm5 4h1v1h-1zm6 0h1v1h-1zm17 0h1v1h-1zm-22 1h1v1h-1zm6 0h1v1h-1zm76 0h1v1h-1zm109 0h1v1h-1zm-190 1h1v1h-1zm-4 1h1v1h-1zm30 0h1v1h-1zm-18 1h1v1h-1zm1 1h1v1h-1zm-2 3h1v1h-1zm5 0h1v1h-1zm191 0h1v1h-1zm-202 1h1v1h-1zm7 0h1v1h-1zm5 0h1v1h-1zm22 0h1v1h-1zm55 0h1v1h-1zm114 0h1v1h-1zm-168 1h1v1h-1zm-21 1h1v1h-1zm22 0h1v1h-1zm169 0h1v1h-1zm1 1h1v1h-1zm-203 1h1v1h-1zm11 2h1v1h-1zm76 1h1v1h-1zm-83 2h1v1h-1zm38 1h1v1h-1zm167 0h1v1h-1zm-166 1h1v1h-1zm1 1h1v1h-1zm166 1h1v1h-1zm1 3h1v1h-1zm-104 1h1v1h-1zm98 1h1v1h-1zm24 0h1v1h-1zm-230 2h1v1h-1zm54 0h1v1h-1zm1 1h1v1h-1zm1 1h1v1h-1zm64 0h1v1h-1zm94 0h1v1h-1zm-32 1h1v1h-1zm-181 1h1v1h-1zm184 0h1v1h-1zm-6 1h1v1h-1zm-171 1h1v1h-1zm114 0h1v1h-1zm-115 1h1v1h-1zm171 0h1v1h-1zm31 0h1v1h-1zm7 0h1v1h-1zm-32 1h1v1h-1zm12 0h1v1h-1zm12 0h1v1h-1zm9 0h1v1h-1zm-41 1h1v1h-1zm23 0h1v1h-1zm-24 1h1v1h-1zm49 0h1v1h-1zm-51 2h1v1h-1zm6 0h1v1h-1zm-54 1h1v1h-1zm-56 1h1v1h-1zm102 0h1v1h-1zm30 0h1v1h-1zm-131 1h1v1h-1zm58 0h1v1h-1zm42 0h1v1h-1zm50 0h2v1h-2zm20 0h2v1h-2zm4 0h1v1h-1zm-75 1h1v1h-1zm50 0h1v1h-1zm-1 1h1v1h-1zm-85 1h1v1h-1zm44 1h1v1h-1zm-171 1h1v1h-1zm0 1h1v1h-1zm0 1h1v1h-1zm0 1h1v1h-1zm134 0h1v1h-1zm-134 1h1v1h-1zm207 0h1v1h-1zm34 1h1v1h-1zm-165 1h1v1h-1zm1 1h1v1h-1zm1 1h1v1h-1zm98 0h1v1h-1zm3 0h1v1h-1zm-18 1h1v1h-1zm4 0h1v1h-1zm16 1h1v1h-1zm-13 1h1v1h-1zm14 0h1v1h-1zm20 0h1v1h-1zm-37 1h1v1h-1zm6 1h1v1h-1zm29 1h1v1h-1zm-26 1h1v1h-1zm5 0h1v1h-1zm9 1h1v1h-1zm4 0h1v1h-1zm-92 1h1v1h-1zm77 0h1v1h-1zm2 0h1v1h-1zm10 0h1v1h-1zm9 0h1v1h-1zm-94 1h1v1h-1zm49 0h1v1h-1zm43 2h1v1h-1zm61 0h1v1h-1zm-143 1h1v1h-1zm-112 1h1v1h-1zm114 0h1v1h-1zm140 1h1v1h-1zm0 1h1v1h-1zm-94 1h1v1h-1zm3 2h1v1h-1zm-41 3h1v1h-1zm125 0h1v1h-1zm-56 2h1v1h-1zm55 0h1v1h-1zm-74 1h1v1h-1zm74 0h1v1h-1zm-52 1h1v1h-1zm52 0h1v1h-1zm-45 3h1v1h-1zm-22 1h1v1h-1zm67 0h1v1h-1zm9 0h1v1h-1zm-123 1h1v1h-1zm74 1h1v1h-1zm41 0h1v1h-1zm-111 1h1v1h-1zm47 0h1v1h-1zm58 0h1v1h-1zm-102 1h1v1h-1zm72 1h1v1h-1zm-66 1h1v1h-1zm-138 1h1v1h-1zm141 0h1v1h-1zm68 1h1v1h-1zm32 0h1v1h-1zm4 1h1v1h-1zm20 0h1v1h-1zm-16 1h1v1h-1zm-102 1h1v1h-1zm69 0h1v1h-1zm20 0h1v1h-1zm17 0h1v1h-1zm-32 2h1v1h-1zm2 1h1v1h-1zm9 0h1v1h-1zm-7 1h1v1h-1zm-72 1h1v1h-1zm81 0h1v1h-1zm-229 1h1v1h-1zm223 0h1v1h-1zm2 1h1v1h-1zm3 1h1v1h-1zm-30 2h1v1h-1zm-195 1h1v1h-1zm218 2h1v1h-1zm-55 1h1v1h-1zm39 1h1v1h-1zm-36 1h1v1h-1zm21 0h1v1h-1zm51 1h1v1h-1zm27 0h1v1h-1zm-68 1h1v1h-1zm9 0h1v1h-1zm19 0h2v1h-2zm20 0h1v1h-1zm23 1h1v1h-1zm-17 1h1v1h-1zm5 0h1v1h-1zm-54 1h1v1h-1zm27 0h1v1h-1zm-58 1h1v1h-1zm17 0h1v1h-1zm69 0h1v1h-1zm-248 1h1v1h-1zm204 0h1v1h-1zm23 0h1v1h-1zm-3 1h1v1h-1zm2 0h1v1h-1zm-29 1h1v1h-1zm10 0h1v1h-1zm-8 2h1v1h-1zm29 0h1v1h-1zm-61 1h1v1h-1zm44 0h1v1h-1zm27 3h1v1h-1zm23 0h1v1h-1zm-66 1h1v1h-1zm19 0h1v1h-1zm-65 1h1v1h-1zm23 0h1v1h-1zm-55 1h1v1h-1zm98 0h1v1h-1zm-203 1h1v1h-1zm141 0h1v1h-1zm-43 1h1v1h-1zm42 0h1v1h-1zm88 0h1v1h-1zm30 0h1v1h-1zm-53 1h1v1h-1zm24 0h1v1h-1zm-87 1h1v1h-1zm4 0h1v1h-1zm97 0h1v1h-1zm-74 1h1v1h-1zm19 0h1v1h-1zm18 0h1v1h-1zm-19 1h1v1h-1zm6 0h2v1h-2zm40 0h1v1h-1zm7 0h1v1h-1zm4 0h1v1h-1zm-93 1h1v1h-1zm36 0h1v1h-1zm57 0h1v1h-1zm-142 1h1v1h-1zm106 0h1v1h-1zm-54 1h1v1h-1zm22 0h1v1h-1zm34 0h1v1h-1zm-21 1h1v1h-1zm8 0h1v1h-1zm41 0h1v1h-1zm-155 1h1v1h-1zm31 0h1v1h-1zm35 0h1v1h-1zm74 0h1v1h-1zm-72 2h1v1h-1zm11 1h1v1h-1zm40 0h1v1h-1zm-181 1h1v1h-1zm52 1h1v1h-1zm8 0h1v1h-1zm74 0h1v1h-1zm77 0h1v1h-1zm14 0h1v1h-1zm-175 1h1v1h-1zm8 0h1v1h-1zm120 0h1v1h-1zm35 0h1v1h-1zm13 0h1v1h-1zm-148 1h1v1h-1zm137 0h1v1h-1zm-78 1h1v1h-1zm12 0h1v1h-1zm-74 1h1v1h-1zm2 1h2v1h-2zm75 0h1v1h-1zm-134 1h1v1h-1zm33 0h1v1h-1zm21 0h1v1h-1zm-24 2h1v1h-1zm90 0h1v1h-1zm19 0h1v1h-1zm-126 1h1v1h-1zm16 0h1v1h-1zm105 0h2v1h-2zm23 0h1v1h-1zm-46 1h1v1h-1zm12 0h1v1h-1zm14 0h1v1h-1zm-13 1h1v1h-1zm8 0h1v1h-1zm-7 1h1v1h-1zm36 0h1v1h-1zm-89 1h1v1h-1zm35 0h1v1h-1zm63 0h1v1h-1zm-133 1h1v1h-1zm53 0h1v1h-1zm10 0h1v1h-1zm-79 1h1v1h-1zm110 0h1v1h-1zm-27 1h1v1h-1zm5 1h1v1h-1zm42 0h1v1h-1zm-52 1h1v1h-1zm56 0h1v1h-1zm1 2h1v1h-1zm-54 1h1v1h-1zm56 0h1v1h-1zm-39 1h2v1h-2zm9 0h1v1h-1zm47 0h1v1h-1zm-50 1h1v1h-1zm8 0h1v1h-1zm28 0h1v1h-1zm4 1h1v1h-1zm-31 1h1v1h-1zm45 0h1v1h-1zm-50 3h1v1h-1zm7 0h1v1h-1zm36 0h1v1h-1zm-38 1h1v1h-1zm40 0h1v1h-1zm12 1h1v1h-1zm-48 1h1v1h-1zm51 1h1v1h-1zm-64 1h1v1h-1zm56 0h1v1h-1zm-44 1h1v1h-1zm6 0h1v1h-1zm22 0h1v1h-1zm-6 3h2v1h-2zm-19 3h1v1h-1zm23 1h1v1h-1zm-7 3h1v1h-1zm9 0h1v1h-1zm1 2h1v1h-1zm-9 2h1v1h-1zm11 1h1v1h-1z"/>
    <path fill="#222" d="M183 77h2v1h-2zm14 0h2v1h-2zm10 1h1v1h-1zm-38 1h1v1h-1zm48 1h1v1h-1zm4 1h1v1h-1zm-78 1h1v1h-1zm-20 2h1v1h-1zm14 0h1v1h-1zm93 0h1v1h-1zm-110 1h1v1h-1zm17 2h1v1h-1zm2 1h1v1h-1zm2 0h1v1h-1zm98 0h1v1h-1zM72 89h1v1h-1zm53 0h1v1h-1zm-25 2h1v1h-1zm4 0h1v1h-1zm-29 1h1v1h-1zm5 0h1v1h-1zm21 0h1v1h-1zm-25 1h1v1h-1zm6 0h1v1h-1zm60 0h1v1h-1zm-36 2h1v1h-1zm145 0h1v1h-1zm-136 1h1v1h-1zm8 0h2v1h-2zm-42 1h1v1h-1zm28 0h1v1h-1zm8 0h1v1h-1zm-5 2h1v1h-1zm-26 2h1v1h-1zm31 1h1v1h-1zm16 1h1v1h-1zm-26 2h1v1h-1zm-15 1h1v1h-1zm25 0h1v1h-1zm-75 1h1v1h-1zm74 0h1v1h-1zm-72 1h1v1h-1zm71 0h1v1h-1zm-73 1h1v1h-1zm55 1h1v1h-1zm-48 1h1v1h-1zm49 0h1v1h-1zm-51 2h1v1h-1zm1 1h1v1h-1zm6 0h1v1h-1zm48 0h1v1h-1zm1 1h1v1h-1zm178 0h1v1h-1zm-1 1h1v1h-1zm-221 1h1v1h-1zm47 0h2v1h-2zm178 0h1v1h-1zm-230 2h1v1h-1zm8 0h1v1h-1zm-7 1h1v1h-1zm9 0h1v1h-1zm204 0h1v1h-1zm-212 1h1v1h-1zm1 1h1v1h-1zm231 0h1v1h-1zm-230 1h1v1h-1zm64 0h1v1h-1zm145 0h1v1h-1zm-208 1h1v1h-1zm65 0h1v1h-1zm-64 1h1v1h-1zm66 0h1v1h-1zm140 1h1v1h-1zm-192 1h1v1h-1zm3 2h1v1h-1zm58 1h1v1h-1zm-55 1h1v1h-1zm57 0h1v1h-1zm138 0h1v1h-1zm-206 2h1v1h-1zm14 0h1v1h-1zm181 0h1v1h-1zm31 0h1v1h-1zm-232 1h1v1h-1zm-1 1h1v1h-1zm24 0h1v1h-1zm58 0h1v1h-1zm130 0h1v1h-1zm22 0h1v1h-1zm-230 1h1v1h-1zm22 0h1v1h-1zm58 0h1v1h-1zm-79 1h1v1h-1zm7 0h1v1h-1zm74 0h1v1h-1zm149 0h1v1h-1zm-206 1h1v1h-1zm182 1h1v1h-1zm25 0h1v1h-1zm-202 2h1v1h-1zm59 0h1v1h-1zm-82 1h1v1h-1zm84 0h1v1h-1zm-88 1h1v1h-1zm5 0h1v1h-1zm85 0h1v1h-1zm-58 1h1v1h-1zm60 0h1v1h-1zm139 0h1v1h-1zm-27 1h1v1h-1zm-169 1h1v1h-1zm170 0h1v1h-1zm-112 1h1v1h-1zm139 0h1v1h-1zm-227 2h1v1h-1zm7 0h1v1h-1zm196 0h1v1h-1zm-195 1h1v1h-1zm220 0h1v1h-1zm-219 1h1v1h-1zm5 0h1v1h-1zm22 0h1v1h-1zm-26 1h1v1h-1zm27 0h1v1h-1zm169 0h1v1h-1zm-203 1h1v1h-1zm8 0h1v1h-1zm27 0h1v1h-1zm169 0h1v1h-1zm-195 1h1v1h-1zm27 0h1v1h-1zm50 0h1v1h-1zm119 0h1v1h-1zm21 0h1v1h-1zm-29 1h1v1h-1zm-109 2h1v1h-1zm-84 1h1v1h-1zm86 0h1v1h-1zm137 1h1v1h-1zm-132 1h1v1h-1zm114 0h1v1h-1zm-165 1h1v1h-1zm53 0h1v1h-1zm104 0h1v1h-1zm-156 1h1v1h-1zm1 1h1v1h-1zm56 0h1v1h-1zm-55 1h1v1h-1zm57 0h1v1h-1zm-100 1h1v1h-1zm6 0h1v1h-1zm99 1h1v1h-1zm-111 1h1v1h-1zm7 0h1v1h-1zm6 0h1v1h-1zm100 0h1v1h-1zm117 0h1v1h-1zm-23 1h1v1h-1zm-200 1h1v1h-1zm111 0h1v1h-1zm96 0h1v1h-1zm-211 2h1v1h-1zm54 0h1v1h-1zm64 0h1v1h-1zm-63 1h1v1h-1zm121 0h1v1h-1zm36 0h1v1h-1zm-204 1h1v1h-1zm48 0h1v1h-1zm129 0h1v1h-1zm-128 1h1v1h-1zm1 1h1v1h-1zm-54 1h1v1h-1zm170 0h1v1h-1zm4 0h1v1h-1zm26 1h1v1h-1zm-27 1h1v1h-1zm22 0h1v1h-1zm-78 1h1v1h-1zm71 1h1v1h-1zm3 1h1v1h-1zm-71 1h1v1h-1zm95 1h4v1h-4zm12 0h6v1h-6zm-163 1h1v1h-1zm59 0h1v1h-1zm76 0h1v1h-1zm-134 1h1v1h-1zm105 0h1v1h-1zm32 0h1v1h-1zm-136 1h1v1h-1zm1 1h1v1h-1zm98 0h1v1h-1zm45 0h1v1h-1zm-142 1h1v1h-1zm61 0h1v1h-1zm37 0h1v1h-1zm43 0h1v1h-1zm-37 1h1v1h-1zm67 0h1v1h-1zm-107 1h1v1h-1zm36 0h1v1h-1zm5 0h1v1h-1zm29 0h1v1h-1zm-28 1h1v1h-1zm33 0h1v1h-1zm-50 1h1v1h-1zm18 0h1v1h-1zm-39 1h1v1h-1zm24 1h1v1h-1zm45 0h1v1h-1zm-66 1h1v1h-1zm18 0h1v1h-1zm41 0h1v1h-1zm6 0h1v1h-1zm-41 1h1v1h-1zm-85 1h1v1h-1zm64 0h1v1h-1zm34 0h1v1h-1zm-97 1h1v1h-1zm64 0h1v1h-1zm18 0h1v1h-1zm5 0h1v1h-1zm36 0h1v1h-1zm39 0h1v1h-1zm-161 1h1v1h-1zm66 1h1v1h-1zm23 0h1v1h-1zm25 0h1v1h-1zm-110 1h1v1h-1zm100 0h1v1h-1zm16 0h1v1h-1zm-15 1h1v1h-1zm-185 1h1v1h-1zm91 0h1v1h-1zm95 0h1v1h-1zm-186 1h1v1h-1zm95 0h1v1h-1zm83 0h1v1h-1zm20 0h1v1h-1zm44 0h1v1h-1zm-71 1h1v1h-1zm18 0h1v1h-1zm-83 2h1v1h-1zm90 0h1v1h-1zm-86 1h1v1h-1zm65 0h1v1h-1zm81 1h1v1h-1zm-78 1h1v1h-1zm16 0h1v1h-1zm-36 1h1v1h-1zm24 2h1v1h-1zm12 1h1v1h-1zm-9 1h1v1h-1zm-19 1h1v1h-1zm29 1h1v1h-1zm-26 1h1v1h-1zm86 0h1v1h-1zm-131 1h1v1h-1zm1 1h1v1h-1zm47 0h1v1h-1zm24 0h1v1h-1zm-70 1h1v1h-1zm-122 1h1v1h-1zm255 0h1v1h-1zm-83 1h1v1h-1zm20 0h1v1h-1zm3 0h1v1h-1zm48 0h1v1h-1zm0 1h1v1h-1zm10 0h1v1h-1zm-252 1h1v1h-1zm174 0h1v1h-1zm20 0h1v1h-1zm48 0h1v1h-1zm-43 1h1v1h-1zm-198 2h1v1h-1zm128 0h1v1h-1zm49 0h1v1h-1zm20 0h1v1h-1zm6 1h1v1h-1zm-23 1h1v1h-1zm20 0h1v1h-1zm-63 1h1v1h-1zm46 1h1v1h-1zm21 1h1v1h-1zm-59 1h1v1h-1zm41 0h1v1h-1zm54 0h1v1h-1zm-237 1h1v1h-1zm143 0h1v1h-1zm61 0h1v1h-1zm6 0h1v1h-1zm22 0h1v1h-1zm4 0h1v1h-1zm29 0h1v1h-1zm-79 1h1v1h-1zm-185 1h1v1h-1zm258 0h1v1h-1zm-112 1h1v1h-1zm42 0h1v1h-1zm19 0h1v1h-1zm51 0h1v1h-1zm-257 1h1v1h-1zm146 0h1v1h-1zm44 1h1v1h-1zm19 0h1v1h-1zm23 0h1v1h-1zm-231 1h1v1h-1zm259 0h1v1h-1zm8 0h1v1h-1zm-75 1h1v1h-1zm-42 1h1v1h-1zm62 0h1v1h-1zm15 0h1v1h-1zm3 0h1v1h-1zm-35 1h1v1h-1zm20 1h1v1h-1zm-61 1h1v1h-1zm44 0h1v1h-1zm31 0h1v1h-1zm-74 1h1v1h-1zm64 1h1v1h-1zm-60 1h1v1h-1zm43 0h1v1h-1zm-39 1h1v1h-1zm68 1h1v1h-1zm-62 1h1v1h-1zm57 1h1v1h-1zm45 0h1v1h-1zm-28 1h2v1h-2zm9 0h1v1h-1zm-243 1h1v1h-1zm182 0h1v1h-1zm9 0h1v1h-1zm52 0h1v1h-1zm17 0h1v1h-1zm-79 1h1v1h-1zm13 0h1v1h-1zm27 0h1v1h-1zm29 0h1v1h-1zm-86 1h1v1h-1zm40 0h1v1h-1zm43 0h1v1h-1zm-82 1h1v1h-1zm78 0h1v1h-1zm-36 1h1v1h-1zm32 0h1v1h-1zm-55 1h1v1h-1zm-179 1h1v1h-1zm180 0h1v1h-1zm1 1h1v1h-1zm53 0h1v1h-1zm-114 1h1v1h-1zm62 0h1v1h-1zm82 0h1v1h-1zm-99 1h1v1h-1zm44 0h1v1h-1zm26 0h1v1h-1zm31 0h1v1h-1zm-67 1h1v1h-1zm-86 1h1v1h-1zm87 0h1v1h-1zm36 0h1v1h-1zm14 0h1v1h-1zm11 0h1v1h-1zm-60 1h1v1h-1zm30 0h1v1h-1zm29 0h1v1h-1zm-115 1h1v1h-1zm44 0h1v1h-1zm24 0h1v1h-1zm53 0h1v1h-1zm-144 1h1v1h-1zm24 0h1v1h-1zm57 0h1v1h-1zm35 0h1v1h-1zm24 0h1v1h-1zm-144 1h1v1h-1zm4 0h1v1h-1zm27 0h1v1h-1zm50 0h1v1h-1zm15 0h1v1h-1zm21 0h1v1h-1zm4 0h1v1h-1zm-229 1h1v1h-1zm162 0h1v1h-1zm43 1h1v1h-1zm-102 1h1v1h-1zm14 0h1v1h-1zm27 0h1v1h-1zm21 0h1v1h-1zm78 0h1v1h-1zm-7 1h1v1h-1zm-231 1h1v1h-1zm163 0h1v1h-1zm39 0h1v1h-1zm24 0h1v1h-1zm-87 1h1v1h-1zm-33 1h1v1h-1zm34 0h1v1h-1zm63 0h1v1h-1zm-199 1h1v1h-1zm108 0h1v1h-1zm29 0h1v1h-1zm27 0h1v1h-1zm62 0h1v1h-1zm8 0h1v1h-1zm-68 1h1v1h-1zm21 0h1v1h-1zm-184 1h1v1h-1zm104 0h1v1h-1zm81 0h1v1h-1zm-40 1h1v1h-1zm-142 1h1v1h-1zm210 0h1v1h-1zm15 0h1v1h-1zm-80 1h1v1h-1zm22 0h1v1h-1zm13 0h1v1h-1zm4 0h1v1h-1zm29 0h1v1h-1zm-129 1h1v1h-1zm85 0h1v1h-1zm14 0h1v1h-1zm-84 1h1v1h-1zm39 0h1v1h-1zm91 0h1v1h-1zm-154 1h1v1h-1zm75 0h1v1h-1zm22 0h1v1h-1zm47 1h1v1h-1zm-150 1h1v1h-1zm9 0h1v1h-1zm64 0h1v1h-1zm11 0h1v1h-1zm22 0h1v1h-1zm-120 1h1v1h-1zm9 0h1v1h-1zm7 0h1v1h-1zm163 0h1v1h-1zm-181 1h1v1h-1zm20 0h1v1h-1zm12 0h1v1h-1zm-66 1h1v1h-1zm32 0h1v1h-1zm10 0h1v1h-1zm14 0h1v1h-1zm10 0h1v1h-1zm13 0h1v1h-1zm60 0h1v1h-1zm-136 1h1v1h-1zm55 0h1v1h-1zm84 1h1v1h-1zm-132 1h1v1h-1zm28 0h1v1h-1zm23 0h1v1h-1zm150 0h1v1h-1zm-197 1h1v1h-1zm10 0h1v1h-1zm-2 1h1v1h-1zm92 0h1v1h-1zm7 0h2v1h-2zm18 0h1v1h-1zm8 0h1v1h-1zm-113 1h1v1h-1zm77 0h1v1h-1zm7 0h1v1h-1zm20 0h1v1h-1zm-30 1h1v1h-1zm6 0h1v1h-1zm31 0h1v1h-1zm5 0h1v1h-1zm-119 1h1v1h-1zm20 0h1v1h-1zm62 0h1v1h-1zm-83 1h1v1h-1zm17 0h1v1h-1zm106 0h1v1h-1zm15 0h1v1h-1zm-140 1h1v1h-1zm50 0h1v1h-1zm30 0h1v1h-1zm-71 1h1v1h-1zm52 0h2v1h-2zm20 0h1v1h-1zm44 0h1v1h-1zm18 0h1v1h-1zm-144 1h1v1h-1zm2 0h2v1h-2zm109 0h1v1h-1zm17 0h1v1h-1zm3 0h1v1h-1zm14 0h1v1h-1zm2 1h1v1h-1zm-63 1h1v1h-1zm21 0h1v1h-1zm43 0h1v1h-1zm-69 1h1v1h-1zm5 0h1v1h-1zm49 0h1v1h-1zm3 0h1v1h-1zm-56 1h1v1h-1zm26 0h1v1h-1zm45 0h1v1h-1zm-69 1h1v1h-1zm11 0h1v1h-1zm46 0h1v1h-1zm13 0h1v1h-1zm-52 1h1v1h-1zm38 0h1v1h-1zm17 1h1v1h-1zm-14 1h1v1h-1zm15 0h1v1h-1zm-10 1h1v1h-1zm-32 1h1v1h-1zm45 0h1v1h-1zm-17 1h1v1h-1zm-33 1h1v1h-1zm3 0h1v1h-1zm50 0h1v1h-1zm-57 1h1v1h-1zm58 0h1v1h-1zm-8 1h1v1h-1zm-41 1h1v1h-1zm52 0h1v1h-1zm-48 1h1v1h-1zm49 0h1v1h-1zm2 1h1v1h-1zm-7 1h1v1h-1zm-25 1h1v1h-1zm7 0h1v1h-1zm-38 1h1v1h-1zm34 2h1v1h-1zm-32 1h1v1h-1zm28 0h1v1h-1zm-27 1h1v1h-1zm26 1h1v1h-1zm0 1h1v1h-1zm0 1h1v1h-1zm1 2h1v1h-1zm5 2h1v1h-1z"/>
    <path fill="#333" d="M185 77h2v1h-2zm10 0h2v1h-2zm-20 1h1v1h-1zm-36 3h1v1h-1zm22 0h1v1h-1zm63 1h1v1h-1zm-81 1h1v1h-1zm84 0h1v1h-1zm-75 1h1v1h-1zm80 1h1v1h-1zm-89 1h1v1h-1zm-5 1h1v1h-1zm4 0h1v1h-1zm-28 1h1v1h-1zm26 0h1v1h-1zm-67 2h1v1h-1zm52 0h1v1h-1zm-51 1h1v1h-1zm43 0h1v1h-1zm23 0h1v1h-1zm-34 1h1v1h-1zm12 0h1v1h-1zm23 0h1v1h-1zm105 0h1v1h-1zm-143 1h1v1h-1zm31 0h1v1h-1zm12 0h1v1h-1zm-62 1h1v1h-1zm21 0h1v1h-1zm-26 1h1v1h-1zm43 0h1v1h-1zm3 0h1v1h-1zm6 0h1v1h-1zm-51 1h1v1h-1zm28 0h1v1h-1zm3 2h1v1h-1zm8 0h1v1h-1zm12 0h1v1h-1zm-47 1h1v1h-1zm37 0h1v1h-1zm-36 1h1v1h-1zm29 0h1v1h-1zm9 0h1v1h-1zm136 1h1v1h-1zm1 1h1v1h-1zm-141 1h1v1h-1zm10 0h1v1h-1zm-39 1h1v1h-1zm41 0h1v1h-1zm-40 1h1v1h-1zm5 4h1v1h-1zm-50 3h1v1h-1zm224 0h1v1h-1zm-169 1h1v1h-1zm168 3h1v1h-1zm-217 1h1v1h-1zm58 0h1v1h-1zm-57 1h1v1h-1zm60 0h1v1h-1zm2 1h1v1h-1zm164 0h1v1h-1zm-162 1h1v1h-1zm-52 1h1v1h-1zm54 0h1v1h-1zm2 1h1v1h-1zm157 0h1v1h-1zm-210 1h1v1h-1zm3 2h1v1h-1zm206 0h1v1h-1zm13 0h1v1h-1zm-162 1h1v1h-1zm2 1h1v1h-1zm146 1h1v1h-1zm16 0h1v1h-1zm-27 1h1v1h-1zm-197 3h1v1h-1zm71 0h1v1h-1zm136 0h1v1h-1zm-134 1h1v1h-1zm-78 3h1v1h-1zm10 0h1v1h-1zm190 0h1v1h-1zm11 0h1v1h-1zm-206 2h1v1h-1zm82 0h1v1h-1zm-56 2h1v1h-1zm179 0h1v1h-1zm-174 3h1v1h-1zm-29 1h1v1h-1zm5 0h1v1h-1zm-4 1h1v1h-1zm5 0h1v1h-1zm12 7h1v1h-1zm75 1h1v1h-1zm-85 1h1v1h-1zm36 1h1v1h-1zm169 0h1v1h-1zm-168 1h1v1h-1zm169 0h1v1h-1zm-8 2h1v1h-1zm-194 1h1v1h-1zm88 0h1v1h-1zm7 3h1v1h-1zm-100 1h1v1h-1zm2 0h1v1h-1zm208 0h1v1h-1zm-207 1h1v1h-1zm-5 1h1v1h-1zm50 0h1v1h-1zm59 0h1v1h-1zm-109 1h1v1h-1zm213 0h1v1h-1zm-97 2h1v1h-1zm114 0h1v1h-1zm-216 1h1v1h-1zm-9 1h1v1h-1zm175 0h1v1h-1zm28 0h1v1h-1zm-25 1h1v1h-1zm32 0h1v1h-1zm-201 1h1v1h-1zm177 2h1v1h-1zm25 0h1v1h-1zm-22 1h1v1h-1zm-132 1h1v1h-1zm61 0h1v1h-1zm-116 1h1v1h-1zm56 0h1v1h-1zm158 0h1v1h-1zm-157 1h1v1h-1zm125 0h1v1h-1zm-124 1h1v1h-1zm127 0h1v1h-1zm36 0h1v1h-1zm-28 3h1v1h-1zm-22 1h1v1h-1zm25 0h1v1h-1zm23 0h8v1h-8zm-94 2h1v1h-1zm113 0h1v1h-1zm-68 1h1v1h-1zm-42 1h1v1h-1zm76 0h1v1h-1zm-33 1h1v1h-1zm-102 1h1v1h-1zm62 0h1v1h-1zm36 0h1v1h-1zm-97 1h1v1h-1zm84 0h1v1h-1zm54 0h1v1h-1zm-137 1h1v1h-1zm98 0h1v1h-1zm32 0h1v1h-1zm-66 1h1v1h-1zm20 0h1v1h-1zm15 0h1v1h-1zm1 1h1v1h-1zm5 0h1v1h-1zm-38 1h1v1h-1zm20 2h1v1h-1zm39 0h1v1h-1zm6 1h1v1h-1zm-58 2h1v1h-1zm32 0h1v1h-1zm6 1h1v1h-1zm18 0h1v1h-1zm-36 1h1v1h-1zm28 0h1v1h-1zm-106 1h1v1h-1zm62 0h1v1h-1zm23 0h1v1h-1zm-22 1h1v1h-1zm18 0h1v1h-1zm7 1h1v1h-1zm-77 1h1v1h-1zm79 0h1v1h-1zm13 0h1v1h-1zm-88 1h1v1h-1zm70 0h1v1h-1zm-63 2h1v1h-1zm48 2h1v1h-1zm22 1h1v1h-1zm-19 1h1v1h-1zm34 1h1v1h-1zm-192 1h1v1h-1zm116 0h1v1h-1zm45 0h1v1h-1zm23 2h1v1h-1zm9 0h1v1h-1zm-6 2h1v1h-1zm60 0h1v1h-1zm-78 1h1v1h-1zm25 0h1v1h-1zm-3 2h1v1h-1zm-66 1h1v1h-1zm48 0h1v1h-1zm-47 1h1v1h-1zm73 1h1v1h-1zm-1 2h1v1h-1zm-18 1h1v1h-1zm24 0h1v1h-1zm36 1h1v1h-1zm-106 1h1v1h-1zm49 0h1v1h-1zm66 0h1v1h-1zm-244 1h1v1h-1zm132 0h1v1h-1zm3 1h1v1h-1zm46 0h1v1h-1zm19 0h1v1h-1zm-62 1h1v1h-1zm69 0h1v1h-1zm-66 1h1v1h-1zm43 0h1v1h-1zm50 1h1v1h-1zm7 0h1v1h-1zm-54 1h1v1h-1zm58 0h1v1h-1zm-99 1h1v1h-1zm61 0h1v1h-1zm42 0h1v1h-1zm17 0h1v1h-1zm7 0h1v1h-1zm-83 1h1v1h-1zm63 0h1v1h-1zm12 0h1v1h-1zm-28 1h1v1h-1zm-44 1h1v1h-1zm40 0h1v1h-1zm40 0h1v1h-1zm-122 1h1v1h-1zm112 0h1v1h-1zm-49 1h1v1h-1zm22 0h1v1h-1zm-80 3h1v1h-1zm112 0h1v1h-1zm-260 2h1v1h-1zm213 0h1v1h-1zm13 1h1v1h-1zm-73 1h1v1h-1zm45 0h1v1h-1zm28 1h1v1h-1zm-63 2h1v1h-1zm39 0h1v1h-1zm18 0h1v1h-1zm12 2h1v1h-1zm-26 1h1v1h-1zm18 0h1v1h-1zm18 0h1v1h-1zm-53 1h1v1h-1zm7 0h1v1h-1zm-27 1h1v1h-1zm62 3h1v1h-1zm15 0h1v1h-1zm-30 2h1v1h-1zm-204 1h1v1h-1zm121 0h1v1h-1zm41 0h1v1h-1zm61 0h1v1h-1zm-60 1h1v1h-1zm85 1h1v1h-1zm-134 1h1v1h-1zm113 0h1v1h-1zm35 0h1v1h-1zm-51 1h1v1h-1zm-68 1h1v1h-1zm2 1h1v1h-1zm56 0h1v1h-1zm30 0h1v1h-1zm-112 1h2v1h-2zm7 0h1v1h-1zm68 0h1v1h-1zm-186 1h1v1h-1zm118 0h1v1h-1zm20 0h1v1h-1zm53 0h1v1h-1zm-52 1h1v1h-1zm3 0h1v1h-1zm90 0h1v1h-1zm11 0h1v1h-1zm-143 1h1v1h-1zm6 0h1v1h-1zm58 0h1v1h-1zm43 1h1v1h-1zm-60 1h1v1h-1zm20 0h1v1h-1zm-17 2h1v1h-1zm20 0h1v1h-1zm63 0h1v1h-1zm-61 1h1v1h-1zm21 0h2v1h-2zm41 0h1v1h-1zm-135 1h1v1h-1zm5 0h1v1h-1zm92 0h1v1h-1zm-97 1h1v1h-1zm49 0h1v1h-1zm7 0h1v1h-1zm35 0h1v1h-1zm47 0h1v1h-1zm-88 1h1v1h-1zm28 0h1v1h-1zm-27 1h1v1h-1zm29 0h1v1h-1zm36 0h1v1h-1zm-131 1h1v1h-1zm76 0h1v1h-1zm21 0h1v1h-1zm12 0h1v1h-1zm-175 1h1v1h-1zm64 0h1v1h-1zm5 0h1v1h-1zm29 0h1v1h-1zm-36 1h1v1h-1zm83 0h1v1h-1zm21 0h1v1h-1zm-106 1h1v1h-1zm22 0h1v1h-1zm86 0h1v1h-1zm46 0h1v1h-1zm-77 1h1v1h-1zm91 0h1v1h-1zm-153 1h1v1h-1zm96 0h1v1h-1zm58 0h1v1h-1zm-219 1h1v1h-1zm2 1h1v1h-1zm129 0h1v1h-1zm12 0h1v1h-1zm21 0h1v1h-1zm-95 1h1v1h-1zm96 0h1v1h-1zm58 0h1v1h-1zm-92 1h1v1h-1zm-94 1h1v1h-1zm11 0h1v1h-1zm16 0h1v1h-1zm22 0h1v1h-1zm129 0h1v1h-1zm-180 1h1v1h-1zm31 0h1v1h-1zm-33 1h1v1h-1zm134 0h1v1h-1zm-123 1h1v1h-1zm79 0h1v1h-1zm45 0h1v1h-1zm-141 1h1v1h-1zm40 0h1v1h-1zm63 0h1v1h-1zm4 0h1v1h-1zm-8 1h1v1h-1zm23 0h1v1h-1zm22 0h1v1h-1zm-131 1h1v1h-1zm71 1h1v1h-1zm35 0h1v1h-1zm8 0h1v1h-1zm5 0h1v1h-1zm-52 1h1v1h-1zm49 0h1v1h-1zm-107 1h1v1h-1zm53 0h1v1h-1zm12 0h1v1h-1zm7 0h1v1h-1zm24 0h1v1h-1zm13 0h1v1h-1zm4 0h1v1h-1zm-77 1h1v1h-1zm10 0h1v1h-1zm18 0h1v1h-1zm-78 1h1v1h-1zm87 0h1v1h-1zm16 0h1v1h-1zm25 1h1v1h-1zm-41 1h1v1h-1zm43 0h1v1h-1zm-43 1h1v1h-1zm61 0h1v1h-1zm-13 2h1v1h-1zm-24 1h1v1h-1zm29 0h1v1h-1zm-2 1h1v1h-1zm-26 1h1v1h-1zm35 2h1v1h-1zm12 1h1v1h-1zm-50 1h1v1h-1zm-4 1h1v1h-1zm10 0h1v1h-1zm-13 2h1v1h-1zm40 0h1v1h-1zm-38 3h1v1h-1zm33 1h1v1h-1zm26 0h1v1h-1zm-47 1h1v1h-1zm-10 1h1v1h-1zm30 1h1v1h-1zm-19 2h1v1h-1zm25 3h1v1h-1zm-1 4h1v1h-1z"/>
    <path fill="#444" d="M187 77h2v1h-2zm5 0h3v1h-3zm14 1h1v1h-1zm6 1h1v1h-1zm-71 1h1v1h-1zm24 0h1v1h-1zm-23 1h1v1h-1zm16 1h1v1h-1zm-3 1h1v1h-1zm-31 2h1v1h-1zm0 1h1v1h-1zm-9 1h1v1h-1zm0 2h1v1h-1zm1 1h1v1h-1zm9 1h1v1h-1zm-23 1h1v1h-1zm34 0h1v1h-1zm-28 1h1v1h-1zm-30 1h1v1h-1zm32 0h1v1h-1zm11 0h1v1h-1zm23 0h1v1h-1zm105 0h1v1h-1zM86 95h1v1h-1zm169 3h1v1h-1zM94 99h1v1h-1zm19 0h1v1h-1zm-17 1h1v1h-1zm2 1h1v1h-1zm18 0h1v1h-1zm9 0h1v1h-1zm2 1h1v1h-1zm-38 1h1v1h-1zm13 0h1v1h-1zm31 1h1v1h-1zm-38 4h1v1h-1zm18 0h1v1h-1zm-66 2h1v1h-1zm-2 1h1v1h-1zm55 1h1v1h-1zm-50 3h1v1h-1zm232 0h1v1h-1zm-231 1h1v1h-1zm6 0h1v1h-1zm48 0h1v1h-1zm178 0h1v1h-1zm-172 1h1v1h-1zm169 0h1v1h-1zm-12 2h1v1h-1zm11 1h1v1h-1zm8 1h1v1h-1zm-164 2h1v1h-1zm-48 5h1v1h-1zm57 0h1v1h-1zm-67 1h1v1h-1zm69 0h1v1h-1zm142 0h1v1h-1zm-210 1h1v1h-1zm12 0h1v1h-1zm-11 1h1v1h-1zm208 2h1v1h-1zm-213 1h1v1h-1zm81 0h1v1h-1zm-71 1h1v1h-1zm73 0h1v1h-1zm2 1h1v1h-1zm-83 1h1v1h-1zm25 0h1v1h-1zm185 0h1v1h-1zm-209 1h1v1h-1zm1 1h1v1h-1zm86 0h1v1h-1zm110 0h1v1h-1zm-108 1h1v1h-1zm2 1h1v1h-1zm117 0h1v1h-1zm-115 1h1v1h-1zm141 0h1v1h-1zm-137 4h1v1h-1zm-57 1h1v1h-1zm-30 3h1v1h-1zm197 3h1v1h-1zm1 1h1v1h-1zm-109 2h1v1h-1zm-48 1h1v1h-1zm169 0h1v1h-1zm-117 1h1v1h-1zm118 1h1v1h-1zm-203 1h1v1h-1zm221 0h1v1h-1zm-220 1h1v1h-1zm91 0h1v1h-1zm-90 1h1v1h-1zm202 0h1v1h-1zm-201 1h1v1h-1zm96 1h1v1h-1zm106 1h1v1h-1zm-162 1h1v1h-1zm1 1h1v1h-1zm62 0h1v1h-1zm-107 1h1v1h-1zm207 0h1v1h-1zm-199 3h1v1h-1zm171 1h1v1h-1zm23 0h1v1h-1zm-87 1h1v1h-1zm-113 1h1v1h-1zm188 2h1v1h-1zm21 0h1v1h-1zm-32 1h1v1h-1zm14 0h1v1h-1zm6 1h1v1h-1zm19 0h1v1h-1zm-45 1h1v1h-1zm50 0h1v1h-1zm-164 1h1v1h-1zm1 1h1v1h-1zm112 0h1v1h-1zm18 0h1v1h-1zm-68 2h1v1h-1zm40 2h1v1h-1zm-35 1h1v1h-1zm77 0h1v1h-1zm7 0h1v1h-1zm-77 5h1v1h-1zm22 0h1v1h-1zm-84 1h1v1h-1zm128 0h1v1h-1zm-127 1h1v1h-1zm86 0h1v1h-1zm47 0h1v1h-1zm-132 1h1v1h-1zm82 0h1v1h-1zm16 0h1v1h-1zm5 0h1v1h-1zm63 0h1v1h-1zm-78 1h1v1h-1zm11 0h1v1h-1zm-32 1h1v1h-1zm24 1h1v1h-1zm-3 2h1v1h-1zm6 0h1v1h-1zm14 0h1v1h-1zm59 0h1v1h-1zm-160 1h1v1h-1zm67 1h1v1h-1zm23 0h1v1h-1zm-171 1h1v1h-1zm199 1h1v1h-1zm-105 1h1v1h-1zm57 0h1v1h-1zm18 0h1v1h-1zm-17 1h1v1h-1zm90 0h1v1h-1zm-45 1h1v1h-1zm-92 1h1v1h-1zm152 0h1v1h-1zm-256 2h1v1h-1zm111 0h1v1h-1zm44 0h1v1h-1zm20 0h1v1h-1zm19 0h1v1h-1zm-81 1h1v1h-1zm142 0h1v1h-1zm-62 1h1v1h-1zm-78 1h1v1h-1zm64 0h1v1h-1zm14 0h1v1h-1zm-77 1h1v1h-1zm66 1h1v1h-1zm-64 1h1v1h-1zm1 1h1v1h-1zm48 1h1v1h-1zm19 0h1v1h-1zm-184 1h1v1h-1zm187 1h1v1h-1zm69 0h1v1h-1zm-62 2h1v1h-1zm-68 3h1v1h-1zm49 0h1v1h-1zm19 0h1v1h-1zm-67 1h1v1h-1zm1 1h1v1h-1zm50 0h1v1h-1zm20 1h1v1h-1zm41 0h1v1h-1zm6 0h1v1h-1zm7 0h1v1h-1zm-6 1h1v1h-1zm-45 1h1v1h-1zm49 0h1v1h-1zm-42 1h1v1h-1zm-3 2h1v1h-1zm8 1h1v1h-1zm-66 1h1v1h-1zm61 0h1v1h-1zm66 1h1v1h-1zm-54 1h1v1h-1zm22 0h1v1h-1zm10 0h1v1h-1zm-101 1h1v1h-1zm61 0h1v1h-1zm10 0h1v1h-1zm34 0h1v1h-1zm12 0h1v1h-1zm-44 1h1v1h-1zm36 0h1v1h-1zm-45 1h1v1h-1zm12 0h1v1h-1zm39 0h1v1h-1zm-110 2h1v1h-1zm44 0h1v1h-1zm19 1h1v1h-1zm13 0h1v1h-1zm-29 1h1v1h-1zm-192 1h1v1h-1zm211 0h1v1h-1zm17 0h1v1h-1zm35 0h1v1h-1zm-113 1h1v1h-1zm45 0h1v1h-1zm20 2h1v1h-1zm12 1h1v1h-1zm-224 1h1v1h-1zm153 0h1v1h-1zm62 0h1v1h-1zm-58 1h1v1h-1zm59 0h1v1h-1zm-56 1h1v1h-1zm-158 1h1v1h-1zm217 0h1v1h-1zm9 0h1v1h-1zm-25 1h1v1h-1zm62 0h1v1h-1zm-24 1h1v1h-1zm-53 1h1v1h-1zm5 0h1v1h-1zm30 0h1v1h-1zm-218 1h1v1h-1zm192 0h1v1h-1zm10 0h1v1h-1zm-21 1h1v1h-1zm13 0h1v1h-1zm27 0h1v1h-1zm26 0h1v1h-1zm-4 1h1v1h-1zm-3 1h1v1h-1zm-15 1h1v1h-1zm-97 1h1v1h-1zm38 0h1v1h-1zm32 0h1v1h-1zm1 1h1v1h-1zm53 0h1v1h-1zm-246 1h1v1h-1zm206 0h1v1h-1zm17 0h1v1h-1zm-222 1h1v1h-1zm180 0h1v1h-1zm1 1h1v1h-1zm52 0h1v1h-1zm-109 1h1v1h-1zm102 0h1v1h-1zm33 0h1v1h-1zm-256 1h1v1h-1zm121 0h1v1h-1zm110 0h1v1h-1zm-230 1h1v1h-1zm120 0h1v1h-1zm63 0h1v1h-1zm-182 1h1v1h-1zm140 0h1v1h-1zm21 0h1v1h-1zm64 0h1v1h-1zm31 1h1v1h-1zm-147 1h1v1h-1zm10 0h1v1h-1zm88 0h1v1h-1zm21 0h1v1h-1zm-109 1h1v1h-1zm22 0h1v1h-1zm-35 1h1v1h-1zm36 0h1v1h-1zm24 0h1v1h-1zm-61 1h1v1h-1zm135 1h1v1h-1zm-230 2h1v1h-1zm90 0h1v1h-1zm5 0h1v1h-1zm48 0h1v1h-1zm40 0h1v1h-1zm18 1h1v1h-1zm-99 1h1v1h-1zm64 0h1v1h-1zm-76 1h1v1h-1zm139 0h1v1h-1zm-121 1h1v1h-1zm122 0h1v1h-1zm-12 1h1v1h-1zm-76 1h1v1h-1zm91 0h1v1h-1zm-222 1h1v1h-1zm132 0h1v1h-1zm48 0h1v1h-1zm43 0h1v1h-1zm-221 1h1v1h-1zm68 0h1v1h-1zm-14 1h1v1h-1zm39 0h1v1h-1zm72 0h1v1h-1zm-161 1h1v1h-1zm48 0h1v1h-1zm8 1h1v1h-1zm2 0h1v1h-1zm-5 2h1v1h-1zm161 0h1v1h-1zm-150 1h1v1h-1zm104 1h1v1h-1zm-80 1h1v1h-1zm65 1h1v1h-1zm-129 1h1v1h-1zm6 1h1v1h-1zm103 0h1v1h-1zm-67 1h1v1h-1zm63 0h1v1h-1zm8 0h1v1h-1zm-74 1h1v1h-1zm61 0h1v1h-1zm14 0h1v1h-1zm15 0h1v1h-1zm21 0h1v1h-1zm-19 1h1v1h-1zm20 0h1v1h-1zm-35 1h1v1h-1zm38 1h1v1h-1zm-133 1h1v1h-1zm51 0h1v1h-1zm67 1h1v1h-1zm-15 1h1v1h-1zm21 0h1v1h-1zm13 0h1v1h-1zm-34 1h1v1h-1zm0 1h1v1h-1zm-22 1h1v1h-1zm22 0h1v1h-1zm22 0h1v1h-1zm-22 1h1v1h-1zm41 1h1v1h-1zm-46 1h1v1h-1zm50 2h1v1h-1zm-42 2h1v1h-1zm35 0h1v1h-1zm-39 1h1v1h-1zm-4 1h1v1h-1zm-3 1h1v1h-1zm60 0h1v1h-1zm-7 1h1v1h-1zm-53 1h1v1h-1zm11 1h1v1h-1zm5 0h1v1h-1zm3 1h1v1h-1zm16 1h1v1h-1zm-31 3h1v1h-1zm28 2h1v1h-1z"/>
    <path fill="#555" d="M189 77h3v1h-3zm-13 1h1v1h-1zm-36 2h1v1h-1zm80 1h1v1h-1zm-77 3h1v1h-1zm86 0h1v1h-1zm-92 1h1v1h-1zm6 0h1v1h-1zm7 0h1v1h-1zm-32 1h1v1h-1zm30 0h1v1h-1zm86 0h1v1h-1zm-110 1h1v1h-1zm24 0h1v1h-1zm-24 1h1v1h-1zm24 0h1v1h-1zm-75 1h1v1h-1zm171 2h1v1h-1zm-119 1h1v1h-1zm0 1h1v1h-1zm18 1h1v1h-1zm2 0h1v1h-1zm-38 1h1v1h-1zm5 0h1v1h-1zm-24 1h1v1h-1zm164 0h1v1h-1zM90 97h1v1h-1zm20 0h1v1h-1zm-27 1h1v1h-1zm9 0h1v1h-1zm164 1h1v1h-1zm-168 3h1v1h-1zm12 0h1v1h-1zm161 1h1v1h-1zm-157 1h1v1h-1zm2 1h1v1h-1zm2 1h1v1h-1zm-14 1h1v1h-1zm-50 3h1v1h-1zm55 1h1v1h-1zm-47 2h1v1h-1zm-3 1h1v1h-1zm11 4h1v1h-1zm54 0h1v1h-1zm2 1h1v1h-1zm151 3h1v1h-1zm11 1h1v1h-1zm-153 1h1v1h-1zm2 1h1v1h-1zm-55 1h1v1h-1zm205 0h1v1h-1zm-213 2h1v1h-1zm72 2h1v1h-1zm157 0h1v1h-1zm-155 1h1v1h-1zm-57 1h1v1h-1zm183 0h1v1h-1zm-193 2h1v1h-1zm13 0h1v1h-1zm65 3h1v1h-1zm125 1h1v1h-1zm-205 1h1v1h-1zm23 0h1v1h-1zm-25 1h1v1h-1zm11 0h1v1h-1zm19 2h1v1h-1zm176 0h1v1h-1zm-113 1h1v1h-1zm102 0h1v1h-1zm11 1h1v1h-1zm-171 1h1v1h-1zm60 0h1v1h-1zm-90 1h1v1h-1zm5 0h1v1h-1zm1 1h1v1h-1zm7 0h1v1h-1zm21 1h1v1h-1zm1 1h1v1h-1zm163 2h1v1h-1zm32 0h1v1h-1zm-139 1h1v1h-1zm108 0h1v1h-1zm-192 3h1v1h-1zm224 0h1v1h-1zm-137 2h1v1h-1zm-49 1h1v1h-1zm56 2h1v1h-1zm104 0h1v1h-1zm10 1h1v1h-1zm-209 2h1v1h-1zm102 0h1v1h-1zm99 0h1v1h-1zm1 2h1v1h-1zm-93 1h1v1h-1zm-59 2h1v1h-1zm1 1h1v1h-1zm65 0h1v1h-1zm111 0h1v1h-1zm-15 1h1v1h-1zm-203 3h1v1h-1zm177 0h1v1h-1zm27 0h1v1h-1zm-24 1h1v1h-1zm-9 2h1v1h-1zm-2 1h1v1h-1zm41 0h1v1h-1zm-215 1h1v1h-1zm117 0h1v1h-1zm79 0h1v1h-1zm-30 1h1v1h-1zm56 0h1v1h-1zm-104 1h1v1h-1zm69 0h1v1h-1zm-68 1h1v1h-1zm-58 1h1v1h-1zm1 1h1v1h-1zm62 1h1v1h-1zm77 1h1v1h-1zm11 0h1v1h-1zm-49 1h1v1h-1zm-33 2h1v1h-1zm73 0h1v1h-1zm6 1h1v1h-1zm30 1h1v1h-1zm-85 1h1v1h-1zm-17 2h1v1h-1zm62 0h1v1h-1zm-124 2h1v1h-1zm103 0h1v1h-1zm-4 1h1v1h-1zm5 0h1v1h-1zm25 0h1v1h-1zm-45 1h1v1h-1zm21 0h1v1h-1zm16 0h1v1h-1zm-52 1h1v1h-1zm37 0h1v1h-1zm-18 2h1v1h-1zm-80 1h1v1h-1zm83 1h1v1h-1zm26 0h1v1h-1zm-102 1h1v1h-1zm84 0h1v1h-1zm14 1h1v1h-1zm-91 1h1v1h-1zm73 0h1v1h-1zm-69 1h1v1h-1zm52 0h1v1h-1zm89 0h1v1h-1zm-88 1h1v1h-1zm19 0h1v1h-1zm87 0h1v1h-1zm-105 1h1v1h-1zm22 2h1v1h-1zm-62 1h1v1h-1zm145 0h1v1h-1zm-4 1h1v1h-1zm3 0h1v1h-1zm-97 1h1v1h-1zm3 2h1v1h-1zm30 0h1v1h-1zm-74 2h1v1h-1zm1 1h1v1h-1zm74 0h1v1h-1zm54 0h1v1h-1zm4 0h1v1h-1zm-6 1h1v1h-1zm10 0h1v1h-1zm-67 1h1v1h-1zm-187 1h1v1h-1zm170 0h1v1h-1zm20 1h1v1h-1zm4 0h1v1h-1zm0 3h1v1h-1zm5 0h1v1h-1zm39 1h1v1h-1zm-236 1h1v1h-1zm126 0h1v1h-1zm3 2h1v1h-1zm3 1h1v1h-1zm67 0h1v1h-1zm-64 1h1v1h-1zm-133 1h1v1h-1zm136 0h1v1h-1zm3 1h1v1h-1zm100 1h1v1h-1zm-35 1h1v1h-1zm39 0h1v1h-1zm25 0h1v1h-1zm-22 1h1v1h-1zm25 0h1v1h-1zm-9 1h1v1h-1zm-115 1h1v1h-1zm107 0h1v1h-1zm-18 1h1v1h-1zm-25 1h1v1h-1zm13 0h1v1h-1zm-72 2h1v1h-1zm63 1h1v1h-1zm51 0h1v1h-1zm-48 2h1v1h-1zm-61 1h1v1h-1zm47 1h1v1h-1zm-39 3h1v1h-1zm43 0h1v1h-1zm26 0h1v1h-1zm-66 1h1v1h-1zm4 1h1v1h-1zm57 1h1v1h-1zm22 1h1v1h-1zm-76 1h1v1h-1zm23 0h4v1h-4zm-183 2h1v1h-1zm247 0h1v1h-1zm-66 1h1v1h-1zm13 0h1v1h-1zm10 0h1v1h-1zm17 0h1v1h-1zm22 0h1v1h-1zm-3 1h1v1h-1zm-111 1h1v1h-1zm35 0h1v1h-1zm32 0h1v1h-1zm11 0h1v1h-1zm30 0h1v1h-1zm13 0h1v1h-1zm-120 1h1v1h-1zm95 0h1v1h-1zm-95 2h1v1h-1zm69 0h1v1h-1zm39 0h1v1h-1zm30 0h1v1h-1zm-148 1h1v1h-1zm10 0h1v1h-1zm99 0h1v1h-1zm-222 1h1v1h-1zm123 0h1v1h-1zm-122 1h1v1h-1zm138 0h1v1h-1zm42 0h1v1h-1zm-75 1h1v1h-1zm35 0h1v1h-1zm22 0h1v1h-1zm19 0h1v1h-1zm44 0h1v1h-1zm-62 1h1v1h-1zm46 1h1v1h-1zm37 0h1v1h-1zm14 0h1v1h-1zm-95 1h1v1h-1zm31 0h1v1h-1zm2 0h1v1h-1zm31 0h1v1h-1zm-125 1h1v1h-1zm44 1h1v1h-1zm84 0h1v1h-1zm6 0h1v1h-1zm-5 1h1v1h-1zm-224 1h1v1h-1zm137 0h1v1h-1zm-38 1h1v1h-1zm15 0h1v1h-1zm49 0h1v1h-1zm-69 1h1v1h-1zm5 0h1v1h-1zm8 0h1v1h-1zm7 0h1v1h-1zm122 0h1v1h-1zm-51 1h2v1h-2zm-17 1h1v1h-1zm62 0h1v1h-1zm-223 1h1v1h-1zm93 0h1v1h-1zm13 0h1v1h-1zm39 1h1v1h-1zm56 0h1v1h-1zm-198 1h1v1h-1zm71 1h1v1h-1zm94 0h1v1h-1zm19 0h1v1h-1zm-17 1h1v1h-1zm-93 1h1v1h-1zm27 0h1v1h-1zm128 1h1v1h-1zm-220 1h1v1h-1zm76 0h1v1h-1zm15 1h1v1h-1zm41 0h1v1h-1zm12 0h1v1h-1zm-96 1h1v1h-1zm165 0h1v1h-1zm11 0h1v1h-1zm-162 1h1v1h-1zm10 0h1v1h-1zm-63 1h1v1h-1zm55 0h1v1h-1zm11 1h1v1h-1zm58 1h1v1h-1zm19 0h1v1h-1zm-134 1h1v1h-1zm33 0h1v1h-1zm80 0h1v1h-1zm-41 1h1v1h-1zm39 0h1v1h-1zm-39 1h1v1h-1zm134 0h1v1h-1zm-177 1h1v1h-1zm43 0h1v1h-1zm83 0h1v1h-1zm-21 1h1v1h-1zm8 0h1v1h-1zm-33 1h1v1h-1zm-84 1h1v1h-1zm107 1h1v1h-1zm9 0h1v1h-1zm-119 1h1v1h-1zm86 1h1v1h-1zm23 0h1v1h-1zm14 0h1v1h-1zm5 0h1v1h-1zm-51 1h1v1h-1zm59 4h1v1h-1zm12 0h1v1h-1zm-56 1h1v1h-1zm7 1h1v1h-1zm36 0h1v1h-1zm-32 1h1v1h-1zm38 0h1v1h-1zm-1 5h1v1h-1zm19 0h1v1h-1zm-48 2h1v1h-1zm4 0h1v1h-1zm42 2h1v1h-1zm9 1h1v1h-1zm-62 2h1v1h-1zm60 1h1v1h-1zm-48 2h1v1h-1zm-1 2h1v1h-1zm24 0h1v1h-1zm-3 6h1v1h-1z"/>
    <path fill="#666" d="M205 78h1v1h-1zm-35 1h1v1h-1zm46 1h1v1h-1zm7 2h1v1h-1zm-85 1h1v1h-1zm-1 3h1v1h-1zm99 1h1v1h-1zm4 2h1v1h-1zm-139 1h1v1h-1zm141 0h1v1h-1zm-139 1h1v1h-1zm35 0h1v1h-1zm-59 1h1v1h-1zm68 0h1v1h-1zm-70 1h1v1h-1zm43 0h1v1h-1zm13 1h1v1h-1zm-19 2h1v1h-1zm-32 1h1v1h-1zm33 3h1v1h-1zm17 0h1v1h-1zm130 4h1v1h-1zm1 1h1v1h-1zm-153 2h1v1h-1zm-67 2h1v1h-1zm2 0h1v1h-1zm59 6h1v1h-1zm165 0h1v1h-1zm-161 1h1v1h-1zm172 2h1v1h-1zm-217 2h1v1h-1zm55 0h1v1h-1zm168 0h1v1h-1zm-166 1h1v1h-1zm159 0h1v1h-1zm-213 1h1v1h-1zm3 2h1v1h-1zm220 0h1v1h-1zm-228 1h1v1h-1zm205 0h1v1h-1zm-204 1h1v1h-1zm67 0h1v1h-1zm-66 1h1v1h-1zm228 0h1v1h-1zm-15 3h1v1h-1zm-136 2h1v1h-1zm154 0h1v1h-1zm-19 2h1v1h-1zm-211 1h1v1h-1zm199 0h1v1h-1zm-176 1h1v1h-1zm-12 1h1v1h-1zm1 1h1v1h-1zm75 0h1v1h-1zm-74 1h1v1h-1zm221 1h1v1h-1zm-230 1h1v1h-1zm11 0h1v1h-1zm16 0h1v1h-1zm-15 1h1v1h-1zm1 1h1v1h-1zm192 0h1v1h-1zm-191 1h1v1h-1zm181 0h1v1h-1zm-180 1h1v1h-1zm181 0h1v1h-1zm10 0h1v1h-1zm26 0h1v1h-1zm-216 1h1v1h-1zm181 0h1v1h-1zm10 0h1v1h-1zm-202 1h1v1h-1zm193 0h1v1h-1zm10 0h1v1h-1zm-197 1h1v1h-1zm7 0h1v1h-1zm181 0h1v1h-1zm34 0h1v1h-1zm-221 1h1v1h-1zm7 0h1v1h-1zm181 0h1v1h-1zm-180 1h1v1h-1zm20 0h1v1h-1zm161 0h1v1h-1zm-193 1h1v1h-1zm87 0h1v1h-1zm-83 5h1v1h-1zm195 1h1v1h-1zm-157 2h1v1h-1zm53 0h1v1h-1zm-52 1h1v1h-1zm57 1h1v1h-1zm2 1h1v1h-1zm110 2h1v1h-1zm-103 1h1v1h-1zm-104 1h1v1h-1zm109 1h1v1h-1zm91 0h1v1h-1zm8 0h1v1h-1zm-97 1h1v1h-1zm-113 2h1v1h-1zm51 0h1v1h-1zm126 0h1v1h-1zm49 0h1v1h-1zm-229 1h2v1h-2zm55 0h1v1h-1zm128 0h1v1h-1zm3 1h1v1h-1zm-9 2h1v1h-1zm31 0h1v1h-1zm-86 1h1v1h-1zm72 0h1v1h-1zm22 0h1v1h-1zm-35 1h1v1h-1zm16 0h1v1h-1zm21 0h1v1h-1zm-44 1h1v1h-1zm26 0h1v1h-1zm-27 1h1v1h-1zm14 0h1v1h-1zm17 0h1v1h-1zm21 0h1v1h-1zm-219 1h1v1h-1zm184 0h1v1h-1zm-19 1h1v1h-1zm-1 1h1v1h-1zm-43 1h1v1h-1zm42 0h1v1h-1zm9 0h1v1h-1zm20 0h1v1h-1zm-30 1h1v1h-1zm33 0h1v1h-1zm-132 1h1v1h-1zm108 0h1v1h-1zm27 0h1v1h-1zm15 0h1v1h-1zm-10 2h1v1h-1zm-39 1h1v1h-1zm-9 3h1v1h-1zm3 2h1v1h-1zm-18 3h1v1h-1zm-64 1h1v1h-1zm99 1h1v1h-1zm20 1h1v1h-1zm7 1h1v1h-1zm-55 1h1v1h-1zm94 0h1v1h-1zm-241 1h1v1h-1zm86 1h1v1h-1zm3 1h1v1h-1zm78 0h1v1h-1zm20 0h1v1h-1zm4 0h1v1h-1zm-98 1h1v1h-1zm3 1h1v1h-1zm4 1h1v1h-1zm4 1h1v1h-1zm154 0h1v1h-1zm-150 1h1v1h-1zm66 0h1v1h-1zm22 0h1v1h-1zm-85 1h1v1h-1zm48 2h1v1h-1zm98 1h1v1h-1zm-76 1h1v1h-1zm3 2h1v1h-1zm-14 3h1v1h-1zm18 0h1v1h-1zm63 0h2v1h-2zm-128 1h1v1h-1zm133 0h2v1h-2zm3 2h1v1h-1zm-82 2h1v1h-1zm18 0h1v1h-1zm5 0h1v1h-1zm-195 1h1v1h-1zm237 1h1v1h-1zm-109 3h1v1h-1zm51 0h1v1h-1zm18 0h1v1h-1zm6 0h1v1h-1zm46 0h1v1h-1zm-2 1h1v1h-1zm-65 1h1v1h-1zm26 1h1v1h-1zm-23 1h1v1h-1zm19 1h1v1h-1zm32 0h1v1h-1zm-48 1h1v1h-1zm25 0h1v1h-1zm32 1h1v1h-1zm25 0h1v1h-1zm-79 1h1v1h-1zm62 1h1v1h-1zm11 0h1v1h-1zm-70 1h1v1h-1zm17 0h1v1h-1zm24 0h1v1h-1zm-38 2h1v1h-1zm18 1h1v1h-1zm-207 1h1v1h-1zm265 0h1v1h-1zm-262 5h1v1h-1zm214 1h1v1h-1zm-61 1h1v1h-1zm-151 1h1v1h-1zm154 0h1v1h-1zm-152 3h1v1h-1zm228 0h1v1h-1zm-66 1h1v1h-1zm41 1h1v1h-1zm-20 1h1v1h-1zm38 0h1v1h-1zm30 1h1v1h-1zm-4 1h1v1h-1zm5 0h1v1h-1zm-67 1h1v1h-1zm13 0h1v1h-1zm27 0h1v1h-1zm-92 1h1v1h-1zm107 1h1v1h-1zm-107 1h1v1h-1zm-8 1h1v1h-1zm78 1h1v1h-1zm1 1h1v1h-1zm13 0h1v1h-1zm-99 1h1v1h-1zm30 0h1v1h-1zm24 0h1v1h-1zm-23 1h1v1h-1zm70 0h1v1h-1zm48 1h1v1h-1zm-65 1h1v1h-1zm-77 1h1v1h-1zm31 0h1v1h-1zm21 1h1v1h-1zm-158 2h1v1h-1zm115 1h1v1h-1zm111 0h1v1h-1zm-118 1h1v1h-1zm31 0h1v1h-1zm6 0h1v1h-1zm-5 1h1v1h-1zm65 0h1v1h-1zm36 0h1v1h-1zm-74 1h1v1h-1zm-17 1h1v1h-1zm41 0h1v1h-1zm-4 2h1v1h-1zm-92 1h1v1h-1zm117 0h1v1h-1zm24 1h1v1h-1zm-9 2h1v1h-1zm-66 1h1v1h-1zm-73 1h1v1h-1zm142 0h1v1h-1zm-151 2h1v1h-1zm32 0h1v1h-1zm75 0h1v1h-1zm-120 1h1v1h-1zm45 0h1v1h-1zm134 0h1v1h-1zm-181 1h1v1h-1zm105 0h1v1h-1zm-137 1h1v1h-1zm42 0h1v1h-1zm-39 1h1v1h-1zm7 2h1v1h-1zm5 1h1v1h-1zm7 0h1v1h-1zm38 0h1v1h-1zm85 0h1v1h-1zm-87 1h1v1h-1zm54 0h1v1h-1zm12 0h1v1h-1zm-46 1h1v1h-1zm31 0h1v1h-1zm53 0h1v1h-1zm-84 1h1v1h-1zm28 0h1v1h-1zm10 0h1v1h-1zm22 0h1v1h-1zm-89 1h1v1h-1zm29 0h1v1h-1zm51 0h1v1h-1zm-84 1h1v1h-1zm-5 1h1v1h-1zm53 0h1v1h-1zm36 0h1v1h-1zm20 0h1v1h-1zm-115 1h1v1h-1zm51 0h1v1h-1zm84 0h1v1h-1zm-64 2h1v1h-1zm4 0h1v1h-1zm6 0h1v1h-1zm-10 1h1v1h-1zm53 1h1v1h-1zm-49 1h1v1h-1zm62 4h1v1h-1zm-31 1h1v1h-1zm2 3h1v1h-1zm36 0h1v1h-1zm13 3h1v1h-1zm-41 3h3v1h-3zm-8 1h1v1h-1zm24 0h1v1h-1zm-24 5h1v1h-1zm28 5h1v1h-1z"/>
    <path fill="#777" d="M177 78h1v1h-1zm34 1h1v1h-1zm-49 2h1v1h-1zm-20 1h1v1h-1zm84 1h1v1h-1zm-105 2h1v1h-1zm117 3h1v1h-1zm-114 1h1v1h-1zm24 0h1v1h-1zm-73 1h1v1h-1zm25 0h1v1h-1zm-23 1h1v1h-1zm24 0h1v1h-1zm18 1h1v1h-1zm-38 1h1v1h-1zm23 0h1v1h-1zm143 0h1v1h-1zm-122 1h1v1h-1zm-9 3h1v1h-1zm137 0h1v1h-1zm-141 1h1v1h-1zm145 2h1v1h-1zm-170 1h1v1h-1zm31 1h1v1h-1zm15 0h1v1h-1zm-14 3h1v1h-1zm-26 1h1v1h-1zm171 0h1v1h-1zm1 1h1v1h-1zm-223 1h1v1h-1zm225 1h1v1h-1zm-169 1h1v1h-1zm170 0h1v1h-1zm1 1h1v1h-1zm-219 1h1v1h-1zm-2 1h1v1h-1zm7 2h1v1h-1zm51 1h2v1h-2zm3 0h1v1h-1zm3 1h1v1h-1zm156 1h1v1h-1zm17 1h1v1h-1zm-163 3h1v1h-1zm-63 1h1v1h-1zm1 1h1v1h-1zm71 3h1v1h-1zm146 0h1v1h-1zm-144 1h1v1h-1zm132 0h1v1h-1zm-186 3h1v1h-1zm-9 2h1v1h-1zm72 0h1v1h-1zm2 1h1v1h-1zm151 0h1v1h-1zm1 2h1v1h-1zm-206 2h1v1h-1zm172 0h1v1h-1zm35 0h1v1h-1zm-144 1h1v1h-1zm-83 1h1v1h-1zm85 0h1v1h-1zm-86 2h1v1h-1zm31 2h1v1h-1zm177 4h1v1h-1zm1 1h1v1h-1zm-197 1h1v1h-1zm198 0h1v1h-1zm-170 1h1v1h-1zm171 0h1v1h-1zm1 1h1v1h-1zm-194 3h1v1h-1zm187 1h1v1h-1zm-105 2h1v1h-1zm117 0h1v1h-1zm-166 3h1v1h-1zm184 0h1v1h-1zm-123 2h1v1h-1zm-105 1h1v1h-1zm11 0h1v1h-1zm96 0h1v1h-1zm-95 2h1v1h-1zm-7 3h1v1h-1zm173 0h1v1h-1zm28 0h1v1h-1zm-86 1h1v1h-1zm61 0h1v1h-1zm48 1h1v1h-1zm-215 1h1v1h-1zm42 0h1v1h-1zm65 0h1v1h-1zm-109 1h1v1h-1zm45 0h1v1h-1zm132 0h1v1h-1zm-180 1h1v1h-1zm183 0h1v1h-1zm-185 1h1v1h-1zm169 0h1v1h-1zm31 0h1v1h-1zm-32 1h1v1h-1zm44 0h1v1h-1zm-96 1h1v1h-1zm61 0h1v1h-1zm38 0h1v1h-1zm-19 1h1v1h-1zm23 0h1v1h-1zm-37 1h1v1h-1zm-10 1h1v1h-1zm13 0h1v1h-1zm3 1h1v1h-1zm-28 3h1v1h-1zm76 0h1v1h-1zm-173 1h1v1h-1zm62 0h1v1h-1zm74 0h1v1h-1zm38 1h1v1h-1zm-67 1h1v1h-1zm-6 1h1v1h-1zm45 0h1v1h-1zm-8 1h1v1h-1zm-69 1h1v1h-1zm74 2h1v1h-1zm-52 1h1v1h-1zm6 1h1v1h-1zm37 0h1v1h-1zm7 1h1v1h-1zm35 0h1v1h-1zm-76 1h1v1h-1zm-87 1h1v1h-1zm66 0h1v1h-1zm-65 1h1v1h-1zm82 0h1v1h-1zm7 0h1v1h-1zm9 0h1v1h-1zm18 1h1v1h-1zm-194 1h1v1h-1zm170 0h1v1h-1zm7 0h1v1h-1zm-95 1h1v1h-1zm82 0h1v1h-1zm-79 1h1v1h-1zm88 0h1v1h-1zm13 0h1v1h-1zm14 0h1v1h-1zm-112 1h1v1h-1zm4 1h1v1h-1zm84 0h1v1h-1zm14 0h1v1h-1zm8 1h1v1h-1zm-95 2h1v1h-1zm139 0h1v1h-1zm17 0h1v1h-1zm-258 1h1v1h-1zm106 0h1v1h-1zm71 3h1v1h-1zm78 0h1v1h-1zm2 1h1v1h-1zm-256 1h1v1h-1zm162 1h1v1h-1zm3 2h1v1h-1zm18 0h1v1h-1zm-182 1h1v1h-1zm250 1h1v1h-1zm-129 2h1v1h-1zm49 0h1v1h-1zm24 0h1v1h-1zm-5 1h1v1h-1zm7 5h1v1h-1zm6 0h1v1h-1zm5 3h1v1h-1zm-73 1h1v1h-1zm3 1h1v1h-1zm66 0h1v1h-1zm-63 1h1v1h-1zm3 1h1v1h-1zm-137 1h1v1h-1zm140 0h1v1h-1zm2 1h1v1h-1zm69 0h2v1h-2zm29 0h1v1h-1zm-36 1h1v1h-1zm40 0h1v1h-1zm25 0h1v1h-1zm-21 1h1v1h-1zm-246 1h1v1h-1zm217 0h1v1h-1zm33 0h1v1h-1zm-105 1h1v1h-1zm-144 1h1v1h-1zm222 1h1v1h-1zm-29 1h1v1h-1zm34 0h1v1h-1zm4 0h1v1h-1zm30 0h1v1h-1zm-112 1h1v1h-1zm76 0h1v1h-1zm-29 1h1v1h-1zm34 1h1v1h-1zm-15 1h1v1h-1zm-61 1h1v1h-1zm49 2h1v1h-1zm19 2h1v1h-1zm-55 1h1v1h-1zm40 0h1v1h-1zm41 2h1v1h-1zm2 1h1v1h-1zm-49 1h1v1h-1zm70 0h1v1h-1zm-259 2h1v1h-1zm162 1h1v1h-1zm20 1h1v1h-1zm-59 2h1v1h-1zm86 0h1v1h-1zm16 0h1v1h-1zm-109 3h1v1h-1zm27 0h1v1h-1zm24 0h1v1h-1zm62 0h1v1h-1zm-28 1h1v1h-1zm51 1h1v1h-1zm11 0h1v1h-1zm5 0h1v1h-1zm-122 1h1v1h-1zm47 0h1v1h-1zm40 0h1v1h-1zm-122 2h1v1h-1zm93 0h1v1h-1zm-190 2h1v1h-1zm104 0h1v1h-1zm39 1h1v1h-1zm90 0h1v1h-1zm-124 1h1v1h-1zm54 0h1v1h-1zm42 0h1v1h-1zm-109 1h1v1h-1zm132 0h1v1h-1zm-223 1h1v1h-1zm111 1h1v1h-1zm71 1h1v1h-1zm-72 2h1v1h-1zm41 1h1v1h-1zm19 0h1v1h-1zm14 0h1v1h-1zm6 0h1v1h-1zm-181 1h1v1h-1zm66 0h1v1h-1zm16 0h1v1h-1zm18 0h1v1h-1zm111 0h1v1h-1zm-66 1h1v1h-1zm35 0h1v1h-1zm-44 2h1v1h-1zm-53 2h1v1h-1zm-5 1h1v1h-1zm62 0h1v1h-1zm13 0h1v1h-1zm-139 1h1v1h-1zm50 0h1v1h-1zm34 1h1v1h-1zm-49 1h1v1h-1zm34 0h1v1h-1zm142 0h1v1h-1zm-64 2h1v1h-1zm67 0h1v1h-1zm-171 1h1v1h-1zm21 0h1v1h-1zm66 2h1v1h-1zm-91 1h1v1h-1zm86 0h1v1h-1zm18 0h2v1h-2zm4 1h1v1h-1zm-40 1h1v1h-1zm-24 1h1v1h-1zm20 0h1v1h-1zm15 0h1v1h-1zm40 0h1v1h-1zm-126 2h1v1h-1zm51 0h1v1h-1zm6 0h1v1h-1zm45 0h1v1h-1zm-21 1h1v1h-1zm22 1h1v1h-1zm31 1h1v1h-1zm12 0h1v1h-1zm-42 1h1v1h-1zm1 2h1v1h-1zm0 2h1v1h-1zm7 0h1v1h-1zm41 0h1v1h-1zm-14 1h1v1h-1zm-32 5h1v1h-1zm10 2h1v1h-1zm1 1h1v1h-1zm24 0h1v1h-1zm-38 1h1v1h-1zm56 0h1v1h-1zm-34 1h3v1h-3zm14 1h1v1h-1zm2 0h1v1h-1zm-5 3h2v1h-2zm-29 1h1v1h-1zm34 8h1v1h-1zm2 0h1v1h-1z"/>
    <path fill="#888" d="M204 78h1v1h-1zm-38 2h1v1h-1zm-27 2h1v1h-1zm20 0h1v1h-1zm-3 1h1v1h-1zm-3 1h1v1h-1zm78 1h1v1h-1zm-92 2h1v1h-1zm9 3h1v1h-1zm-9 1h1v1h-1zm-34 1h1v1h-1zm36 1h1v1h-1zm-9 2h1v1h-1zm118 0h1v1h-1zm-141 1h1v1h-1zm22 0h1v1h-1zm0 1h1v1h-1zm-13 1h1v1h-1zm2 1h1v1h-1zm2 1h1v1h-1zm2 1h1v1h-1zm2 1h1v1h-1zm4 2h1v1h-1zm-12 2h1v1h-1zm-1 1h1v1h-1zm-5 1h1v1h-1zm154 0h1v1h-1zm-163 6h1v1h-1zm178 2h1v1h-1zm-223 1h1v1h-1zm226 1h1v1h-1zm-228 2h1v1h-1zm1 1h1v1h-1zm210 0h1v1h-1zm-209 1h1v1h-1zm66 1h1v1h-1zm164 0h1v1h-1zm-10 1h1v1h-1zm-202 5h1v1h-1zm59 0h1v1h-1zm157 0h1v1h-1zm-28 2h1v1h-1zm12 0h1v1h-1zm-207 1h1v1h-1zm13 1h1v1h-1zm-19 2h1v1h-1zm83 0h1v1h-1zm-81 1h1v1h-1zm9 0h1v1h-1zm200 3h1v1h-1zm-181 1h1v1h-1zm-22 1h1v1h-1zm86 0h1v1h-1zm104 0h1v1h-1zm-102 1h1v1h-1zm102 0h1v1h-1zm-191 1h1v1h-1zm229 0h1v1h-1zm-196 3h1v1h-1zm-29 2h1v1h-1zm89 1h1v1h-1zm0 1h1v1h-1zm-81 1h1v1h-1zm-5 1h1v1h-1zm6 0h1v1h-1zm27 0h1v1h-1zm192 0h1v1h-1zm-214 1h1v1h-1zm23 0h1v1h-1zm171 0h1v1h-1zm21 3h1v1h-1zm-222 1h1v1h-1zm86 0h1v1h-1zm109 2h1v1h-1zm-102 1h1v1h-1zm-53 2h1v1h-1zm157 0h1v1h-1zm-90 4h1v1h-1zm-99 2h1v1h-1zm106 1h1v1h-1zm58 1h1v1h-1zm7 1h1v1h-1zm23 0h1v1h-1zm22 1h1v1h-1zm-171 2h1v1h-1zm64 0h1v1h-1zm-63 1h1v1h-1zm136 0h1v1h-1zm3 1h1v1h-1zm8 0h1v1h-1zm-23 1h1v1h-1zm40 0h1v1h-1zm-43 1h1v1h-1zm6 0h1v1h-1zm43 0h1v1h-1zm-223 2h1v1h-1zm123 3h1v1h-1zm71 0h1v1h-1zm3 1h1v1h-1zm17 0h1v1h-1zm20 0h3v1h-3zm-63 1h1v1h-1zm-106 1h1v1h-1zm1 1h1v1h-1zm63 0h1v1h-1zm-62 1h1v1h-1zm1 1h1v1h-1zm64 0h1v1h-1zm21 0h1v1h-1zm13 0h1v1h-1zm-13 1h1v1h-1zm14 0h1v1h-1zm7 0h1v1h-1zm27 0h1v1h-1zm-33 1h1v1h-1zm7 0h1v1h-1zm33 0h1v1h-1zm-72 1h1v1h-1zm40 0h1v1h-1zm-19 4h1v1h-1zm46 2h1v1h-1zm-124 1h1v1h-1zm67 0h1v1h-1zm39 2h1v1h-1zm-101 1h1v1h-1zm93 2h1v1h-1zm-82 1h1v1h-1zm4 1h1v1h-1zm72 0h1v1h-1zm-61 3h1v1h-1zm3 1h1v1h-1zm45 0h1v1h-1zm3 2h1v1h-1zm21 2h1v1h-1zm13 0h1v1h-1zm1 3h1v1h-1zm59 2h1v1h-1zm-7 1h1v1h-1zm-123 1h1v1h-1zm1 1h1v1h-1zm50 0h1v1h-1zm82 0h1v1h-1zm-56 2h1v1h-1zm40 0h1v1h-1zm-62 1h1v1h-1zm76 0h1v1h-1zm-8 1h1v1h-1zm-65 1h1v1h-1zm67 1h1v1h-1zm-243 1h1v1h-1zm127 0h1v1h-1zm52 0h1v1h-1zm29 3h1v1h-1zm-5 2h1v1h-1zm-200 2h1v1h-1zm235 1h1v1h-1zm-28 2h1v1h-1zm14 0h1v1h-1zm48 1h1v1h-1zm-7 1h1v1h-1zm-34 2h1v1h-1zm-14 1h1v1h-1zm52 0h1v1h-1zm-261 1h1v1h-1zm196 1h1v1h-1zm-36 5h1v1h-1zm69 0h1v1h-1zm-63 2h1v1h-1zm-160 1h1v1h-1zm217 0h1v1h-1zm25 1h1v1h-1zm-48 2h1v1h-1zm11 0h1v1h-1zm16 0h1v1h-1zm-57 1h1v1h-1zm83 0h1v1h-1zm-243 1h1v1h-1zm239 0h1v1h-1zm-238 1h1v1h-1zm123 1h1v1h-1zm87 3h1v1h-1zm54 0h1v1h-1zm-122 1h1v1h-1zm107 0h1v1h-1zm-49 2h1v1h-1zm-91 1h1v1h-1zm38 0h1v1h-1zm45 0h1v1h-1zm9 0h1v1h-1zm-92 1h1v1h-1zm36 0h1v1h-1zm52 0h1v1h-1zm43 1h1v1h-1zm-229 1h1v1h-1zm107 0h1v1h-1zm3 0h1v1h-1zm0 1h1v1h-1zm51 0h1v1h-1zm-51 1h1v1h-1zm-13 1h1v1h-1zm139 0h1v1h-1zm6 0h1v1h-1zm-237 1h1v1h-1zm144 1h1v1h-1zm-6 1h1v1h-1zm98 0h1v1h-1zm-232 1h1v1h-1zm100 0h1v1h-1zm134 0h1v1h-1zm-135 1h1v1h-1zm46 0h1v1h-1zm55 0h1v1h-1zm25 0h1v1h-1zm-222 1h1v1h-1zm162 0h1v1h-1zm41 1h3v1h-3zm-23 1h1v1h-1zm-175 1h1v1h-1zm62 0h1v1h-1zm7 0h1v1h-1zm11 0h1v1h-1zm-20 1h1v1h-1zm-2 1h1v1h-1zm39 0h1v1h-1zm69 0h1v1h-1zm-18 1h1v1h-1zm78 0h1v1h-1zm-9 1h1v1h-1zm-207 1h1v1h-1zm71 0h1v1h-1zm139 1h1v1h-1zm-141 1h1v1h-1zm17 1h1v1h-1zm43 0h1v1h-1zm17 0h1v1h-1zm-111 1h1v1h-1zm27 0h1v1h-1zm-29 1h1v1h-1zm31 0h1v1h-1zm-33 1h1v1h-1zm90 1h1v1h-1zm-59 2h1v1h-1zm-3 1h1v1h-1zm98 0h1v1h-1zm-120 2h1v1h-1zm136 0h1v1h-1zm-88 1h1v1h-1zm-45 1h1v1h-1zm74 0h1v1h-1zm51 1h1v1h-1zm-2 2h1v1h-1zm-49 2h1v1h-1zm54 1h1v1h-1zm16 0h1v1h-1zm-49 1h1v1h-1zm45 3h1v1h-1zm11 1h1v1h-1zm-46 3h1v1h-1zm42 0h1v1h-1zm-40 3h1v1h-1zm16 2h1v1h-1zm39 0h1v1h-1zm-62 2h1v1h-1zm3 4h1v1h-1zm4 0h2v1h-2zm22 4h1v1h-1z"/>
    <path fill="#999" d="M171 79h1v1h-1zm39 0h1v1h-1zm5 1h1v1h-1zm4 1h1v1h-1zm6 2h1v1h-1zm-87 1h1v1h-1zm13 1h1v1h-1zm82 1h1v1h-1zm-117 1h1v1h-1zm25 0h1v1h-1zm-67 3h1v1h-1zm1 1h1v1h-1zm43 0h1v1h-1zm30 0h1v1h-1zm-72 1h1v1h-1zm61 0h1v1h-1zm3 0h1v1h-1zm105 0h1v1h-1zm-138 1h1v1h-1zm28 0h1v1h-1zm-52 1h1v1h-1zm23 0h1v1h-1zm142 0h1v1h-1zm-124 1h1v1h-1zm-43 1h1v1h-1zm173 2h1v1h-1zM93 99h1v1h-1zm39 0h1v1h-1zm-46 1h1v1h-1zm9 0h1v1h-1zm2 1h1v1h-1zm161 0h1v1h-1zm1 1h1v1h-1zm-131 1h1v1h-1zm-8 1h1v1h-1zm-28 1h1v1h-1zm40 0h1v1h-1zm-89 3h1v1h-1zm73 0h1v1h-1zm-19 1h1v1h-1zm-49 2h1v1h-1zm-1 1h1v1h-1zm55 1h1v1h-1zm-49 1h1v1h-1zm216 0h1v1h-1zm-1 3h1v1h-1zm-213 2h1v1h-1zm6 0h1v1h-1zm3 2h1v1h-1zm223 1h1v1h-1zm-220 1h1v1h-1zm59 1h1v1h-1zm140 0h1v1h-1zm-196 1h1v1h-1zm220 1h1v1h-1zm-217 1h1v1h-1zm64 3h1v1h-1zm-69 1h1v1h-1zm225 0h1v1h-1zm-30 3h1v1h-1zm-178 1h1v1h-1zm190 0h1v1h-1zm-211 1h1v1h-1zm84 0h1v1h-1zm-82 1h1v1h-1zm22 0h1v1h-1zm174 0h1v1h-1zm-190 5h1v1h-1zm1 1h1v1h-1zm25 0h1v1h-1zm63 0h1v1h-1zm1 1h1v1h-1zm138 2h1v1h-1zm-137 2h1v1h-1zm138 1h1v1h-1zm-217 4h1v1h-1zm1 1h1v1h-1zm27 0h1v1h-1zm52 0h1v1h-1zm119 0h1v1h-1zm-170 1h1v1h-1zm51 0h1v1h-1zm109 0h1v1h-1zm11 0h1v1h-1zm-119 1h1v1h-1zm-83 2h1v1h-1zm90 1h1v1h-1zm7 3h1v1h-1zm-57 1h1v1h-1zm1 1h1v1h-1zm156 0h1v1h-1zm-93 1h1v1h-1zm7 3h1v1h-1zm97 1h1v1h-1zm-212 1h1v1h-1zm12 0h1v1h-1zm163 1h1v1h-1zm10 1h1v1h-1zm28 0h1v1h-1zm-38 1h1v1h-1zm13 0h1v1h-1zm18 0h1v1h-1zm21 0h1v1h-1zm-219 1h1v1h-1zm219 0h1v1h-1zm0 1h1v1h-1zm-169 1h1v1h-1zm63 0h1v1h-1zm97 0h1v1h-1zm9 0h1v1h-1zm-168 1h1v1h-1zm140 0h1v1h-1zm28 0h1v1h-1zm-167 1h1v1h-1zm62 1h1v1h-1zm-118 2h1v1h-1zm120 0h1v1h-1zm68 0h1v1h-1zm3 1h1v1h-1zm24 2h5v1h-5zm12 0h7v1h-7zm-66 1h1v1h-1zm38 0h1v1h-1zm-71 1h1v1h-1zm74 0h1v1h-1zm9 1h1v1h-1zm-39 1h1v1h-1zm-18 1h1v1h-1zm19 0h1v1h-1zm-104 1h1v1h-1zm66 1h1v1h-1zm22 0h1v1h-1zm82 0h1v1h-1zm-70 1h1v1h-1zm-9 1h1v1h-1zm10 0h1v1h-1zm-31 1h1v1h-1zm17 1h1v1h-1zm7 0h1v1h-1zm34 0h1v1h-1zm-55 1h1v1h-1zm24 1h1v1h-1zm-166 2h1v1h-1zm161 0h1v1h-1zm8 0h1v1h-1zm-89 1h1v1h-1zm104 0h1v1h-1zm9 0h1v1h-1zm-21 1h1v1h-1zm5 0h1v1h-1zm24 0h1v1h-1zm40 0h1v1h-1zm-64 1h1v1h-1zm-2 1h1v1h-1zm-84 1h1v1h-1zm77 0h1v1h-1zm21 0h1v1h-1zm10 0h1v1h-1zm-198 3h1v1h-1zm101 0h1v1h-1zm95 0h1v1h-1zm-91 1h1v1h-1zm136 0h1v1h-1zm-67 1h1v1h-1zm20 1h1v1h-1zm-192 6h1v1h-1zm166 1h1v1h-1zm3 2h1v1h-1zm17 0h1v1h-1zm-185 1h1v1h-1zm255 0h1v1h-1zm-11 1h1v1h-1zm-49 1h1v1h-1zm49 0h1v1h-1zm-243 1h1v1h-1zm122 0h1v1h-1zm115 0h1v1h-1zm15 0h1v1h-1zm-129 1h1v1h-1zm68 0h1v1h-1zm8 1h1v1h-1zm-198 1h1v1h-1zm201 1h1v1h-1zm-4 2h1v1h-1zm9 1h1v1h-1zm-204 1h1v1h-1zm181 0h1v1h-1zm18 1h1v1h-1zm34 0h1v1h-1zm-49 1h1v1h-1zm25 0h1v1h-1zm-22 2h1v1h-1zm27 0h1v1h-1zm24 0h1v1h-1zm-94 1h1v1h-1zm72 0h1v1h-1zm50 0h1v1h-1zm-76 1h1v1h-1zm28 0h1v1h-1zm47 0h1v1h-1zm7 0h1v1h-1zm-51 1h1v1h-1zm51 0h1v1h-1zm-79 1h1v1h-1zm62 0h1v1h-1zm-106 1h1v1h-1zm47 1h1v1h-1zm32 1h1v1h-1zm-222 1h1v1h-1zm148 1h1v1h-1zm-145 4h1v1h-1zm150 0h1v1h-1zm47 0h1v1h-1zm17 1h1v1h-1zm32 0h1v1h-1zm-92 1h1v1h-1zm92 0h1v1h-1zm-244 1h1v1h-1zm199 0h1v1h-1zm28 1h1v1h-1zm3 1h5v1h-5zm-27 1h1v1h-1zm61 0h1v1h-1zm-261 1h1v1h-1zm190 1h1v1h-1zm70 0h1v1h-1zm-53 3h1v1h-1zm-78 1h1v1h-1zm95 0h1v1h-1zm-219 1h1v1h-1zm180 0h1v1h-1zm1 1h1v1h-1zm-64 1h1v1h-1zm106 0h1v1h-1zm24 0h1v1h-1zm-132 1h1v1h-1zm24 0h1v1h-1zm24 0h1v1h-1zm102 1h1v1h-1zm-155 1h1v1h-1zm33 0h1v1h-1zm43 1h1v1h-1zm51 1h1v1h-1zm-36 1h1v1h-1zm-192 1h1v1h-1zm111 0h1v1h-1zm25 0h1v1h-1zm69 0h1v1h-1zm-63 1h1v1h-1zm83 0h1v1h-1zm7 0h1v1h-1zm-26 1h1v1h-1zm36 0h1v1h-1zm-144 1h1v1h-1zm20 0h1v1h-1zm29 1h1v1h-1zm21 2h1v1h-1zm63 0h1v1h-1zm-127 2h1v1h-1zm14 0h1v1h-1zm27 0h1v1h-1zm-40 1h1v1h-1zm41 0h1v1h-1zm50 1h1v1h-1zm17 0h1v1h-1zm6 1h2v1h-2zm-59 1h1v1h-1zm34 0h1v1h-1zm3 1h2v1h-2zm43 0h1v1h-1zm-220 1h1v1h-1zm78 0h1v1h-1zm84 0h1v1h-1zm-160 1h1v1h-1zm68 0h1v1h-1zm142 0h1v1h-1zm-208 1h1v1h-1zm50 0h1v1h-1zm-48 1h1v1h-1zm46 0h1v1h-1zm21 0h1v1h-1zm94 0h1v1h-1zm-117 1h1v1h-1zm14 1h1v1h-1zm15 0h1v1h-1zm91 0h1v1h-1zm-157 1h1v1h-1zm53 0h1v1h-1zm13 0h1v1h-1zm59 0h1v1h-1zm91 0h1v1h-1zm-213 1h1v1h-1zm52 0h1v1h-1zm104 0h1v1h-1zm-153 1h1v1h-1zm37 0h1v1h-1zm38 0h1v1h-1zm41 0h1v1h-1zm-113 1h1v1h-1zm111 0h1v1h-1zm40 0h1v1h-1zm-147 1h1v1h-1zm105 0h1v1h-1zm-100 1h1v1h-1zm21 0h1v1h-1zm20 1h1v1h-1zm54 0h1v1h-1zm36 0h1v1h-1zm-114 2h1v1h-1zm72 0h1v1h-1zm58 0h1v1h-1zm-115 1h1v1h-1zm65 0h1v1h-1zm-69 1h1v1h-1zm-5 1h1v1h-1zm53 0h1v1h-1zm63 0h1v1h-1zm-72 1h1v1h-1zm23 0h1v1h-1zm64 1h1v1h-1zm-16 1h1v1h-1zm-48 2h1v1h-1zm11 1h1v1h-1zm4 1h1v1h-1zm45 0h1v1h-1zm1 4h1v1h-1zm1 4h1v1h-1zm20 0h1v1h-1zm-57 1h1v1h-1zm16 3h1v1h-1zm10 1h1v1h-1zm32 0h1v1h-1zm-21 1h1v1h-1zm-25 2h1v1h-1zm1 2h1v1h-1zm22 0h1v1h-1zm-27 1h1v1h-1zm23 1h1v1h-1zm6 1h1v1h-1z"/>
    <path fill="#aaa" d="M178 78h1v1h-1zm25 0h1v1h-1zm-31 1h1v1h-1zm-5 1h1v1h-1zm-27 1h1v1h-1zm23 0h1v1h-1zm-3 1h1v1h-1zm62 0h1v1h-1zm-80 1h1v1h-1zm86 1h1v1h-1zm-106 1h2v1h-2zm-3 1h1v1h-1zm23 0h1v1h-1zm7 0h1v1h-1zm86 1h1v1h-1zm-120 1h1v1h-1zm124 1h1v1h-1zm-115 1h1v1h-1zm117 0h1v1h-1zm-139 1h1v1h-1zm141 0h1v1h-1zm-140 1h1v1h-1zm44 1h1v1h-1zm-38 1h1v1h-1zm33 0h1v1h-1zm4 0h1v1h-1zm-61 1h1v1h-1zm26 0h1v1h-1zm12 0h1v1h-1zm-36 1h1v1h-1zm26 0h1v1h-1zm138 0h1v1h-1zM89 97h1v1h-1zm2 1h1v1h-1zm23 1h1v1h-1zm141 0h1v1h-1zm-138 2h1v1h-1zm16 0h1v1h-1zm-34 1h1v1h-1zm2 1h1v1h-1zm19 0h1v1h-1zm14 0h1v1h-1zm-43 1h1v1h-1zm12 0h1v1h-1zm2 1h1v1h-1zm2 1h1v1h-1zm2 1h1v1h-1zm-13 1h1v1h-1zm15 0h1v1h-1zm-67 1h1v1h-1zm70 0h1v1h-1zm-68 1h1v1h-1zm223 2h1v1h-1zm-218 1h1v1h-1zm218 0h1v1h-1zm-215 2h1v1h-1zm2 1h1v1h-1zm-3 1h1v1h-1zm60 0h1v1h-1zm170 0h1v1h-1zm-229 1h1v1h-1zm5 0h1v1h-1zm56 0h1v1h-1zm2 1h1v1h-1zm163 0h1v1h-1zm-218 1h1v1h-1zm205 0h1v1h-1zm-1 3h1v1h-1zm-138 2h1v1h-1zm-57 1h1v1h-1zm194 1h1v1h-1zm12 1h1v1h-1zm-200 2h1v1h-1zm187 0h1v1h-1zm-125 1h1v1h-1zm-59 1h1v1h-1zm61 0h1v1h-1zm122 1h1v1h-1zm31 0h1v1h-1zm-211 1h1v1h-1zm-10 1h1v1h-1zm13 1h1v1h-1zm64 1h1v1h-1zm-83 1h1v1h-1zm85 0h1v1h-1zm-61 1h1v1h-1zm170 1h1v1h-1zm37 1h1v1h-1zm-202 1h1v1h-1zm-25 2h1v1h-1zm3 0h1v1h-1zm27 1h1v1h-1zm3 2h1v1h-1zm59 0h1v1h-1zm-85 6h1v1h-1zm86 0h1v1h-1zm138 0h1v1h-1zm-214 1h1v1h-1zm184 0h1v1h-1zm-186 1h1v1h-1zm28 1h1v1h-1zm171 0h1v1h-1zm18 1h1v1h-1zm-133 1h1v1h-1zm-87 1h1v1h-1zm204 1h1v1h-1zm-110 1h1v1h-1zm100 0h1v1h-1zm27 1h1v1h-1zm0 1h1v1h-1zm-227 1h1v1h-1zm2 0h1v1h-1zm105 0h1v1h-1zm-104 1h1v1h-1zm44 0h1v1h-1zm1 1h1v1h-1zm155 0h1v1h-1zm9 0h1v1h-1zm-163 1h1v1h-1zm65 0h1v1h-1zm-111 2h1v1h-1zm173 0h1v1h-1zm2 0h1v1h-1zm3 1h1v1h-1zm-61 1h1v1h-1zm56 1h1v1h-1zm-164 1h1v1h-1zm180 1h1v1h-1zm12 3h1v1h-1zm22 1h1v1h-1zm-164 1h1v1h-1zm125 0h1v1h-1zm-124 1h1v1h-1zm127 0h1v1h-1zm-185 2h1v1h-1zm172 1h1v1h-1zm21 0h1v1h-1zm-68 1h1v1h-1zm71 0h1v1h-1zm24 0h7v1h-7zm-49 2h1v1h-1zm67 1h1v1h-1zm-107 1h1v1h-1zm-61 3h1v1h-1zm130 0h1v1h-1zm-129 1h1v1h-1zm83 0h1v1h-1zm-16 1h1v1h-1zm39 0h1v1h-1zm-6 1h1v1h-1zm35 0h1v1h-1zm34 2h1v1h-1zm-82 1h1v1h-1zm46 0h1v1h-1zm-204 1h1v1h-1zm145 0h1v1h-1zm38 1h1v1h-1zm-102 2h1v1h-1zm68 0h1v1h-1zm43 0h1v1h-1zm-42 1h1v1h-1zm15 0h1v1h-1zm-78 1h1v1h-1zm64 0h1v1h-1zm26 0h1v1h-1zm-25 1h1v1h-1zm-54 2h1v1h-1zm74 1h1v1h-1zm88 1h1v1h-1zm-151 1h1v1h-1zm48 0h1v1h-1zm85 0h1v1h-1zm-66 1h1v1h-1zm84 0h1v1h-1zm-100 1h1v1h-1zm-158 1h1v1h-1zm177 0h1v1h-1zm-63 1h1v1h-1zm47 0h1v1h-1zm-46 1h1v1h-1zm1 1h1v1h-1zm48 0h1v1h-1zm-47 1h1v1h-1zm67 1h1v1h-1zm63 2h1v1h-1zm-74 2h1v1h-1zm67 0h1v1h-1zm-49 1h1v1h-1zm49 0h1v1h-1zm-41 1h1v1h-1zm47 0h1v1h-1zm-69 1h1v1h-1zm69 0h1v1h-1zm-119 1h1v1h-1zm119 0h1v1h-1zm-66 1h1v1h-1zm73 0h1v1h-1zm-55 1h1v1h-1zm-15 1h1v1h-1zm24 0h1v1h-1zm42 0h1v1h-1zm-115 2h1v1h-1zm52 0h1v1h-1zm-49 1h1v1h-1zm75 0h1v1h-1zm-72 1h1v1h-1zm-133 1h1v1h-1zm136 0h1v1h-1zm3 1h1v1h-1zm46 0h1v1h-1zm25 0h1v1h-1zm29 1h1v1h-1zm4 1h1v1h-1zm-99 1h1v1h-1zm61 0h1v1h-1zm26 0h1v1h-1zm16 0h1v1h-1zm4 1h1v1h-1zm12 0h1v1h-1zm-39 2h1v1h-1zm11 0h1v1h-1zm27 0h1v1h-1zm-258 1h1v1h-1zm145 0h1v1h-1zm81 0h1v1h-1zm-33 1h1v1h-1zm15 0h1v1h-1zm-14 1h1v1h-1zm68 0h1v1h-1zm2 0h1v1h-1zm-114 2h1v1h-1zm47 0h1v1h-1zm53 1h1v1h-1zm-50 1h1v1h-1zm15 0h1v1h-1zm35 0h1v1h-1zm0 1h1v1h-1zm-95 1h1v1h-1zm49 1h1v1h-1zm26 0h1v1h-1zm20 1h1v1h-1zm-28 1h1v1h-1zm12 0h1v1h-1zm7 1h3v1h-3zm7 1h1v1h-1zm-22 1h1v1h-1zm-14 1h1v1h-1zm-41 1h1v1h-1zm44 1h1v1h-1zm-80 3h1v1h-1zm84 0h1v1h-1zm-204 1h1v1h-1zm118 0h1v1h-1zm42 0h1v1h-1zm-159 1h1v1h-1zm160 0h1v1h-1zm20 0h1v1h-1zm26 0h1v1h-1zm-205 1h1v1h-1zm109 1h1v1h-1zm115 1h1v1h-1zm9 0h1v1h-1zm26 0h1v1h-1zm-256 1h1v1h-1zm181 0h2v1h-2zm-180 1h1v1h-1zm185 0h1v1h-1zm-184 1h1v1h-1zm140 0h1v1h-1zm49 0h2v1h-2zm34 0h1v1h-1zm7 0h1v1h-1zm24 0h1v1h-1zm-143 1h1v1h-1zm27 1h1v1h-1zm-39 1h1v1h-1zm46 0h1v1h-1zm90 0h1v1h-1zm-129 1h1v1h-1zm131 0h1v1h-1zm-231 1h1v1h-1zm234 1h1v1h-1zm-230 2h1v1h-1zm101 0h1v1h-1zm42 0h1v1h-1zm-55 1h1v1h-1zm96 0h1v1h-1zm-181 1h1v1h-1zm85 0h1v1h-1zm9 0h3v1h-3zm67 0h1v1h-1zm22 0h1v1h-1zm-48 1h1v1h-1zm10 0h1v1h-1zm79 0h1v1h-1zm-221 1h1v1h-1zm69 0h1v1h-1zm64 0h1v1h-1zm73 0h3v1h-3zm-204 1h1v1h-1zm69 0h1v1h-1zm63 0h1v1h-1zm-33 1h1v1h-1zm113 0h1v1h-1zm-66 1h1v1h-1zm-65 1h1v1h-1zm55 1h1v1h-1zm15 1h1v1h-1zm77 0h1v1h-1zm-214 2h1v1h-1zm37 0h1v1h-1zm89 0h1v1h-1zm14 0h1v1h-1zm-92 1h1v1h-1zm161 0h1v1h-1zm3 2h1v1h-1zm-168 1h1v1h-1zm104 1h1v1h-1zm67 0h1v1h-1zm-194 1h1v1h-1zm4 0h1v1h-1zm138 0h1v1h-1zm-105 2h1v1h-1zm54 0h1v1h-1zm13 0h1v1h-1zm-70 1h1v1h-1zm53 0h1v1h-1zm13 0h1v1h-1zm-70 1h1v1h-1zm54 0h1v1h-1zm43 0h1v1h-1zm8 0h1v1h-1zm-109 1h1v1h-1zm54 0h1v1h-1zm32 0h1v1h-1zm-100 1h1v1h-1zm109 0h1v1h-1zm-106 1h1v1h-1zm49 0h2v1h-2zm34 1h1v1h-1zm23 0h1v1h-1zm14 0h1v1h-1zm8 1h1v1h-1zm-51 1h1v1h-1zm6 0h1v1h-1zm-6 1h1v1h-1zm54 0h1v1h-1zm11 0h1v1h-1zm-42 3h1v1h-1zm32 1h1v1h-1zm17 1h1v1h-1zm-40 2h1v1h-1zm34 0h1v1h-1zm7 4h1v1h-1zm-43 1h1v1h-1zm53 1h1v1h-1zm-51 2h1v1h-1zm17 0h2v1h-2zm33 1h1v1h-1zm-53 5h1v1h-1zm25 5h1v1h-1zm2 1h1v1h-1zm5 1h1v1h-1z"/>
    <path fill="#bbb" d="M179 78h4v1h-4zm19 0h5v1h-5zm-25 1h2v1h-2zm35 0h2v1h-2zm-40 1h1v1h-1zm45 0h2v1h-2zm-72 1h1v1h-1zm23 0h1v1h-1zm54 0h1v1h-1zm-61 2h1v1h-1zm67 0h1v1h-1zm-70 1h1v1h-1zm-2 1h1v1h-1zm78 0h1v1h-1zm-110 1h1v1h-1zm-3 1h1v1h-1zm120 1h1v1h-1zm-120 2h1v1h-1zm-41 1h1v1h-1zm1 1h2v1h-2zm27 0h1v1h-1zm-24 1h1v1h-1zm25 0h2v1h-2zm141 0h1v1h-1zM82 94h1v1h-1zm40 0h1v1h-1zm12 0h1v1h-1zm-54 1h1v1h-1zm4 0h1v1h-1zm24 0h1v1h-1zm141 0h1v1h-1zm-138 2h1v1h-1zm4 0h1v1h-1zm2 1h1v1h-1zm15 0h1v1h-1zm-47 1h1v1h-1zm34 0h1v1h-1zm-25 1h1v1h-1zm27 0h1v1h-1zm2 1h1v1h-1zm2 1h1v1h-1zm-35 1h1v1h-1zm37 0h1v1h-1zm133 0h1v1h-1zm-126 1h1v1h-1zm-3 1h1v1h-1zm2 0h1v1h-1zm-18 4h1v1h-1zm-70 1h1v1h-1zm1 1h2v1h-2zm3 1h1v1h-1zm52 0h1v1h-1zm-49 2h1v1h-1zm0 2h1v1h-1zm58 0h1v1h-1zm158 0h1v1h-1zm14 0h1v1h-1zm-225 1h1v1h-1zm210 2h1v1h-1zm-148 1h1v1h-1zm167 1h1v1h-1zm-221 1h1v1h-1zm201 0h1v1h-1zm13 0h1v1h-1zm-211 2h1v1h-1zm210 1h1v1h-1zm11 0h1v1h-1zm-159 1h1v1h-1zm135 0h1v1h-1zm-133 1h1v1h-1zm-58 1h1v1h-1zm217 0h1v1h-1zm-27 1h1v1h-1zm-197 1h1v1h-1zm11 1h1v1h-1zm198 1h1v1h-1zm-133 1h1v1h-1zm-71 1h1v1h-1zm223 1h1v1h-1zm-33 1h1v1h-1zm13 0h1v1h-1zm-210 1h1v1h-1zm231 0h1v1h-1zm-207 1h1v1h-1zm-21 1h1v1h-1zm86 0h1v1h-1zm107 0h1v1h-1zm36 0h1v1h-1zm-228 1h1v1h-1zm87 0h1v1h-1zm118 0h1v1h-1zm-180 1h1v1h-1zm3 2h1v1h-1zm2 1h1v1h-1zm200 0h1v1h-1zm-227 1h1v1h-1zm3 0h1v1h-1zm1 1h1v1h-1zm26 0h1v1h-1zm61 0h1v1h-1zm-86 1h1v1h-1zm223 0h1v1h-1zm-195 1h1v1h-1zm-30 1h1v1h-1zm31 0h1v1h-1zm162 1h1v1h-1zm33 0h1v1h-1zm-137 2h1v1h-1zm106 0h1v1h-1zm1 1h1v1h-1zm-192 1h1v1h-1zm223 0h1v1h-1zm-187 3h1v1h-1zm53 0h1v1h-1zm-52 1h1v1h-1zm159 0h1v1h-1zm28 0h1v1h-1zm0 1h1v1h-1zm-219 1h1v1h-1zm91 0h1v1h-1zm-90 1h1v1h-1zm1 1h1v1h-1zm96 1h1v1h-1zm96 0h1v1h-1zm10 0h1v1h-1zm16 1h1v1h-1zm-216 1h1v1h-1zm216 0h1v1h-1zm-228 1h1v1h-1zm113 0h1v1h-1zm115 0h1v1h-1zm-223 1h1v1h-1zm8 0h1v1h-1zm-13 1h1v1h-1zm51 0h1v1h-1zm154 0h1v1h-1zm-205 1h1v1h-1zm52 0h1v1h-1zm-52 1h1v1h-1zm53 0h1v1h-1zm153 0h1v1h-1zm-21 1h1v1h-1zm22 1h1v1h-1zm-85 1h1v1h-1zm94 1h1v1h-1zm-208 1h1v1h-1zm188 0h1v1h-1zm21 0h1v1h-1zm-210 1h1v1h-1zm192 0h1v1h-1zm-17 1h1v1h-1zm42 0h1v1h-1zm-39 1h1v1h-1zm-120 3h1v1h-1zm114 0h1v1h-1zm14 0h1v1h-1zm-127 1h1v1h-1zm62 0h1v1h-1zm68 0h1v1h-1zm-190 1h1v1h-1zm61 0h1v1h-1zm-61 1h1v1h-1zm62 0h1v1h-1zm-62 1h1v1h-1zm127 0h1v1h-1zm-127 1h1v1h-1zm162 0h1v1h-1zm50 0h1v1h-1zm-212 1h1v1h-1zm163 0h1v1h-1zm40 0h1v1h-1zm-203 1h1v1h-1zm153 0h1v1h-1zm85 0h1v1h-1zm-238 1h1v1h-1zm0 1h1v1h-1zm134 0h1v1h-1zm22 0h1v1h-1zm53 0h1v1h-1zm-209 1h1v1h-1zm0 1h1v1h-1zm159 0h1v1h-1zm40 0h1v1h-1zm40 0h1v1h-1zm-239 1h1v1h-1zm72 0h1v1h-1zm-72 1h1v1h-1zm73 0h1v1h-1zm82 0h1v1h-1zm7 0h1v1h-1zm16 0h1v1h-1zm-178 1h1v1h-1zm74 0h1v1h-1zm67 0h1v1h-1zm31 0h1v1h-1zm7 0h1v1h-1zm-179 1h1v1h-1zm75 0h1v1h-1zm90 0h1v1h-1zm8 0h1v1h-1zm7 0h1v1h-1zm16 0h1v1h-1zm-196 1h1v1h-1zm181 0h1v1h-1zm59 0h1v1h-1zm-72 1h1v1h-1zm14 0h1v1h-1zm-6 1h1v1h-1zm-28 1h1v1h-1zm14 0h1v1h-1zm9 0h1v1h-1zm31 0h1v1h-1zm-28 2h1v1h-1zm67 0h1v1h-1zm-53 1h1v1h-1zm-187 1h1v1h-1zm0 1h1v1h-1zm93 0h1v1h-1zm59 0h1v1h-1zm16 0h1v1h-1zm-168 1h1v1h-1zm153 0h1v1h-1zm1 1h1v1h-1zm-50 1h1v1h-1zm51 0h1v1h-1zm101 0h1v1h-1zm3 1h1v1h-1zm-258 1h1v1h-1zm110 0h1v1h-1zm130 0h1v1h-1zm-240 1h1v1h-1zm112 0h1v1h-1zm128 0h1v1h-1zm-127 1h1v1h-1zm127 0h1v1h-1zm-62 1h1v1h-1zm15 0h1v1h-1zm47 0h1v1h-1zm-77 1h1v1h-1zm77 0h1v1h-1zm-239 1h1v1h-1zm180 0h1v1h-1zm59 0h1v1h-1zm-74 1h1v1h-1zm74 0h1v1h-1zm-122 1h1v1h-1zm1 1h1v1h-1zm50 0h1v1h-1zm-167 1h1v1h-1zm193 0h1v1h-1zm-23 1h1v1h-1zm16 0h1v1h-1zm52 0h1v1h-1zm-44 1h1v1h-1zm-193 1h1v1h-1zm173 1h1v1h-1zm-172 2h1v1h-1zm175 0h1v1h-1zm16 0h1v1h-1zm-67 1h1v1h-1zm76 0h1v1h-1zm-75 1h1v1h-1zm53 0h1v1h-1zm65 0h1v1h-1zm-242 1h1v1h-1zm125 0h1v1h-1zm121 0h1v1h-1zm-42 1h1v1h-1zm-203 1h1v1h-1zm196 0h1v1h-1zm37 0h1v1h-1zm0 1h1v1h-1zm-50 1h1v1h-1zm25 0h1v1h-1zm-206 3h1v1h-1zm140 0h1v1h-1zm61 0h1v1h-1zm12 0h1v1h-1zm-26 1h1v1h-1zm28 0h1v1h-1zm52 0h1v1h-1zm-266 1h1v1h-1zm216 0h1v1h-1zm-73 1h1v1h-1zm46 0h1v1h-1zm30 0h1v1h-1zm39 0h1v1h-1zm2 0h1v1h-1zm-259 1h1v1h-1zm258 0h1v1h-1zm-67 1h1v1h-1zm15 0h1v1h-1zm21 0h1v1h-1zm24 0h1v1h-1zm-28 1h1v1h-1zm-76 1h1v1h-1zm84 1h1v1h-1zm20 0h1v1h-1zm-54 1h1v1h-1zm54 0h1v1h-1zm-38 1h1v1h-1zm38 0h1v1h-1zm-247 1h1v1h-1zm148 0h1v1h-1zm48 0h1v1h-1zm30 0h1v1h-1zm-26 3h1v1h-1zm16 1h1v1h-1zm13 1h1v1h-1zm-225 1h1v1h-1zm158 0h1v1h-1zm42 0h1v1h-1zm43 0h1v1h-1zm-42 1h1v1h-1zm36 0h2v1h-2zm-33 2h1v1h-1zm-201 1h1v1h-1zm160 0h1v1h-1zm21 0h1v1h-1zm7 0h1v1h-1zm-7 1h1v1h-1zm39 1h1v1h-1zm-90 1h1v1h-1zm-3 1h1v1h-1zm81 0h1v1h-1zm30 0h1v1h-1zm-74 1h1v1h-1zm60 0h1v1h-1zm26 0h1v1h-1zm-53 1h1v1h-1zm14 0h1v1h-1zm27 0h1v1h-1zm-120 2h1v1h-1zm26 0h1v1h-1zm43 0h1v1h-1zm52 0h1v1h-1zm-231 1h1v1h-1zm135 0h1v1h-1zm3 0h1v1h-1zm69 0h1v1h-1zm-206 1h1v1h-1zm122 1h1v1h-1zm18 0h1v1h-1zm44 0h1v1h-1zm-62 1h1v1h-1zm20 0h1v1h-1zm19 0h1v1h-1zm27 0h2v1h-2zm20 0h1v1h-1zm48 0h1v1h-1zm3 0h1v1h-1zm-137 1h1v1h-1zm40 0h1v1h-1zm32 0h1v1h-1zm64 0h1v1h-1zm-136 1h1v1h-1zm23 0h1v1h-1zm18 0h1v1h-1zm72 0h1v1h-1zm10 0h1v1h-1zm-123 2h1v1h-1zm20 0h1v1h-1zm88 0h1v1h-1zm-222 1h1v1h-1zm135 0h1v1h-1zm24 0h1v1h-1zm-59 1h1v1h-1zm36 0h1v1h-1zm98 0h1v1h-1zm-89 1h1v1h-1zm17 0h1v1h-1zm-15 1h1v1h-1zm90 0h1v1h-1zm-144 1h1v1h-1zm135 0h1v1h-1zm11 0h1v1h-1zm-89 1h1v1h-1zm17 0h1v1h-1zm40 1h1v1h-1zm-114 1h1v1h-1zm117 0h1v1h-1zm-131 1h1v1h-1zm34 0h1v1h-1zm42 0h1v1h-1zm33 0h1v1h-1zm32 0h3v1h-3zm-143 1h1v1h-1zm114 0h1v1h-1zm33 0h1v1h-1zm-209 1h1v1h-1zm60 0h1v1h-1zm83 0h1v1h-1zm18 0h1v1h-1zm-103 1h1v1h-1zm12 0h1v1h-1zm61 0h1v1h-1zm81 0h1v1h-1zm10 0h1v1h-1zm-166 1h1v1h-1zm90 0h1v1h-1zm-73 1h1v1h-1zm23 0h1v1h-1zm70 0h1v1h-1zm49 0h1v1h-1zm-80 1h1v1h-1zm-125 1h1v1h-1zm141 0h1v1h-1zm67 0h1v1h-1zm-141 1h1v1h-1zm-62 1h1v1h-1zm32 0h1v1h-1zm107 0h1v1h-1zm18 0h1v1h-1zm-154 1h1v1h-1zm27 0h1v1h-1zm14 0h1v1h-1zm164 0h1v1h-1zm-202 1h1v1h-1zm22 0h1v1h-1zm114 0h1v1h-1zm-133 1h2v1h-2zm71 0h1v1h-1zm131 0h1v1h-1zm-198 1h3v1h-3zm11 0h1v1h-1zm-5 1h1v1h-1zm41 0h1v1h-1zm54 0h1v1h-1zm33 0h1v1h-1zm67 0h1v1h-1zm-177 1h1v1h-1zm74 0h1v1h-1zm50 0h1v1h-1zm-53 1h1v1h-1zm19 0h1v1h-1zm23 0h1v1h-1zm-99 1h1v1h-1zm53 0h1v1h-1zm48 0h1v1h-1zm-119 1h1v1h-1zm14 0h1v1h-1zm54 0h1v1h-1zm-59 1h2v1h-2zm54 0h2v1h-2zm51 0h1v1h-1zm8 0h1v1h-1zm-118 1h3v1h-3zm52 0h4v1h-4zm26 0h1v1h-1zm34 0h1v1h-1zm19 0h1v1h-1zm-139 1h4v1h-4zm51 0h2v1h-2zm71 0h1v1h-1zm7 0h1v1h-1zm-28 1h1v1h-1zm42 1h1v1h-1zm-41 1h1v1h-1zm32 0h1v1h-1zm-47 1h1v1h-1zm-7 1h1v1h-1zm10 0h1v1h-1zm13 0h1v1h-1zm28 0h1v1h-1zm6 0h1v1h-1zm-43 1h4v1h-4zm7 1h1v1h-1zm10 0h1v1h-1zm29 0h1v1h-1zm10 0h1v1h-1zm-6 2h1v1h-1zm-5 2h1v1h-1zm10 1h1v1h-1zm8 0h1v1h-1zm-6 1h1v1h-1zm-44 1h1v1h-1zm46 0h1v1h-1zm8 1h1v1h-1zm-59 1h1v1h-1zm54 0h1v1h-1zm2 1h1v1h-1zm-46 1h1v1h-1zm29 0h1v1h-1zm-37 1h1v1h-1zm28 0h2v1h-2zm9 0h1v1h-1zm-27 2h1v1h-1zm51 0h1v1h-1zm-30 3h1v1h-1zm-26 1h1v1h-1zm32 4h1v1h-1zm-3 2h1v1h-1zm4 0h1v1h-1z"/>
    <path fill="#ccc" d="M183 78h15v1h-15zm-8 1h1v1h-1zm31 0h2v1h-2zm-37 1h1v1h-1zm43 0h1v1h-1zm-47 1h1v1h-1zm51 0h2v1h-2zm-55 1h1v1h-1zm59 0h2v1h-2zm-81 1h1v1h-1zm19 0h1v1h-1zm-3 1h1v1h-1zm72 0h1v1h-1zm-89 1h1v1h-1zm91 0h1v1h-1zm-91 1h1v1h-1zm12 0h1v1h-1zm82 0h1v1h-1zm-114 1h1v1h-1zm22 0h1v1h-1zm9 0h1v1h-1zm85 0h1v1h-1zm-85 1h1v1h-1zm-33 1h1v1h-1zm126 2h1v1h-1zm2 1h1v1h-1zm-123 1h1v1h-1zm15 0h1v1h-1zm-57 1h1v1h-1zm2 0h1v1h-1zm26 0h2v1h-2zm3 1h1v1h-1zm23 0h1v1h-1zm10 0h3v1h-3zm-57 1h1v1h-1zm26 0h1v1h-1zm-24 1h1v1h-1zm26 0h1v1h-1zm138 0h1v1h-1zM84 98h1v1h-1zm6 0h1v1h-1zm23 0h1v1h-1zm-21 1h1v1h-1zm24 1h1v1h-1zm17 0h1v1h-1zm123 0h1v1h-1zm-168 1h1v1h-1zm8 0h1v1h-1zm-7 1h1v1h-1zm9 0h1v1h-1zm21 0h1v1h-1zm-19 1h1v1h-1zm2 1h1v1h-1zm27 0h1v1h-1zm132 0h1v1h-1zm-157 1h1v1h-1zm16 0h1v1h-1zm142 0h1v1h-1zm-168 1h1v1h-1zm12 0h1v1h-1zm157 0h1v1h-1zm-168 1h1v1h-1zm13 0h1v1h-1zm156 0h1v1h-1zm-154 1h1v1h-1zm155 0h1v1h-1zm-152 1h1v1h-1zm153 0h1v1h-1zm-167 1h1v1h-1zm1 1h1v1h-1zm168 0h1v1h-1zm-218 2h1v1h-1zm1 2h1v1h-1zm54 0h1v1h-1zm163 0h1v1h-1zm-213 1h1v1h-1zm226 1h1v1h-1zm-14 1h1v1h-1zm-207 1h1v1h-1zm225 1h1v1h-1zm-222 1h1v1h-1zm58 0h1v1h-1zm2 1h1v1h-1zm165 2h1v1h-1zm-219 1h1v1h-1zm196 0h1v1h-1zm-193 2h1v1h-1zm218 0h1v1h-1zm-225 1h1v1h-1zm69 0h1v1h-1zm-68 1h1v1h-1zm9 0h1v1h-1zm61 0h1v1h-1zm156 1h1v1h-1zm-213 2h1v1h-1zm184 0h1v1h-1zm-182 1h1v1h-1zm64 1h1v1h-1zm149 0h1v1h-1zm-210 1h1v1h-1zm63 0h1v1h-1zm-71 2h1v1h-1zm11 0h1v1h-1zm-21 1h1v1h-1zm11 0h1v1h-1zm-10 1h1v1h-1zm11 0h1v1h-1zm1 1h1v1h-1zm13 0h1v1h-1zm205 0h1v1h-1zm-228 1h2v1h-2zm89 0h1v1h-1zm-63 1h1v1h-1zm203 0h1v1h-1zm-216 1h1v1h-1zm179 0h1v1h-1zm1 1h1v1h-1zm12 0h1v1h-1zm-190 1h1v1h-1zm79 0h1v1h-1zm100 0h1v1h-1zm12 0h1v1h-1zm-202 1h1v1h-1zm12 0h1v1h-1zm179 0h1v1h-1zm12 0h1v1h-1zm-11 1h1v1h-1zm12 0h1v1h-1zm-199 1h1v1h-1zm9 0h1v1h-1zm179 0h1v1h-1zm-187 1h1v1h-1zm9 0h1v1h-1zm179 0h1v1h-1zm-191 1h1v1h-1zm4 0h1v1h-1zm9 0h1v1h-1zm18 0h1v1h-1zm-26 1h1v1h-1zm8 0h1v1h-1zm19 0h1v1h-1zm161 0h1v1h-1zm32 0h1v1h-1zm-212 1h1v1h-1zm20 0h1v1h-1zm-29 3h1v1h-1zm8 0h1v1h-1zm214 0h1v1h-1zm-136 1h1v1h-1zm108 1h1v1h-1zm12 0h1v1h-1zm-169 2h1v1h-1zm56 0h1v1h-1zm-55 1h1v1h-1zm158 0h1v1h-1zm27 0h1v1h-1zm-184 1h1v1h-1zm1 1h1v1h-1zm60 0h1v1h-1zm-93 1h1v1h-1zm-9 1h1v1h-1zm10 0h1v1h-1zm-12 1h1v1h-1zm111 0h1v1h-1zm92 0h1v1h-1zm-203 2h1v1h-1zm204 0h1v1h-1zm24 0h1v1h-1zm-110 1h1v1h-1zm110 0h1v1h-1zm-214 1h1v1h-1zm106 0h1v1h-1zm1 1h1v1h-1zm-106 1h1v1h-1zm39 0h1v1h-1zm161 0h1v1h-1zm-200 1h1v1h-1zm40 0h1v1h-1zm133 0h1v1h-1zm-132 1h1v1h-1zm135 0h1v1h-1zm-180 1h1v1h-1zm165 0h1v1h-1zm18 0h1v1h-1zm13 0h1v1h-1zm-32 1h1v1h-1zm31 0h1v1h-1zm-32 1h1v1h-1zm-167 1h1v1h-1zm166 0h1v1h-1zm8 0h1v1h-1zm21 0h1v1h-1zm-195 1h1v1h-1zm117 0h1v1h-1zm48 0h1v1h-1zm56 0h1v1h-1zm-57 1h1v1h-1zm9 0h1v1h-1zm7 0h1v1h-1zm-62 1h1v1h-1zm45 0h1v1h-1zm20 0h1v1h-1zm-21 1h1v1h-1zm-1 1h1v1h-1zm-38 1h1v1h-1zm37 0h1v1h-1zm-98 2h1v1h-1zm135 0h1v1h-1zm15 0h1v1h-1zm24 0h1v1h-1zm-173 1h1v1h-1zm137 0h1v1h-1zm-71 1h1v1h-1zm22 1h1v1h-1zm12 0h1v1h-1zm38 0h1v1h-1zm-69 1h1v1h-1zm19 0h1v1h-1zm3 0h1v1h-1zm46 0h1v1h-1zm9 0h1v1h-1zm28 0h1v1h-1zm0 1h1v1h-1zm-85 1h1v1h-1zm5 0h1v1h-1zm-21 1h1v1h-1zm61 1h1v1h-1zm9 0h1v1h-1zm32 0h1v1h-1zm-99 1h1v1h-1zm99 0h1v1h-1zm-83 2h1v1h-1zm49 0h1v1h-1zm-129 1h1v1h-1zm68 0h1v1h-1zm30 0h1v1h-1zm21 0h1v1h-1zm-118 1h1v1h-1zm82 0h1v1h-1zm16 0h1v1h-1zm19 0h1v1h-1zm46 0h1v1h-1zm-93 1h1v1h-1zm93 0h1v1h-1zm-64 1h1v1h-1zm-175 1h1v1h-1zm162 0h1v1h-1zm-162 1h1v1h-1zm82 0h1v1h-1zm104 0h1v1h-1zm4 0h1v1h-1zm-190 1h1v1h-1zm165 0h1v1h-1zm24 0h1v1h-1zm10 0h1v1h-1zm41 0h1v1h-1zm-151 1h1v1h-1zm151 0h1v1h-1zm-144 2h1v1h-1zm73 0h1v1h-1zm28 0h1v1h-1zm-97 1h1v1h-1zm72 1h1v1h-1zm-171 1h1v1h-1zm194 0h1v1h-1zm-37 1h1v1h-1zm18 1h1v1h-1zm82 0h1v1h-1zm-97 1h1v1h-1zm-159 2h1v1h-1zm181 2h1v1h-1zm12 0h1v1h-1zm-26 1h1v1h-1zm72 0h1v1h-1zm-238 1h1v1h-1zm183 0h1v1h-1zm55 0h1v1h-1zm-120 1h1v1h-1zm120 0h1v1h-1zm8 0h1v1h-1zm4 0h1v1h-1zm-131 1h1v1h-1zm1 1h1v1h-1zm67 0h1v1h-1zm-14 1h1v1h-1zm23 0h1v1h-1zm-6 1h1v1h-1zm9 1h1v1h-1zm53 0h1v1h-1zm-58 2h1v1h-1zm43 0h1v1h-1zm-234 1h1v1h-1zm201 0h1v1h-1zm33 0h1v1h-1zm13 0h1v1h-1zm-53 1h1v1h-1zm40 0h1v1h-1zm11 0h1v1h-1zm-119 1h1v1h-1zm54 0h1v1h-1zm54 0h1v1h-1zm-28 1h1v1h-1zm-23 1h1v1h-1zm15 0h1v1h-1zm-196 1h1v1h-1zm184 1h1v1h-1zm15 0h1v1h-1zm10 0h1v1h-1zm22 1h1v1h-1zm-44 1h1v1h-1zm44 0h1v1h-1zm-89 1h1v1h-1zm89 0h1v1h-1zm-41 1h1v1h-1zm56 0h1v1h-1zm24 0h1v1h-1zm-64 1h1v1h-1zm30 0h1v1h-1zm14 0h1v1h-1zm-104 1h1v1h-1zm47 0h1v1h-1zm30 0h1v1h-1zm7 0h1v1h-1zm40 0h1v1h-1zm-74 2h1v1h-1zm14 0h1v1h-1zm44 0h1v1h-1zm10 0h1v1h-1zm5 0h1v1h-1zm-15 1h1v1h-1zm11 0h1v1h-1zm-114 1h1v1h-1zm62 0h1v1h-1zm-207 1h1v1h-1zm211 2h1v1h-1zm-61 1h1v1h-1zm64 1h1v1h-1zm-211 1h1v1h-1zm224 0h1v1h-1zm-72 1h1v1h-1zm4 1h1v1h-1zm45 0h1v1h-1zm14 0h1v1h-1zm15 1h1v1h-1zm-227 1h1v1h-1zm215 0h1v1h-1zm23 0h1v1h-1zm4 0h1v1h-1zm-82 1h1v1h-1zm42 0h1v1h-1zm-41 1h1v1h-1zm101 0h1v1h-1zm-78 1h1v1h-1zm35 0h1v1h-1zm-216 1h1v1h-1zm203 0h1v1h-1zm-202 1h1v1h-1zm180 0h1v1h-1zm11 0h1v1h-1zm53 0h1v1h-1zm-117 1h1v1h-1zm33 0h1v1h-1zm21 0h1v1h-1zm11 0h1v1h-1zm13 0h1v1h-1zm14 0h1v1h-1zm21 0h1v1h-1zm7 0h1v1h-1zm-86 1h1v1h-1zm32 0h1v1h-1zm-71 1h1v1h-1zm72 0h1v1h-1zm-74 1h1v1h-1zm-2 1h1v1h-1zm22 0h1v1h-1zm56 0h1v1h-1zm-56 1h1v1h-1zm57 0h1v1h-1zm15 0h1v1h-1zm14 0h1v1h-1zm-97 1h1v1h-1zm36 0h1v1h-1zm21 0h1v1h-1zm-75 1h1v1h-1zm18 0h1v1h-1zm13 0h1v1h-1zm4 0h1v1h-1zm20 0h1v1h-1zm21 0h1v1h-1zm27 0h1v1h-1zm53 0h1v1h-1zm-157 1h1v1h-1zm33 0h1v1h-1zm24 0h1v1h-1zm25 0h1v1h-1zm38 0h1v1h-1zm-86 1h1v1h-1zm53 0h1v1h-1zm54 0h1v1h-1zm-49 1h1v1h-1zm32 1h1v1h-1zm-125 1h1v1h-1zm20 0h1v1h-1zm25 0h1v1h-1zm17 0h1v1h-1zm73 0h1v1h-1zm-230 1h1v1h-1zm104 0h1v1h-1zm54 0h1v1h-1zm-15 1h1v1h-1zm61 0h1v1h-1zm-59 1h1v1h-1zm16 0h1v1h-1zm-54 1h1v1h-1zm31 0h1v1h-1zm67 0h1v1h-1zm32 0h1v1h-1zm-232 1h1v1h-1zm89 0h1v1h-1zm13 0h1v1h-1zm32 0h1v1h-1zm-38 1h1v1h-1zm49 0h1v1h-1zm16 0h1v1h-1zm40 0h1v1h-1zm35 0h1v1h-1zm-233 1h1v1h-1zm181 0h1v1h-1zm41 0h1v1h-1zm-115 1h1v1h-1zm38 0h1v1h-1zm34 0h1v1h-1zm22 0h1v1h-1zm-198 1h1v1h-1zm144 0h1v1h-1zm33 0h1v1h-1zm24 0h1v1h-1zm-130 1h1v1h-1zm12 0h1v1h-1zm140 0h1v1h-1zm-59 1h1v1h-1zm18 0h2v1h-2zm-108 1h1v1h-1zm61 0h1v1h-1zm81 0h1v1h-1zm-209 1h1v1h-1zm143 0h1v1h-1zm-141 1h1v1h-1zm68 0h1v1h-1zm60 0h1v1h-1zm82 0h1v1h-1zm-208 1h1v1h-1zm48 0h1v1h-1zm25 0h1v1h-1zm69 0h1v1h-1zm-140 1h1v1h-1zm44 0h1v1h-1zm165 0h1v1h-1zm-167 1h1v1h-1zm26 0h1v1h-1zm93 0h1v1h-1zm58 0h1v1h-1zm-214 1h1v1h-1zm35 0h1v1h-1zm14 0h1v1h-1zm91 0h1v1h-1zm67 0h1v1h-1zm-204 1h1v1h-1zm63 0h1v1h-1zm-60 1h1v1h-1zm118 0h1v1h-1zm19 0h1v1h-1zm75 0h1v1h-1zm-209 1h1v1h-1zm113 0h1v1h-1zm38 0h1v1h-1zm52 0h1v1h-1zm-199 1h1v1h-1zm15 0h1v1h-1zm92 0h1v1h-1zm26 0h1v1h-1zm-128 1h1v1h-1zm7 0h1v1h-1zm17 0h1v1h-1zm19 0h1v1h-1zm21 0h1v1h-1zm36 0h1v1h-1zm30 0h1v1h-1zm13 0h1v1h-1zm54 0h1v1h-1zm-193 1h2v1h-2zm93 0h1v1h-1zm-56 1h1v1h-1zm92 0h1v1h-1zm-113 1h1v1h-1zm18 0h1v1h-1zm53 0h1v1h-1zm16 0h1v1h-1zm39 0h1v1h-1zm-34 1h1v1h-1zm14 0h1v1h-1zm-96 1h1v1h-1zm54 0h1v1h-1zm29 0h1v1h-1zm36 0h1v1h-1zm-124 1h1v1h-1zm54 0h1v1h-1zm-60 1h2v1h-2zm52 0h2v1h-2zm42 0h1v1h-1zm28 0h1v1h-1zm12 1h1v1h-1zm-9 1h1v1h-1zm-51 1h1v1h-1zm8 2h1v1h-1zm41 0h1v1h-1zm7 0h1v1h-1zm-45 1h2v1h-2zm56 0h1v1h-1zm-49 1h1v1h-1zm41 0h1v1h-1zm-37 1h1v1h-1zm32 0h1v1h-1zm7 0h1v1h-1zm1 1h1v1h-1zm-30 1h1v1h-1zm34 1h1v1h-1zm8 0h1v1h-1zm-6 1h1v1h-1zm-9 1h1v1h-1zm0 1h1v1h-1zm-24 1h1v1h-1zm-5 1h1v1h-1zm30 0h1v1h-1zm15 0h1v1h-1zm-37 2h1v1h-1zm2 1h3v1h-3zm40 0h1v1h-1zm5 0h1v1h-1zm-31 1h5v1h-5zm28 0h1v1h-1zm-56 3h1v1h-1zm9 1h1v1h-1zm-1 1h1v1h-1zm25 2h1v1h-1zm-5 1h1v1h-1zm0 1h1v1h-1zm6 0h1v1h-1zm-1 3h2v1h-2z"/>
    <path fill="#ddd" d="M176 79h2v1h-2zm28 0h2v1h-2zm-34 1h2v1h-2zm41 0h1v1h-1zm-45 1h1v1h-1zm49 0h1v1h-1zm-75 1h1v1h-1zm22 0h1v1h-1zm57 0h1v1h-1zm-60 1h1v1h-1zm64 0h1v1h-1zm-81 1h1v1h-1zm14 0h1v1h-1zm69 0h2v1h-2zm-83 1h1v1h-1zm11 0h1v1h-1zm-32 1h1v1h-1zm2 0h1v1h-1zm28 0h1v1h-1zm79 0h2v1h-2zm-111 1h1v1h-1zm114 0h1v1h-1zm-117 1h1v1h-1zm120 0h1v1h-1zm-87 1h1v1h-1zm89 0h1v1h-1zm-120 1h1v1h-1zm31 0h1v1h-1zm91 0h1v1h-1zm-121 1h1v1h-1zm5 0h1v1h-1zm-4 1h1v1h-1zm4 0h1v1h-1zm14 0h2v1h-2zm10 0h1v1h-1zm95 0h1v1h-1zM78 93h2v1h-2zm59 0h1v1h-1zm3 0h1v1h-1zm-5 1h1v1h-1zm6 0h1v1h-1zm6 0h1v1h-1zm100 0h1v1h-1zM83 95h1v1h-1zm26 0h1v1h-1zm25 0h2v1h-2zm8 0h1v1h-1zm4 0h1v1h-1zm102 0h1v1h-1zM82 96h1v1h-1zm28 0h1v1h-1zm22 0h1v1h-1zm118 0h1v1h-1zM83 97h1v1h-1zm49 0h1v1h-1zm-16 1h1v1h-1zm137 0h1v1h-1zM91 99h1v1h-1zm24 0h1v1h-1zm3 0h1v1h-1zm136 0h1v1h-1zm-167 1h1v1h-1zm6 0h1v1h-1zm27 0h1v1h-1zm-25 1h1v1h-1zm23 0h1v1h-1zm4 0h1v1h-1zm135 0h1v1h-1zm-160 1h1v1h-1zm23 0h1v1h-1zm4 0h1v1h-1zm10 0h1v1h-1zm124 0h1v1h-1zm-137 1h1v1h-1zm5 0h1v1h-1zm133 0h1v1h-1zm-131 1h1v1h-1zm-35 1h1v1h-1zm37 0h1v1h-1zm4 0h1v1h-1zm-15 1h1v1h-1zm13 0h1v1h-1zm-14 1h1v1h-1zm-21 1h1v1h-1zm20 0h1v1h-1zm147 0h1v1h-1zm-166 1h1v1h-1zm14 0h1v1h-1zm4 0h1v1h-1zm151 1h1v1h-1zm-219 2h1v1h-1zm1 1h1v1h-1zm54 0h1v1h-1zm-53 1h1v1h-1zm54 0h1v1h-1zm-51 1h1v1h-1zm0 1h1v1h-1zm58 0h1v1h-1zm-56 1h1v1h-1zm59 0h1v1h-1zm-59 1h1v1h-1zm3 0h1v1h-1zm58 0h1v1h-1zm167 0h1v1h-1zm-227 1h1v1h-1zm228 0h1v1h-1zm-227 1h1v1h-1zm223 0h1v1h-1zm-222 1h1v1h-1zm208 0h1v1h-1zm-207 1h1v1h-1zm227 0h1v1h-1zm-226 1h1v1h-1zm6 0h1v1h-1zm59 0h1v1h-1zm154 0h1v1h-1zm8 0h1v1h-1zm-226 1h1v1h-1zm6 0h1v1h-1zm60 0h1v1h-1zm5 0h1v1h-1zm133 0h1v1h-1zm-203 1h1v1h-1zm67 0h1v1h-1zm-66 1h1v1h-1zm7 0h1v1h-1zm219 0h1v1h-1zm-225 1h1v1h-1zm9 1h1v1h-1zm191 0h1v1h-1zm13 1h1v1h-1zm14 0h1v1h-1zm-215 1h1v1h-1zm62 0h1v1h-1zm2 1h1v1h-1zm-70 1h1v1h-1zm72 0h1v1h-1zm151 0h1v1h-1zm-222 1h1v1h-1zm73 0h1v1h-1zm132 0h1v1h-1zm17 0h1v1h-1zm-211 1h1v1h-1zm180 1h1v1h-1zm-187 1h1v1h-1zm74 0h1v1h-1zm146 0h1v1h-1zm-144 1h1v1h-1zm124 0h1v1h-1zm-187 1h1v1h-1zm65 0h1v1h-1zm108 0h1v1h-1zm35 0h1v1h-1zm-206 1h1v1h-1zm65 0h1v1h-1zm-87 1h1v1h-1zm12 1h1v1h-1zm13 0h1v1h-1zm181 0h1v1h-1zm-204 1h2v1h-2zm11 0h1v1h-1zm79 0h1v1h-1zm100 0h1v1h-1zm-189 1h2v1h-2zm91 0h1v1h-1zm136 0h1v1h-1zm-226 1h1v1h-1zm11 0h1v1h-1zm15 0h1v1h-1zm65 0h1v1h-1zm-63 1h1v1h-1zm199 0h1v1h-1zm0 1h1v1h-1zm-225 1h1v1h-1zm12 0h1v1h-1zm17 0h1v1h-1zm-28 1h1v1h-1zm203 0h1v1h-1zm22 0h1v1h-1zm-21 1h1v1h-1zm21 0h1v1h-1zm-33 1h1v1h-1zm-190 1h1v1h-1zm87 0h1v1h-1zm117 0h1v1h-1zm-203 1h1v1h-1zm4 0h1v1h-1zm219 0h1v1h-1zm-222 1h1v1h-1zm4 0h1v1h-1zm6 0h1v1h-1zm21 0h1v1h-1zm1 1h1v1h-1zm161 1h1v1h-1zm-191 1h1v1h-1zm6 0h1v1h-1zm186 0h1v1h-1zm29 0h1v1h-1zm-220 1h1v1h-1zm5 0h1v1h-1zm-4 1h1v1h-1zm88 0h1v1h-1zm-56 1h1v1h-1zm160 0h1v1h-1zm12 0h1v1h-1zm-111 1h1v1h-1zm2 1h1v1h-1zm125 0h1v1h-1zm-216 1h1v1h-1zm190 0h1v1h-1zm11 0h1v1h-1zm15 0h1v1h-1zm-182 1h1v1h-1zm1 1h1v1h-1zm63 0h1v1h-1zm93 0h1v1h-1zm11 1h1v1h-1zm-200 1h1v1h-1zm101 0h1v1h-1zm2 1h1v1h-1zm-113 1h1v1h-1zm2 0h1v1h-1zm9 0h1v1h-1zm200 0h1v1h-1zm-211 1h1v1h-1zm173 0h1v1h-1zm4 0h1v1h-1zm25 0h1v1h-1zm23 0h1v1h-1zm-227 1h1v1h-1zm175 0h1v1h-1zm7 0h1v1h-1zm45 0h1v1h-1zm-22 1h1v1h-1zm22 0h1v1h-1zm0 1h1v1h-1zm-214 1h1v1h-1zm193 0h1v1h-1zm9 0h1v1h-1zm12 0h1v1h-1zm-216 1h1v1h-1zm45 0h1v1h-1zm171 0h1v1h-1zm-219 1h1v1h-1zm49 0h1v1h-1zm65 0h1v1h-1zm74 0h1v1h-1zm21 0h1v1h-1zm10 0h1v1h-1zm-169 1h1v1h-1zm146 0h1v1h-1zm16 0h1v1h-1zm-161 1h1v1h-1zm64 0h1v1h-1zm60 1h1v1h-1zm-177 1h1v1h-1zm0 1h1v1h-1zm182 0h1v1h-1zm-62 1h1v1h-1zm65 0h1v1h-1zm3 1h1v1h-1zm3 1h1v1h-1zm-66 1h1v1h-1zm34 0h1v1h-1zm12 0h1v1h-1zm23 0h1v1h-1zm-35 1h1v1h-1zm-31 1h1v1h-1zm32 0h1v1h-1zm76 0h1v1h-1zm-172 1h1v1h-1zm1 1h1v1h-1zm1 1h1v1h-1zm98 0h1v1h-1zm9 0h1v1h-1zm-106 1h1v1h-1zm84 0h1v1h-1zm14 0h1v1h-1zm9 0h1v1h-1zm25 0h1v1h-1zm-131 1h1v1h-1zm67 0h1v1h-1zm31 0h1v1h-1zm9 0h1v1h-1zm-8 1h1v1h-1zm40 0h1v1h-1zm-69 1h1v1h-1zm15 0h1v1h-1zm7 0h1v1h-1zm8 0h1v1h-1zm1 1h1v1h-1zm27 0h1v1h-1zm-42 1h1v1h-1zm9 0h1v1h-1zm7 0h1v1h-1zm12 0h1v1h-1zm13 0h1v1h-1zm43 0h1v1h-1zm-96 1h1v1h-1zm14 1h1v1h-1zm10 0h1v1h-1zm38 0h1v1h-1zm-59 1h1v1h-1zm-68 1h1v1h-1zm82 0h1v1h-1zm10 0h1v1h-1zm23 0h1v1h-1zm10 0h1v1h-1zm-202 1h1v1h-1zm78 0h1v1h-1zm82 0h1v1h-1zm31 0h1v1h-1zm48 0h1v1h-1zm-67 1h1v1h-1zm13 0h1v1h-1zm54 0h1v1h-1zm-76 1h1v1h-1zm37 0h1v1h-1zm-115 1h1v1h-1zm90 0h1v1h-1zm-87 1h1v1h-1zm78 0h1v1h-1zm-74 1h1v1h-1zm75 0h1v1h-1zm31 0h1v1h-1zm42 0h1v1h-1zm-145 1h1v1h-1zm145 0h1v1h-1zm-141 1h1v1h-1zm71 0h1v1h-1zm70 0h1v1h-1zm-239 1h1v1h-1zm102 0h1v1h-1zm93 0h1v1h-1zm44 0h1v1h-1zm-133 1h1v1h-1zm66 0h1v1h-1zm83 0h1v1h-1zm-146 1h1v1h-1zm64 0h1v1h-1zm-14 1h1v1h-1zm34 0h1v1h-1zm62 0h2v1h-2zm-79 1h1v1h-1zm17 0h1v1h-1zm-192 1h1v1h-1zm161 0h1v1h-1zm17 1h1v1h-1zm-14 1h1v1h-1zm-163 2h1v1h-1zm181 0h1v1h-1zm-12 2h1v1h-1zm15 0h1v1h-1zm63 0h1v1h-1zm-246 1h1v1h-1zm252 0h2v1h-2zm-252 1h1v1h-1zm171 0h1v1h-1zm82 0h1v1h-1zm-133 1h1v1h-1zm67 0h1v1h-1zm49 0h1v1h-1zm16 0h1v1h-1zm-251 1h1v1h-1zm120 0h1v1h-1zm76 0h1v1h-1zm39 0h1v1h-1zm-235 1h1v1h-1zm121 0h1v1h-1zm53 0h1v1h-1zm15 0h1v1h-1zm46 0h1v1h-1zm-36 1h1v1h-1zm36 0h1v1h-1zm14 0h1v1h-1zm-248 1h1v1h-1zm176 0h1v1h-1zm16 1h1v1h-1zm-13 1h1v1h-1zm24 0h1v1h-1zm-202 1h1v1h-1zm194 0h1v1h-1zm-67 1h1v1h-1zm68 0h1v1h-1zm-65 1h1v1h-1zm77 0h1v1h-1zm-74 1h1v1h-1zm51 0h1v1h-1zm14 0h1v1h-1zm34 0h1v1h-1zm-96 1h1v1h-1zm96 0h1v1h-1zm-230 1h1v1h-1zm137 0h1v1h-1zm62 0h1v1h-1zm11 0h2v1h-2zm27 1h1v1h-1zm-236 1h1v1h-1zm201 0h1v1h-1zm39 0h1v1h-1zm-38 1h1v1h-1zm15 0h1v1h-1zm11 0h1v1h-1zm-227 1h1v1h-1zm189 0h1v1h-1zm30 0h1v1h-1zm8 0h1v1h-1zm31 0h1v1h-1zm-66 1h1v1h-1zm12 0h1v1h-1zm56 0h1v1h-1zm-259 1h1v1h-1zm143 0h1v1h-1zm78 0h1v1h-1zm38 0h1v1h-1zm-115 1h1v1h-1zm87 0h1v1h-1zm-230 1h1v1h-1zm206 0h1v1h-1zm17 0h2v1h-2zm40 0h1v1h-1zm-262 1h1v1h-1zm193 0h1v1h-1zm-47 1h1v1h-1zm-145 1h1v1h-1zm195 0h1v1h-1zm13 0h1v1h-1zm-207 2h1v1h-1zm197 0h1v1h-1zm13 0h1v1h-1zm15 0h1v1h-1zm-224 1h1v1h-1zm148 0h1v1h-1zm49 0h1v1h-1zm-48 1h1v1h-1zm63 0h1v1h-1zm32 0h1v1h-1zm-243 1h1v1h-1zm225 0h1v1h-1zm18 0h1v1h-1zm-242 1h1v1h-1zm242 0h1v1h-1zm-241 1h1v1h-1zm156 0h1v1h-1zm57 0h1v1h-1zm-54 1h1v1h-1zm42 0h1v1h-1zm10 0h1v1h-1zm28 0h1v1h-1zm-238 1h1v1h-1zm215 0h1v1h-1zm25 0h2v1h-2zm20 0h1v1h-1zm-259 1h1v1h-1zm183 1h5v1h-5zm20 0h1v1h-1zm-43 1h1v1h-1zm31 0h1v1h-1zm27 0h1v1h-1zm-57 1h1v1h-1zm45 0h1v1h-1zm42 0h1v1h-1zm-245 1h1v1h-1zm128 0h1v1h-1zm112 0h1v1h-1zm-239 1h1v1h-1zm122 0h1v1h-1zm5 0h1v1h-1zm53 0h1v1h-1zm38 0h1v1h-1zm17 0h1v1h-1zm10 0h1v1h-1zm-244 1h1v1h-1zm126 0h1v1h-1zm54 0h1v1h-1zm25 0h1v1h-1zm-204 1h1v1h-1zm115 0h1v1h-1zm10 0h1v1h-1zm10 0h2v1h-2zm84 0h1v1h-1zm25 0h1v1h-1zm-243 1h1v1h-1zm112 0h1v1h-1zm12 0h1v1h-1zm10 0h1v1h-1zm2 0h1v1h-1zm22 0h1v1h-1zm48 0h1v1h-1zm37 0h1v1h-1zm-242 1h1v1h-1zm109 0h1v1h-1zm14 0h1v1h-1zm14 0h1v1h-1zm21 0h1v1h-1zm26 0h1v1h-1zm31 0h1v1h-1zm4 0h1v1h-1zm24 0h1v1h-1zm-136 1h1v1h-1zm85 0h1v1h-1zm29 0h1v1h-1zm38 0h1v1h-1zm-257 1h1v1h-1zm180 0h1v1h-1zm11 0h1v1h-1zm51 0h1v1h-1zm-241 1h1v1h-1zm139 0h1v1h-1zm45 0h1v1h-1zm7 0h1v1h-1zm39 0h1v1h-1zm11 0h1v1h-1zm13 0h1v1h-1zm-253 1h1v1h-1zm188 0h1v1h-1zm3 0h1v1h-1zm30 0h1v1h-1zm-220 1h1v1h-1zm134 0h1v1h-1zm6 0h1v1h-1zm65 0h1v1h-1zm25 0h1v1h-1zm10 0h1v1h-1zm-239 1h1v1h-1zm97 0h1v1h-1zm37 0h1v1h-1zm7 0h1v1h-1zm-140 1h1v1h-1zm107 0h1v1h-1zm97 0h1v1h-1zm8 0h1v1h-1zm10 0h1v1h-1zm17 0h1v1h-1zm-104 1h1v1h-1zm8 0h1v1h-1zm90 0h1v1h-1zm-230 1h1v1h-1zm157 0h1v1h-1zm65 0h1v1h-1zm10 0h1v1h-1zm5 0h1v1h-1zm-236 1h1v1h-1zm104 0h1v1h-1zm9 0h1v1h-1zm109 0h1v1h-1zm-221 1h1v1h-1zm90 0h1v1h-1zm7 0h1v1h-1zm15 0h1v1h-1zm31 0h1v1h-1zm79 0h1v1h-1zm14 0h1v1h-1zm-234 1h1v1h-1zm95 0h1v1h-1zm63 0h1v1h-1zm75 0h2v1h-2zm-232 1h1v1h-1zm133 0h1v1h-1zm11 0h1v1h-1zm-45 1h1v1h-1zm35 0h1v1h-1zm11 0h1v1h-1zm15 0h1v1h-1zm21 0h1v1h-1zm19 0h1v1h-1zm20 0h1v1h-1zm-217 1h1v1h-1zm72 0h1v1h-1zm60 0h1v1h-1zm68 0h1v1h-1zm21 0h1v1h-1zm-88 1h1v1h-1zm28 0h1v1h-1zm21 0h1v1h-1zm21 0h4v1h-4zm19 0h1v1h-1zm-219 1h1v1h-1zm66 0h1v1h-1zm94 0h1v1h-1zm17 0h1v1h-1zm3 0h1v1h-1zm31 0h1v1h-1zm-209 1h1v1h-1zm62 0h1v1h-1zm7 0h1v1h-1zm74 0h1v1h-1zm77 0h1v1h-1zm-218 1h1v1h-1zm58 0h1v1h-1zm85 0h1v1h-1zm16 0h1v1h-1zm-157 1h1v1h-1zm54 0h1v1h-1zm14 0h1v1h-1zm26 0h1v1h-1zm65 0h1v1h-1zm51 0h1v1h-1zm-158 1h1v1h-1zm92 0h1v1h-1zm17 0h1v1h-1zm52 0h1v1h-1zm7 0h1v1h-1zm-90 1h1v1h-1zm83 0h1v1h-1zm-207 1h1v1h-1zm66 0h1v1h-1zm4 0h1v1h-1zm17 0h1v1h-1zm54 0h1v1h-1zm17 0h1v1h-1zm58 0h1v1h-1zm-214 1h1v1h-1zm66 0h1v1h-1zm19 0h1v1h-1zm40 0h1v1h-1zm16 0h1v1h-1zm67 0h1v1h-1zm-205 1h1v1h-1zm50 0h1v1h-1zm14 0h1v1h-1zm92 0h1v1h-1zm58 0h1v1h-1zm-182 1h1v1h-1zm20 0h1v1h-1zm72 0h1v1h-1zm17 0h1v1h-1zm67 0h1v1h-1zm-178 1h1v1h-1zm24 0h1v1h-1zm96 0h1v1h-1zm-141 1h1v1h-1zm19 0h1v1h-1zm16 0h1v1h-1zm12 0h1v1h-1zm64 0h1v1h-1zm24 0h2v1h-2zm-131 1h1v1h-1zm13 0h1v1h-1zm32 0h1v1h-1zm101 0h1v1h-1zm54 0h1v1h-1zm-195 1h1v1h-1zm98 0h1v1h-1zm-56 1h1v1h-1zm21 0h1v1h-1zm32 0h1v1h-1zm36 0h1v1h-1zm-92 1h1v1h-1zm24 0h1v1h-1zm29 0h2v1h-2zm41 0h1v1h-1zm10 0h1v1h-1zm-107 1h1v1h-1zm53 0h1v1h-1zm45 0h1v1h-1zm-101 1h1v1h-1zm53 0h1v1h-1zm16 0h1v1h-1zm21 0h1v1h-1zm23 0h1v1h-1zm-118 1h1v1h-1zm54 0h1v1h-1zm41 0h1v1h-1zm4 0h1v1h-1zm10 0h1v1h-1zm-122 1h1v1h-1zm61 0h2v1h-2zm25 0h1v1h-1zm28 0h1v1h-1zm10 0h1v1h-1zm10 0h1v1h-1zm-132 1h1v1h-1zm50 0h3v1h-3zm64 0h1v1h-1zm-32 1h1v1h-1zm13 0h1v1h-1zm10 0h1v1h-1zm20 0h1v1h-1zm-52 1h2v1h-2zm63 0h1v1h-1zm-40 1h1v1h-1zm24 0h1v1h-1zm8 0h1v1h-1zm5 0h1v1h-1zm-60 1h1v1h-1zm49 0h1v1h-1zm17 0h1v1h-1zm-65 1h1v1h-1zm10 0h1v1h-1zm13 0h1v1h-1zm14 0h1v1h-1zm-23 1h1v1h-1zm45 0h1v1h-1zm6 0h1v1h-1zm-45 1h2v1h-2zm4 0h1v1h-1zm8 0h1v1h-1zm19 0h1v1h-1zm2 0h1v1h-1zm16 0h1v1h-1zm-45 1h1v1h-1zm25 0h1v1h-1zm7 1h1v1h-1zm8 0h1v1h-1zm8 0h1v1h-1zm-14 1h1v1h-1zm8 0h1v1h-1zm-7 1h1v1h-1zm9 0h1v1h-1zm8 1h1v1h-1zm-41 1h1v1h-1zm22 0h1v1h-1zm14 0h1v1h-1zm2 1h1v1h-1zm2 0h1v1h-1zm4 0h1v1h-1zm-50 1h2v1h-2zm31 0h1v1h-1zm20 0h1v1h-1zm-55 1h1v1h-1zm12 0h1v1h-1zm-12 1h1v1h-1zm13 0h1v1h-1zm23 0h1v1h-1zm17 0h1v1h-1zm5 0h1v1h-1zm-59 1h1v1h-1zm8 0h1v1h-1zm29 0h1v1h-1zm19 0h1v1h-1zm-48 1h1v1h-1zm12 0h7v1h-7zm17 0h1v1h-1zm21 0h1v1h-1zm-22 1h2v1h-2zm24 0h1v1h-1zm3 0h1v1h-1zm-61 1h1v1h-1zm8 0h1v1h-1zm51 0h1v1h-1zm-57 3h1v1h-1zm1 1h1v1h-1zm3 0h3v1h-3zm4 0h1v1h-1zm22 0h1v1h-1zm-2 1h1v1h-1zm2 0h2v1h-2zm2 2h1v1h-1zm-3 3h2v1h-2zm5 0h1v1h-1zm0 1h1v1h-1z"/>
    <path fill="#eee" d="M178 79h26v1h-26zm-6 1h39v1h-39zm-5 1h48v1h-48zm-26 1h1v1h-1zm22 0h56v1h-56zm-23 1h2v1h-2zm20 0h63v1h-63zm-21 1h3v1h-3zm18 0h68v1h-68zm-18 1h3v1h-3zm15 0h75v1h-75zm-32 1h1v1h-1zm17 0h3v1h-3zm13 0h78v1h-78zm-32 1h4v1h-4zm30 0h83v1h-83zm-33 1h7v1h-7zm33 0h86v1h-86zm-33 1h7v1h-7zm33 0h88v1h-88zm-31 1h5v1h-5zm31 0h90v1h-90zm-30 1h4v1h-4zm29 0h93v1h-93zm-28 1h3v1h-3zm28 0h94v1h-94zm-27 1h3v1h-3zm16 0h2v1h-2zm10 0h98v1h-98zm-68 1h1v1h-1zm43 0h2v1h-2zm13 0h5v1h-5zm12 0h99v1h-99zm-67 1h2v1h-2zm55 0h6v1h-6zm11 0h101v1H147zm-64 1h3v1h-3zm28 0h1v1h-1zm22 0h117v1H133zm-49 1h4v1h-4zm28 0h2v1h-2zm21 0h119v1H133zm-48 1h5v1h-5zm29 0h2v1h-2zm19 0h120v1H133zm-47 1h5v1h-5zm30 0h2v1h-2zm17 0h121v1H133zm-45 1h5v1h-5zm29 0h3v1h-3zm17 0h122v1H134zm-45 1h6v1h-6zm30 0h3v1h-3zm15 0h123v1H134zm-44 1h7v1h-7zm31 0h3v1h-3zm14 0h123v1H135zm-44 1h9v1h-9zm31 0h4v1h-4zm13 0h124v1H135zm-43 1h10v1H92zm29 0h7v1h-7zm14 0h126v1H135zm-41 1h10v1H94zm27 0h9v1h-9zm14 0h127v1H135zm-40 1h11v1H95zm25 0h12v1h-12zm13 0h130v1H133zm-37 1h12v1H96zm23 0h145v1H119zm-21 1h12v1H98zm20 0h146v1H118zm-19 1h13v1H99zm18 0h149v1H117zm-17 1h167v1H100zm1 1h167v1H101zm1 1h167v1H102zm2 1h165v1H104zm-53 1h1v1h-1zm54 0h164v1H105zm-53 1h1v1h-1zm54 0h162v1H106zm-52 1h1v1h-1zm58 0h156v1H112zm-58 1h1v1h-1zm2 0h1v1h-1zm59 0h153v1H115zm167 0h1v1h-1zm-226 1h2v1h-2zm61 0h150v1H117zm164 0h2v1h-2zm-224 1h3v1h-3zm61 0h149v1H118zm163 0h3v1h-3zm-223 1h4v1h-4zm62 0h147v1H120zm161 0h4v1h-4zm-222 1h4v1h-4zm63 0h144v1H122zm158 0h6v1h-6zm-220 1h5v1h-5zm64 0h142v1H124zm156 0h6v1h-6zm-219 1h5v1h-5zm65 0h140v1H126zm154 0h7v1h-7zm-218 1h5v1h-5zm66 0h4v1h-4zm5 0h132v1H133zm146 0h9v1h-9zm-216 1h6v1h-6zm67 0h135v1H130zm149 0h10v1h-10zm-215 1h6v1h-6zm67 0h134v1H131zm147 0h11v1h-11zm-213 1h7v1h-7zm68 0h132v1H133zm145 0h12v1h-12zm-212 1h7v1h-7zm69 0h129v1H135zm143 0h13v1h-13zm-211 1h8v1h-8zm70 0h127v1H137zm141 0h13v1h-13zm-210 1h8v1h-8zm71 0h125v1H139zm138 0h15v1h-15zm-208 1h9v1h-9zm72 0h123v1H141zm136 0h16v1h-16zm-206 1h8v1h-8zm72 0h120v1H143zm134 0h16v1h-16zm-205 1h9v1h-9zm73 0h118v1H145zm132 0h16v1h-16zm-204 1h9v1h-9zm73 0h117v1H146zm130 0h18v1h-18zm-202 1h10v1H74zm74 0h114v1H148zm128 0h19v1h-19zm-200 1h10v1H76zm74 0h112v1H150zm126 0h19v1h-19zm-199 1h10v1H77zm75 0h110v1H152zm124 0h20v1h-20zm-198 1h10v1H78zm76 0h107v1H154zm121 0h21v1h-21zm-196 1h11v1H79zm77 0h105v1H156zm119 0h22v1h-22zm-195 1h12v1H80zm77 0h104v1H157zm118 0h22v1h-22zm-194 1h12v1H81zm78 0h102v1H159zm116 0h23v1h-23zm-193 1h13v1H82zm79 0h99v1h-99zm113 0h24v1h-24zm-191 1h14v1H83zm80 0h98v1h-98zm111 0h24v1h-24zm-201 1h1v1h-1zm11 0h14v1H84zm80 0h98v1h-98zm111 0h24v1h-24zm-202 1h2v1h-2zm12 0h15v1H85zm79 0h99v1h-99zm112 0h23v1h-23zm-202 1h2v1h-2zm12 0h16v1H86zm78 0h100v1H164zm113 0h22v1h-22zm-202 1h2v1h-2zm12 0h16v1H87zm77 0h101v1H164zm114 0h22v1h-22zm-202 1h2v1h-2zm12 0h17v1H88zm76 0h102v1H164zm115 0h21v1h-21zm-203 1h3v1h-3zm13 0h17v1H89zm75 0h103v1H164zm116 0h20v1h-20zm-203 1h3v1h-3zm13 0h17v1H90zm74 0h103v1H164zm116 0h21v1h-21zm-202 1h3v1h-3zm12 0h18v1H90zm75 0h104v1H165zm117 0h19v1h-19zm-203 1h3v1h-3zm11 0h19v1H90zm75 0h105v1H165zm117 0h19v1h-19zm-202 1h3v1h-3zm10 0h20v1H90zm75 0h106v1H165zm118 0h19v1h-19zm-203 1h5v1h-5zm9 0h22v1H89zm76 0h107v1H165zm119 0h18v1h-18zm-203 1h5v1h-5zm8 0h24v1H89zm76 0h107v1H165zm120 0h17v1h-17zm-203 1h5v1h-5zm6 0h26v1H88zm79 0h106v1H167zm119 0h16v1h-16zm-203 1h4v1h-4zm5 0h27v1H88zm81 0h105v1H169zm118 0h16v1h-16zm-203 1h32v1H84zm88 0h103v1H172zm115 0h16v1h-16zm-203 1h31v1H84zm32 0h1v1h-1zm58 0h101v1H174zm114 0h15v1h-15zm-203 1h33v1H85zm92 0h99v1h-99zm111 0h15v1h-15zm-202 1h33v1H86zm93 0h98v1h-98zm109 0h15v1h-15zm-200 1h32v1H88zm93 0h96v1h-96zm108 0h14v1h-14zm-201 1h33v1H88zm95 0h95v1h-95zm106 0h15v1h-15zm-200 1h33v1H89zm97 0h92v1h-92zm103 0h15v1h-15zm-212 1h3v1h-3zm12 0h35v1H89zm99 0h91v1h-91zm102 0h14v1h-14zm-213 1h4v1h-4zm13 0h35v1H90zm101 0h89v1h-89zm99 0h14v1h-14zm-213 1h4v1h-4zm13 0h36v1H90zm103 0h87v1h-87zm97 0h14v1h-14zm-213 1h2v1h-2zm3 0h1v1h-1zm11 0h36v1H91zm104 0h86v1h-86zm96 0h13v1h-13zm-214 1h2v1h-2zm14 0h37v1H91zm106 0h55v1h-55zm60 0h24v1h-24zm34 0h13v1h-13zm-200 1h38v1H91zm107 0h54v1h-54zm62 0h22v1h-22zm31 0h13v1h-13zm-199 1h38v1H92zm106 0h55v1h-55zm64 0h20v1h-20zm30 0h12v1h-12zm-200 1h39v1H92zm106 0h55v1h-55zm67 0h18v1h-18zm27 0h12v1h-12zm-201 1h41v1H91zm108 0h54v1h-54zm69 0h15v1h-15zm25 0h11v1h-11zm-204 1h44v1H89zm110 0h53v1h-53zm72 0h12v1h-12zm22 0h11v1h-11zm-207 1h48v1H86zm114 0h51v1h-51zm74 0h8v1h-8zm21 0h9v1h-9zm-211 1h51v1H84zm116 0h50v1h-50zm76 0h5v1h-5zm22 0h7v1h-7zm-214 1h52v1H84zm117 0h48v1h-48zm78 0h2v1h-2zm22 0h4v1h-4zm-217 1h54v1H84zm117 0h47v1h-47zm56 0h3v1h-3zm-173 1h55v1H84zm117 0h46v1h-46zm56 0h6v1h-6zm-173 1h56v1H84zm118 0h44v1h-44zm54 0h9v1h-9zm-173 1h58v1H83zm121 0h41v1h-41zm52 0h12v1h-12zm-173 1h59v1H83zm122 0h39v1h-39zm50 0h16v1h-16zm-172 1h60v1H83zm124 0h36v1h-36zm48 0h19v1h-19zm-172 1h61v1H83zm126 0h33v1h-33zm46 0h22v1h-22zm-172 1h62v1H83zm127 0h32v1h-32zm44 0h26v1h-26zm42 0h23v1h-23zm-213 1h63v1H83zm129 0h31v1h-31zm42 0h29v1h-29zm41 0h24v1h-24zm-212 1h64v1H83zm130 0h32v1h-32zm41 0h31v1h-31zm40 0h26v1h-26zm-211 1h65v1H83zm131 0h20v1h-20zm22 0h10v1h-10zm19 0h29v1h-29zm38 0h27v1h-27zm-210 1h66v1H83zm133 0h18v1h-18zm22 0h9v1h-9zm19 0h26v1h-26zm36 0h27v1h-27zm-210 1h67v1H83zm134 0h17v1h-17zm22 0h9v1h-9zm19 0h24v1h-24zm34 0h28v1h-28zm-209 1h68v1H83zm136 0h16v1h-16zm22 0h8v1h-8zm18 0h23v1h-23zm32 0h30v1h-30zm-208 1h70v1H83zm137 0h16v1h-16zm22 0h8v1h-8zm17 0h22v1h-22zm32 0h30v1h-30zm-208 1h71v1H83zm139 0h14v1h-14zm22 0h7v1h-7zm16 0h20v1h-20zm30 0h31v1h-31zm-207 1h72v1H83zm140 0h14v1h-14zm22 0h7v1h-7zm16 0h18v1h-18zm28 0h32v1h-32zm-206 1h73v1H83zm141 0h13v1h-13zm23 0h6v1h-6zm15 0h3v1h-3zm4 0h12v1h-12zm22 0h33v1h-33zm-205 1h74v1H83zm143 0h12v1h-12zm22 0h7v1h-7zm15 0h15v1h-15zm25 0h34v1h-34zm-205 1h75v1H83zm144 0h12v1h-12zm23 0h6v1h-6zm14 0h13v1h-13zm24 0h34v1h-34zm-205 1h76v1H83zm146 0h12v1h-12zm22 0h6v1h-6zm14 0h11v1h-11zm21 0h36v1h-36zm-203 1h77v1H83zm147 0h12v1h-12zm23 0h5v1h-5zm13 0h9v1h-9zm20 0h36v1h-36zm-202 1h77v1H84zm147 0h12v1h-12zm23 0h4v1h-4zm13 0h7v1h-7zm18 0h37v1h-37zm-201 1h79v1H84zm148 0h13v1h-13zm24 0h3v1h-3zm13 0h5v1h-5zm15 0h38v1h-38zm-200 1h81v1H84zm149 0h13v1h-13zm24 0h2v1h-2zm13 0h3v1h-3zm14 0h39v1h-39zm-200 1h84v1H84zm150 0h14v1h-14zm37 0h1v1h-1zm12 0h40v1h-40zm-199 1h87v1H84zm151 0h14v1h-14zm47 0h41v1h-41zm-198 1h91v1H84zm152 0h14v1h-14zm46 0h41v1h-41zm-198 1h94v1H84zm153 0h15v1h-15zm44 0h42v1h-42zm-197 1h98v1H84zm154 0h15v1h-15zm42 0h43v1h-43zm-195 1h101v1H85zm154 0h16v1h-16zm41 0h43v1h-43zm60 0h2v1h-2zm-255 1h105v1H85zm155 0h16v1h-16zm39 0h45v1h-45zm61 0h2v1h-2zm-255 1h108v1H85zm157 0h15v1h-15zm36 0h46v1h-46zm61 0h3v1h-3zm-254 1h111v1H85zm159 0h15v1h-15zm34 0h46v1h-46zm-193 1h112v1H85zm160 0h15v1h-15zm33 0h46v1h-46zm-192 1h112v1H86zm161 0h15v1h-15zm31 0h46v1h-46zm-192 1h113v1H86zm162 0h15v1h-15zm30 0h46v1h-46zm-192 1h114v1H86zm164 0h15v1h-15zm28 0h46v1h-46zm-192 1h115v1H86zm165 0h15v1h-15zm28 0h45v1h-45zm-192 1h115v1H87zm166 0h14v1h-14zm26 0h45v1h-45zm-192 1h116v1H87zm167 0h15v1h-15zm25 0h45v1h-45zm-192 1h117v1H87zm169 0h14v1h-14zm24 0h44v1h-44zm54 0h2v1h-2zm-246 1h117v1H88zm169 0h15v1h-15zm23 0h44v1h-44zm51 0h8v1h-8zm-243 1h118v1H88zm171 0h14v1h-14zm22 0h43v1h-43zm50 0h9v1h-9zm-243 1h119v1H88zm172 0h14v1h-14zm23 0h40v1h-40zm48 0h8v1h-8zm-242 1h119v1H89zm172 0h15v1h-15zm24 0h38v1h-38zm46 0h8v1h-8zm-242 1h120v1H89zm174 0h14v1h-14zm23 0h37v1h-37zm45 0h7v1h-7zm-242 1h122v1H89zm175 0h15v1h-15zm24 0h35v1h-35zm43 0h6v1h-6zm-241 1h122v1H90zm176 0h14v1h-14zm23 0h34v1h-34zm42 0h6v1h-6zm-241 1h123v1H90zm177 0h14v1h-14zm24 0h32v1h-32zm41 0h4v1h-4zm-242 1h124v1H90zm179 0h14v1h-14zm24 0h30v1h-30zm-202 1h124v1H91zm179 0h14v1h-14zm24 0h29v1h-29zm-203 1h126v1H91zm180 0h14v1h-14zm25 0h27v1h-27zm-205 1h129v1H91zm182 0h14v1h-14zm25 0h25v1h-25zm-206 1h131v1H92zm183 0h13v1h-13zm24 0h23v1h-23zm-207 1h134v1H92zm184 0h14v1h-14zm25 0h21v1h-21zm-208 1h136v1H93zm184 0h14v1h-14zm27 0h18v1h-18zm-211 1h139v1H93zm186 0h14v1h-14zm27 0h16v1h-16zm-212 1h139v1H94zm186 0h14v1h-14zm28 0h14v1h-14zm20 0h5v1h-5zm29 0h2v1h-2zm-263 1h141v1H94zm188 0h13v1h-13zm29 0h10v1h-10zm17 0h9v1h-9zm28 0h5v1h-5zm-261 1h141v1H95zm189 0h13v1h-13zm30 0h7v1h-7zm14 0h13v1h-13zm27 0h7v1h-7zm-260 1h142v1H95zm190 0h1v1h-1zm2 0h11v1h-11zm28 0h6v1h-6zm12 0h18v1h-18zm26 0h1v1h-1zm2 0h6v1h-6zm-259 1h142v1H96zm190 0h14v1h-14zm31 0h4v1h-4zm10 0h18v1h-18zm28 0h6v1h-6zm-259 1h143v1H96zm192 0h13v1h-13zm30 0h3v1h-3zm9 0h18v1h-18zm29 0h4v1h-4zm-259 1h144v1H97zm192 0h13v1h-13zm37 0h19v1h-19zm31 0h2v1h-2zm-259 1h144v1H98zm193 0h13v1h-13zm35 0h19v1h-19zm32 0h1v1h-1zm-260 1h145v1H98zm194 0h14v1h-14zm33 0h20v1h-20zm-226 1h146v1H99zm195 0h12v1h-12zm31 0h20v1h-20zm-226 1h147v1H99zm196 0h13v1h-13zm30 0h20v1h-20zm-225 1h147v1H100zm197 0h12v1h-12zm28 0h20v1h-20zm-224 1h147v1H101zm197 0h13v1h-13zm26 0h21v1h-21zm-223 1h148v1H101zm198 0h13v1h-13zm26 0h19v1h-19zm-223 1h150v1H102zm198 0h14v1h-14zm27 0h17v1h-17zm-224 1h153v1H103zm199 0h13v1h-13zm26 0h16v1h-16zm-224 1h155v1H104zm199 0h13v1h-13zm28 0h14v1h-14zm-227 1h158v1H104zm201 0h9v1h-9zm10 0h3v1h-3zm28 0h2v1h-2zm-238 1h158v1H105zm201 0h13v1h-13zm-200 1h158v1H106zm201 0h14v1h-14zm57 0h1v1h-1zm-258 1h159v1H106zm203 0h13v1h-13zm-202 1h158v1H107zm180 0h9v1h-9zm23 0h13v1h-13zm-202 1h158v1H108zm180 0h10v1h-10zm24 0h13v1h-13zm40 0h1v1h-1zm-243 1h125v1H109zm128 0h30v1h-30zm52 0h10v1h-10zm24 0h13v1h-13zm36 0h5v1h-5zm-239 1h121v1H110zm127 0h31v1h-31zm53 0h10v1h-10zm24 0h13v1h-13zm31 0h9v1h-9zm-234 1h118v1H111zm126 0h32v1h-32zm54 0h10v1h-10zm25 0h13v1h-13zm27 0h12v1h-12zm-231 1h114v1H112zm125 0h9v1h-9zm11 0h22v1h-22zm43 0h5v1h-5zm6 0h5v1h-5zm20 0h13v1h-13zm27 0h11v1h-11zm-231 1h111v1H113zm124 0h9v1h-9zm12 0h21v1h-21zm43 0h11v1h-11zm27 0h13v1h-13zm25 0h11v1h-11zm-230 1h108v1H114zm123 0h10v1h-10zm14 0h20v1h-20zm42 0h4v1h-4zm5 0h6v1h-6zm22 0h8v1h-8zm9 0h3v1h-3zm16 0h11v1h-11zm28 0h1v1h-1zm-259 1h106v1H114zm123 0h11v1h-11zm15 0h20v1h-20zm42 0h11v1h-11zm27 0h13v1h-13zm24 0h12v1h-12zm28 0h1v1h-1zm-257 1h102v1H116zm121 0h12v1h-12zm17 0h19v1h-19zm42 0h10v1h-10zm26 0h14v1h-14zm24 0h11v1h-11zm26 0h2v1h-2zm-255 1h100v1H117zm120 0h13v1h-13zm19 0h18v1h-18zm45 0h6v1h-6zm21 0h15v1h-15zm25 0h10v1h-10zm24 0h3v1h-3zm-253 1h99v1h-99zm119 0h14v1h-14zm20 0h18v1h-18zm49 0h2v1h-2zm17 0h15v1h-15zm24 0h11v1h-11zm24 0h2v1h-2zm-252 1h98v1h-98zm118 0h15v1h-15zm22 0h17v1h-17zm65 0h16v1h-16zm25 0h9v1h-9zm-229 1h96v1h-96zm117 0h16v1h-16zm24 0h16v1h-16zm63 0h17v1h-17zm26 0h9v1h-9zm-229 1h95v1h-95zm107 0h1v1h-1zm9 0h18v1h-18zm25 0h16v1h-16zm63 0h7v1h-7zm8 0h9v1h-9zm19 0h7v1h-7zm-230 1h94v1h-94zm104 0h3v1h-3zm11 0h18v1h-18zm27 0h15v1h-15zm61 0h19v1h-19zm29 0h6v1h-6zm-230 1h92v1h-92zm100 0h5v1h-5zm13 0h20v1h-20zm28 0h15v1h-15zm61 0h6v1h-6zm7 0h12v1h-12zm23 0h4v1h-4zm-231 1h91v1h-91zm98 0h5v1h-5zm15 0h20v1h-20zm29 0h15v1h-15zm59 0h20v1h-20zm31 0h4v1h-4zm-231 1h89v1h-89zm97 0h5v1h-5zm15 0h21v1h-21zm31 0h15v1h-15zm58 0h20v1h-20zm32 0h2v1h-2zm-231 1h87v1h-87zm95 0h5v1h-5zm14 0h23v1h-23zm33 0h15v1h-15zm57 0h22v1h-22zm-198 1h86v1h-86zm94 0h5v1h-5zm14 0h24v1h-24zm36 0h14v1h-14zm55 0h22v1h-22zm-198 1h85v1h-85zm93 0h4v1h-4zm14 0h25v1h-25zm37 0h14v1h-14zm34 0h1v1h-1zm21 0h19v1h-19zm20 0h2v1h-2zm-217 1h71v1h-71zm72 0h11v1h-11zm33 0h26v1h-26zm38 0h16v1h-16zm34 0h4v1h-4zm23 0h20v1h-20zm-199 1h82v1h-82zm103 0h28v1h-28zm41 0h15v1h-15zm33 0h3v1h-3zm28 0h15v1h-15zm-203 1h65v1h-65zm69 0h11v1h-11zm32 0h30v1h-30zm42 0h16v1h-16zm34 0h2v1h-2zm34 0h9v1h-9zm-209 1h61v1h-61zm69 0h10v1h-10zm29 0h32v1h-32zm45 0h16v1h-16zm67 0h9v1h-9zm-208 1h57v1h-57zm68 0h9v1h-9zm28 0h32v1h-32zm47 0h15v1h-15zm67 0h9v1h-9zm-208 1h53v1h-53zm68 0h7v1h-7zm26 0h33v1h-33zm48 0h16v1h-16zm68 0h8v1h-8zm-209 1h50v1h-50zm68 0h6v1h-6zm24 0h35v1h-35zm51 0h16v1h-16zm67 0h1v1h-1zm2 0h6v1h-6zm-210 1h47v1h-47zm67 0h5v1h-5zm23 0h36v1h-36zm52 0h17v1h-17zm68 0h8v1h-8zm-207 1h42v1h-42zm66 0h3v1h-3zm21 0h38v1h-38zm54 0h16v1h-16zm67 0h7v1h-7zm-206 1h38v1h-38zm66 0h2v1h-2zm19 0h39v1h-39zm56 0h16v1h-16zm67 0h7v1h-7zm-205 1h33v1h-33zm48 0h1v1h-1zm16 0h1v1h-1zm17 0h42v1h-42zm58 0h16v1h-16zm67 0h7v1h-7zm-204 1h29v1h-29zm44 0h5v1h-5zm35 0h42v1h-42zm60 0h16v1h-16zm67 0h7v1h-7zm-203 1h24v1h-24zm40 0h8v1h-8zm36 0h41v1h-41zm61 0h7v1h-7zm8 0h8v1h-8zm59 0h4v1h-4zm5 0h2v1h-2zm-205 1h18v1h-18zm35 0h11v1h-11zm37 0h38v1h-38zm64 0h13v1h-13zm66 0h6v1h-6zm-198 1h12v1h-12zm29 0h15v1h-15zm39 0h37v1h-37zm64 0h13v1h-13zm68 0h3v1h-3zm-195 1h5v1h-5zm23 0h18v1h-18zm40 0h34v1h-34zm66 0h12v1h-12zm67 0h2v1h-2zm-175 1h20v1h-20zm42 0h31v1h-31zm68 0h11v1h-11zm-111 1h18v1h-18zm43 0h28v1h-28zm70 0h9v1h-9zm-114 1h16v1h-16zm43 0h26v1h-26zm44 0h3v1h-3zm28 0h10v1h-10zm-117 1h15v1h-15zm45 0h23v1h-23zm40 0h8v1h-8zm21 0h1v1h-1zm12 0h10v1h-10zm-119 1h11v1h-11zm46 0h19v1h-19zm35 0h14v1h-14zm26 0h3v1h-3zm14 0h10v1h-10zm-122 1h8v1h-8zm47 0h13v1h-13zm35 0h3v1h-3zm4 0h11v1h-11zm21 0h6v1h-6zm17 0h9v1h-9zm-126 1h3v1h-3zm49 0h4v1h-4zm36 0h13v1h-13zm24 0h8v1h-8zm18 0h10v1h-10zm-41 1h12v1h-12zm23 0h11v1h-11zm20 0h9v1h-9zm-43 1h13v1h-13zm23 0h13v1h-13zm21 0h9v1h-9zm-54 1h2v1h-2zm10 0h13v1h-13zm23 0h14v1h-14zm23 0h4v1h-4zm5 0h4v1h-4zm-60 1h2v1h-2zm9 0h14v1h-14zm23 0h16v1h-16zm24 0h9v1h-9zm-55 1h1v1h-1zm10 0h12v1h-12zm21 0h5v1h-5zm6 0h12v1h-12zm20 0h9v1h-9zm-43 1h9v1h-9zm17 0h20v1h-20zm28 0h5v1h-5zm6 0h2v1h-2zm-44 1h2v1h-2zm11 0h18v1h-18zm19 0h1v1h-1zm9 0h8v1h-8zm-28 1h16v1h-16zm17 0h3v1h-3zm4 0h1v1h-1zm9 0h8v1h-8zm-30 1h23v1h-23zm32 0h7v1h-7zm-31 1h24v1h-24zm33 0h7v1h-7zm-33 1h25v1h-25zm35 0h6v1h-6zm-34 1h25v1h-25zm35 0h6v1h-6zm-34 1h21v1h-21zm22 0h2v1h-2zm14 0h6v1h-6zm-36 1h24v1h-24zm38 0h1v1h-1zm2 0h3v1h-3zm-39 1h23v1h-23zm38 0h5v1h-5zm-49 1h5v1h-5zm12 0h23v1h-23zm39 0h5v1h-5zm-53 1h1v1h-1zm2 0h6v1h-6zm13 0h22v1h-22zm40 0h4v1h-4zm-54 1h7v1h-7zm15 0h21v1h-21zm41 0h4v1h-4zm-56 1h7v1h-7zm26 0h10v1h-10zm32 0h3v1h-3zm-57 1h8v1h-8zm59 0h2v1h-2zm-58 1h7v1h-7zm59 0h2v1h-2zm-59 1h8v1h-8zm1 1h8v1h-8zm1 1h7v1h-7zm1 1h2v1h-2zm27 0h1v1h-1zm0 1h1v1h-1zm-1 1h4v1h-4zm0 1h4v1h-4zm0 1h5v1h-5zm0 1h6v1h-6zm3 1h3v1h-3z"/>
    <path fill="#fff" d="M296 262h1v1h-1zm36 11h1v1h-1zm33 18h1v1h-1zm-52 18h1v1h-1z"/>
  </g>
</svg>
