<svg xmlns="http://www.w3.org/2000/svg" width="32" height="32" viewBox="0 0 48 48" fill="none">
    <rect width="48" height="48" fill="#FFFFFF"/>
    <g transform="translate(24 24)">
        <path d="M0 0L-3.3 -21A21.3 21.3 0 0 1 6.8 -20.2L0 0Z" fill="#31E4F5"/>
        <path d="M0 0L6.8 -20.2A21.3 21.3 0 0 1 14.3 -15.8L0 0Z" fill="#99EFE6"/>
        <path d="M0 0L14.3 -15.8A21.3 21.3 0 0 1 20.1 -7L0 0Z" fill="#FFE27B"/>
        <path d="M0 0L20.1 -7A21.3 21.3 0 0 1 21.3 0L0 0Z" fill="#E458CB"/>
        <path d="M0 0L21.3 0A21.3 21.3 0 0 1 17.2 12.5L0 0Z" fill="#8CF1E8"/>
        <path d="M0 0L17.2 12.5A21.3 21.3 0 0 1 9.5 19.1L0 0Z" fill="#174AFF"/>
        <path d="M0 0L9.5 19.1A21.3 21.3 0 0 1 -5 20.7L0 0Z" fill="#E95BD2"/>
        <path d="M0 0L-5 20.7A21.3 21.3 0 0 1 -14.4 15.7L0 0Z" fill="#31D7F5"/>
        <path d="M0 0L-14.4 15.7A21.3 21.3 0 0 1 -20.3 6.6L0 0Z" fill="#6F3DFF"/>
        <path d="M0 0L-20.3 6.6A21.3 21.3 0 0 1 -20.2 -7L0 0Z" fill="#C756F4"/>
        <path d="M0 0L-20.2 -7A21.3 21.3 0 0 1 -14.3 -15.8L0 0Z" fill="#FFD264"/>
        <path d="M0 0L-14.3 -15.8A21.3 21.3 0 0 1 -3.3 -21L0 0Z" fill="#5A36EE"/>
    </g>
</svg>
