<svg xmlns="http://www.w3.org/2000/svg" viewBox="0 0 120 120">
  <path fill="#e8b849" d="M98.496 12.879c11.1 9.3 19.6 23.6 21.5 38.1 1.2 19.2-2.9 34.4-14.6 49.8-10.5 10.9-24.5 18.6-39.8 19.5-18.2.2-32.2-3.2-46.4-15.1-12.3-12.3-19.2-27.7-19.6-45.2.4-17.3 7-31.9 19.4-44 1.3-1.2 2.5-2.5 3.8-3.7 22.7-17.6 53.2-16.4 75.7.6"/>
  <path fill="#394f6f" d="M98.496 12.879c11.1 9.3 19.6 23.6 21.5 38.1 1.2 19.2-2.9 34.4-14.6 49.8-8.4 8.7-18.8 15-30.4 18.2h-4c.2-.6.2-.6 1-4 3.3-1 6.7-2 10-3 4-1.7 7.3-3.6 11-6 .3-1.6.7-3.3 1-5h2v2c1.3-.3 2.6-.6 4-1v-3c1.7-1.6 3.3-3.3 5-5 2-5 2-5 3-10h2c-1-2.3-2-4.6-3-7 3 1 3 1 5 4 5.5-13.5 5-26.1 1-40h-3c-.3-.7-.3-.7-2-4.4-5.3-10.4-12.3-17.2-22-23.6.7-.3 1.3-.6 2-1 6.5 4.5 12.1 8.7 17 15-6.2-10.6-17.1-17.5-28.7-21.1-6.9-1.8-18.7-4.2-25.3-.9h18l1 2h-7v3c-1.6.4-3.3.7-5 1h6v2c3 .4 5.9.7 9 1v2c1.7.4 3.3.7 5 1 1.3 1.3 2.6 2.7 4 4-.2.5-.2.5-1 3-.6-.8-1.1-1.5-1.7-2.4-2.3-2.6-2.3-2.6-7.3-4.6h-3l-2 2v-4c-5 0-5 0-7.6 2.4-.8.9-1.6 1.7-2.4 2.6-4 2-4 2-8.3 2.1-5.4 1.1-7.1 2.8-10.1 7.3-.3.4-.3.4-1.6 2.6-.5.9-1.1 1.7-1.6 2.6-1.5 2.6-1.5 2.6-3.4 7.4 1.1 3.5 1.1 3.5 3 6 .3 1 .7 2 1 3 7.1 1.5 7.1 1.5 11.1-.5 3.9-3.3 7.6-6.9 9.9-11.5v-7h2v4c.6-.4.6-.4 3.9-2.4 5.5-3.5 7.2-3.6 13.7-3.1l4.2.3c.5 0 .5 0 3.2.2.3-1.3.7-2.6 1-4 4.9 1.7 6.4 5.8 9 10 1.4 5.6 1.1 11.2 1.1 17v10.1c-.1 2.9-.1 2.9-1.1 7.9-.5.2-.5.2-3 1-.3-1.6-.6-3.2-.9-4.9-1.1-5.1-1.1-5.1-3.1-7.1 0 1 .1 2.1.1 3.1v4.1c.1 1.3.1 2.7.1 4.1-.2 3.7-.2 3.7-2.2 8.7h-3v2h-11v-2c.6 0 .6 0 3.8.1 4.2-.1 4.2-.1 8.2-1.1.3-2.6.7-5.3 1-8-1.6 1-3.3 2-5 3-4.3.2-4.3.2-8 0v-5c1.1 0 2.1.1 3.2.1 3.8-.1 3.8-.1 8.8-1.1v-4c-1.3 1.3-2.6 2.7-4 4h-5v-3c1.7-.6 3.3-1.3 5-2 .1-6.7.1-6.7-1-9-6.4 1.3-7.8 4.1-12 9-.7.4-.7.4-4 2-.2.5-.2.5-1 3-2 0-2 0-4.5-2.2-2.5-2.8-2.5-2.8-4.5-6.8h2c.3.7.7 1.3 1 2 4.3.3 4.3.3 9-.001l4-4c6-6 6-6 11.1-6h4.9v-9c-1.3-.6-2.6-1.3-4-2-.2.5-.2.5-1.1 3-1.9 3-1.9 3-5.1 3.9-.9 0-1.8.1-2.8.1-.3-1-.7-2-1-3h-5c-.3-1.6-.7-3.3-1-5 4.7-3.1 8.3-5.6 14-6-5.8-.3-9.8.2-15 3-3.7 3.7-6.3 7.3-9.1 11.7-1.9 2.3-1.9 2.3-6.9 5.3-5.3.2-5.3.2-10 0-3.6 7.2-3.1 14.1-3 22h-2c-.1-1.6-.3-3.2-.4-4.9-.6-5.1-.6-5.1-1.6-7.1-.1-3.5 0-6.8.6-10.3.4-2.7.4-2.7-.6-4.7v-6c-3 2-3 2-3.9 5.7-.2 1.5-.4 3-.7 4.5-.6 4.3-1.3 8.4-2.6 12.6-1.2 4.7.9 7.1 3.2 11.2v5c-1.3 1-2.6 1.9-3.9 2.9-4.1 3.1-4.1 3.1-5.7 6.8-.4 3.3-.4 3.3.6 6.3h2c.6.8 1.2 1.5 1.8 2.3 2.4 3 4.9 4.7 8.2 6.7v-2c.5-.1.5-.1 3-1 1.2-3 1.2-3 2-6h2c-.7 3.3-1.3 6.6-2 10h-2v2c9.8 3.4 18.9 6.1 29.3 6.6.8 0 .8 0 4.9.2 1.3.1 2.5.2 3.8.2-.3.7-.7 1.3-1 2-11.7 3.9-25.5.6-36.2-4.5-16.6-9.2-25.9-22.4-31.6-40.2-3.9-17.3-.3-33.3 8.8-48.3 2.8-3.6 5.7-6.8 9-10 1.3-1.2 2.5-2.5 3.8-3.7 22.7-17.6 53.2-16.4 75.7.6"/>
  <path fill="#54a2c2" d="M88.824 10.57c7.5 4.6 13.8 9.1 17.2 17.4-.4-.3-.4-.3-2-2-9.3-9.1-9.3-9.1-15-12 .7.6.7.6 4.5 3.3 8 6.5 13.3 14.4 17.5 23.7h3c3.7 13 5 26-.6 38.7-.3.3-.3.3-1.4 2.3-2-1-2-1-3-4-.5-.1-.5-.1-3-1-1.3-1.3-2.7-2.6-4-4-4.3-.7-4.3-.7-8-1v-2.7c.1-4.1.1-8.2.2-12.3v-4.2c.1-9.6-.3-17.6-7.2-24.8h-2c-.2.5-.2.5-1 3-1.1 0-2.2 0-3.4-.1-1.4 0-2.9 0-4.4-.1-1.4 0-2.9 0-4.3-.1-3.9.3-3.9.3-7.9 3.3-1.7.7-3.3 1.3-5 2v-4l-1 1v6c-4.1 6.3-8.3 11.8-15.6 14.2-3.4-.2-3.4-.2-6.2-2.2-4.5-5.9-4.5-5.9-5.2-10 1.8-4.4 4.3-8.1 7-12 .9-1.3 1.7-2.7 2.7-4.1 4.8-4.2 8.9-4.2 15.3-4.9 1-.3 2-.6 3-1 .6-1.3 1.3-2.6 2-4l1-1h5c.1.5.1.5 1 3 1.3-.3 2.6-.6 4-1 4.5 1.8 6 3 9 7-2-4-2-4-4-6-1.3-.3-2.7-.6-4-1v-2c-1.5-.1-3-.3-4.5-.4-4.5-.6-4.5-.6-5.5-1.6h-10c2-2 2-2 6.1-2.1 1.3 0 2.6.1 3.9.1v-3h-9v-1h-8c11.9-7.9 31.5-1.7 42.8 4.6"/>
  <path fill="#221818" d="M98.496 12.879c11.1 9.3 19.6 23.6 21.5 38.1 1.2 19.2-2.9 34.4-14.6 49.8-8.4 8.7-18.8 15-30.4 18.2h-4c.2-.6.2-.6 1-4 3.3-1 6.7-2 10-3 4-1.7 7.3-3.6 11-6 .3-1.6.7-3.3 1-5h2v2c1.3-.3 2.6-.6 4-1v-3c1.7-1.6 3.3-3.3 5-5 2-5 2-5 3-10h2c-1-2.3-2-4.6-3-7 3 1 3 1 5 4 5.5-13.5 5-26.1 1-40h-3c-.3-.7-.3-.7-2-4.4-5.3-10.4-12.3-17.2-22-23.6.7-.3 1.3-.6 2-1 6.5 4.5 12.1 8.7 17 15-6.2-10.6-17.1-17.5-28.7-21.1-6.9-1.8-18.7-4.2-25.3-.9h18l1 2h-3.1c-8-.2-15.1.1-22.9 2-2 .4-4 .7-6 1 .7-.6 1.3-1.3 2-2-6.3 1.5-10.8 5.2-16 9 1.3-.3 2.6-.6 4-1-3.1 3.6-6.2 7.2-9.5 10.6-9.4 11.8-10.6 23.1-11.1 37.7-.4 4.7-.4 4.7-2.4 7.7h3l6 15c2.5-2.4 3.7-4.8 5-8-.3-1.3-.7-2.6-1-4-.7-2.6-1.3-5.3-2-8h-2l.9-2.7c.8-2.4 1.5-4.8 2.1-7.3 1.2-3.7 2.6-7.4 4-11 .5-.1.5-.1 3-1 .7-1.3 1.3-2.6 2-4 .5.2.5.2 3 1-.7 1-1.3 2-2 3-.6 2.8-1.1 5.5-1.5 8.3-.7 4.3-1.4 8.3-2.7 12.5-1.2 4.7.9 7.1 3.2 11.2v5c-1.3 1-2.6 1.9-3.9 2.9-4.1 3.1-4.1 3.1-5.7 6.8-.4 3.3-.4 3.3.6 6.3h2c.6.8 1.2 1.5 1.8 2.3 2.4 3 4.9 4.7 8.2 6.7v-2c.5-.1.5-.1 3-1 1.2-3 1.2-3 2-6h2c-.7 3.3-1.3 6.6-2 10h-2v2c9.8 3.4 18.9 6.1 29.3 6.6.8 0 .8 0 4.9.2 1.3.1 2.5.2 3.8.2-.3.7-.7 1.3-1 2-11.7 3.9-25.5.6-36.2-4.5-16.6-9.2-25.9-22.4-31.6-40.2-3.9-17.3-.3-33.3 8.8-48.3 2.8-3.6 5.7-6.8 9-10 1.3-1.2 2.5-2.5 3.8-3.7 22.7-17.6 53.2-16.4 75.7.6"/>
  <path fill="#a9b268" d="M72 9c6 0 6 0 8.7 2.6C84.3 16.9 86 20.5 86 27c-.7 1.3-1.3 2.6-2 4-1.1 0-2.2-.1-3.4-.1-1.4 0-2.9-.1-4.4-.1-1.4 0-2.8-.1-4.3-.1C68 31 68 31 64 34c-1.6.7-3.3 1.3-5 2v-4l-1 1v6c-4.1 6.3-8.2 11.8-15.6 14.1C39 53 39 53 36.2 51c-4.4-6-4.4-6-5.2-10 1.8-4.4 4.3-8.1 7-12 .9-1.4 1.8-2.7 2.7-4.1 4.8-4.2 8.9-4.2 15.3-4.9 1-.3 2-.7 3-1 .7-1.3 1.3-2.6 2-4l1-1h5c.2.5.2.5 1 3 1.3-.3 2.6-.7 4-1 4.5 1.8 6 3 9 7-2-4-2-4-5-7v-3h-5c.3-1.3.7-2.6 1-4"/>
  <path fill="#a0424d" d="M45 7c-.7.3-.7.3-4 2 .8-.3 1.6-.7 2.5-1 4.1-1.2 7.6-1.2 11.9-1.1h4.3c.6 0 .6 0 3.3.1v3c-3.3.7-6.7 1.3-10 2-2.7 1-5.3 2-8 3-1 .3-2 .7-3 1v2c-.9.6-1.8 1.2-2.8 1.8-3.5 2.4-5 4.6-7.2 8.2l-4 4c0 1.5.1 2.9.1 4.4s-.1 3-.1 4.6c-2 1.7-4 3.4-6 5-6 14.3-6 14.3-6 20 .7 1.6 1.4 3.1 2.1 4.8 2.5 6.8 2.5 6.8.9 11.2-2.1 3.4-2.1 3.4-4 6-3.9-3.9-4.5-7.7-6-13-.3-1-.7-2-1-3H5c.3-1 .7-2 1-3 .1-3.3.2-6.6.2-9.9C7.1 41 14 29.4 27 17c-1.3.3-2.6.7-4 1 5.3-6 13.7-13.1 22-11"/>
  <path fill="#14161a" d="M51 0c19.3-.8 34.7 2.2 49.8 14.8 12.5 12.5 19.1 27.3 19.6 44.9-.3 16.1-5.8 31.4-17.1 43.2C94.7 110.7 83.2 119 71 119c.3-1.3.7-2.6 1-4 3.3-1 6.7-2 10-3 4-1.7 7.3-3.7 11-6 .3-1.7.7-3.3 1-5h2v2c.7-.2.7-.2 4-1v-3l5-5c2-5 2-5 3-10h2c-1-2.3-2-4.6-3-7 3 1 3 1 5 4 5.5-13.5 5-26.1 1-40h-3c-.7-1.4-1.3-2.9-2-4.4-5.3-10.4-12.3-17.2-22-23.6.7-.3 1.3-.7 2-1 6.5 4.5 12.1 8.7 17 15C98.8 16.4 87.9 9.5 76.3 5.8 67.6 3.6 58.9 3.9 50 4c.3-1.3.7-2.6 1-4"/>
  <path fill="#493a2f" d="M40 84c6.3 1.2 11.3 3 17 6 1.6.7 3.3 1.3 5 2 .3 1.7.7 3.3 1 5 3 3 3 3 7.2 3.2 4-.2 7.9-.5 11.8-1.2.3-2 .7-4 1-6h2c.3-1.3.7-2.6 1-4 2.6 2.6 4.9 4.9 7 8 .8.2.8.2 5 1 .3-1 .7-2 1-3l2 2c-.3 1.7-.7 3.3-1 5-1.3.3-2.6.7-4 1v-2h-2c.2.7.2.7 1 4-7 4.9-14.2 10-23 10-.7 1.7-1.3 3.3-2 5-1.3-.3-2.6-.7-4-1 1-.3 2-.7 3-1-1.1 0-2.2-.1-3.3-.1-12.3-.6-22.8-1.8-33.7-7.9v-2c6.1.9 11.9 2.6 17.8 4.3 1.1.2 2.1.4 3.2.7l1-1c-1.5-.7-1.5-.7-9-4 1-4 1-4 3-8-1.1.3-2.1.7-3.2 1-3.8 1-3.8 1-7.8 1v-4h2v2c10.6-2.6 10.6-2.6 14-6-1.2 4.9-3.5 8.7-6 13 1.1.2 2.1.5 3.2.8 3.8 1.2 3.8 1.2 6 3.3 4.4 3 8.7 2.1 13.8 1.9-11.4-20.9-11.4-20.9-24-25h-3v-2h-3Z"/>
  <path fill="#f6f5f2" d="M39 69c.8.3.8.3 5 2 .3 1.7.7 3.3 1 5h-4c0 1.1 0 2.2.1 3.3C41 83 41 83 40 86h3l2 2c.7-.3 1.3-.7 2-1 11.8 4.6 17.4 12.8 23 24v2c-3.6 1.8-7 1.3-11 1-3.7-2.4-3.7-2.4-7-5-1.6-.7-3.3-1.3-5-2 1.2-4.2 2.3-6.4 5-10v-2l-4 4c-4.7.8-4.7.8-9 1v-2h-2v4c3.6-.7 7.3-1.3 11-2-.3.8-.3.8-2 5v3c1.3.4 2.6.9 3.9 1.3C54 111 54 111 56 114c-8-1.1-14.7-2.5-22-6-1.4-4.2.2-6.1 2-10-1.6-.3-3.3-.7-5-1-2-1-4-1.9-6-3 4.7-1.6 7.7.9 12 3 .1-1.4.3-2.8.4-4.3.2-1.8.4-3.6.5-5.5.1-.9.1-.9.6-5.5C39 77 39 77 40 74c1-.3 2-.7 3-1Z"/>
  <path fill="#e2b047" d="M88 34c.1 1.2.2 2.5.4 3.8C89 42 89 42 91 46c-.2 3-.6 6-1 9v2h3c-.3.2-.3.2-2 1 .2.9.2.9 1.1 5.2C93 69 93 69 92 73c-2-3-2-3-2.5-6.6C89 63 89 63 87 61c0 1 0 2 .1 3.1v4.1c0 1.3.1 2.7.1 4C87 76 87 76 85 81h-3v2H71v-2c.6 0 .6 0 3.8.1C79 81 79 81 83 80c.3-2.6.7-5.3 1-8-1.7 1-3.3 2-5 3-4.3.2-4.3.2-8 0v-5c.5 0 .5 0 3.2.1C78 70 78 70 83 69v-4l-4 4h-5v-3c1.7-.7 3.3-1.3 5-2 .1-6.7.1-6.7-1-9-6.4 1.3-7.8 4.1-12 9-.7.3-.7.3-4 2-.3 1-.7 2-1 3-2 0-2 0-4.5-2.2C54 64 54 64 52 60h2c.3.7.7 1.3 1 2 4.2.2 4.2.2 9 0l4-4c6-6 6-6 11.1-6.1.8 0 .8 0 4.9.1v-9c-1.3-.7-2.6-1.3-4-2-.2.5-.2.5-1.1 2.9-1.9 3.1-1.9 3.1-5.1 4-.9 0-1.8.1-2.8.1-.3-1-.7-2-1-3h-5c-.3-1.6-.7-3.3-1-5 7.4-5.2 14.9-8.4 24-6"/>
  <path fill="#c1c746" d="M97.063 71.25c4.9.8 4.9.8 7.9 2.9 5 6.9 5 6.9 5 9.9h-2c.2.9.3 1.9.4 3-.5 5.4-2.8 7.9-6.4 12h-2c-.3-1-.6-2-1-3-.3.6-.6 1.3-1 2h-5c-4.3-5.1-6.6-8.2-7.8-14.7 1.5-7.6 4.2-11 11.9-12.1"/>
  <path fill="#c6ba6d" d="M57 19h2c-.3 1.3-.7 2.6-1 4H46c2.1 2.1 6.2 1.7 9 2 .3 1.6.7 3.3 1 5h-3v3c-.9.2-1.9.4-2.9.6C47 35 47 35 45.6 38.1c-.2 1-.4 1.9-.6 2.9h4v2h6c-3.5 4.4-6.1 7.1-11 10-5 0-5 0-7.6-2.1-4.6-5.6-4.6-5.6-5.4-9.9 1.8-4.4 4.3-8.1 7-12 .9-1.4 1.8-2.7 2.7-4.1 4.8-4.2 9-4.2 15.3-4.9Z"/>
  <path fill="#7ca4c2" d="M31 77c3 1 3 1 6 4 .7.3 1.3.7 2 1-.7 5-1.3 9.9-2 15-3-.6-6-1.3-9-2l6 3c-.3 2.9-.3 2.9-1 6-1 .7-2 1.3-3 2-.3.7-.7 1.3-1 2-8.9-6.6-8.9-6.6-10-10h-2c-.7-1.3-1.3-2.6-2-4h2v-6c2-2.2 2-2.2 4.8-4.2.8-.6 1.7-1.3 2.6-2 .9-.6 1.7-1.2 2.6-1.8 1.3-1 2.6-2 4-3"/>
  <path fill="#1f1b19" d="M118 49c3.1 3.1 2.3 6 2.4 10.2-.2 16.4-5.6 31.7-17.1 43.7C94.7 110.7 83.2 119 71 119c.3-1.3.7-2.6 1-4 3.3-1 6.7-2 10-3 4-1.7 7.3-3.7 11-6 .3-1.7.7-3.3 1-5h2v2c.7-.2.7-.2 4-1v-3l5-5c2-5 2-5 3-10h2c-1-2.3-2-4.6-3-7 3 1 3 1 5 4 2.8-6.5 3.6-12.3 4.1-19.4.8-10.4.8-10.4 1.9-12.6"/>
  <path fill="#da738e" d="M74 54c1.7.3 3.3.7 5 1 1.5 3 1.2 5.7 1 9l-2 2h-4v3c3.4-.7 3.4-.7 7-2 .7-1.7 1.3-3.3 2-5h1c-.3 2.3-.7 4.6-1 7-5.1 2-6.8 2-12 1-.1 1.2-.2 2.5-.2 3.8C70 78 70 78 66 82c-4-1-4-1-6-3-.5-9.1-.5-9.1 2-14 .5-.3.5-.3 2.8-1.8 3.8-2.6 6.3-5.6 9.2-9.2"/>
  <path fill="#342d1c" d="M84 47c1 .3 2 .7 3 1-.5 3.1-1 6-2 9 .2 2.3.6 4.6.9 6.9C87 70.3 87.5 74.8 85 81h-3v2H71v-2c.6 0 .6 0 3.8.1C79 81 79 81 83 80c.3-2.6.7-5.3 1-8-.8.5-.8.5-5 3-4.3.2-4.3.2-8 0v-5c1.1 0 2.1 0 3.2.1C78 70 78 70 83 69v-4l-4 4h-5v-3c1.7-.7 3.3-1.3 5-2 .1-6.7.1-6.7-1-9-6.4 1.3-7.8 4.1-12 9-.7.3-.7.3-4 2-.3 1-.7 2-1 3-2 0-2 0-4.5-2.2C54 64 54 64 52 60h2c.3.7.7 1.3 1 2 4.2.2 4.2.2 9 0l4-4c6-6 6-6 11.1-6.1.8 0 .8 0 4.9.1Z"/>
  <path fill="#4a2220" d="M26 41c1 .3 2 .7 3 1-.3.5-.3.5-2 3-.6 2.7-1.1 5.5-1.5 8.2-.7 4.4-1.4 8.4-2.7 12.6-1.2 4.7.9 7.1 3.2 11.2 0 5 0 5-2.2 7.2-.5.4-.5.4-2.8 2.1-.9.7-1.9 1.4-2.8 2.1-.4.3-.4.3-2.2 1.6l-2-2c.6-.9 1.3-1.7 1.9-2.6 2.2-3.5 3-5.3 3.1-9.4-1.4-4.9-1.4-4.9-3-9h-2c.3-.9.6-1.8.9-2.8.8-2.3 1.5-4.8 2.1-7.2 1.2-3.7 2.6-7.4 4-11 1-.3 2-.7 3-1 .7-1.3 1.3-2.6 2-4"/>
  <path fill="#787776" d="M52 94c.3 1 .7 2 1 3-1.6 2.7-3.3 5.4-5 8-.3.7-.7 1.3-1 2 1.1.2 2.1.5 3.2.8 3.8 1.2 3.8 1.2 6 3.3 4.4 3 8.7 2.1 13.8 1.9-.7-1.3-1.3-2.6-2-4v-4c1 .3 2 .7 3 1h-2c.7 2 1.3 4 2 6 .9-.2 1.9-.4 2.9-.6 3.1-.4 3.1-.4 5.1.6v2c-2.3.3-4.6.7-7 1-.7 1.7-1.3 3.3-2 5-1.3-.3-2.6-.7-4-1 1-.3 2-.7 3-1-1.1 0-2.2-.1-3.3-.1-12.3-.6-22.8-1.8-33.7-7.9v-2c6.1.9 11.9 2.6 17.8 4.3 1.1.2 2.1.4 3.2.7l1-1c-1.5-.7-1.5-.7-9-4 1-4 1-4 3-8-.5.2-.5.2-3.2 1-3.8 1-3.8 1-7.8 1v-4h2v2c10.8-2.6 10.8-2.6 13-6"/>
  <path fill="#306896" d="M82 7c.2.8.2.8 1 5 .8 1.6 1.7 3.2 2.5 4.8 2.3 4.8 3.2 8 3.5 13.2-3.7-3.7-4.4-7-6-12-3.4-6.4-3.4-6.4-5-8h-6c-.3 1-.7 2-1 3h5v3h-3v-2c-1.5-.1-2.9-.3-4.4-.4C64 13 64 13 63 12H53c2-2 2-2 6.1-2.1 1.3 0 2.6.1 3.9.1V7h-9V6h-8c9.8-6.5 25.7-2.9 36 1"/>
  <path fill="#586449" d="M63 11c.3.7.7 1.3 1 2 3 .4 6 .7 9 1v2c.8.2.8.2 5 1l4 4c-.3 1-.7 2-1 3-.6-.8-1.1-1.6-1.7-2.4C77 19 77 19 72 17h-3l-2 2v-4c-4.2-.3-6.3-.5-9.8 1.9-.4.4-.4.4-2.2 2.1-2 1-2 1-7.1 1.2-6.1.8-9.1 2.2-13.9 5.8 2-5 2-5 6-8h2v-2c6.4-4.8 13.1-4.3 21-5"/>
  <path fill="#712427" d="M26 16c.7.3 1.3.7 2 1l-2.1 1.8c-9.8 9-17.5 20.5-18.1 34.1l-.3 11.4C7 69 7 69 4 72c-.6-20.7 1.3-34.4 14.1-51.1C21 18 21 18 26 16"/>
  <path fill="#23221d" d="M88 30c4.7 4.2 6.7 7.6 7.2 14v13.6c0 5-.2 9.5-1.2 14.4-2.5-3.7-2.7-6.5-3-11 .3-1.3.7-2.6 1-4-1.3 1-2.6 2-4 3 .3-1.6.7-3.3 1-5 .9-5.8 1.1-9.5-1-15v-6h-2c-.3 1.3-.7 2.6-1 4v-6c1-.7 2-1.3 3-2"/>
  <path fill="#e7e8e6" d="M25 93c4.4.9 7.9 2.2 12 4v5c1.8-.3 1.8-.3 11-2-.7 1.7-1.3 3.3-2 5v3c1.3.4 2.6.9 3.9 1.3C54 111 54 111 56 114c-8-1.1-14.7-2.5-22-6-1.4-4.2.2-6.1 2-10-1.6-.3-3.3-.7-5-1-2-1-4-1.9-6-3Z"/>
  <path fill="#95753b" d="M19 91c5.5 1.5 10.1 4.2 15 7-.3 2.9-.3 2.9-1 6-1 .7-2 1.3-3 2-.3.7-.7 1.3-1 2-8.9-6.6-8.9-6.6-10-10-.7-.3-1.3-.7-2-1 .7-2 1.3-4 2-6"/>
  <path fill="#482125" d="m78 35 1 1c-.2 4.9-.2 4.9-1 10-4 2-4 2-8 1v-2h-5c-.3-1.6-.7-3.3-1-5 5.3-3.7 7.4-5 14-5"/>
  <path fill="#eaeae9" d="M86 92c3 1 3 1 5.2 4.3C93 100 93 100 92 104c-1.3 1-2.6 2-4 3 2.3-1.3 4.6-2.6 7-4-2.6 5.3-5.8 6.5-11 9-1-.3-2-.7-3-1 .7-.3 1.3-.7 2-1-.7-.3-1.3-.7-2-1 1.1-6.1 2.3-11.4 5-17"/>
  <path fill="#306982" d="M112 46c1.3.3 2.6.7 4 1 2.2 11.7 2.1 24.5-4 35-.7-.3-1.3-.7-2-1-.3-1.3-.7-2.6-1-4h2c.8-4 1.1-7.1 1.1-11.2v-7.1c0-1.2 0-2.4-.1-3.7Z"/>
  <path fill="#bbd7de" d="M72 9c6 0 6 0 8.7 2.6C84.3 16.9 86 20.5 86 27l-2 2h-3c.1-1.2.2-2.4.3-3.7-.4-5.1-1.6-6-5.3-9.3v-3h-5c.3-1.3.7-2.6 1-4"/>
  <path fill="#be2a38" d="M81 101c-.3 3-.7 5.9-1 9-5 2-5 2-9 2-.7-2-1.3-4-2-6 .7-.3 1.3-.7 2-1-.8-.3-.8-.3-5-2v-1c5-.5 9.9-1 15-1"/>
  <path fill="#4e7e9d" d="m76 5 2 2c-1.5.2-1.5.2-9.1 1.3C66 9 66 9 63 12c-5.2.2-5.2.2-10 0 2-2 2-2 6.1-2.1 1.3 0 2.6.1 3.9.1V7h-9V6h-8C54.5.3 66.6 2.8 76 5"/>
  <path fill="#e19643" d="m65 92 4 4c1 .3 2 .7 3 1 .3-.7.7-1.3 1-2 .7.3 1.3.7 2 1 .3-.7.7-1.3 1-2 1 .3 2 .7 3 1v2c1.3-.3 2.6-.7 4-1-.3 1-.7 2-1 3-5.3 2.1-10.3 2.6-16 2-3.1-2.5-3.1-2.5-5-5 .3-1 .7-2 1-3l2 2c.3-1 .7-2 1-3"/>
  <path fill="#c2cfd5" d="M31 77c1 .3 2 .7 3 1 .3 1.3.7 2.6 1 4-.5 0-.5 0-3.3-.2C28 82 28 82 25 85c1.3.3 2.6.7 4 1v-4c1.3.3 2.6.7 4 1-.3 2-.7 4-1 6-3.4-.5-6.7-1.2-10-2l-2 2c1.6 1 3.3 2 5 3-.3.2-.3.2-2 1-1.3-.7-2.6-1.3-4-2-.3 2-.7 4-1 6l-3-3h2v-6c2-2.2 2-2.2 4.8-4.2.8-.6 1.7-1.3 2.6-2 .9-.6 1.7-1.2 2.6-1.8 1.3-1 2.6-2 4-3"/>
  <path fill="#dfe182" d="M102 72c-3.6 5.8-3.6 5.8-7 8-2.7.1-5.3.1-8 0 .7 3.6 1.3 7.3 2 11-3-3-3-3-3.6-7.2C86.7 73.2 92.1 71.1 102 72"/>
  <path fill="#2f231a" d="M74 52c6 0 6 0 9 2v2h-2c-.3 1.3-.7 2.6-1 4-.7-1.6-1.3-3.3-2-5-6.4 1.3-7.8 4.1-12 9-.7.3-.7.3-4 2-.3 1-.7 2-1 3-2 0-2 0-4.5-2.2C54 64 54 64 52 60h2c.3.7.7 1.3 1 2 4.2.2 4.2.2 9 0l4-4Z"/>
  <path fill="#e0e191" d="M105 87c-1.8 5.8-1.8 5.8-4 8h-3v3h-5c-2.3-3-2.3-3-4-6 3 0 3 0 6 1 .7-1.7 1.3-3.3 2-5 4-1 4-1 8-1"/>
  <path fill="#2e241a" d="m30 46 7 7c-1 4-1 4-3 7-.1 2.7-.2 5.5-.1 8.2v4.4c.1 1.1.1 2.2.1 3.4h-2c-.1-.8-.1-.8-.4-4.9C31 66 31 66 30 64c-.1-3.5-.1-6.7.6-10.1C31 51 31 51 30 46"/>
  <path fill="#5e3232" d="M84 47c1 .3 2 .7 3 1-.5 3.1-1 6-2 9 .3 2.3.6 4.7 1 7-1 .3-2 .7-3 1l-4 4h-5v-3c1.7-.7 3.3-1.3 5-2 1.3-4.1 1.3-4.1 2-8h2v-2c-.7-.3-1.3-.7-2-1 1-.3 2-.7 3-1Z"/>
  <path fill="#2f4a62" d="M86 12c8 3.2 13.6 8.3 19 15h2c1.1 1.7 2.1 3.5 3.1 5.2l1.8 3c.4.9.7 1.8 1.1 2.8-.7 1.3-1.3 2.6-2 4-2-2-2-2-3.1-4.9-4.6-9.9-10.7-16.3-19.6-22.4-.7-.6-1.5-1.1-2.3-1.7Z"/>
  <path fill="#efd187" d="M35 67c4.9 1.2 6 3.1 9 7h-4c-.3 2.6-.7 5.3-1 8-.8-.3-.8-.3-5-2-.3-1.3-.7-2.6-1-4 1-1.3 2-2.6 3-4-.3-1.7-.7-3.3-1-5"/>
  <path fill="#b95374" d="M74 54c1.7.3 3.3.7 5 1v4c-1.1.2-2.1.5-3.2.7-4.3 1.5-5.6 2.4-7.8 6.3-.4 2.7-.7 5.3-1 8-.7.3-1.3.7-2 1-.1-6.6-.1-6.6 1-10-.7-.3-1.3-.7-2-1 .7-.5 1.4-1.1 2.2-1.6 3-2.6 5.4-5.3 7.8-8.4"/>
  <path fill="#48a6c4" d="M22 86c3.8 1.1 7.4 2.2 11 4v4c1.3.3 2.6.7 4 1v2c-4.4-.9-7.3-1.9-11.2-3.9-1.1-.6-2.2-1.1-3.3-1.6C20 90 20 90 19 88c1-.7 2-1.3 3-2"/>
  <path fill="#494774" d="M32 27c1 .3 2 .7 3 1-.8 4.4-.8 4.4-2 9-1 .3-2 .7-3 1v4h-2c-1.2-3.6-1.4-6.2-1-10 2.5-2.9 2.5-2.9 5-5"/>
  <path fill="#7c5356" d="M68 105c1 .3 2 .7 3 1h-2c.7 2 1.3 4 2 6 .9-.2 1.9-.4 2.9-.6 3.1-.4 3.1-.4 5.1.6v2c-2.3.3-4.6.7-7 1-.7 1.7-1.3 3.3-2 5-1.3-.3-2.6-.7-4-1 1-.3 2-.7 3-1-1.1-.1-2.3-.2-3.4-.4L62 117c-.3-.7-.7-1.3-1-2h7v-2h2c-.7-1.3-1.3-2.6-2-4Z"/>
  <path fill="#eec250" d="M86 60c4 3 4 3 5 8.4 0 5.9-.2 6.6-4 10.6-.8 3.8-.8 3.8-1 7h-1v-9l1-1c.1-2.7.1-5.4.1-8.1 0-1.4-.1-2.9-.1-4.4Z"/>
  <path fill="#c58f45" d="M41.25 53.625c1.2.1 2.5.2 3.8.4v1h-6v5c-.4.3-.7.6-1 1-.1 2.3-.1 4.6 0 7h-2c.3 1.6.6 3.3 1 5-1 .6-2 1.3-3 2-.3-2.4-.6-4.8-.8-7.2-.1-1.3-.3-2.6-.4-4 .3-6.2 2-9.6 8.4-10.2"/>
  <path fill="#73596a" d="M58 12c-.7.3-.7.3-4 2-2.7 1.7-5.3 3.3-8 5-9.2 5.6-9.2 5.6-12 7 2-5 2-5 6-8h2v-2c5.5-4.1 9.3-4.1 16-4"/>
  <path fill="#5c5a57" d="M86 89c2.6 2.6 4.9 4.9 7 8 1.7.3 3.3.7 5 1 .3-1 .7-2 1-3l2 2c-.3 1.7-.7 3.3-1 5-1.3.3-2.6.7-4 1v-2h-2c-.3 1.3-.7 2.6-1 4-1.7 1-3.3 2-5 3-.7-.3-1.3-.7-2-1 2-1.3 4-2.6 6-4-1.4-5.4-3-9-7-13Z"/>
  <path fill="#d4b573" d="M106 77c2 1 2 1 3.1 4.1.3.9.6 1.9.9 2.9h-2c.1 1 .2 2 .4 3-.5 5.4-2.9 8-6.4 12h-2c-.3-1.3-.7-2.6-1-4l4-4c.7-1.3 1.3-2.6 2-4-2 .3-4 .7-6 1 .3-.7.7-1.3 1-2h7c-.3-3-.7-5.9-1-9"/>
</svg>
