<svg xmlns="http://www.w3.org/2000/svg" viewBox="0 0 500 500">
  <path fill="#fff" d="M0 0h500v500H0z"/>
  <path fill="#ff007a" d="M215.368 149.212c-3.996-.592-4.218-.74-2.294-.962 3.626-.592 12.062.222 17.982 1.554 13.764 3.256 26.122 11.618 39.294 26.344l3.404 3.996 4.958-.74c21.164-3.404 42.92-.74 61.124 7.622 4.958 2.294 12.802 6.882 13.764 7.992.37.37.962 2.886 1.332 5.328 1.332 8.954.74 15.688-2.072 20.794-1.554 2.886-1.554 3.626-.592 6.142.74 1.924 3.034 3.256 5.18 3.256 4.588 0 9.324-7.252 11.618-17.39l.962-3.996 1.702 1.924c9.768 10.878 17.39 25.974 18.5 36.63l.37 2.886-1.702-2.516c-2.886-4.366-5.55-7.252-9.176-9.768-6.512-4.366-13.394-5.698-31.524-6.66-16.428-.962-25.752-2.294-34.928-5.328-15.688-5.18-23.68-11.84-42.18-36.482-8.214-10.878-13.394-16.798-18.5-21.756-11.248-10.878-22.57-16.576-37.222-18.87"/>
  <path fill="#ff007a" d="M357.596 173.41c.37-7.252 1.332-12.062 3.404-16.428.74-1.702 1.554-3.256 1.702-3.256.222 0-.222 1.332-.74 2.886-1.554 4.218-1.702 10.138-.74 16.798 1.332 8.584 1.924 9.768 11.1 19.092 4.218 4.366 9.176 9.916 11.1 12.21l3.256 4.218-3.256-3.034c-3.996-3.848-13.172-11.1-15.244-12.062-1.332-.74-1.554-.74-2.516.222-.74.74-.962 1.924-.962 7.474-.222 8.584-1.332 13.912-4.218 19.462-1.554 2.886-1.702 2.294-.37-.962.962-2.516 1.11-3.626 1.11-11.84 0-16.576-1.924-20.646-13.542-27.306-2.886-1.702-7.844-4.218-10.656-5.55-3.034-1.332-5.328-2.516-5.18-2.516.37-.37 11.618 2.886 16.058 4.736 6.66 2.664 7.844 2.886 8.584 2.664.518-.444.888-1.998 1.11-6.808M223.212 201.9c-7.992-11.1-13.172-28.268-12.062-41.07l.37-3.996 1.924.37c3.404.592 9.324 2.886 12.21 4.588 7.622 4.588 11.1 10.878 14.282 26.566.962 4.588 2.294 9.916 2.886 11.618.962 2.886 4.588 9.546 7.622 13.764 2.072 3.034.74 4.588-3.996 4.218-7.252-.814-16.946-7.474-23.236-16.058m124.616 83.028c-37.814-15.244-51.134-28.416-51.134-50.764 0-3.256.222-5.92.222-5.92.222 0 1.554 1.11 3.256 2.516 7.622 6.142 16.206 8.806 40.108 12.21 13.912 2.072 21.978 3.626 29.23 6.142 23.088 7.622 37.444 23.31 40.848 44.474.962 6.142.37 17.76-1.11 23.828-1.332 4.736-5.18 13.542-6.142 13.764-.222 0-.592-.962-.592-2.516-.37-7.992-4.366-15.688-11.1-21.608-8.066-6.808-18.352-11.988-43.586-22.126m-26.714 6.29c-.37-2.886-1.332-6.512-1.924-7.992l-.962-2.886 1.702 2.072c2.516 2.886 4.366 6.29 6.142 11.1 1.332 3.626 1.332 4.736 1.332 10.656 0 5.698-.222 7.03-1.332 10.286-1.924 5.18-4.218 8.806-7.992 12.802-6.882 7.03-15.836 10.878-28.638 12.58-2.294.222-8.806.74-14.504 1.11-14.282.74-23.828 2.294-32.486 5.328-1.11.37-2.294.74-2.516.592-.37-.37 5.55-3.848 10.286-6.142 6.66-3.256 13.542-4.958 28.638-7.622 7.474-1.11 15.096-2.664 17.02-3.404 18.944-5.846 28.268-20.498 25.234-38.48"/>
  <path fill="#ff007a" d="M338.504 322.002c-4.958-10.878-6.142-21.164-3.404-30.932.37-.962.74-1.924 1.11-1.924s1.554.592 2.664 1.332c2.294 1.554 7.03 4.218 19.314 10.878 15.466 8.436 24.272 14.874 30.34 22.348 5.328 6.512 8.584 13.912 10.138 23.088.962 5.18.37 17.538-.962 22.718-4.218 16.206-13.764 29.23-27.676 36.63-2.072 1.11-3.848 1.924-3.996 1.924s.592-1.924 1.702-4.218c4.588-9.768 5.18-19.092 1.702-29.6-2.072-6.512-6.512-14.282-15.244-27.528-10.582-15.17-13.024-19.24-15.688-24.716m-142.228 58.386c14.134-11.84 31.524-20.202 47.508-22.94 6.882-1.11 18.352-.74 24.642.962 10.138 2.664 19.314 8.436 24.05 15.466 4.588 6.882 6.66 12.802 8.806 25.974.74 5.18 1.702 10.508 1.924 11.618 1.554 6.882 4.588 12.21 8.436 15.096 5.92 4.366 16.206 4.588 26.344.74 1.702-.592 3.256-1.11 3.256-.962.37.37-4.736 3.848-8.214 5.55-4.736 2.516-8.584 3.256-13.764 3.256-9.176 0-17.02-4.736-23.31-14.282-1.332-1.924-3.996-7.474-6.29-12.58-6.66-15.466-10.138-20.054-17.982-25.234-6.882-4.366-15.688-5.328-22.348-2.072-8.806 4.218-11.1 15.466-4.958 22.348 2.516 2.886 7.03 5.18 10.878 5.698 7.03.962 13.172-4.588 13.172-11.618 0-4.588-1.702-7.252-6.29-9.324-6.142-2.664-12.802.37-12.58 6.29 0 2.516 1.11 3.996 3.626 5.18 1.554.74 1.554.74.37.592-5.55-1.11-6.882-7.992-2.516-12.432 5.328-5.328 16.576-3.034 20.424 4.366 1.554 3.034 1.702 9.176.37 12.95-3.256 8.436-12.432 12.802-21.756 10.286-6.29-1.702-8.954-3.404-16.576-11.248-13.394-13.764-18.5-16.428-37.592-19.314l-3.626-.592z"/>
  <path fill="#ff007a" fill-rule="evenodd" d="M95.858 73.214c44.474 54.02 112.998 138.01 116.476 142.598 2.886 3.848 1.702 7.474-3.034 10.138-2.664 1.554-8.214 3.034-10.878 3.034-3.034 0-6.66-1.554-9.176-3.996-1.702-1.702-9.176-12.58-25.974-38.776a3790 3790 0 0 0-23.828-36.852c-.74-.37-.74-.37 22.496 41.218 14.726 26.122 19.462 35.52 19.462 36.63 0 2.516-.74 3.848-3.848 7.252-5.18 5.698-7.474 12.21-9.176 25.752-1.924 15.096-7.03 25.752-21.756 43.882-8.584 10.656-9.916 12.58-12.062 17.02-2.664 5.328-3.404 8.436-3.848 15.244-.37 7.252.37 11.84 2.516 18.722 1.924 6.142 3.996 10.138 9.176 17.982 4.366 6.882 7.03 12.062 7.03 13.912 0 1.554.37 1.554 7.252 0 16.428-3.848 29.97-10.286 37.444-18.352 4.588-4.958 5.698-7.622 5.698-14.504 0-4.366-.222-5.328-1.332-7.992-1.924-4.218-5.55-7.622-13.394-12.95-10.286-7.03-14.726-12.802-15.836-20.424-.962-6.512.222-10.878 5.92-22.94 5.92-12.432 7.474-17.538 8.436-30.192.592-7.992 1.554-11.248 3.848-13.764 2.516-2.664 4.588-3.626 10.508-4.366 9.768-1.332 16.058-3.848 21.016-8.584 4.366-3.996 6.29-7.992 6.512-13.912l.222-4.366-2.516-2.664C214.184 201.678 89.938 65 89.346 65c-.222 0 2.886 3.626 6.512 8.214m58.608 271.506a7.89 7.89 0 0 0-2.516-10.508c-3.256-2.072-8.214-1.11-8.214 1.702 0 .74.37 1.554 1.554 1.924 1.702.962 1.924 1.924.592 3.996s-1.332 3.996.37 5.328c2.664 2.146 6.29.962 8.214-2.442m77.33-100.418c-4.588 1.332-8.954 6.29-10.286 11.248-.74 3.034-.37 8.584.962 10.286 2.072 2.664 3.996 3.404 9.324 3.404 10.508 0 19.462-4.588 20.424-10.138.962-4.588-3.034-10.878-8.584-13.764-2.886-1.48-8.806-1.998-11.84-1.036m12.21 9.546c1.554-2.294.962-4.736-1.924-6.512-5.18-3.256-12.95-.592-12.95 4.366 0 2.516 3.996 5.18 7.844 5.18 2.442 0 5.846-1.554 7.03-3.034" clip-rule="evenodd"/>
</svg>
