<svg xmlns="http://www.w3.org/2000/svg" viewBox="0 0 48 48">
  <path fill="#fff" d="M0 0h48v48H0z"/>
  <path d="M6.24 6.24h16.095v2.775H9.015V28.44h.555v1.665h.555v1.11h.555v.555h.555v1.11h.555v.555h.555v.555h.555v.555h1.11v.555h.555v.555h1.11v.555h1.665v.555h1.665v.555h1.665v.555h1.665v3.33h-1.11v-.555H19.56v-.555h-1.665v-.555H16.23v-.555h-1.11v-.555h-1.11v-.555H12.9v-.555h-1.11v-.555h-.555v-.555h-.555v-.555h-.555V35.1H9.57v-.555h-.555v-1.11H8.46v-.555h-.555v-1.11H7.35v-1.11h-.555v-2.22H6.24Zm19.425 0H41.76v22.2h-.555v2.22h-.555v1.11h-.555v1.11h-.555v.555h-.555v1.11h-.555v.555h-.555v.555h-.555v.555h-.555v.555h-.555v.555H35.1v.555h-1.11v.555h-1.11v.555h-1.11v.555h-1.665v.555H28.44v.555h-1.665v.555h-1.11v-3.33h1.665v-.555h1.665v-.555h1.665v-.555h1.665v-.555h1.11V35.1h.555v-.555h1.11v-.555h.555v-.555h.555v-.555h.555v-1.11h.555v-.555h.555v-1.11h.555V28.44h.555V9.015h-13.32ZM11.79 11.79h24.42v15.54h-.555v1.665H35.1v1.11h-.555v.555h-.555v.555h-.555v.555h-.555v.555h-.555v.555h-1.11v.555H29.55v.555h-1.11v.555h-1.665v.555H25.11v.555h-2.22V35.1h-1.665v-.555H19.56v-.555h-1.11v-.555h-1.665v-.555h-1.11v-.555h-.555v-.555h-.555v-.555h-.555v-.555h-.555v-.555H12.9v-1.11h-.555V27.33h-.555Zm10.545 1.665v2.22H20.67v.555h-1.11v.555h-.555v.555h-.555v.555h-.555v1.11h-.555v2.775h.555v1.11h.555v.555h1.11V24h1.665v.555H24v.555h2.22v.555h.555v.555h.555v1.665h-.555v.555h-1.11v.555h-3.33v-.555h-1.11v-.555h-.555V26.22h-3.33v2.22h.555v1.11h.555v.555h1.11v.555h1.11v.555h1.665v1.665h3.33v-1.665h1.665v-.555h1.11v-.555h1.11v-.555h.555v-1.11h.555v-3.885h-.555V24h-.555v-.555h-.555v-.555H27.33v-.555h-2.22v-.555h-2.775v-.555h-1.11v-.555h-.555v-1.665h.555v-.555h.555v-.555h3.885v.555h.555v.555h.555v1.11h3.885v-1.11h-.555v-1.11h-.555v-.555h-.555v-.555h-.555v-.555h-1.11v-.555h-1.665v-2.22Z"/>
</svg>
