<svg xmlns="http://www.w3.org/2000/svg" width="32" height="32" viewBox="0 0 48 48">
    <path fill="#000000" d="M0 0H21.75V3.75H3.75V30H4.5V32.25H5.25V33.75H6V34.5H6.75V36H7.5V36.75H8.25V37.5H9V38.25H10.5V39H11.25V39.75H12.75V40.5H15V41.25H17.25V42H19.5V42.75H21.75V47.25H20.25V46.5H18V45.75H15.75V45H13.5V44.25H12V43.5H10.5V42.75H9V42H7.5V41.25H6.75V40.5H6V39.75H5.25V39H4.5V38.25H3.75V36.75H3V36H2.25V34.5H1.5V33H0.75V30H0Z M26.25 0H48V30H47.25V33H46.5V34.5H45.75V36H45V36.75H44.25V38.25H43.5V39H42.75V39.75H42V40.5H41.25V41.25H40.5V42H39V42.75H37.5V43.5H36V44.25H34.5V45H32.25V45.75H30V46.5H27.75V47.25H26.25V42.75H28.5V42H30.75V41.25H33V40.5H35.25V39.75H36.75V39H37.5V38.25H39V37.5H39.75V36.75H40.5V36H41.25V34.5H42V33.75H42.75V32.25H43.5V30H44.25V3.75H26.25Z M7.5 7.5H40.5V28.5H39.75V30.75H39V32.25H38.25V33H37.5V33.75H36.75V34.5H36V35.25H35.25V36H33.75V36.75H31.5V37.5H30V38.25H27.75V39H25.5V39.75H22.5V39H20.25V38.25H18V37.5H16.5V36.75H14.25V36H12.75V35.25H12V34.5H11.25V33.75H10.5V33H9.75V32.25H9V30.75H8.25V28.5H7.5Z M21.75 9.75V12.75H19.5V13.5H18V14.25H17.25V15H16.5V15.75H15.75V17.25H15V21H15.75V22.5H16.5V23.25H18V24H20.25V24.75H24V25.5H27V26.25H27.75V27H28.5V29.25H27.75V30H26.25V30.75H21.75V30H20.25V29.25H19.5V27H15V30H15.75V31.5H16.5V32.25H18V33H19.5V33.75H21.75V36H26.25V33.75H28.5V33H30V32.25H31.5V31.5H32.25V30H33V24.75H32.25V24H31.5V23.25H30.75V22.5H28.5V21.75H25.5V21H21.75V20.25H20.25V19.5H19.5V17.25H20.25V16.5H21V15.75H26.25V16.5H27V17.25H27.75V18.75H33V17.25H32.25V15.75H31.5V15H30.75V14.25H30V13.5H28.5V12.75H26.25V9.75Z"/>
</svg>
