<svg xmlns="http://www.w3.org/2000/svg" viewBox="0 0 256 256">
  <path fill="#c88305" d="M167 4v2c1.28.14 2.56.29 3.88.44 2.38.27 3.96.48 6.12 1.56v2c1.05.12 2.1.25 3.19.38 3.27.53 5.82 1.26 8.81 2.62v2l6 2v2c.58.12 1.16.25 1.75.38 2.27.63 4.18 1.51 6.25 2.62v2c.4.14.4.14 2.44.88C208 26 208 26 209 28c.85.5 1.69.99 2.56 1.5.81.5 1.61.99 2.44 1.5v2c.56.23 1.11.45 1.69.69 2.97 1.69 5.03 3.78 7.31 6.31v2c.64.27 1.28.54 1.94.81C227 44 227 44 228 47l2.06 2.06L232 51v2l3 1c1.65 2.6 2 3.86 2 7h2l2 6h2q.765 1.875 1.5 3.75l.84 2.11C246 75 246 75 246 79h2c1.32 3.62 2 6.1 2 10h2c.48 2.31.96 4.62 1.44 6.94.26 1.29.53 2.57.81 3.9 4.09 21.64 3.21 45.83-2.25 67.16h-2c-.14 1.28-.29 2.56-.44 3.88-.27 2.38-.48 3.96-1.56 6.12h-2c-.06.53-.06.53-.38 3.19-.53 3.27-1.26 5.82-2.62 8.81h-2l-2 6h-2c-.12.58-.25 1.16-.38 1.75-.63 2.27-1.51 4.18-2.62 6.25h-2c-.29.8-.58 1.61-.88 2.44C230 208 230 208 228 209c-.5.85-.99 1.69-1.5 2.56-.25.4-.25.4-1.5 2.44h-2c-.23.56-.45 1.11-.69 1.69-1.69 2.97-3.78 5.03-6.31 7.31h-2c-.27.64-.54 1.28-.81 1.94C212 227 212 227 209 228l-2.06 2.06L205 232h-2l-1 3c-2.6 1.65-3.86 2-7 2v2l-6 2v2q-1.875.765-3.75 1.5c-.7.28-1.39.56-2.11.84-2.14.66-2.14.66-6.14.66v2c-3.62 1.32-6.1 2-10 2v2c-2.31.48-4.62.96-6.94 1.44-1.29.26-2.57.53-3.9.81-21.64 4.09-45.83 3.21-67.16-2.25v-2c-1.28-.14-2.56-.29-3.88-.44-2.38-.27-3.96-.48-6.12-1.56v-2c-1.05-.12-2.1-.25-3.19-.38-3.27-.53-5.82-1.26-8.81-2.62v-2l-6-2v-2c-.29-.06-.29-.06-1.75-.38-2.27-.63-4.18-1.51-6.25-2.62v-2c-.8-.29-1.61-.58-2.44-.88C48 230 48 230 47 228c-.42-.25-.42-.25-2.56-1.5-.4-.25-.4-.25-2.44-1.5v-2c-.56-.23-1.11-.45-1.69-.69-2.97-1.69-5.03-3.78-7.31-6.31v-2c-.64-.27-1.28-.54-1.94-.81C29 212 29 212 28 209l-2.06-2.06L24 205v-2l-3-1c-1.65-2.6-2-3.86-2-7h-2l-2-6h-2q-.765-1.875-1.5-3.75c-.28-.7-.56-1.39-.84-2.11C10 181 10 181 10 177H8c-1.32-3.62-2-6.1-2-10H4c-.48-2.31-.96-4.62-1.44-6.94-.26-1.29-.53-2.57-.81-3.9C-2.34 134.52-1.46 110.33 4 89h2c.14-1.28.29-2.56.44-3.88.27-2.38.48-3.96 1.56-6.12h2c.12-1.05.25-2.1.38-3.19.53-3.27 1.26-5.82 2.62-8.81h2l2-6h2c.12-.58.25-1.16.38-1.75.63-2.27 1.51-4.18 2.62-6.25h2c.29-.8.58-1.61.88-2.44C26 48 26 48 28 47c.5-.85.99-1.69 1.5-2.56.5-.81.99-1.61 1.5-2.44h2c.23-.56.45-1.11.69-1.69 1.69-2.97 3.78-5.03 6.31-7.31h2c.27-.64.54-1.28.81-1.94C44 29 44 29 47 28l2.06-2.06L51 24h2c.16-.49.16-.49 1-3 2.6-1.65 3.86-2 7-2v-2l6-2v-2q1.875-.765 3.75-1.5c.7-.28 1.39-.56 2.11-.84C75 10 75 10 79 10V8c3.62-1.32 6.1-2 10-2V4c2.31-.48 4.62-.96 6.94-1.44 1.29-.26 2.57-.53 3.9-.81C121.48-2.34 145.67-1.46 167 4"/>
  <path fill="#e1a917" d="M167 4v2c1.28.14 2.56.29 3.88.44 2.38.27 3.96.48 6.12 1.56v2c1.05.12 2.1.25 3.19.38 3.27.53 5.82 1.26 8.81 2.62v2l6 2v2c.58.12 1.16.25 1.75.38 2.27.63 4.18 1.51 6.25 2.62v2c.4.14.4.14 2.44.88C208 26 208 26 209 28c.85.5 1.69.99 2.56 1.5.81.5 1.61.99 2.44 1.5v2c.56.23 1.11.45 1.69.69 2.97 1.69 5.03 3.78 7.31 6.31v2c.64.27 1.28.54 1.94.81C227 44 227 44 228 47l2.06 2.06L232 51v2l3 1c1.65 2.6 2 3.86 2 7h2l2 6h2q.765 1.875 1.5 3.75l.84 2.11C246 75 246 75 246 79h2c1.32 3.62 2 6.1 2 10h2c.48 2.31.96 4.62 1.44 6.94.26 1.29.53 2.57.81 3.9 4.09 21.64 3.21 45.83-2.25 67.16h-2c-.14 1.28-.29 2.56-.44 3.88-.27 2.38-.48 3.96-1.56 6.12h-2c-.06.53-.06.53-.38 3.19-.53 3.27-1.26 5.82-2.62 8.81h-2l-2 6h-2c-.12.58-.25 1.16-.38 1.75-.63 2.27-1.51 4.18-2.62 6.25h-2c-.29.8-.58 1.61-.88 2.44C230 208 230 208 228 209c-.5.85-.99 1.69-1.5 2.56-.25.4-.25.4-1.5 2.44h-2c-.23.56-.45 1.11-.69 1.69-1.69 2.97-3.78 5.03-6.31 7.31h-2c-.27.64-.54 1.28-.81 1.94C212 227 212 227 209 228l-2.06 2.06L205 232h-2l-1 3c-2.6 1.65-3.86 2-7 2v2l-6 2v2q-1.875.765-3.75 1.5c-.7.28-1.39.56-2.11.84-2.14.66-2.14.66-6.14.66v2c-3.62 1.32-6.1 2-10 2v2c-2.31.48-4.62.96-6.94 1.44-1.29.26-2.57.53-3.9.81-21.64 4.09-45.83 3.21-67.16-2.25v-2c-1.28-.14-2.56-.29-3.88-.44-2.38-.27-3.96-.48-6.12-1.56v-2c-1.05-.12-2.1-.25-3.19-.38-3.27-.53-5.82-1.26-8.81-2.62v-2l-6-2v-2c-.29-.06-.29-.06-1.75-.38-2.27-.63-4.18-1.51-6.25-2.62v-2c-.8-.29-1.61-.58-2.44-.88C48 230 48 230 47 228c-.42-.25-.42-.25-2.56-1.5-.4-.25-.4-.25-2.44-1.5v-2c-.56-.23-1.11-.45-1.69-.69-2.97-1.69-5.03-3.78-7.31-6.31v-2c-.64-.27-1.28-.54-1.94-.81C29 212 29 212 28 209l-2.06-2.06L24 205v-2l-3-1c-1.65-2.6-2-3.86-2-7h-2l-2-6h-2q-.765-1.875-1.5-3.75c-.28-.7-.56-1.39-.84-2.11C10 181 10 181 10 177H8c-1.32-3.62-2-6.1-2-10H4c-.48-2.31-.96-4.62-1.44-6.94-.26-1.29-.53-2.57-.81-3.9C-2.34 134.52-1.46 110.33 4 89h2c.14-1.28.29-2.56.44-3.88.27-2.38.48-3.96 1.56-6.12h2c.12-1.05.25-2.1.38-3.19.53-3.27 1.26-5.82 2.62-8.81h2l2-6h2c.12-.58.25-1.16.38-1.75.63-2.27 1.51-4.18 2.62-6.25h2c.29-.8.58-1.61.88-2.44C26 48 26 48 28 47c.5-.85.99-1.69 1.5-2.56.5-.81.99-1.61 1.5-2.44h2c.23-.56.45-1.11.69-1.69 1.69-2.97 3.78-5.03 6.31-7.31h2c.27-.64.54-1.28.81-1.94C44 29 44 29 47 28l2.06-2.06L51 24h2c.16-.49.16-.49 1-3 2.6-1.65 3.86-2 7-2v-2l6-2v-2q1.875-.765 3.75-1.5c.7-.28 1.39-.56 2.11-.84C75 10 75 10 79 10V8c3.62-1.32 6.1-2 10-2V4c2.31-.48 4.62-.96 6.94-1.44 1.29-.26 2.57-.53 3.9-.81C121.48-2.34 145.67-1.46 167 4m-48 17c-1.35.21-2.71.39-4.07.54C103.28 23.01 92.9 25.64 82 30v2l-5 1v2c-.6.14-1.2.29-1.81.44-1.75.45-3.48.99-5.19 1.56l-1 2c-1.68.94-3.36 1.88-5.04 2.8-3.3 2.02-6.03 4.57-8.84 7.2-.58.52-1.16 1.04-1.75 1.58-2.99 2.76-4.45 4.53-5.37 8.42-1.87 1.05-1.87 1.05-4 2-3.94 3.74-6.94 7.97-9 13v3h-2c-.51 1.27-1 2.54-1.5 3.81-.28.71-.56 1.42-.84 2.15C30 85 30 85 30 88h-2q-.765 2.595-1.5 5.19c-.28.96-.56 1.92-.84 2.92-.63 2.74-.78 5.09-.66 7.89h-2c-2.24 16.05-2.57 31.95 0 48h2l.18 1.83c.09.8.17 1.6.26 2.42.08.79.16 1.58.24 2.39.3 2.18.74 4.24 1.32 6.36h2c.23 1.3.45 2.6.69 3.94 1.14 5.27 3.49 9.51 6.31 14.06h2c.27.97.54 1.94.81 2.94.39 1.01.79 2.02 1.19 3.06l3 1c.37 1.32.69 2.66 1 4 3.61 5.65 8.09 10.24 13.23 14.51C59 210 59 210 61.06 212.19c2.24 2.09 4.58 3.41 7.27 4.86 1.67.95 1.67.95 3.92 2.7C74 221 74 221 77 221v2c1.07.5 2.15.99 3.25 1.5q.9.42 1.83.84C84 226 84 226 88 226v2q2.595.765 5.19 1.5c.48.14.48.14 2.92.84 2.74.63 5.09.78 7.89.66v2c17.68 2.47 35.46 2.81 53-1v-2c1.07-.06 2.15-.12 3.25-.19 6-.73 11.27-3.38 16.75-5.81.92-.34 1.85-.68 2.8-1.04C182 222 182 222 183 220l3-1 1.31-1.31c1.69-1.69 1.69-1.69 4.43-3.48 9.13-6.19 19.43-15.38 24.35-25.43C217 187 217 187 219 186c1.58-2.63 2-3.87 2-7h2l1-5h2l2-9h2c3.05-11.68 3.05-11.68 3.62-16.19C234 146 234 146 235 145c3.65-27.38-1.7-56.29-18-79l-2-1c-.5-.85-.99-1.69-1.5-2.56-.5-.81-.99-1.61-1.5-2.44h-2c-.25-.74-.5-1.47-.76-2.23-1.34-3-2.79-4.72-5.12-7.02-.33-.34-.33-.34-2.05-2.08-2.13-1.72-3.45-2.1-6.07-2.67-1.25-2.06-1.25-2.06-2-4h-3c-.21-.6-.41-1.2-.62-1.81-1.91-3.03-4.16-3.66-7.38-5.19-1.08-.56-2.15-1.11-3.26-1.68-9.99-5.12-19.46-9.23-30.62-10.93C147 22 147 22 146 21c-19.11-2.63-19.11-2.63-27 0"/>
  <path fill="#ab6706" d="M136 54c5 3 5 3 5.6 4.99l-.03 2.3v2.61c-.03.92-.06 1.85-.08 2.8-.01.95-.02 1.9-.02 2.88-.03 3.04-.09 6.07-.16 9.11-.02 2.06-.05 4.11-.07 6.17-.05 5.05-.14 10.09-.24 15.14.93.14 1.86.29 2.81.44C147 101 147 101 150 102v2l9 3v2l5 1v2c.56.1 1.12.2 1.69.3 2.31.7 2.31.7 4.59 2.22 9.55 6.23 18.06 4.1 28.76 1.96C201 116 201 116 203 115c3.28-.73 6.58-1.26 9.91-1.72.45-.06.45-.06 2.75-.39l5.68-.78c.45-.07.45-.07 2.75-.39.41-.06.41-.06 2.49-.35 1.73-.26 3.45-.6 5.16-.98.75-.13 1.49-.26 2.26-.39 3.29 3.29 2.07 13.44 2.12 18-.18 16.06-.18 16.06-2.12 18-.54 2.62-1.04 5.24-1.5 7.88-1.38 7.75-1.38 7.75-2.5 11.12h-2l-2 9h-2l-1 5h-2c-.07.3-.07.3-.44 1.81-.96 3.74-1.88 5.51-4.56 8.19-.59.9-1.18 1.81-1.79 2.74-6.19 9.13-15.38 19.43-25.43 24.35C187 217 187 217 186 219l-3 1-1 2c-2.04.96-2.04.96-4.62 1.94-3.07 1.16-6.03 2.36-9 3.75-3.91 1.52-7.22 1.94-11.38 2.31v2c-17.54 3.81-35.32 3.47-53 1v-2c-.28-.02-.28-.02-1.72-.15-4.99-.48-9.51-1.33-14.28-2.85v-2c-.44-.06-.44-.06-2.69-.38-3.01-.56-5.51-1.39-8.31-2.62v-2c-.59-.11-1.17-.23-1.78-.34-2.39-.71-3.81-1.64-5.78-3.16-2.27-1.74-3.66-2.57-6.44-3.5-2.69-2.44-2.69-2.44-5-5v-2c1.44-.51 2.87-1 4.31-1.5.4-.14.4-.14 2.43-.84C67 204 67 204 70 204v-2c2.65-1.46 3.89-2 7-2l1-3c.34-.2.34-.2 2.06-1.19 5.09-3.14 8.98-7.73 13.06-12.06C95 182 95 182 97 182v-2c1.33-1.38 1.33-1.38 3.25-3 .72-.61 1.44-1.22 2.18-1.85.85-.71 1.7-1.42 2.57-2.15l3.13-2.68c1.08-.92 2.16-1.84 3.25-2.76.52-.45 1.04-.9 1.58-1.36 3.81-3.2 3.81-3.2 6.04-3.2v34h17Z"/>
  <path fill="#fce88b" d="M120 54h15v143h-16l-1-119-5 4c-1.33.67-2.67 1.33-4 2l-1 2c-2.07.63-2.07.63-4.56 1.12-.42.09-.42.09-2.51.51-.63.12-1.27.25-1.93.37v2c-4.27 1.03-7.37 1-12 1V75l7-2c10.06-4.44 18.28-11.28 26-19"/>
  <path fill="#c98304" d="M141 106c6.95 3.48 13.78 6.93 20.57 10.68 2.78 1.51 5.59 2.94 8.43 4.32v2c.82.06 1.65.12 2.5.19 3.9.9 6.39 2.43 9.67 4.65C184 129 184 129 187 130v2c.56.06 1.11.12 1.69.19 3.38 1.19 5.06 3.06 7.31 5.81.31 2.81.31 2.81 0 5 .56.04 1.11.08 1.69.12 3.54 1.34 5.48 3.67 7.31 6.88 1.71 5.24 2.33 9.61 1 15-3.16-1.37-3.99-1.99-6-5-5.84-3.97-11.17-4.43-18.06-4.71-7.27-.29-13.15-1.57-19.94-4.29h-21Z"/>
  <path fill="#b57005" d="M22 117c11.62.66 22.79 1.8 34 5 4.32.75 8.66 1.39 13 2v3l-9 3v2c-.27.13-.27.13-1.64.8-.72.36-1.44.71-2.17 1.08-.71.34-1.42.69-2.15 1.05C52 136 52 136 49 138h-3v2c-5.62 3-5.62 3-9 3v2q-2.655 1.515-5.31 3c-.99.56-1.97 1.11-2.99 1.69C26 151 26 151 23 151c-.34-2.98-.67-5.96-1-8.94-.1-.83-.19-1.66-.29-2.52-.83-7.63-1.26-14.97.29-22.54"/>
  <path fill="#8a4d0d" d="M136 54c4.04 4.04 4.46 4.55 4.56 9.84 0 .78-.01 1.56-.01 2.36l.03 2.51c.03 2.75.03 5.51.03 8.27.01 1.94.03 3.89.05 5.83.04 5.2.06 10.4.08 15.6.02 5.34.06 10.67.1 16.01.06 10.35.11 20.71.14 31.07.02 4.93.04 9.86.07 14.79.03 7.16.06 14.31.07 21.47.01.51.01.51.01 3.11q.015 4.185 0 8.37c0 .4 0 .4.01 2.41-.02 5.24-.02 5.24-1.14 6.36-2.8.13-5.57.19-8.38.19l-2.36.03c-3.94.01-5.92.01-9.26-2.22v-2h16Z"/>
  <path fill="#ad6906" d="M75.371 165.172c.54.27 1.08.55 1.63.83.42 3.38.27 4.64-1.84 7.39-16.38 15.61-16.38 15.61-20.16 15.61l-2 4h-2l-1 3c-2.06.69-2.06.69-4 1l-3-4c1.03-2.71 1.71-3.83 4.25-5.31 3.14-1.93 4.9-4.09 7.12-6.97 1.63-1.72 1.63-1.72 3.94-3.08 3.97-2.42 7.05-5.68 10.32-8.97 3.86-3.71 3.86-3.71 6.74-3.5"/>
  <path fill="#8c5113" d="M118 77h1c.12 6.75.12 6.75-1 9-2.07.85-2.07.85-4.56 1.62-.83.27-1.66.53-2.51.79-.63.2-1.27.39-1.93.59v2c-.71.2-1.42.41-2.15.62l-2.79.82c-.46.13-.46.13-2.77.81C99 94 99 94 98 95c-3.38.31-3.38.31-7 0l-3-4c1.81-.16 1.81-.16 11-1v-2c.64-.11 1.28-.22 1.93-.33.83-.16 1.66-.32 2.51-.48.82-.15 1.64-.3 2.49-.46.69-.24 1.37-.48 2.07-.73l1-3c1.81-1.35 1.81-1.35 4-2.62 3.96-2.34 3.96-2.34 5-3.38"/>
  <path fill="#bc7906" d="m225 81 4 9c-.33.16-.33.16-2 1v-3c-6.88.88-6.88.88-8 2-2.33.04-4.67.04-7 0l-2-4c1.68-2.9 2.51-3.87 5.81-4.75 3.08-.24 6.1-.32 9.19-.25"/>
  <path fill="#af6b06" d="M35 164c3.32.01 5.99 2.68 6 5a6.005 6.005 0 0 1-6 6c-2.77-.01-4.99-2.23-5-6a5 5 0 0 1 5-5"/>
</svg>
