<svg xmlns="http://www.w3.org/2000/svg" viewBox="0 0 500 500">
  <path fill="#fff" d="M250 2c137 0 248 111 248 248S387 498 250 498 2 387 2 250 113 2 250 2"/>
  <circle cx="250" cy="250" r="231.5" fill="#216c58" stroke="#216c58" stroke-width="8.267"/>
  <path fill="#216c58" d="M464.9 250c0 118.7-96.2 214.9-214.9 214.9S35.1 368.7 35.1 250 131.3 35.1 250 35.1 464.9 131.3 464.9 250"/>
  <path fill="#216c58" d="M221.1 353.3h24.8v24.8h-24.8zm41.3 0h24.8v24.8h-24.8z"/>
  <path fill="#fff" d="M179.7 97.1h157.1c4.6 0 8.3 3.7 8.3 8.3v4.1c0 4.6-3.7 8.3-8.3 8.3H179.7c-4.6 0-8.3-3.7-8.3-8.3v-4.1c.1-4.6 3.8-8.3 8.3-8.3M250 126v281.1c0 4.6-3.7 8.3-8.3 8.3h-4.1c-4.6 0-8.3-3.7-8.3-8.3V126zm33.1 0v281.1c0 4.6-3.7 8.3-8.3 8.3h-4.1c-4.6 0-8.3-3.7-8.3-8.3V126z"/>
  <path fill="#fff" stroke="#216c58" stroke-width="8.267" d="M232.4 196c5.8-2.1 13-3.2 21.9-3.2 13.1 0 22.9 2.5 29.9 7.1 5 3.3 8.4 7.5 10.2 12.5 1.8 5.1 6.4 9.9 12.9 9.9h38.2c6.8 0 12.9-5.7 11.9-13.1q-2.4-17.1-12.9-30.9c-8.8-11.4-20.9-20.2-36.3-26.5-15.3-6.3-33.2-9.3-53.3-9.3-19.9 0-37.7 3.1-53.6 9.3-15.8 6.2-28.4 15-37.7 26.4-9.3 11.5-13.9 25-13.8 40.3-.1 18.7 6.9 33.9 20.9 45.1 13.7 10.9 32 18.7 54.9 23.6l29 6.5c9.6 2.1 17.6 4.3 24 6.8 6.4 2.4 10.9 5.2 13.8 8.3 2.8 2.8 4.2 6.2 4.2 10.5 0 4.7-1.6 8.8-4.8 12.4-3.3 3.7-8.2 6.8-14.8 9.1-6.5 2.3-14.3 3.5-23.5 3.5-9.3 0-17.6-1.3-24.8-3.7-7-2.5-12.5-6.1-16.6-10.7-2.6-3.1-4.4-6.6-5.6-10.8-1.5-5.5-6.3-10.6-12.9-10.6h-38.4c-6.9 0-12.8 5.7-12 13.1 1.6 14 6.3 26.3 14.2 36.6 9.5 12.2 22.6 21.3 39 27.4 16.5 6.1 35.8 9.1 57.6 9.1 22 0 41.1-2.9 57-9 16-6.1 28.5-14.7 37.2-26 8.8-11.4 13.3-24.9 13.4-40.3v-.1c-.1-10.4-2.2-19.9-6.6-28.2-4.2-8.2-10.1-15.3-17.6-21.3-7.5-5.9-16.3-10.9-26.3-14.9s-20.9-7.1-32.7-9.5l-23.9-5.1h-.1c-5.7-1.1-11-2.5-15.9-4-4.9-1.6-9.1-3.5-12.7-5.5-3.5-2.1-6.1-4.4-7.9-7-1.6-2.3-2.4-5.1-2.3-8.6v-.2c0-4.1 1.3-7.7 4-11 2.8-3.2 6.9-6 12.8-8z"/>
  <path fill="#fff" d="M229.3 179.7H250v28.9h-20.7zm0 103.4H250V312h-20.7zm0 86.8H250v28.9h-20.7zm33.1-190.2h20.7v28.9h-20.7zm0 103.4h20.7V312h-20.7zm0 86.8h20.7v28.9h-20.7z"/>
  <path fill="#fff" fill-rule="evenodd" d="M458 262.4c-3.3 0-6 2.6-6.3 5.8-9.2 103.3-96 184.3-201.7 184.3s-192.5-81-201.7-184.3c-.3-3.3-3-5.8-6.3-5.8-3.6 0-6.4 3-6.1 6.6C45.5 378.8 137.7 465 250 465s204.5-86.1 214.1-196c.3-3.6-2.5-6.6-6.1-6.6M42 237.6c3.3 0 6-2.6 6.3-5.8 9.2-103.3 96-184.3 201.7-184.3s192.5 81 201.7 184.3c.3 3.3 3 5.8 6.3 5.8 3.6 0 6.4-3 6.1-6.6C454.5 121.2 362.3 35 250 35S45.5 121.2 35.9 231c-.3 3.6 2.5 6.6 6.1 6.6" clip-rule="evenodd"/>
</svg>
