<svg xmlns="http://www.w3.org/2000/svg" viewBox="0 0 500 500">
  <path fill="#111" stroke="#111" stroke-width="7.054" d="M250 4.5c135.6 0 245.5 109.9 245.5 245.5S385.6 495.5 250 495.5 4.5 385.6 4.5 250 114.4 4.5 250 4.5z"/>
  <radialGradient id="a" cx="1.027" cy="501.173" r="1.282" gradientTransform="matrix(0 411.151 289.409 0 -144793.484 -349.205)" gradientUnits="userSpaceOnUse">
    <stop offset=".031" stop-color="#3a3a3a"/>
    <stop offset="1" stop-color="#1c1c1c"/>
  </radialGradient>
  <path fill="url(#a)" fill-opacity=".7" d="M250 0C111.9 0 0 111.9 0 250s111.9 250 250 250 250-111.9 250-250S388.1 0 250 0"/>
  <linearGradient id="b" x1="250" x2="250" y1="505.568" y2="-1.575" gradientTransform="matrix(1 0 0 -1 0 502)" gradientUnits="userSpaceOnUse">
    <stop offset="0" stop-color="#fff"/>
    <stop offset="1" stop-color="#111"/>
  </linearGradient>
  <path fill="none" stroke="url(#b)" stroke-width="7.143" d="M250 0C111.9 0 0 111.9 0 250s111.9 250 250 250 250-111.9 250-250S388.1 0 250 0z"/>
  <path fill="#fff" fill-rule="evenodd" d="M210 44.3C113.5 62.9 40.5 147.8 40.5 249.8s73 186.9 169.5 205.5v-19.6c-85.9-18.3-150.3-94.6-150.3-185.9S124.1 82.2 210 63.9zM290 64V44.4C386.4 63.1 459.1 148 459.1 249.8S386.4 436.5 290 455.3v-19.6c85.7-18.4 149.9-94.6 149.9-185.8S375.7 82.4 290 64" clip-rule="evenodd"/>
  <path fill="#fff" d="M279.6 242.8c16 3 28.4 8.9 37.2 17.6 8.8 8.5 13.2 19.3 13.2 32.6v20.9c0 15.9-5.7 28.7-17.2 38.5-11.5 9.6-26.5 14.3-45.1 14.3h-6.4V400h-22.1v-33.3h-6.8c-12.3 0-23.1-2.7-32.6-8.2-9.4-5.7-16.8-13.5-22.1-23.5-5.1-10.2-7.7-22-7.7-35.2h22.1c0 13.5 3.7 24.5 11.1 32.9 7.6 8.3 17.5 12.4 29.8 12.4h34c12.1 0 21.8-2.8 29.2-8.5q11.1-8.85 11.1-22.8V293c0-7.4-2.8-13.7-8.3-18.9-5.3-5.2-12.7-8.6-22.1-10.1l-55.3-9.8c-15.6-2.8-27.6-8.7-36.2-17.6q-12.9-13.35-12.9-33.6v-17.6c0-15.9 5.5-28.5 16.6-37.8 11.3-9.6 26.1-14.3 44.5-14.3h5.5V100h22.1v33.3h7.1c17.4 0 31.4 5.7 42.1 17 10.6 11.1 16 25.8 16 44h-22.1c0-12-3.3-21.5-9.8-28.7q-9.9-10.8-26.1-10.8h-34.7c-11.7 0-21 2.8-27.9 8.5-7 5.4-10.4 12.8-10.4 22.2V203c0 7.6 2.6 14 7.7 19.2 5.3 5.2 12.6 8.7 21.8 10.4z"/>
</svg>
