<svg xmlns="http://www.w3.org/2000/svg" fill="none" viewBox="0 0 48 48">
  <circle cx="24" cy="24" r="22" fill="#315d42" stroke="#d8e2dd" stroke-width="4"/>
  <path fill="#d8e2dd" d="M12.9 10.2h6.6L24 25.6l4.5-15.4h6.6v24.5L29 32.1V17.8l-4.1 14.6h-1.8L19 17.8v14.3l-6.1 2.6z"/>
  <path fill="#d8e2dd" d="M18 29h2v2c2.4.3 3.7 1.6 3.7 3.5h-2.4c-.2-.9-.9-1.4-2.1-1.4s-1.8.4-1.8 1.1c0 .6.6.9 2.3 1.2 2.8.5 4.1 1.5 4.1 3.4 0 2-1.4 3.3-3.8 3.5V44h-2v-1.8c-2.5-.3-3.9-1.7-4-3.8h2.4c.2 1.2 1 1.7 2.4 1.7 1.5 0 2.3-.5 2.3-1.3 0-.7-.7-1-2.5-1.4-2.6-.5-3.8-1.5-3.8-3.4s1.2-3 3.2-3.3zm10 0h2v2c2.4.3 3.7 1.6 3.7 3.5h-2.4c-.2-.9-.9-1.4-2.1-1.4s-1.8.4-1.8 1.1c0 .6.6.9 2.3 1.2 2.8.5 4.1 1.5 4.1 3.4 0 2-1.4 3.3-3.8 3.5V44h-2v-1.8c-2.5-.3-3.9-1.7-4-3.8h2.4c.2 1.2 1 1.7 2.4 1.7 1.5 0 2.3-.5 2.3-1.3 0-.7-.7-1-2.5-1.4-2.6-.5-3.8-1.5-3.8-3.4s1.2-3 3.2-3.3z"/>
</svg>
