<svg xmlns="http://www.w3.org/2000/svg" viewBox="0 0 500 500">
  <path fill="#00ffb4" d="M495.7 249c-25.8 14.5-67.8 32.2-119.6 32.2-87.9 0-176.5-71-247.5-71-68.7 0-122.7 36.5-126 38.8L249.2 2.4z"/>
  <path fill="#05da9b" d="M496.3 249.6 249.2 496.7 2 249.6l.6-.6c3.3-2.3 57.3-38.8 126.1-38.8 71 0 159.5 71 247.5 71 51.8 0 93.8-17.7 119.6-32.2z"/>
  <path fill="#fff" d="M332.7 306.5c0-37.1-26.1-57.8-87.4-69.2-33.1-6.2-49.7-19.5-49.3-39.6v-1.2c0-11.3 5-37.6 51.3-37.6 23 0 39 6.8 47.6 20.2 6.6 10.3 6.7 21.3 6.7 21.4l14.6.1 14.6.3c0-1.1.3-27.8-19.9-48.4-12.8-13-30.3-20.5-52.3-22.3v-28.8h-20.8V130c-52.1 3.7-70.9 37.3-70.9 66.4v.6c-.4 20.5 8.6 56.8 73.1 68.8 63.6 11.9 63.6 30.5 63.6 40.6 0 5.2-1.1 18.4-11.2 28.5-9.1 9.1-23.4 13.6-42.5 13.6h-.4c-48.3-.2-61-28-61-42.6h-29.2c0 17.2 7.6 34.5 20.9 47.4 10.1 9.8 28 21.3 57.5 23.9v29.2h20.8v-28.9c23-1.4 41.3-8.8 54.4-21.9 12.6-12.5 19.8-30.4 19.8-49.1"/>
</svg>
