<svg xmlns="http://www.w3.org/2000/svg" viewBox="0 0 500 500">
  <radialGradient id="a" cx="430.968" cy="108.406" r="372.093" gradientUnits="userSpaceOnUse">
    <stop offset="0" stop-color="#aad65c"/>
    <stop offset=".623" stop-color="#4b9e58"/>
    <stop offset="1" stop-color="#205533"/>
  </radialGradient>
  <circle cx="250" cy="250" r="250" fill="url(#a)"/>
  <path fill="#fff" d="M225.9 131.5V73.4l47.7-.7.7 58.4h91.3v37.8h-91.3v62.3c6.6 0 13.1-.5 19.4.1 10.3.9 20.8 1.4 30.7 4.2 25 7 42.2 22.8 47.3 48.8 4 20.6 1.5 40.5-11.9 57.7-10.8 14-25.8 21.4-42.8 24.6-8.6 1.6-17.6 1.9-26.4 2.5-5.1.3-10.3.1-16.7.1-.7 19.9.1 39.4-.5 59.3h-47.5v-59.1h-92.2v-38h91.9c.5-21 .2-62.8.2-62.8l-9.4.3s-25.9.5-38.6-3c-24.3-6.7-42.8-20.4-49-45.7-6.6-27-2.4-52.1 20.1-71.2 14-11.9 31.2-16.3 49.3-17.3 8.7-.5 17.6-.2 27.7-.2M274 268.6c-.2-12.3-.3-24.6-.5-37.5H226c0-20.5.3-41.1-.1-61.4-11.3-1.7-24.4-.8-32.5 2-7.2 2.5-13 6.7-16.4 13.7-9.3 19.2.5 40.4 21.5 44.4 9 1.7 18.4.9 27.7 1.2v37.5c16.3 0 32.1 0 47.8.1.1 20.5.1 41 .1 62 11.9.6 23 1.4 33.7-2.8 8.6-3.4 14.5-9.6 16.2-18.7 3.8-20.7-3.8-36.2-26.9-39.3-7.6-1-15.4-.8-23.1-1.2"/>
  <radialGradient id="b" cx="430.968" cy="108.406" r="372.093" gradientUnits="userSpaceOnUse">
    <stop offset="0" stop-color="#aad65c"/>
    <stop offset=".623" stop-color="#4b9e58"/>
    <stop offset="1" stop-color="#205533"/>
  </radialGradient>
  <path fill="url(#b)" d="M226.1 231c-9.2-.3-18.7.5-27.7-1.2-20.9-4-30.8-25.2-21.5-44.4 3.4-7 9.1-11.3 16.4-13.7 8.1-2.8 21.3-3.6 32.5-2 .4 20.3.2 40.9.1 61.4z"/>
  <radialGradient id="c" cx="430.968" cy="108.406" r="372.093" gradientUnits="userSpaceOnUse">
    <stop offset="0" stop-color="#aad65c"/>
    <stop offset=".623" stop-color="#4b9e58"/>
    <stop offset="1" stop-color="#205533"/>
  </radialGradient>
  <path fill="url(#c)" d="M274 268.6c7.7.4 15.5.2 23.2 1.2 23.1 3.1 30.7 18.6 26.9 39.3-1.7 9.1-7.6 15.3-16.2 18.7-10.7 4.2-21.9 3.4-33.7 2.8-.1-21-.1-41.5-.2-62"/>
  <radialGradient id="d" cx="430.968" cy="108.406" r="372.093" gradientUnits="userSpaceOnUse">
    <stop offset="0" stop-color="#aad65c"/>
    <stop offset=".623" stop-color="#4b9e58"/>
    <stop offset="1" stop-color="#205533"/>
  </radialGradient>
  <path fill="url(#d)" d="M226 231.1h47.5c.2 12.9.3 25.2.5 37.5l.1-.1h-48V231z"/>
</svg>
