<svg xmlns="http://www.w3.org/2000/svg" viewBox="0 0 500 500">
  <circle cx="250" cy="250.5" r="250" fill="#39394d"/>
  <circle cx="250" cy="250.5" r="229.6" fill="#08080a"/>
  <linearGradient id="a" x1="115.936" x2="278.196" y1="167.053" y2="351.906" gradientUnits="userSpaceOnUse">
    <stop offset="0" stop-color="#0df3f4"/>
    <stop offset=".999" stop-color="#d979d4"/>
  </linearGradient>
  <path fill="url(#a)" d="m119 285 53.6-167.2c.8-2.5 4.4-1.9 4.4.7v231.1c0 2.1-2.7 3.1-4 1.5l-53.6-64c-.5-.6-.7-1.4-.4-2.1"/>
  <linearGradient id="b" x1="154.306" x2="316.565" y1="133.56" y2="318.413" gradientUnits="userSpaceOnUse">
    <stop offset="0" stop-color="#0df3f4"/>
    <stop offset=".999" stop-color="#d979d4"/>
  </linearGradient>
  <path fill="url(#b)" d="M210.9 326.6V104.2c0-.1.1-.2.2-.1l91.9 68.2c1.7 1.3 2.7 3.2 2.7 5.3V312c0 3.2-2.3 6-5.5 6.5l-81.6 14.6c-3.9.8-7.7-2.4-7.7-6.5"/>
  <linearGradient id="c" x1="102.498" x2="264.757" y1="179.035" y2="363.889" gradientUnits="userSpaceOnUse">
    <stop offset="0" stop-color="#0df3f4"/>
    <stop offset=".999" stop-color="#d979d4"/>
  </linearGradient>
  <path fill="url(#c)" d="m199 372.2 126.3-22.6-66.9 42.7z"/>
  <linearGradient id="d" x1="203.251" x2="365.511" y1="90.596" y2="275.449" gradientUnits="userSpaceOnUse">
    <stop offset="0" stop-color="#0df3f4"/>
    <stop offset=".999" stop-color="#d979d4"/>
  </linearGradient>
  <path fill="url(#d)" d="M341 312.3V204.2c0-1.2 1.3-1.8 2.3-1.1l46.3 34.6c.6.4.7 1.3.4 1.9L343.6 313c-.7 1.3-2.6.7-2.6-.7"/>
</svg>
