<svg xmlns="http://www.w3.org/2000/svg" fill="none" viewBox="0 0 48 48">
  <defs>
    <linearGradient id="a" x1="0" x2="48" y1="0" y2="48" gradientUnits="userSpaceOnUse">
      <stop stop-color="#c6f0f3"/>
      <stop offset="1" stop-color="#f0ffd6"/>
    </linearGradient>
  </defs>
  <path fill="url(#a)" d="M0 0h48v48H0z"/>
  <path fill="#2d999a" d="M23.54 14.62h1.23v.15h.77v.15h.31v.16h.46v.15h.15v.15h.31v.16h.31v.15h.15v.16h.15V16h.16v.15h.15v.16h.16v.15H28v.31h.15v.15h.16v.16h.15v.3h.16v.31h.15V18h.15v.46h.16v.31h.15v.61h.15V20h.16v2.62h.77v-.16h.61v-.15h.46v-.16h.31V22h.46v-.15h.31v-.16h.31v-.15h.46v-.16h.31v-.15h.31v-.15H34v-.16h.31v-.15h.31v-.15h.3v-.16h.46v.16h.16v.3h-.16v.16h-.15v.15h-.15v.15h-.16v.16h-.15v.15h-.31v.16h-.15V22h-.16v.15h-.3v.16h-.16v.15h-.31v.16h-.15v.15h-.31v.15h-.15v.16h-.31v.15h-.31v.15H32v.16h-.31v.15h-.31v.16h-.3V24h-.31v.15h-.46v.16H30v.15h-.31v.16h-.31v.15h-.15v.31h-.15v.61h-.16V26h-.15v.46h-.15v.46h-.16v.31h-.15v.31h-.16v.31H28v.3h-.15v.31h-.16v.31h-.15v.31h-.16v.15h-.15v.31h-.15v.31h-.16V30h-.15v.15h-.15v.31h-.16v.16h-.15v.3h-.16v.16H26v.15h-.15v.15h-.16v.31h-.15v.16h-.16V32h-.15v.15h-.15v.16h-.16v.31h-.15v.15h-.31v.15h-.15v.16H24v.15h-.46v.15h-.77v-.15h-.62v-.15H22v-.16h-.31v-.15h-.15v-.15h-.16v-.16h-.15v-.31h-.15v-.3h-.16v-.47h-.15v-.3h-.15v-.31h-.16v-.31h-.15v-.31h-.16v-.3H20v-.31h-.15v-.31h-.16v-.15h-.15v-.31h-.16v-.15h-.15v-.31h-.15V28h-.16v-.15h-.15v-.16h-.15v-.31h-.16v-.15h-.15v-.31h-.16v-.15H18v-.15h-.15v-.31h-.16v-.16h-.15V26h-.16v-.15h-.15v-.16h-.15v-.15h-.16v-.31h-.15v-.15h-.15v-.16h-.16v-.15h-.15v-.15h-.16v-.16H16v-.15h-.15v-.16h-.16V24h-.15v-.15h-.16v-.16h-.15v-.15h-.15v-.16h-.31v-.15h-.15v-.15h-.16v-.16h-.15v-.15h-.16v-.15h-.3v-.16h-.16v-.15h-.15v-.16h-.31V22h-.15v-.15h-.16v-.16h-.3v-.15h-.16v-.16h-.31v-.15H12v-.15h-.31v-.16h-.31v-.15h-.15v-.15h-.31v-.16h-.3v-.15h-.31v-.16H10V20h-.31v-.15h-.15v-.47h.15v-.15h.46v.15h.93v.16h.46v.15h.61v.16h.47V20h.46v.15h.3v.16h.47v.15h.3v.16h.31v.15h.31v.15h.31v.16h.3v.15h.31v.15H16v.16h.31v.15h.15v.16h.31V22h.15v.15h.31v.16h.15v.15h.31v.16h.16v.15H18v.15h.31v.16h.15v.15h.16v.15h.15v.16h.15v.15h.31v.16h.15V24h.16v.15h.15v.16h.16v.15H20v.16h.15v.15h.16v.15h.15v.16h.16v.15h.15v.15h.15v.16h.16v.31h.15V26h.15v.15h.16v.16h.15v.15h.16v.31H22v.15h.15v.16h.16v.3h.15v.16h.16v.31h.15V28h.15v.15h.16v.31h.15v.16h.15v-.16h.16v-.15h.15v-.16h.16v-.3H24v-.31h.15v-.16h.16v-.3h.15v-.16h.16v-.3h.15v-.31h.15V26h.16v-.31h.15v-.15h-.15v-.16h-1.23v-.15h-.62v-.15h-.46v-.16h-.46v-.15H22v-.15h-.31v-.16h-.15v-.15h-.31v-.16h-.15V24h-.31v-.15h-.15v-.16h-.16v-.15h-.15v-.16h-.16v-.15H20v-.15h-.15v-.31h-.16v-.15h-.15v-.31h-.16v-.16h-.15v-.46h-.15v-.31h-.16v-.46h-.15v-2.15h.15v-.46h.16v-.46h.15v-.31h.15v-.31h.16v-.15h.15v-.31h.16v-.15H20v-.16h.15v-.15h.16v-.16h.15V16h.16v-.15h.3v-.16h.16v-.15h.3v-.16h.16v-.15h.31v-.15h.46v-.16h.31v-.15h.92Zm-.16 2.92v.15h-.46v.16h-.3V18h-.16v.15h-.15v.16h-.16v.15H22v.16h-.15v.3h-.16v1.7h.16v.3H22v.31h.15v.15h.16v.31h.15v.16h.16V22h.15v.15h.15v.16h.31v.15h.15v.16h.31v.15h.46v.15h.47v.16h.76v.15H26v-.15h.15v-.93h.16v-1.84h-.16v-.77H26v-.46h-.15v-.31h-.16v-.31h-.15v-.15h-.16V18h-.3v-.15h-.16v-.16h-.3v-.15Zm13.85 1.08H38v.15h.31v.15h.15v.46h.16v.16h-.16V20h-.15v.15h-.16v.16H38v.15h-.15v.16h-.77v-.16h-.16v-.15h-.15v-.16h-.15v-.46h-.16v-.46h.16v-.15h.15v-.16h.15v-.15h.31Z"/>
</svg>
