<svg xmlns="http://www.w3.org/2000/svg" viewBox="0 0 256 256">
  <path d="M0 0h256v256H0Z"/>
  <path fill="#fcfcfc" d="M179.656 66.129c14.85 12.81 14.85 12.81 17.23 20.88.13 3.5-.49 5.11-2.14 8.18-.56 1.05-1.12 2.1-1.7 3.18-.68 1.21-1.36 2.42-2.05 3.63-.18.33-.18.33-1.14 2.02-2.7 4.75-5.45 9.46-8.21 14.17-1.83 3.12-3.63 6.24-5.44 9.37-1.27 2.21-2.55 4.42-3.83 6.63-.62 1.07-1.23 2.14-1.87 3.24-.28.49-.28.49-1.73 2.99-.51.88-1.03 1.77-1.55 2.68-.41.63-.81 1.25-1.23 1.9h-1v-49c-26.29-2.1-26.29-2.1-32.68 3.25-4.72 6.11-7.71 13.1-10.72 20.17-2.53 5.68-5.74 10.91-8.97 16.21-.56.94-1.11 1.89-1.68 2.87-2.87 4.88-2.87 4.88-3.95 6.5h-1v-49h-30v74c27.61-1.2 27.61-1.2 33-7 6.22-8.58 11.15-18.18 16.33-27.41 1.04-1.86 2.08-3.71 3.13-5.56.3-.54.3-.54 1.85-3.29 1.69-2.74 1.69-2.74 4.69-5.74v49c25.37-1.15 25.37-1.15 32.08-6.72 4.74-5.64 8.25-11.74 11.74-18.22 1.22-2.23 2.45-4.45 3.67-6.68.6-1.09 1.19-2.17 1.81-3.29 5.49-9.93 11.19-19.79 17.7-29.09l4 1c5.59 21.74 1.64 43.87-9.24 63.21-11.8 18.78-29.78 31.14-51.13 36.54-21.78 4.31-44.27.7-62.84-11.68-17.85-13.23-30.49-31.17-34.34-53.27-1.28-11-1.58-23.12 1.55-33.8.27-1.02.54-2.04.82-3.09 5.84-20.85 19.79-37.24 38.43-47.96 29.06-15.77 64.97-11.21 90.41 9.18"/>
</svg>
