<svg id="wavax" width="250" height="250" viewBox="0 0 250 250" xmlns="http://www.w3.org/2000/svg" shape-rendering="crispEdges">
<path fill="#E84142" d="M124 0h2v1H124zM113 1h24v1H113zM105 2h40v1H105zM100 3h50v1H100zM95 4h60v1H95zM91 5h68v1H91zM88 6h74v1H88zM85 7h80v1H85zM82 8h86v1H82zM80 9h90v1H80zM77 10h96v1H77zM75 11h100v1H75zM73 12h104v1H73zM71 13h108v1H71zM69 14h112v1H69zM67 15h116v1H67zM65 16h120v1H65zM63 17h124v1H63zM61 18h128v1H61zM60 19h130v1H60zM58 20h134v1H58zM57 21h136v1H57zM55 22h140v1H55zM54 23h142v1H54zM52 24h146v1H52zM51 25h148v1H51zM50 26h150v1H50zM48 27h154v1H48zM47 28h156v1H47zM46 29h158v1H46zM45 30h160v1H45zM43 31h164v1H43zM42 32h166v1H42zM41 33h168v1H41zM40 34h170v1H40zM39 35h172v1H39zM38 36h83v1H38zM126 36h86v1H126zM37 37h82v1H37zM128 37h85v1H128zM36 38h82v1H36zM129 38h85v1H129zM35 39h82v1H35zM130 39h85v1H130zM34 40h82v1H34zM131 40h85v1H131zM33 41h82v1H33zM132 41h85v1H132zM32 42h83v1H32zM132 42h86v1H132zM31 43h83v1H31zM133 43h86v1H133zM31 44h82v1H31zM133 44h86v1H133zM30 45h83v1H30zM134 45h86v1H134zM29 46h83v1H29zM134 46h87v1H134zM28 47h85v1H28zM135 47h87v1H135zM27 48h84v1H27zM136 48h87v1H136zM26 49h85v1H26zM136 49h88v1H136zM26 50h84v1H26zM137 50h87v1H137zM25 51h84v1H25zM137 51h88v1H137zM24 52h85v1H24zM138 52h88v1H138zM24 53h84v1H24zM138 53h88v1H138zM23 54h86v1H23zM139 54h88v1H139zM22 55h85v1H22zM140 55h88v1H140zM21 56h86v1H21zM140 56h89v1H140zM21 57h85v1H21zM141 57h88v1H141zM20 58h85v1H20zM141 58h89v1H141zM20 59h85v1H20zM142 59h88v1H142zM19 60h85v1H19zM142 60h89v1H142zM18 61h87v1H18zM143 61h89v1H143zM18 62h85v1H18zM144 62h88v1H144zM17 63h86v1H17zM144 63h89v1H144zM17 64h85v1H17zM145 64h88v1H145zM16 65h85v1H16zM145 65h89v1H145zM15 66h86v1H15zM146 66h89v1H146zM15 67h85v1H15zM146 67h89v1H146zM14 68h86v1H14zM147 68h89v1H147zM14 69h85v1H14zM148 69h88v1H148zM13 70h86v1H13zM148 70h89v1H148zM13 71h85v1H13zM149 71h88v1H149zM12 72h85v1H12zM149 72h89v1H149zM12 73h85v1H12zM150 73h88v1H150zM12 74h84v1H12zM149 74h89v1H149zM11 75h85v1H11zM151 75h88v1H151zM11 76h84v1H11zM151 76h88v1H151zM10 77h85v1H10zM151 77h89v1H151zM10 78h84v1H10zM152 78h88v1H152zM9 79h84v1H9zM152 79h89v1H152zM9 80h84v1H9zM152 80h89v1H152zM9 81h83v1H9zM152 81h89v1H152zM8 82h84v1H8zM152 82h90v1H152zM8 83h83v1H8zM153 83h89v1H153zM8 84h83v1H8zM153 84h89v1H153zM7 85h83v1H7zM153 85h90v1H153zM7 86h82v1H7zM153 86h90v1H153zM7 87h82v1H7zM153 87h90v1H153zM6 88h82v1H6zM153 88h91v1H153zM6 89h82v1H6zM153 89h91v1H153zM6 90h81v1H6zM152 90h92v1H152zM5 91h82v1H5zM151 91h94v1H151zM5 92h81v1H5zM152 92h93v1H152zM5 93h80v1H5zM152 93h93v1H152zM5 94h80v1H5zM152 94h93v1H152zM4 95h80v1H4zM151 95h95v1H151zM4 96h80v1H4zM151 96h95v1H151zM4 97h79v1H4zM151 97h95v1H151zM4 98h79v1H4zM150 98h96v1H150zM3 99h79v1H3zM150 99h97v1H150zM3 100h78v1H3zM149 100h98v1H149zM3 101h78v1H3zM149 101h98v1H149zM3 102h77v1H3zM148 102h99v1H148zM3 103h77v1H3zM147 103h100v1H147zM3 104h76v1H3zM147 104h100v1H147zM2 105h77v1H2zM146 105h102v1H146zM2 106h76v1H2zM146 106h102v1H146zM2 107h75v1H2zM145 107h103v1H145zM2 108h75v1H2zM144 108h104v1H144zM2 109h74v1H2zM144 109h104v1H144zM2 110h74v1H2zM142 110h106v1H142zM2 111h73v1H2zM143 111h105v1H143zM2 112h73v1H2zM142 112h106v1H142zM1 113h73v1H1zM142 113h107v1H142zM1 114h72v1H1zM141 114h108v1H141zM1 115h72v1H1zM140 115h109v1H140zM1 116h71v1H1zM140 116h109v1H140zM1 117h71v1H1zM139 117h110v1H139zM1 118h70v1H1zM139 118h110v1H139zM1 119h70v1H1zM138 119h111v1H138zM1 120h69v1H1zM138 120h111v1H138zM1 121h69v1H1zM137 121h31v1H137zM175 121h74v1H175zM1 122h68v1H1zM136 122h31v1H136zM176 122h73v1H176zM1 123h67v1H1zM136 123h30v1H136zM176 123h73v1H176zM0 124h68v1H0zM135 124h31v1H135zM178 124h72v1H178zM0 125h67v1H0zM135 125h29v1H135zM179 125h71v1H179zM1 126h67v1H1zM134 126h29v1H134zM180 126h69v1H180zM1 127h65v1H1zM134 127h29v1H134zM181 127h68v1H181zM1 128h65v1H1zM133 128h29v1H133zM181 128h68v1H181zM1 129h64v1H1zM131 129h30v1H131zM182 129h67v1H182zM1 130h63v1H1zM132 130h29v1H132zM182 130h67v1H182zM1 131h63v1H1zM131 131h29v1H131zM183 131h66v1H183zM1 132h62v1H1zM131 132h29v1H131zM183 132h66v1H183zM1 133h63v1H1zM130 133h29v1H130zM184 133h65v1H184zM1 134h61v1H1zM129 134h29v1H129zM185 134h64v1H185zM1 135h61v1H1zM129 135h29v1H129zM185 135h64v1H185zM1 136h60v1H1zM127 136h30v1H127zM186 136h63v1H186zM2 137h58v1H2zM128 137h29v1H128zM186 137h62v1H186zM2 138h58v1H2zM127 138h29v1H127zM187 138h61v1H187zM2 139h57v1H2zM127 139h29v1H127zM187 139h61v1H187zM2 140h58v1H2zM126 140h29v1H126zM188 140h60v1H188zM2 141h56v1H2zM125 141h29v1H125zM189 141h59v1H189zM2 142h56v1H2zM125 142h29v1H125zM189 142h59v1H189zM2 143h55v1H2zM124 143h29v1H124zM190 143h58v1H190zM2 144h54v1H2zM124 144h30v1H124zM190 144h58v1H190zM3 145h53v1H3zM123 145h29v1H123zM191 145h56v1H191zM3 146h52v1H3zM123 146h29v1H123zM191 146h56v1H191zM3 147h53v1H3zM122 147h29v1H122zM192 147h55v1H192zM3 148h51v1H3zM121 148h29v1H121zM193 148h54v1H193zM3 149h51v1H3zM121 149h29v1H121zM193 149h54v1H193zM3 150h50v1H3zM120 150h29v1H120zM194 150h53v1H194zM4 151h48v1H4zM120 151h29v1H120zM194 151h52v1H194zM4 152h48v1H4zM119 152h29v1H119zM195 152h51v1H195zM4 153h47v1H4zM118 153h29v1H118zM195 153h51v1H195zM4 154h47v1H4zM118 154h29v1H118zM196 154h50v1H196zM5 155h45v1H5zM116 155h30v1H116zM197 155h48v1H197zM5 156h45v1H5zM117 156h29v1H117zM197 156h48v1H197zM5 157h44v1H5zM116 157h29v1H116zM198 157h47v1H198zM5 158h43v1H5zM116 158h29v1H116zM198 158h47v1H198zM6 159h42v1H6zM115 159h29v1H115zM199 159h45v1H199zM6 160h41v1H6zM114 160h29v1H114zM199 160h45v1H199zM6 161h41v1H6zM114 161h29v1H114zM200 161h44v1H200zM7 162h39v1H7zM113 162h29v1H113zM201 162h42v1H201zM7 163h39v1H7zM113 163h29v1H113zM201 163h42v1H201zM7 164h38v1H7zM112 164h29v1H112zM202 164h41v1H202zM8 165h36v1H8zM112 165h29v1H112zM202 165h40v1H202zM8 166h36v1H8zM111 166h29v1H111zM203 166h39v1H203zM8 167h35v1H8zM110 167h29v1H110zM203 167h39v1H203zM9 168h34v1H9zM110 168h29v1H110zM204 168h37v1H204zM9 169h33v1H9zM109 169h29v1H109zM205 169h36v1H205zM9 170h33v1H9zM109 170h30v1H109zM205 170h36v1H205zM10 171h31v1H10zM108 171h29v1H108zM206 171h34v1H206zM10 172h31v1H10zM107 172h31v1H107zM206 172h34v1H206zM11 173h29v1H11zM107 173h29v1H107zM206 173h33v1H206zM11 174h29v1H11zM106 174h30v1H106zM207 174h32v1H207zM12 175h28v1H12zM105 175h31v1H105zM207 175h31v1H207zM12 176h29v1H12zM104 176h32v1H104zM207 176h31v1H207zM12 177h28v1H12zM103 177h33v1H103zM207 177h31v1H207zM13 178h27v1H13zM102 178h34v1H102zM207 178h30v1H207zM13 179h27v1H13zM101 179h35v1H101zM206 179h31v1H206zM14 180h28v1H14zM99 180h39v1H99zM206 180h30v1H206zM14 181h27v1H14zM98 181h39v1H98zM204 181h32v1H204zM15 182h27v1H15zM96 182h42v1H96zM203 182h32v1H203zM15 183h28v1H15zM94 183h45v1H94zM203 183h32v1H203zM16 184h29v1H16zM47 184h1v1H47zM91 184h50v1H91zM143 184h1v1H143zM202 184h32v1H202zM17 185h32v1H17zM86 185h59v1H86zM198 185h35v1H198zM17 186h216v1H17zM18 187h214v1H18zM18 188h214v1H18zM19 189h212v1H19zM20 190h210v1H20zM20 191h210v1H20zM21 192h208v1H21zM21 193h208v1H21zM22 194h206v1H22zM23 195h204v1H23zM24 196h202v1H24zM24 197h202v1H24zM25 198h200v1H25zM26 199h198v1H26zM26 200h198v1H26zM27 201h196v1H27zM28 202h194v1H28zM29 203h192v1H29zM30 204h190v1H30zM31 205h188v1H31zM31 206h188v1H31zM32 207h186v1H32zM33 208h184v1H33zM34 209h182v1H34zM35 210h180v1H35zM36 211h178v1H36zM37 212h176v1H37zM38 213h174v1H38zM39 214h172v1H39zM40 215h170v1H40zM41 216h168v1H41zM42 217h166v1H42zM43 218h164v1H43zM45 219h160v1H45zM46 220h158v1H46zM47 221h156v1H47zM48 222h154v1H48zM50 223h150v1H50zM51 224h148v1H51zM52 225h146v1H52zM54 226h142v1H54zM55 227h140v1H55zM57 228h136v1H57zM58 229h134v1H58zM60 230h130v1H60zM61 231h128v1H61zM63 232h124v1H63zM65 233h120v1H65zM67 234h116v1H67zM69 235h112v1H69zM71 236h108v1H71zM73 237h104v1H73zM75 238h100v1H75zM77 239h96v1H77zM80 240h90v1H80zM82 241h86v1H82zM85 242h80v1H85zM88 243h74v1H88zM91 244h68v1H91zM95 245h60v1H95zM100 246h50v1H100zM105 247h40v1H105zM113 248h24v1H113zM124 249h2v1H124z"/>
<path fill="#FFFFFF" d="M121 39h5v1H121zM119 40h9v1H119zM118 41h11v1H118zM117 42h12v1H117zM117 43h13v1H117zM116 44h14v1H116zM116 45h15v1H116zM115 46h17v1H115zM114 47h18v1H114zM114 48h19v1H114zM113 49h20v1H113zM113 50h21v1H113zM112 51h22v1H112zM112 52h23v1H112zM111 53h25v1H111zM110 54h26v1H110zM110 55h27v1H110zM109 56h28v1H109zM109 57h29v1H109zM108 58h30v1H108zM108 59h31v1H108zM107 60h33v1H107zM106 61h34v1H106zM106 62h35v1H106zM105 63h36v1H105zM105 64h37v1H105zM104 65h38v1H104zM104 66h39v1H104zM103 67h41v1H103zM103 68h41v1H103zM102 69h43v1H102zM101 70h44v1H101zM101 71h45v1H101zM100 72h46v1H100zM100 73h47v1H100zM99 74h49v1H99zM99 75h49v1H99zM98 76h50v1H98zM97 77h52v1H97zM97 78h52v1H97zM96 79h53v1H96zM96 80h54v1H96zM95 81h55v1H95zM95 82h55v1H95zM94 83h56v1H94zM93 84h57v1H93zM93 85h57v1H93zM92 86h58v1H92zM92 87h58v1H92zM91 88h59v1H91zM91 89h59v1H91zM90 90h60v1H90zM89 91h61v1H89zM89 92h61v1H89zM88 93h61v1H88zM88 94h61v1H88zM87 95h62v1H87zM87 96h61v1H87zM86 97h62v1H86zM85 98h62v1H85zM85 99h62v1H85zM84 100h62v1H84zM84 101h62v1H84zM83 102h62v1H83zM83 103h62v1H83zM82 104h62v1H82zM81 105h62v1H81zM81 106h62v1H81zM80 107h62v1H80zM80 108h62v1H80zM79 109h62v1H79zM79 110h62v1H79zM78 111h62v1H78zM77 112h62v1H77zM77 113h62v1H77zM76 114h62v1H76zM76 115h62v1H76zM75 116h62v1H75zM75 117h61v1H75zM74 118h62v1H74zM73 119h62v1H73zM73 120h62v1H73zM72 121h62v1H72zM72 122h62v1H72zM71 123h62v1H71zM170 123h3v1H170zM71 124h61v1H71zM168 124h7v1H168zM70 125h62v1H70zM167 125h9v1H167zM69 126h62v1H69zM166 126h11v1H166zM69 127h62v1H69zM165 127h13v1H165zM68 128h62v1H68zM165 128h13v1H165zM68 129h62v1H68zM164 129h15v1H164zM67 130h62v1H67zM164 130h15v1H164zM67 131h61v1H67zM163 131h17v1H163zM66 132h62v1H66zM162 132h19v1H162zM65 133h62v1H65zM162 133h19v1H162zM65 134h62v1H65zM161 134h21v1H161zM64 135h62v1H64zM161 135h21v1H161zM64 136h61v1H64zM160 136h23v1H160zM63 137h62v1H63zM160 137h23v1H160zM63 138h61v1H63zM159 138h25v1H159zM62 139h62v1H62zM158 139h27v1H158zM61 140h62v1H61zM158 140h27v1H158zM61 141h62v1H61zM157 141h29v1H157zM60 142h62v1H60zM157 142h29v1H157zM60 143h61v1H60zM156 143h31v1H156zM59 144h62v1H59zM155 144h32v1H155zM59 145h61v1H59zM155 145h33v1H155zM58 146h62v1H58zM154 146h35v1H154zM57 147h62v1H57zM154 147h35v1H154zM57 148h62v1H57zM153 148h37v1H153zM56 149h62v1H56zM153 149h37v1H153zM56 150h61v1H56zM152 150h39v1H152zM55 151h62v1H55zM151 151h40v1H151zM55 152h61v1H55zM151 152h41v1H151zM54 153h62v1H54zM150 153h43v1H150zM54 154h61v1H54zM150 154h43v1H150zM53 155h62v1H53zM149 155h45v1H149zM52 156h62v1H52zM149 156h45v1H149zM52 157h61v1H52zM148 157h47v1H148zM51 158h62v1H51zM147 158h48v1H147zM51 159h61v1H51zM147 159h49v1H147zM50 160h62v1H50zM146 160h51v1H146zM50 161h61v1H50zM146 161h51v1H146zM49 162h61v1H49zM145 162h53v1H145zM48 163h62v1H48zM145 163h53v1H145zM48 164h61v1H48zM144 164h55v1H144zM47 165h62v1H47zM143 165h56v1H143zM47 166h61v1H47zM143 166h57v1H143zM46 167h62v1H46zM142 167h59v1H142zM46 168h61v1H46zM142 168h59v1H142zM45 169h61v1H45zM141 169h61v1H141zM44 170h62v1H44zM140 170h62v1H140zM44 171h61v1H44zM140 171h63v1H140zM43 172h62v1H43zM139 172h64v1H139zM43 173h61v1H43zM139 173h65v1H139zM43 174h60v1H43zM139 174h65v1H139zM42 175h60v1H42zM138 175h66v1H138zM42 176h59v1H42zM138 176h66v1H138zM42 177h57v1H42zM138 177h66v1H138zM43 178h55v1H43zM139 178h65v1H139zM43 179h53v1H43zM139 179h65v1H139zM44 180h50v1H44zM140 180h63v1H140zM45 181h47v1H45zM141 181h61v1H141zM47 182h42v1H47zM143 182h57v1H143z"/>
<path fill="#E83F40" d="M122 36h1v1H122zM124 36h1v1H124zM126 37h1v1H126zM118 38h1v1H118zM129 39h1v1H129zM116 40h1v1H116zM115 41h1v1H115zM131 42h1v1H131zM113 45h1v1H113zM133 45h1v1H133zM112 46h1v1H112zM134 47h1v1H134zM111 48h1v1H111zM135 49h1v1H135zM109 52h1v1H109zM137 52h1v1H137zM138 54h1v1H138zM107 55h1v1H107zM139 56h1v1H139zM105 59h1v1H105zM141 59h1v1H141zM142 61h1v1H142zM103 62h1v1H103zM143 63h1v1H143zM101 66h1v1H101zM145 66h1v1H145zM146 68h1v1H146zM99 69h1v1H99zM147 70h1v1H147zM97 73h1v1H97zM149 73h1v1H149zM150 75h1v1H150zM95 76h1v1H95zM94 78h1v1H94zM151 78h1v1H151zM93 80h1v1H93zM151 80h1v1H151zM91 83h1v1H91zM90 85h1v1H90zM152 85h1v1H152zM152 86h1v1H152zM89 87h1v1H89zM152 87h1v1H152zM87 90h1v1H87zM86 92h1v1H86zM85 94h1v1H85zM83 97h1v1H83zM149 98h1v1H149zM82 99h1v1H82zM148 100h1v1H148zM81 101h1v1H81zM147 102h1v1H147zM80 103h1v1H80zM79 104h1v1H79zM146 104h1v1H146zM145 105h1v1H145zM78 106h1v1H78zM77 108h1v1H77zM143 109h1v1H143zM76 110h1v1H76zM75 111h1v1H75zM141 112h1v1H141zM74 113h1v1H74zM140 114h1v1H140zM139 116h1v1H139zM72 117h1v1H72zM71 118h1v1H71zM137 119h1v1H137zM70 120h1v1H70zM136 121h1v1H136zM169 121h1v1H169zM167 122h1v1H167zM175 122h1v1H175zM135 123h1v1H135zM68 124h1v1H68zM134 124h1v1H134zM67 125h1v1H67zM164 125h1v1H164zM133 126h1v1H133zM163 126h1v1H163zM179 126h1v1H179zM66 127h1v1H66zM132 128h1v1H132zM180 128h1v1H180zM131 130h1v1H131zM161 130h1v1H161zM64 131h1v1H64zM130 131h1v1H130zM160 131h1v1H160zM182 131h1v1H182zM63 132h1v1H63zM159 133h1v1H159zM183 133h1v1H183zM62 134h1v1H62zM128 135h1v1H128zM158 135h1v1H158zM184 135h1v1H184zM60 138h1v1H60zM126 138h1v1H126zM156 138h1v1H156zM186 138h1v1H186zM125 140h1v1H125zM155 140h1v1H155zM187 140h1v1H187zM58 141h1v1H58zM124 142h1v1H124zM154 142h1v1H154zM188 142h1v1H188zM56 145h1v1H56zM122 145h1v1H122zM152 145h1v1H152zM190 145h1v1H190zM121 147h1v1H121zM191 147h1v1H191zM54 148h1v1H54zM120 149h1v1H120zM150 149h1v1H150zM192 149h1v1H192zM119 150h1v1H119zM149 150h1v1H149zM52 152h1v1H52zM148 152h1v1H148zM194 152h1v1H194zM117 154h1v1H117zM147 154h1v1H147zM195 154h1v1H195zM50 155h1v1H50zM116 156h1v1H116zM196 156h1v1H196zM49 157h1v1H49zM115 157h1v1H115zM145 157h1v1H145zM48 159h1v1H48zM144 159h1v1H144zM198 159h1v1H198zM113 161h1v1H113zM143 161h1v1H143zM199 161h1v1H199zM46 162h1v1H46zM200 163h1v1H200zM45 164h1v1H45zM111 164h1v1H111zM141 164h1v1H141zM201 165h1v1H201zM44 166h1v1H44zM110 166h1v1H110zM202 166h1v1H202zM109 168h1v1H109zM139 168h1v1H139zM203 168h1v1H203zM42 169h1v1H42zM204 170h1v1H204zM41 171h1v1H41zM107 171h1v1H107zM137 171h1v1H137zM40 173h1v1H40zM105 174h1v1H105zM40 175h1v1H40zM104 175h1v1H104zM103 176h1v1H103zM102 177h1v1H102zM136 177h1v1H136zM101 178h1v1H101zM206 178h1v1H206zM40 179h1v1H40zM136 179h1v1H136zM98 180h1v1H98zM205 180h1v1H205zM96 181h1v1H96zM94 182h1v1H94zM44 183h1v1H44zM202 183h1v1H202zM199 184h1v1H199z"/>
<path fill="#E84041" d="M121 36h1v1H121zM125 36h1v1H125zM119 37h2v1H119zM127 37h1v1H127zM117 39h1v1H117zM130 40h1v1H130zM131 41h1v1H131zM132 43h1v1H132zM113 44h1v1H113zM132 44h1v1H132zM135 48h1v1H135zM136 50h1v1H136zM109 51h1v1H109zM136 51h1v1H136zM139 55h1v1H139zM140 57h1v1H140zM105 58h1v1H105zM140 58h1v1H140zM104 60h1v1H104zM143 62h1v1H143zM144 64h1v1H144zM101 65h1v1H101zM144 65h1v1H144zM100 67h1v1H100zM100 68h1v1H100zM147 69h1v1H147zM148 71h1v1H148zM97 72h1v1H97zM148 72h1v1H148zM96 74h1v1H96zM96 75h1v1H96zM93 79h1v1H93zM92 81h1v1H92zM92 82h1v1H92zM152 83h1v1H152zM152 84h1v1H152zM89 86h1v1H89zM88 88h1v1H88zM152 88h1v1H152zM88 89h1v1H88zM152 89h1v1H152zM85 93h1v1H85zM151 94h1v1H151zM84 95h1v1H84zM84 96h1v1H84zM150 97h1v1H150zM149 99h1v1H149zM81 100h1v1H81zM148 101h1v1H148zM80 102h1v1H80zM145 106h1v1H145zM77 107h1v1H77zM76 109h1v1H76zM142 111h1v1H142zM141 113h1v1H141zM73 114h1v1H73zM72 116h1v1H72zM138 117h1v1H138zM138 118h1v1H138zM137 120h1v1H137zM168 121h1v1H168zM174 121h1v1H174zM68 123h1v1H68zM166 123h1v1H166zM134 125h1v1H134zM178 125h1v1H178zM133 127h1v1H133zM180 127h1v1H180zM161 129h1v1H161zM181 129h1v1H181zM64 130h1v1H64zM181 130h1v1H181zM130 132h1v1H130zM158 134h1v1H158zM184 134h1v1H184zM157 136h1v1H157zM185 136h1v1H185zM60 137h1v1H60zM127 137h1v1H127zM157 137h1v1H157zM185 137h1v1H185zM59 139h1v1H59zM126 139h1v1H126zM154 141h1v1H154zM188 141h1v1H188zM123 143h1v1H123zM153 143h1v1H153zM189 143h1v1H189zM56 144h1v1H56zM123 144h1v1H123zM189 144h1v1H189zM55 146h1v1H55zM122 146h1v1H122zM150 148h1v1H150zM192 148h1v1H192zM193 150h1v1H193zM52 151h1v1H52zM119 151h1v1H119zM193 151h1v1H193zM51 153h1v1H51zM147 153h1v1H147zM51 154h1v1H51zM146 155h1v1H146zM196 155h1v1H196zM146 156h1v1H146zM197 157h1v1H197zM48 158h1v1H48zM115 158h1v1H115zM197 158h1v1H197zM47 160h1v1H47zM143 160h1v1H143zM47 161h1v1H47zM112 162h1v1H112zM142 162h1v1H142zM200 162h1v1H200zM112 163h1v1H112zM142 163h1v1H142zM201 164h1v1H201zM44 165h1v1H44zM111 165h1v1H111zM43 167h1v1H43zM139 167h1v1H139zM43 168h1v1H43zM108 169h1v1H108zM138 169h1v1H138zM204 169h1v1H204zM108 170h1v1H108zM205 171h1v1H205zM106 173h1v1H106zM136 173h1v1H136zM206 174h1v1H206zM136 176h1v1H136zM40 177h1v1H40zM100 179h1v1H100zM41 181h1v1H41zM97 181h1v1H97zM137 181h1v1H137zM42 182h1v1H42zM95 182h1v1H95zM138 182h1v1H138zM43 183h1v1H43zM93 183h1v1H93zM139 183h2v1H139zM45 184h1v1H45zM90 184h1v1H90zM141 184h1v1H141zM201 184h1v1H201zM49 185h37v1H49zM145 185h53v1H145z"/>
<path fill="#E84142" fill-opacity="0.996078" d="M99 3h1v1H99zM150 3h1v1H150zM79 9h1v1H79zM170 9h1v1H170zM72 12h1v1H72zM177 12h1v1H177zM70 13h1v1H70zM179 13h1v1H179zM68 14h1v1H68zM181 14h1v1H181zM66 15h1v1H66zM183 15h1v1H183zM56 21h1v1H56zM193 21h1v1H193zM49 26h1v1H49zM200 26h1v1H200zM44 30h1v1H44zM205 30h1v1H205zM30 44h1v1H30zM219 44h1v1H219zM23 53h1v1H23zM226 53h1v1H226zM19 59h1v1H19zM230 59h1v1H230zM19 190h1v1H19zM230 190h1v1H230zM23 196h1v1H23zM226 196h1v1H226zM30 205h1v1H30zM219 205h1v1H219zM44 219h1v1H44zM205 219h1v1H205zM49 223h1v1H49zM200 223h1v1H200zM56 228h1v1H56zM193 228h1v1H193zM66 234h1v1H66zM183 234h1v1H183zM68 235h1v1H68zM181 235h1v1H181zM70 236h1v1H70zM179 236h1v1H179zM72 237h1v1H72zM177 237h1v1H177zM79 240h1v1H79zM170 240h1v1H170zM99 246h1v1H99zM150 246h1v1H150z"/>
<path fill="#FF0000" fill-opacity="0.00392157" d="M100 1h1v1H100zM149 1h1v1H149zM88 4h1v1H88zM161 4h1v1H161zM72 10h1v1H72zM177 10h1v1H177zM66 13h1v1H66zM183 13h1v1H183zM50 23h1v1H50zM199 23h1v1H199zM37 34h1v1H37zM212 34h1v1H212zM34 37h1v1H34zM215 37h1v1H215zM17 59h1v1H17zM232 59h1v1H232zM12 68h1v1H12zM237 68h1v1H237zM6 82h1v1H6zM243 82h1v1H243zM0 106h1v1H0zM249 106h1v1H249zM0 143h1v1H0zM249 143h1v1H249zM6 167h1v1H6zM243 167h1v1H243zM12 181h1v1H12zM237 181h1v1H237zM17 190h1v1H17zM232 190h1v1H232zM34 212h1v1H34zM215 212h1v1H215zM37 215h1v1H37zM212 215h1v1H212zM50 226h1v1H50zM199 226h1v1H199zM66 236h1v1H66zM183 236h1v1H183zM72 239h1v1H72zM177 239h1v1H177zM88 245h1v1H88zM161 245h1v1H161zM100 248h1v1H100zM149 248h1v1H149z"/>
<path fill="#E83E3F" d="M123 36h1v1H123zM114 43h1v1H114zM110 50h1v1H110zM106 57h1v1H106zM150 76h1v1H150zM151 79h1v1H151zM151 92h1v1H151zM151 93h1v1H151zM150 96h1v1H150zM144 107h1v1H144zM73 115h1v1H73zM170 121h4v1H170zM69 122h1v1H69zM65 129h1v1H65zM129 133h1v1H129zM61 136h1v1H61zM57 143h1v1H57zM151 147h1v1H151zM53 150h1v1H53zM205 172h1v1H205zM40 174h1v1H40zM136 174h1v1H136zM136 175h1v1H136zM206 175h1v1H206zM206 176h1v1H206zM206 177h1v1H206zM40 178h1v1H40zM136 178h1v1H136zM92 183h1v1H92zM46 184h1v1H46zM88 184h2v1H88zM142 184h1v1H142zM200 184h1v1H200z"/>
<path fill="#E84142" fill-opacity="0.976471" d="M111 1h1v1H111zM138 1h1v1H138zM87 6h1v1H87zM162 6h1v1H162zM84 7h1v1H84zM165 7h1v1H165zM45 29h1v1H45zM204 29h1v1H204zM29 45h1v1H29zM220 45h1v1H220zM7 84h1v1H7zM242 84h1v1H242zM6 87h1v1H6zM243 87h1v1H243zM1 111h1v1H1zM248 111h1v1H248zM1 138h1v1H1zM248 138h1v1H248zM6 162h1v1H6zM243 162h1v1H243zM7 165h1v1H7zM242 165h1v1H242zM29 204h1v1H29zM220 204h1v1H220zM45 220h1v1H45zM204 220h1v1H204zM84 242h1v1H84zM165 242h1v1H165zM87 243h1v1H87zM162 243h1v1H162zM111 248h1v1H111zM138 248h1v1H138z"/>
<path fill="#FF8080" fill-opacity="0.00784314" d="M106 0h1v1H106zM143 0h1v1H143zM82 6h1v1H82zM167 6h1v1H167zM70 11h1v1H70zM179 11h1v1H179zM68 12h1v1H68zM181 12h1v1H181zM59 17h1v1H59zM190 17h1v1H190zM36 35h1v1H36zM213 35h1v1H213zM35 36h1v1H35zM214 36h1v1H214zM5 85h1v1H5zM244 85h1v1H244zM5 164h1v1H5zM244 164h1v1H244zM35 213h1v1H35zM214 213h1v1H214zM36 214h1v1H36zM213 214h1v1H213zM59 232h1v1H59zM190 232h1v1H190zM68 237h1v1H68zM181 237h1v1H181zM70 238h1v1H70zM179 238h1v1H179zM82 243h1v1H82zM167 243h1v1H167zM106 249h1v1H106zM143 249h1v1H143z"/>
<path fill="#E44040" fill-opacity="0.109804" d="M97 2h1v1H97zM152 2h1v1H152zM86 5h1v1H86zM163 5h1v1H163zM48 25h1v1H48zM201 25h1v1H201zM25 48h1v1H25zM224 48h1v1H224zM10 73h1v1H10zM239 73h1v1H239zM6 83h1v1H6zM243 83h1v1H243zM2 97h1v1H2zM247 97h1v1H247zM2 152h1v1H2zM247 152h1v1H247zM6 166h1v1H6zM243 166h1v1H243zM10 176h1v1H10zM239 176h1v1H239zM25 201h1v1H25zM224 201h1v1H224zM48 224h1v1H48zM201 224h1v1H201zM86 244h1v1H86zM163 244h1v1H163zM97 247h1v1H97zM152 247h1v1H152z"/>
<path fill="#E84142" fill-opacity="0.992157" d="M123 0h1v1H123zM126 0h1v1H126zM112 1h1v1H112zM137 1h1v1H137zM59 19h1v1H59zM190 19h1v1H190zM53 23h1v1H53zM196 23h1v1H196zM2 104h1v1H2zM247 104h1v1H247zM1 112h1v1H1zM248 112h1v1H248zM0 123h1v1H0zM249 123h1v1H249zM0 126h1v1H0zM249 126h1v1H249zM1 137h1v1H1zM248 137h1v1H248zM2 145h1v1H2zM247 145h1v1H247zM53 226h1v1H53zM196 226h1v1H196zM59 230h1v1H59zM190 230h1v1H190zM112 248h1v1H112zM137 248h1v1H137zM123 249h1v1H123zM126 249h1v1H126z"/>
<path fill="#E64D4D" fill-opacity="0.0392157" d="M107 0h1v1H107zM142 0h1v1H142zM101 1h1v1H101zM148 1h1v1H148zM49 24h1v1H49zM200 24h1v1H200zM24 49h1v1H24zM225 49h1v1H225zM1 101h1v1H1zM248 101h1v1H248zM0 107h1v1H0zM249 107h1v1H249zM0 142h1v1H0zM249 142h1v1H249zM1 148h1v1H1zM248 148h1v1H248zM24 200h1v1H24zM225 200h1v1H225zM49 225h1v1H49zM200 225h1v1H200zM101 248h1v1H101zM148 248h1v1H148zM107 249h1v1H107zM142 249h1v1H142z"/>
<path fill="#E84141" fill-opacity="0.870588" d="M67 14h1v1H67zM182 14h1v1H182zM47 27h1v1H47zM202 27h1v1H202zM40 33h1v1H40zM209 33h1v1H209zM33 40h1v1H33zM216 40h1v1H216zM27 47h1v1H27zM222 47h1v1H222zM4 93h1v1H4zM245 93h1v1H245zM4 156h1v1H4zM245 156h1v1H245zM27 202h1v1H27zM222 202h1v1H222zM33 209h1v1H33zM216 209h1v1H216zM40 216h1v1H40zM209 216h1v1H209zM47 222h1v1H47zM202 222h1v1H202zM67 235h1v1H67zM182 235h1v1H182z"/>
<path fill="#E84142" fill-opacity="0.894118" d="M109 1h1v1H109zM140 1h1v1H140zM51 24h1v1H51zM198 24h1v1H198zM39 34h1v1H39zM210 34h1v1H210zM34 39h1v1H34zM215 39h1v1H215zM18 60h1v1H18zM231 60h1v1H231zM1 109h1v1H1zM248 109h1v1H248zM1 140h1v1H1zM248 140h1v1H248zM18 189h1v1H18zM231 189h1v1H231zM34 210h1v1H34zM215 210h1v1H215zM39 215h1v1H39zM210 215h1v1H210zM51 225h1v1H51zM198 225h1v1H198zM109 248h1v1H109zM140 248h1v1H140z"/>
<path fill="#E84043" fill-opacity="0.298039" d="M94 3h1v1H94zM155 3h1v1H155zM76 9h1v1H76zM173 9h1v1H173zM57 19h1v1H57zM192 19h1v1H192zM39 33h1v1H39zM210 33h1v1H210zM9 76h1v1H9zM240 76h1v1H240zM3 94h1v1H3zM246 94h1v1H246zM3 155h1v1H3zM246 155h1v1H246zM9 173h1v1H9zM240 173h1v1H240zM39 216h1v1H39zM210 216h1v1H210zM57 230h1v1H57zM192 230h1v1H192zM76 240h1v1H76zM173 240h1v1H173z"/>
<path fill="#FFFEFE" d="M120 39h1v1H120zM130 44h1v1H130zM134 51h1v1H134zM138 58h1v1H138zM102 68h1v1H102zM98 75h1v1H98zM94 82h1v1H94zM90 89h1v1H90zM136 117h1v1H136zM179 130h1v1H179zM125 136h1v1H125zM159 137h1v1H159zM183 137h1v1H183zM187 144h1v1H187zM53 154h1v1H53zM49 161h1v1H49zM110 162h1v1H110zM144 163h1v1H144zM45 168h1v1H45zM42 178h1v1H42zM138 178h1v1H138z"/>
<path fill="#E74242" fill-opacity="0.333333" d="M84 6h1v1H84zM165 6h1v1H165zM38 34h1v1H38zM211 34h1v1H211zM34 38h1v1H34zM215 38h1v1H215zM16 62h1v1H16zM233 62h1v1H233zM6 84h1v1H6zM243 84h1v1H243zM6 165h1v1H6zM243 165h1v1H243zM16 187h1v1H16zM233 187h1v1H233zM34 211h1v1H34zM215 211h1v1H215zM38 215h1v1H38zM211 215h1v1H211zM84 243h1v1H84zM165 243h1v1H165z"/>
<path fill="#E84042" fill-opacity="0.776471" d="M116 0h1v1H116zM133 0h1v1H133zM80 8h1v1H80zM169 8h1v1H169zM42 31h1v1H42zM207 31h1v1H207zM31 42h1v1H31zM218 42h1v1H218zM0 116h1v1H0zM249 116h1v1H249zM0 133h1v1H0zM249 133h1v1H249zM31 207h1v1H31zM218 207h1v1H218zM42 218h1v1H42zM207 218h1v1H207zM80 241h1v1H80zM169 241h1v1H169zM116 249h1v1H116zM133 249h1v1H133z"/>
<path fill="#E84142" fill-opacity="0.937255" d="M120 0h1v1H120zM129 0h1v1H129zM54 22h1v1H54zM195 22h1v1H195zM28 46h1v1H28zM221 46h1v1H221zM22 54h1v1H22zM227 54h1v1H227zM0 120h1v1H0zM249 120h1v1H249zM0 129h1v1H0zM249 129h1v1H249zM22 195h1v1H22zM227 195h1v1H227zM28 203h1v1H28zM221 203h1v1H221zM54 227h1v1H54zM195 227h1v1H195zM120 249h1v1H120zM129 249h1v1H129z"/>
<path fill="#E84142" fill-opacity="0.941176" d="M110 1h1v1H110zM139 1h1v1H139zM57 20h1v1H57zM192 20h1v1H192zM46 28h1v1H46zM203 28h1v1H203zM20 57h1v1H20zM229 57h1v1H229zM1 110h1v1H1zM248 110h1v1H248zM1 139h1v1H1zM248 139h1v1H248zM20 192h1v1H20zM229 192h1v1H229zM46 221h1v1H46zM203 221h1v1H203zM57 229h1v1H57zM192 229h1v1H192zM110 248h1v1H110zM139 248h1v1H139z"/>
<path fill="#E84142" fill-opacity="0.831373" d="M117 0h1v1H117zM132 0h1v1H132zM41 32h1v1H41zM208 32h1v1H208zM32 41h1v1H32zM217 41h1v1H217zM0 117h1v1H0zM249 117h1v1H249zM0 132h1v1H0zM249 132h1v1H249zM234 184h1v1H234zM32 208h1v1H32zM217 208h1v1H217zM41 217h1v1H41zM208 217h1v1H208zM117 249h1v1H117zM132 249h1v1H132z"/>
<path fill="#DB4949" fill-opacity="0.027451" d="M96 2h1v1H96zM153 2h1v1H153zM92 3h1v1H92zM157 3h1v1H157zM3 92h1v1H3zM246 92h1v1H246zM2 96h1v1H2zM247 96h1v1H247zM2 153h1v1H2zM247 153h1v1H247zM3 157h1v1H3zM246 157h1v1H246zM92 246h1v1H92zM157 246h1v1H157zM96 247h1v1H96zM153 247h1v1H153z"/>
<path fill="#E84142" fill-opacity="0.866667" d="M102 2h1v1H102zM147 2h1v1H147zM71 12h1v1H71zM178 12h1v1H178zM14 67h1v1H14zM235 67h1v1H235zM2 102h1v1H2zM247 102h1v1H247zM2 147h1v1H2zM247 147h1v1H247zM14 182h1v1H14zM235 182h1v1H235zM71 237h1v1H71zM178 237h1v1H178zM102 247h1v1H102zM147 247h1v1H147z"/>
<path fill="#E84142" fill-opacity="0.909804" d="M119 0h1v1H119zM130 0h1v1H130zM38 35h1v1H38zM211 35h1v1H211zM35 38h1v1H35zM214 38h1v1H214zM0 119h1v1H0zM249 119h1v1H249zM0 130h1v1H0zM249 130h1v1H249zM35 211h1v1H35zM214 211h1v1H214zM38 214h1v1H38zM211 214h1v1H211zM119 249h1v1H119zM130 249h1v1H130z"/>
<path fill="#E84142" fill-opacity="0.956863" d="M81 8h1v1H81zM168 8h1v1H168zM62 17h1v1H62zM187 17h1v1H187zM17 62h1v1H17zM232 62h1v1H232zM8 81h1v1H8zM241 81h1v1H241zM8 168h1v1H8zM241 168h1v1H241zM17 187h1v1H17zM232 187h1v1H232zM62 232h1v1H62zM187 232h1v1H187zM81 241h1v1H81zM168 241h1v1H168z"/>
<path fill="#E84142" fill-opacity="0.984314" d="M122 0h1v1H122zM127 0h1v1H127zM74 11h1v1H74zM175 11h1v1H175zM64 16h1v1H64zM185 16h1v1H185zM0 122h1v1H0zM249 122h1v1H249zM0 127h1v1H0zM249 127h1v1H249zM64 233h1v1H64zM185 233h1v1H185zM74 238h1v1H74zM175 238h1v1H175zM122 249h1v1H122zM127 249h1v1H127z"/>
<path fill="#E84242" fill-opacity="0.701961" d="M96 3h1v1H96zM153 3h1v1H153zM43 30h1v1H43zM206 30h1v1H206zM30 43h1v1H30zM219 43h1v1H219zM3 96h1v1H3zM246 96h1v1H246zM3 153h1v1H3zM246 153h1v1H246zM30 206h1v1H30zM219 206h1v1H219zM43 219h1v1H43zM206 219h1v1H206zM96 246h1v1H96zM153 246h1v1H153z"/>
<path fill="#E94042" fill-opacity="0.498039" d="M95 3h1v1H95zM154 3h1v1H154zM66 14h1v1H66zM183 14h1v1H183zM14 66h1v1H14zM235 66h1v1H235zM3 95h1v1H3zM246 95h1v1H246zM3 154h1v1H3zM246 154h1v1H246zM14 183h1v1H14zM235 183h1v1H235zM66 235h1v1H66zM183 235h1v1H183zM95 246h1v1H95zM154 246h1v1H154z"/>
<path fill="#EA3E45" fill-opacity="0.145098" d="M71 11h1v1H71zM178 11h1v1H178zM42 30h1v1H42zM207 30h1v1H207zM30 42h1v1H30zM219 42h1v1H219zM11 71h1v1H11zM238 71h1v1H238zM11 178h1v1H11zM238 178h1v1H238zM30 207h1v1H30zM219 207h1v1H219zM42 219h1v1H42zM207 219h1v1H207zM71 238h1v1H71zM178 238h1v1H178z"/>
<path fill="#FEFAFA" d="M126 39h1v1H126zM103 66h1v1H103zM99 73h1v1H99zM149 79h1v1H149zM148 96h1v1H148zM139 112h1v1H139zM178 128h1v1H178zM124 138h1v1H124zM156 142h1v1H156zM54 152h1v1H54zM50 159h1v1H50zM141 168h1v1H141zM203 172h1v1H203zM138 174h1v1H138zM44 181h1v1H44zM140 181h1v1H140z"/>
<path fill="#FF3333" fill-opacity="0.0196078" d="M77 8h1v1H77zM172 8h1v1H172zM56 19h1v1H56zM193 19h1v1H193zM53 21h1v1H53zM196 21h1v1H196zM19 56h1v1H19zM230 56h1v1H230zM19 193h1v1H19zM230 193h1v1H230zM53 228h1v1H53zM196 228h1v1H196zM56 230h1v1H56zM193 230h1v1H193zM77 241h1v1H77zM172 241h1v1H172z"/>
<path fill="#FF4040" fill-opacity="0.0156863" d="M45 27h1v1H45zM204 27h1v1H204zM27 45h1v1H27zM222 45h1v1H222zM21 53h1v1H21zM228 53h1v1H228zM8 77h1v1H8zM241 77h1v1H241zM8 172h1v1H8zM241 172h1v1H241zM21 196h1v1H21zM228 196h1v1H228zM27 204h1v1H27zM222 204h1v1H222zM45 222h1v1H45zM204 222h1v1H204z"/>
<path fill="#FFFDFD" d="M142 65h1v1H142zM146 72h1v1H146zM148 76h1v1H148zM86 96h1v1H86zM147 98h1v1H147zM82 103h1v1H82zM78 110h1v1H78zM132 124h1v1H132zM163 130h1v1H163zM121 143h1v1H121zM191 151h1v1H191zM148 156h1v1H148zM195 158h1v1H195zM199 165h1v1H199zM106 169h1v1H106zM94 180h1v1H94z"/>
<path fill="#E94043" fill-opacity="0.356863" d="M111 0h1v1H111zM138 0h1v1H138zM37 35h1v1H37zM212 35h1v1H212zM35 37h1v1H35zM214 37h1v1H214zM0 111h1v1H0zM249 111h1v1H249zM0 138h1v1H0zM35 212h1v1H35zM214 212h1v1H214zM37 214h1v1H37zM212 214h1v1H212zM111 249h1v1H111zM138 249h1v1H138z"/>
<path fill="#E74143" fill-opacity="0.631373" d="M114 0h1v1H114zM135 0h1v1H135zM9 77h1v1H9zM240 77h1v1H240zM0 114h1v1H0zM249 114h1v1H249zM0 135h1v1H0zM249 135h1v1H249zM9 172h1v1H9zM240 172h1v1H240zM77 240h1v1H77zM172 240h1v1H172zM114 249h1v1H114zM135 249h1v1H135z"/>
<path fill="#E84243" d="M151 81h1v1H151zM150 95h1v1H150zM146 103h1v1H146zM79 105h1v1H79zM75 112h1v1H75zM71 119h1v1H71zM177 124h1v1H177zM160 132h1v1H160zM120 148h1v1H120zM149 151h1v1H149zM198 160h1v1H198zM202 167h1v1H202zM91 183h1v1H91zM87 184h1v1H87z"/>
<path fill="#E84344" d="M137 53h1v1H137zM141 60h1v1H141zM145 67h1v1H145zM91 84h1v1H91zM87 91h1v1H87zM83 98h1v1H83zM186 139h1v1H186zM124 141h1v1H124zM190 146h1v1H190zM194 153h1v1H194zM145 158h1v1H145zM109 167h1v1H109zM42 170h1v1H42zM41 172h1v1H41z"/>
<path fill="#E84445" d="M133 46h1v1H133zM103 63h1v1H103zM99 70h1v1H99zM95 77h1v1H95zM139 115h1v1H139zM182 132h1v1H182zM156 139h1v1H156zM54 149h1v1H54zM50 156h1v1H50zM113 160h1v1H113zM46 163h1v1H46zM141 165h1v1H141zM205 173h1v1H205z"/>
<path fill="#E64242" fill-opacity="0.243137" d="M98 2h1v1H98zM151 2h1v1H151zM90 4h1v1H90zM159 4h1v1H159zM2 98h1v1H2zM247 98h1v1H247zM2 151h1v1H2zM247 151h1v1H247zM90 245h1v1H90zM159 245h1v1H159zM98 247h1v1H98zM151 247h1v1H151z"/>
<path fill="#E64444" fill-opacity="0.117647" d="M102 1h1v1H102zM147 1h1v1H147zM55 20h1v1H55zM194 20h1v1H194zM1 102h1v1H1zM248 102h1v1H248zM1 147h1v1H1zM248 147h1v1H248zM55 229h1v1H55zM194 229h1v1H194zM102 248h1v1H102zM147 248h1v1H147z"/>
<path fill="#E74141" fill-opacity="0.415686" d="M99 2h1v1H99zM150 2h1v1H150zM50 24h1v1H50zM199 24h1v1H199zM2 99h1v1H2zM247 99h1v1H247zM2 150h1v1H2zM247 150h1v1H247zM50 225h1v1H50zM199 225h1v1H199zM99 247h1v1H99zM150 247h1v1H150z"/>
<path fill="#E83E46" fill-opacity="0.129412" d="M93 3h1v1H93zM156 3h1v1H156zM14 65h1v1H14zM235 65h1v1H235zM3 93h1v1H3zM246 93h1v1H246zM3 156h1v1H3zM246 156h1v1H246zM14 184h1v1H14zM235 184h1v1H235zM93 246h1v1H93zM156 246h1v1H156z"/>
<path fill="#E84040" fill-opacity="0.172549" d="M109 0h1v1H109zM140 0h1v1H140zM78 8h1v1H78zM171 8h1v1H171zM0 109h1v1H0zM249 109h1v1H249zM0 140h1v1H0zM249 140h1v1H249zM78 241h1v1H78zM171 241h1v1H171zM109 249h1v1H109zM140 249h1v1H140z"/>
<path fill="#E84141" fill-opacity="0.74902" d="M52 23h1v1H52zM197 23h1v1H197zM23 52h1v1H23zM226 52h1v1H226zM10 75h1v1H10zM239 75h1v1H239zM10 174h1v1H10zM239 174h1v1H239zM23 197h1v1H23zM226 197h1v1H226zM52 226h1v1H52zM197 226h1v1H197z"/>
<path fill="#E84142" fill-opacity="0.878431" d="M118 0h1v1H118zM131 0h1v1H131zM69 13h1v1H69zM180 13h1v1H180zM0 118h1v1H0zM249 118h1v1H249zM0 131h1v1H0zM249 131h1v1H249zM69 236h1v1H69zM180 236h1v1H180zM118 249h1v1H118zM131 249h1v1H131z"/>
<path fill="#E84142" fill-opacity="0.898039" d="M78 9h1v1H78zM171 9h1v1H171zM60 18h1v1H60zM189 18h1v1H189zM9 78h1v1H9zM240 78h1v1H240zM9 171h1v1H9zM240 171h1v1H240zM60 231h1v1H60zM189 231h1v1H189zM78 240h1v1H78zM171 240h1v1H171z"/>
<path fill="#E84142" fill-opacity="0.968627" d="M121 0h1v1H121zM128 0h1v1H128zM50 25h1v1H50zM199 25h1v1H199zM25 50h1v1H25zM224 50h1v1H224zM0 121h1v1H0zM0 128h1v1H0zM25 199h1v1H25zM224 199h1v1H224zM50 224h1v1H50zM199 224h1v1H199z"/>
<path fill="#E84142" fill-opacity="0.988235" d="M104 2h1v1H104zM145 2h1v1H145zM16 64h1v1H16zM233 64h1v1H233zM11 74h1v1H11zM238 74h1v1H238zM11 175h1v1H11zM238 175h1v1H238zM16 185h1v1H16zM233 185h1v1H233zM104 247h1v1H104zM145 247h1v1H145z"/>
<path fill="#E84242" fill-opacity="0.823529" d="M108 1h1v1H108zM141 1h1v1H141zM11 73h1v1H11zM238 73h1v1H238zM1 108h1v1H1zM248 108h1v1H248zM1 141h1v1H1zM248 141h1v1H248zM11 176h1v1H11zM238 176h1v1H238zM108 248h1v1H108zM141 248h1v1H141z"/>
<path fill="#E94343" fill-opacity="0.223529" d="M103 1h1v1H103zM146 1h1v1H146zM26 47h1v1H26zM223 47h1v1H223zM1 103h1v1H1zM248 103h1v1H248zM1 146h1v1H1zM248 146h1v1H248zM26 202h1v1H26zM223 202h1v1H223zM103 248h1v1H103zM146 248h1v1H146z"/>
<path fill="#E94A4B" d="M125 37h1v1H125zM134 48h1v1H134zM98 72h1v1H98zM94 79h1v1H94zM174 122h1v1H174zM179 127h1v1H179zM183 134h1v1H183zM125 139h1v1H125zM49 158h1v1H49zM45 165h1v1H45zM110 165h1v1H110zM201 183h1v1H201z"/>
<path fill="#EA4040" fill-opacity="0.0941176" d="M52 22h1v1H52zM197 22h1v1H197zM29 43h1v1H29zM220 43h1v1H220zM18 58h1v1H18zM231 58h1v1H231zM18 191h1v1H18zM231 191h1v1H231zM29 206h1v1H29zM220 206h1v1H220zM52 227h1v1H52zM197 227h1v1H197z"/>
<path fill="#EB3D3D" fill-opacity="0.0980392" d="M108 0h1v1H108zM141 0h1v1H141zM22 52h1v1H22zM227 52h1v1H227zM0 108h1v1H0zM249 108h1v1H249zM0 141h1v1H0zM249 141h1v1H249zM22 197h1v1H22zM227 197h1v1H227zM108 249h1v1H108zM141 249h1v1H141z"/>
<path fill="#FFFCFC" d="M115 45h1v1H115zM143 105h1v1H143zM74 117h1v1H74zM70 124h1v1H70zM152 149h1v1H152zM117 150h1v1H117zM42 174h1v1H42zM99 177h1v1H99zM43 180h1v1H43zM139 180h1v1H139zM46 182h1v1H46zM142 182h1v1H142z"/>
<path fill="#E84242" fill-opacity="0.839216" d="M83 7h1v1H83zM166 7h1v1H166zM65 15h1v1H65zM184 15h1v1H184zM7 83h1v1H7zM242 83h1v1H242zM7 166h1v1H7zM242 166h1v1H242zM83 242h1v1H83zM166 242h1v1H166z"/>
<path fill="#E94748" d="M147 101h1v1H147zM78 107h1v1H78zM74 114h1v1H74zM132 127h1v1H132zM148 153h1v1H148zM199 162h1v1H199zM203 169h1v1H203zM48 184h1v1H48zM86 184h1v1H86zM144 184h1v1H144z"/>
<path fill="#EA5152" d="M143 64h1v1H143zM85 95h1v1H85zM192 150h1v1H192zM107 170h1v1H107zM50 184h1v1H50zM52 184h31v1H52zM84 184h1v1H84zM146 184h1v1H146zM148 184h47v1H148zM196 184h1v1H196z"/>
<path fill="#FEF9F9" d="M133 49h1v1H133zM137 56h1v1H137zM95 80h1v1H95zM91 87h1v1H91zM182 135h1v1H182zM186 142h1v1H186zM145 161h1v1H145zM109 164h1v1H109zM46 166h1v1H46zM204 177h1v1H204z"/>
<path fill="#E84242" fill-opacity="0.34902" d="M104 1h1v1H104zM145 1h1v1H145zM27 46h1v1H27zM1 104h1v1H1zM248 104h1v1H248zM1 145h1v1H1zM248 145h1v1H248zM104 248h1v1H104zM145 248h1v1H145z"/>
<path fill="#E9494A" d="M127 38h1v1H127zM138 55h1v1H138zM142 62h1v1H142zM151 82h1v1H151zM90 86h1v1H90zM136 120h1v1H136zM187 141h1v1H187zM144 160h1v1H144zM139 182h1v1H139z"/>
<path fill="#EA5455" d="M131 43h1v1H131zM97 74h1v1H97zM150 94h1v1H150zM180 129h1v1H180zM48 160h1v1H48zM111 163h1v1H111zM105 173h1v1H105zM95 181h1v1H95zM45 183h1v1H45z"/>
<path fill="#FEF7F7" d="M123 38h1v1H123zM129 42h1v1H129zM149 93h1v1H149zM146 100h1v1H146zM83 101h1v1H83zM79 108h1v1H79zM149 154h1v1H149zM198 163h1v1H198zM89 182h1v1H89z"/>
<path fill="#E13C3C" fill-opacity="0.0666667" d="M80 7h1v1H80zM169 7h1v1H169zM7 80h1v1H7zM242 80h1v1H242zM7 169h1v1H7zM242 169h1v1H242zM80 242h1v1H80zM169 242h1v1H169z"/>
<path fill="#E33939" fill-opacity="0.0352941" d="M61 16h1v1H61zM188 16h1v1H188zM16 61h1v1H16zM233 61h1v1H233zM16 188h1v1H16zM233 188h1v1H233zM61 233h1v1H61zM188 233h1v1H188z"/>
<path fill="#E63E44" fill-opacity="0.160784" d="M69 12h1v1H69zM180 12h1v1H180zM13 67h1v1H13zM236 67h1v1H236zM13 182h1v1H13zM236 182h1v1H236zM69 237h1v1H69zM180 237h1v1H180z"/>
<path fill="#E64040" fill-opacity="0.0784314" d="M89 4h1v1H89zM160 4h1v1H160zM4 89h1v1H4zM245 89h1v1H245zM4 160h1v1H4zM245 160h1v1H245zM89 245h1v1H89zM160 245h1v1H160z"/>
<path fill="#E73D3D" fill-opacity="0.0823529" d="M63 15h1v1H63zM186 15h1v1H186zM15 63h1v1H15zM234 63h1v1H234zM15 186h1v1H15zM234 186h1v1H234zM63 234h1v1H63zM186 234h1v1H186z"/>
<path fill="#E74042" fill-opacity="0.545098" d="M113 0h1v1H113zM136 0h1v1H136zM0 113h1v1H0zM249 113h1v1H249zM0 136h1v1H0zM249 136h1v1H249zM113 249h1v1H113zM136 249h1v1H136z"/>
<path fill="#E74142" fill-opacity="0.588235" d="M100 2h1v1H100zM149 2h1v1H149zM2 100h1v1H2zM247 100h1v1H247zM2 149h1v1H2zM247 149h1v1H247zM100 247h1v1H100zM149 247h1v1H149z"/>
<path fill="#E74343" fill-opacity="0.254902" d="M40 32h1v1H40zM209 32h1v1H209zM32 40h1v1H32zM217 40h1v1H217zM32 209h1v1H32zM217 209h1v1H217zM40 217h1v1H40zM209 217h1v1H209z"/>
<path fill="#E84042" fill-opacity="0.482353" d="M45 28h1v1H45zM204 28h1v1H204zM28 45h1v1H28zM221 45h1v1H221zM28 204h1v1H28zM221 204h1v1H221zM45 221h1v1H45zM204 221h1v1H204z"/>
<path fill="#E84042" fill-opacity="0.560784" d="M56 20h1v1H56zM193 20h1v1H193zM20 56h1v1H20zM229 56h1v1H229zM20 193h1v1H20zM229 193h1v1H229zM56 229h1v1H56zM193 229h1v1H193z"/>
<path fill="#E84042" fill-opacity="0.576471" d="M88 5h1v1H88zM161 5h1v1H161zM5 88h1v1H5zM244 88h1v1H244zM5 161h1v1H5zM244 161h1v1H244zM88 244h1v1H88zM161 244h1v1H161z"/>
<path fill="#E84042" fill-opacity="0.729412" d="M107 1h1v1H107zM142 1h1v1H142zM1 107h1v1H1zM248 107h1v1H248zM1 142h1v1H1zM248 142h1v1H248zM107 248h1v1H107zM142 248h1v1H142z"/>
<path fill="#E84141" fill-opacity="0.431373" d="M64 15h1v1H64zM185 15h1v1H185zM15 64h1v1H15zM234 64h1v1H234zM15 185h1v1H15zM234 185h1v1H234zM64 234h1v1H64zM185 234h1v1H185z"/>
<path fill="#E84142" fill-opacity="0.603922" d="M44 29h1v1H44zM205 29h1v1H205zM29 44h1v1H29zM220 44h1v1H220zM29 205h1v1H29zM220 205h1v1H220zM44 220h1v1H44zM205 220h1v1H205z"/>
<path fill="#E84142" fill-opacity="0.619608" d="M106 1h1v1H106zM143 1h1v1H143zM1 106h1v1H1zM248 106h1v1H248zM1 143h1v1H1zM248 143h1v1H248zM106 248h1v1H106zM143 248h1v1H143z"/>
<path fill="#E84142" fill-opacity="0.694118" d="M92 4h1v1H92zM157 4h1v1H157zM4 92h1v1H4zM245 92h1v1H245zM4 157h1v1H4zM245 157h1v1H245zM92 245h1v1H92zM157 245h1v1H157z"/>
<path fill="#E84142" fill-opacity="0.768627" d="M63 16h1v1H63zM186 16h1v1H186zM19 58h1v1H19zM230 58h1v1H230zM19 191h1v1H19zM230 191h1v1H230zM63 233h1v1H63zM186 233h1v1H186z"/>
<path fill="#E84142" fill-opacity="0.772549" d="M58 19h1v1H58zM191 19h1v1H191zM8 80h1v1H8zM241 80h1v1H241zM8 169h1v1H8zM241 169h1v1H241zM58 230h1v1H58zM191 230h1v1H191z"/>
<path fill="#E84142" fill-opacity="0.87451" d="M93 4h1v1H93zM156 4h1v1H156zM13 69h1v1H13zM236 69h1v1H236zM13 180h1v1H13zM236 180h1v1H236zM93 245h1v1H93zM156 245h1v1H156z"/>
<path fill="#E84142" fill-opacity="0.917647" d="M37 36h1v1H37zM212 36h1v1H212zM36 37h1v1H36zM213 37h1v1H213zM36 212h1v1H36zM213 212h1v1H213zM37 213h1v1H37zM212 213h1v1H212z"/>
<path fill="#E84142" fill-opacity="0.945098" d="M103 2h1v1H103zM146 2h1v1H146zM2 103h1v1H2zM247 103h1v1H247zM2 146h1v1H2zM247 146h1v1H247zM103 247h1v1H103zM146 247h1v1H146z"/>
<path fill="#E84142" fill-opacity="0.94902" d="M90 5h1v1H90zM159 5h1v1H159zM5 90h1v1H5zM244 90h1v1H244zM5 159h1v1H5zM244 159h1v1H244zM90 244h1v1H90zM159 244h1v1H159z"/>
<path fill="#E84142" fill-opacity="0.952941" d="M98 3h1v1H98zM151 3h1v1H151zM3 98h1v1H3zM246 98h1v1H246zM3 151h1v1H3zM246 151h1v1H246zM98 246h1v1H98zM151 246h1v1H151z"/>
<path fill="#E84142" fill-opacity="0.960784" d="M76 10h1v1H76zM173 10h1v1H173zM10 76h1v1H10zM239 76h1v1H239zM10 173h1v1H10zM239 173h1v1H239zM76 239h1v1H76zM173 239h1v1H173z"/>
<path fill="#E84142" fill-opacity="0.972549" d="M94 4h1v1H94zM155 4h1v1H155zM4 94h1v1H4zM245 94h1v1H245zM4 155h1v1H4zM245 155h1v1H245zM94 245h1v1H94zM155 245h1v1H155z"/>
<path fill="#E84143" fill-opacity="0.478431" d="M72 11h1v1H72zM177 11h1v1H177zM11 72h1v1H11zM238 72h1v1H238zM11 177h1v1H11zM238 177h1v1H238zM72 238h1v1H72zM177 238h1v1H177z"/>
<path fill="#E84143" fill-opacity="0.52549" d="M70 12h1v1H70zM179 12h1v1H179zM12 70h1v1H12zM237 70h1v1H237zM12 179h1v1H12zM237 179h1v1H237zM70 237h1v1H70zM179 237h1v1H179z"/>
<path fill="#E84143" fill-opacity="0.6" d="M49 25h1v1H49zM200 25h1v1H200zM25 49h1v1H25zM224 49h1v1H224zM25 200h1v1H25zM224 200h1v1H224zM49 224h1v1H49zM200 224h1v1H200z"/>
<path fill="#E84242" fill-opacity="0.301961" d="M33 39h1v1H33zM216 39h1v1H216zM19 57h1v1H19zM230 57h1v1H230zM19 192h1v1H19zM230 192h1v1H230zM33 210h1v1H33zM216 210h1v1H216z"/>
<path fill="#E84242" fill-opacity="0.854902" d="M97 3h1v1H97zM152 3h1v1H152zM3 97h1v1H3zM246 97h1v1H246zM3 152h1v1H3zM246 152h1v1H246zM97 246h1v1H97zM152 246h1v1H152z"/>
<path fill="#E94042" fill-opacity="0.713725" d="M115 0h1v1H115zM134 0h1v1H134zM0 115h1v1H0zM249 115h1v1H249zM0 134h1v1H0zM249 134h1v1H249zM115 249h1v1H115zM134 249h1v1H134z"/>
<path fill="#E94141" fill-opacity="0.321569" d="M87 5h1v1H87zM162 5h1v1H162zM5 87h1v1H5zM244 87h1v1H244zM5 162h1v1H5zM244 162h1v1H244zM87 244h1v1H87zM162 244h1v1H162z"/>
<path fill="#E94141" fill-opacity="0.490196" d="M105 1h1v1H105zM144 1h1v1H144zM1 105h1v1H1zM248 105h1v1H248zM1 144h1v1H1zM248 144h1v1H248zM105 248h1v1H105zM144 248h1v1H144z"/>
<path fill="#E94141" fill-opacity="0.537255" d="M53 22h1v1H53zM196 22h1v1H196zM22 53h1v1H22zM227 53h1v1H227zM22 196h1v1H22zM227 196h1v1H227zM53 227h1v1H53zM196 227h1v1H196z"/>
<path fill="#E94141" fill-opacity="0.580392" d="M82 7h1v1H82zM167 7h1v1H167zM7 82h1v1H7zM242 82h1v1H242zM7 167h1v1H7zM242 167h1v1H242zM82 242h1v1H82zM167 242h1v1H167z"/>
<path fill="#E94142" fill-opacity="0.803922" d="M89 5h1v1H89zM160 5h1v1H160zM5 89h1v1H5zM244 89h1v1H244zM5 160h1v1H5zM244 160h1v1H244zM89 244h1v1H89zM160 244h1v1H160z"/>
<path fill="#E94142" fill-opacity="0.847059" d="M86 6h1v1H86zM163 6h1v1H163zM6 86h1v1H6zM243 86h1v1H243zM6 163h1v1H6zM243 163h1v1H243zM86 243h1v1H86zM163 243h1v1H163z"/>
<path fill="#E94143" fill-opacity="0.494118" d="M59 18h1v1H59zM190 18h1v1H190zM18 59h1v1H18zM231 59h1v1H231zM18 190h1v1H18zM231 190h1v1H231zM59 231h1v1H59zM190 231h1v1H190z"/>
<path fill="#E94242" fill-opacity="0.533333" d="M68 13h1v1H68zM181 13h1v1H181zM13 68h1v1H13zM236 68h1v1H236zM13 181h1v1H13zM236 181h1v1H236zM68 236h1v1H68zM181 236h1v1H181z"/>
<path fill="#E94343" fill-opacity="0.0901961" d="M58 18h1v1H58zM191 18h1v1H191zM43 29h1v1H43zM206 29h1v1H206zM43 220h1v1H43zM206 220h1v1H206zM58 231h1v1H58zM191 231h1v1H191z"/>
<path fill="#E94849" d="M146 69h1v1H146zM86 93h1v1H86zM82 100h1v1H82zM168 122h1v1H168zM159 134h1v1H159zM121 146h1v1H121zM195 155h1v1H195zM43 182h1v1H43z"/>
<path fill="#EA4040" fill-opacity="0.0470588" d="M44 28h1v1H44zM205 28h1v1H205zM28 44h1v1H28zM221 44h1v1H221zM28 205h1v1H28zM221 205h1v1H221zM44 221h1v1H44zM205 221h1v1H205z"/>
<path fill="#EC4242" fill-opacity="0.105882" d="M83 6h1v1H83zM166 6h1v1H166zM73 10h1v1H73zM176 10h1v1H176zM73 239h1v1H73zM176 239h1v1H176zM83 243h1v1H83zM166 243h1v1H166z"/>
<path fill="#EE7071" d="M123 37h1v1H123zM118 39h1v1H118zM117 40h1v1H117zM137 54h1v1H137zM91 85h1v1H91zM186 140h1v1H186zM109 166h1v1H109zM202 182h1v1H202z"/>
<path fill="#FBDDDD" d="M121 38h1v1H121zM114 46h1v1H114zM150 83h1v1H150zM65 132h1v1H65zM102 175h1v1H102zM45 182h1v1H45zM141 182h1v1H141zM196 183h1v1H196z"/>
<path fill="#FDEFEF" d="M124 38h1v1H124zM144 68h1v1H144zM84 99h1v1H84zM134 121h1v1H134zM161 133h1v1H161zM119 147h1v1H119zM193 154h1v1H193zM98 178h1v1H98z"/>
<path fill="#FEF6F6" d="M75 115h1v1H75zM71 122h1v1H71zM173 123h1v1H173zM131 126h1v1H131zM164 128h1v1H164zM116 152h1v1H116zM202 170h1v1H202zM200 182h1v1H200z"/>
<path fill="#E84043" fill-opacity="0.345098" d="M46 27h1v1H46zM203 27h1v1H203zM222 46h1v1H222zM27 203h1v1H27zM222 203h1v1H222zM46 222h1v1H46zM203 222h1v1H203z"/>
<path fill="#E94647" d="M130 41h1v1H130zM150 77h1v1H150zM151 90h1v1H151zM70 121h1v1H70zM163 127h1v1H163zM66 128h1v1H66zM117 153h1v1H117z"/>
<path fill="#E94B4C" d="M102 65h1v1H102zM140 113h1v1H140zM155 141h1v1H155zM53 151h1v1H53zM140 167h1v1H140zM42 181h1v1H42zM138 181h1v1H138z"/>
<path fill="#E94D4E" d="M114 44h1v1H114zM144 106h1v1H144zM65 130h1v1H65zM129 132h1v1H129zM151 148h1v1H151zM204 171h1v1H204zM97 180h1v1H97z"/>
<path fill="#EA5253" d="M121 37h1v1H121zM129 40h1v1H129zM139 57h1v1H139zM89 88h1v1H89zM158 136h1v1H158zM188 143h1v1H188zM122 144h1v1H122z"/>
<path fill="#EE7273" d="M133 47h1v1H133zM95 78h1v1H95zM150 93h1v1H150zM175 123h1v1H175zM182 133h1v1H182zM124 140h1v1H124zM200 183h1v1H200z"/>
<path fill="#FEF4F4" d="M112 50h1v1H112zM108 57h1v1H108zM169 123h1v1H169zM127 133h1v1H127zM63 136h1v1H63zM59 143h1v1H59zM153 147h1v1H153z"/>
<path fill="#FEF8F8" d="M141 63h1v1H141zM87 94h1v1H87zM135 119h1v1H135zM160 135h1v1H160zM120 145h1v1H120zM190 149h1v1H190zM92 181h1v1H92z"/>
<path fill="#FFFBFB" d="M111 52h1v1H111zM66 131h1v1H66zM128 131h1v1H128zM62 138h1v1H62zM113 157h1v1H113zM204 176h1v1H204zM96 179h1v1H96z"/>
<path fill="#E74042" fill-opacity="0.466667" d="M4 91h1v1H4zM245 91h1v1H245zM4 158h1v1H4zM245 158h1v1H245zM91 245h1v1H91zM158 245h1v1H158z"/>
<path fill="#E83E40" d="M102 64h1v1H102zM98 71h1v1H98zM162 128h1v1H162zM118 152h1v1H118zM114 159h1v1H114zM140 166h1v1H140z"/>
<path fill="#E84142" fill-opacity="0.741176" d="M101 2h1v1H101zM148 2h1v1H148zM247 101h1v1H247zM247 148h1v1H247zM101 247h1v1H101zM148 247h1v1H148z"/>
<path fill="#E84143" fill-opacity="0.615686" d="M85 6h1v1H85zM164 6h1v1H164zM6 85h1v1H6zM6 164h1v1H6zM85 243h1v1H85zM164 243h1v1H164z"/>
<path fill="#E84242" fill-opacity="0.258824" d="M110 0h1v1H110zM139 0h1v1H139zM249 110h1v1H249zM249 139h1v1H249zM110 249h1v1H110zM139 249h1v1H139z"/>
<path fill="#E84242" fill-opacity="0.470588" d="M91 4h1v1H91zM158 4h1v1H158zM79 8h1v1H79zM170 8h1v1H170zM79 241h1v1H79zM170 241h1v1H170z"/>
<path fill="#E94043" fill-opacity="0.403922" d="M74 10h1v1H74zM175 10h1v1H175zM10 74h1v1H10zM239 74h1v1H239zM10 175h1v1H10zM239 175h1v1H239z"/>
<path fill="#E94546" d="M115 42h1v1H115zM111 49h1v1H111zM143 108h1v1H143zM62 135h1v1H62zM152 146h1v1H152zM205 179h1v1H205z"/>
<path fill="#E94C4D" d="M106 58h1v1H106zM61 137h1v1H61zM57 144h1v1H57zM114 158h1v1H114zM100 178h1v1H100zM197 184h1v1H197z"/>
<path fill="#EA4E4F" d="M151 89h1v1H151zM69 123h1v1H69zM93 182h1v1H93zM49 184h1v1H49zM85 184h1v1H85zM145 184h1v1H145z"/>
<path fill="#EA5051" d="M151 83h1v1H151zM148 99h1v1H148zM81 102h1v1H81zM77 109h1v1H77zM147 155h1v1H147zM200 164h1v1H200z"/>
<path fill="#EA5354" d="M135 50h1v1H135zM93 81h1v1H93zM184 136h1v1H184zM143 162h1v1H143zM44 167h1v1H44zM90 183h1v1H90z"/>
<path fill="#EC6061" d="M136 52h1v1H136zM92 83h1v1H92zM157 138h1v1H157zM185 138h1v1H185zM123 142h1v1H123zM43 169h1v1H43z"/>
<path fill="#ED6D6E" d="M83 99h1v1H83zM169 122h1v1H169zM160 133h1v1H160zM42 171h1v1H42zM205 175h1v1H205zM204 180h1v1H204z"/>
<path fill="#F7BDBD" d="M146 101h1v1H146zM75 114h1v1H75zM149 153h1v1H149zM202 169h1v1H202zM204 173h1v1H204zM204 179h1v1H204z"/>
<path fill="#FAD8D8" d="M119 39h1v1H119zM130 43h1v1H130zM98 74h1v1H98zM179 129h1v1H179zM49 160h1v1H49zM110 163h1v1H110z"/>
<path fill="#FCE4E4" d="M139 59h1v1H139zM150 88h1v1H150zM89 90h1v1H89zM188 145h1v1H188zM107 168h1v1H107zM204 174h1v1H204z"/>
<path fill="#FDF2F2" d="M132 47h1v1H132zM100 71h1v1H100zM138 114h1v1H138zM181 133h1v1H181zM157 140h1v1H157zM51 157h1v1H51z"/>
<path fill="#E84142" fill-opacity="0.835294" d="M15 65h1v1H15zM234 65h1v1H234zM15 184h1v1H15zM65 234h1v1H65zM184 234h1v1H184z"/>
<path fill="#E84546" d="M107 56h1v1H107zM128 134h1v1H128zM58 142h1v1H58zM106 172h1v1H106zM198 184h1v1H198z"/>
<path fill="#EB5657" d="M105 60h1v1H105zM151 84h1v1H151zM141 111h1v1H141zM56 146h1v1H56zM137 173h1v1H137z"/>
<path fill="#EB595A" d="M149 75h1v1H149zM151 87h1v1H151zM68 125h1v1H68zM130 130h1v1H130zM150 150h1v1H150z"/>
<path fill="#EB5C5D" d="M116 41h1v1H116zM148 73h1v1H148zM80 104h1v1H80zM161 131h1v1H161zM41 173h1v1H41z"/>
<path fill="#EC6162" d="M132 45h1v1H132zM96 76h1v1H96zM138 116h1v1H138zM181 131h1v1H181zM47 162h1v1H47z"/>
<path fill="#ED6A6B" d="M146 102h1v1H146zM75 113h1v1H75zM167 123h1v1H167zM149 152h1v1H149zM103 175h1v1H103z"/>
<path fill="#F29697" d="M143 65h1v1H143zM85 96h1v1H85zM172 122h1v1H172zM192 151h1v1H192zM107 169h1v1H107z"/>
<path fill="#F6B1B1" d="M129 41h1v1H129zM96 77h1v1H96zM181 132h1v1H181zM157 139h1v1H157zM47 163h1v1H47z"/>
<path fill="#F7C0C0" d="M145 69h1v1H145zM83 100h1v1H83zM120 146h1v1H120zM194 155h1v1H194zM100 177h1v1H100z"/>
<path fill="#FAD9D9" d="M150 89h1v1H150zM125 137h1v1H125zM53 153h1v1H53zM49 183h1v1H49zM145 183h1v1H145z"/>
<path fill="#FBDEDE" d="M129 130h1v1H129zM151 150h1v1H151zM50 183h1v1H50zM84 183h1v1H84zM146 183h1v1H146z"/>
<path fill="#FBE1E1" d="M77 111h1v1H77zM165 126h1v1H165zM162 131h1v1H162zM118 149h1v1H118zM200 166h1v1H200z"/>
<path fill="#FCEAEA" d="M109 55h1v1H109zM150 85h1v1H150zM150 87h1v1H150zM141 109h1v1H141zM204 178h1v1H204z"/>
<path fill="#FDF0F0" d="M140 61h1v1H140zM88 92h1v1H88zM189 147h1v1H189zM146 159h1v1H146zM43 171h1v1H43z"/>
<path fill="#FDF1F1" d="M136 54h1v1H136zM92 85h1v1H92zM123 140h1v1H123zM185 140h1v1H185zM108 166h1v1H108z"/>
<path fill="#FEF3F3" d="M122 38h1v1H122zM104 64h1v1H104zM176 125h1v1H176zM55 150h1v1H55zM112 159h1v1H112z"/>
<path fill="#FEF5F5" d="M116 43h1v1H116zM142 107h1v1H142zM67 129h1v1H67zM105 171h1v1H105zM204 175h1v1H204z"/>
<path fill="#E53E46" fill-opacity="0.113725" d="M5 86h1v1H5zM244 86h1v1H244zM5 163h1v1H5zM244 163h1v1H244z"/>
<path fill="#E64040" fill-opacity="0.156863" d="M67 13h1v1H67zM182 13h1v1H182zM67 236h1v1H67zM182 236h1v1H182z"/>
<path fill="#E64040" fill-opacity="0.203922" d="M31 41h1v1H31zM218 41h1v1H218zM31 208h1v1H31zM218 208h1v1H218z"/>
<path fill="#E64141" fill-opacity="0.2" d="M41 31h1v1H41zM208 31h1v1H208zM41 218h1v1H41zM208 218h1v1H208z"/>
<path fill="#E64242" fill-opacity="0.121569" d="M20 55h1v1H20zM229 55h1v1H229zM20 194h1v1H20zM229 194h1v1H229z"/>
<path fill="#E74040" fill-opacity="0.12549" d="M65 14h1v1H65zM184 14h1v1H184zM65 235h1v1H65zM184 235h1v1H184z"/>
<path fill="#E74043" fill-opacity="0.329412" d="M62 16h1v1H62zM187 16h1v1H187zM62 233h1v1H62zM187 233h1v1H187z"/>
<path fill="#E74043" fill-opacity="0.419608" d="M24 50h1v1H24zM225 50h1v1H225zM24 199h1v1H24zM225 199h1v1H225z"/>
<path fill="#E74141" fill-opacity="0.247059" d="M4 90h1v1H4zM245 90h1v1H245zM4 159h1v1H4zM245 159h1v1H245z"/>
<path fill="#E74141" fill-opacity="0.458824" d="M112 0h1v1H112zM137 0h1v1H137zM0 112h1v1H0zM0 137h1v1H0z"/>
<path fill="#E74141" fill-opacity="0.764706" d="M16 63h1v1H16zM233 63h1v1H233zM16 186h1v1H16zM233 186h1v1H233z"/>
<path fill="#E74242" fill-opacity="0.211765" d="M17 60h1v1H17zM232 60h1v1H232zM17 189h1v1H17zM232 189h1v1H232z"/>
<path fill="#E74343" fill-opacity="0.164706" d="M12 69h1v1H12zM237 69h1v1H237zM12 180h1v1H12zM237 180h1v1H237z"/>
<path fill="#E74343" fill-opacity="0.207843" d="M60 17h1v1H60zM189 17h1v1H189zM60 232h1v1H60zM189 232h1v1H189z"/>
<path fill="#E83E44" fill-opacity="0.176471" d="M8 78h1v1H8zM241 78h1v1H241zM8 171h1v1H8zM241 171h1v1H241z"/>
<path fill="#E84040" fill-opacity="0.219608" d="M47 26h1v1H47zM202 26h1v1H202zM47 223h1v1H47zM202 223h1v1H202z"/>
<path fill="#E84141" fill-opacity="0.305882" d="M54 21h1v1H54zM195 21h1v1H195zM54 228h1v1H54zM195 228h1v1H195z"/>
<path fill="#E84141" fill-opacity="0.309804" d="M21 54h1v1H21zM228 54h1v1H228zM21 195h1v1H21zM228 195h1v1H228z"/>
<path fill="#E84141" fill-opacity="0.47451" d="M8 79h1v1H8zM241 79h1v1H241zM8 170h1v1H8zM241 170h1v1H241z"/>
<path fill="#E84142" fill-opacity="0.65098" d="M17 61h1v1H17zM232 61h1v1H232zM17 188h1v1H17zM232 188h1v1H232z"/>
<path fill="#E84142" fill-opacity="0.752941" d="M75 10h1v1H75zM174 10h1v1H174zM75 239h1v1H75zM174 239h1v1H174z"/>
<path fill="#E84142" fill-opacity="0.827451" d="M73 11h1v1H73zM176 11h1v1H176zM73 238h1v1H73zM176 238h1v1H176z"/>
<path fill="#E84142" fill-opacity="0.862745" d="M12 71h1v1H12zM237 71h1v1H237zM12 178h1v1H12zM237 178h1v1H237z"/>
<path fill="#E84142" fill-opacity="0.964706" d="M249 121h1v1H249zM249 128h1v1H249zM121 249h1v1H121zM128 249h1v1H128z"/>
<path fill="#E84143" fill-opacity="0.796078" d="M21 55h1v1H21zM228 55h1v1H228zM21 194h1v1H21zM228 194h1v1H228z"/>
<path fill="#E84242" fill-opacity="0.654902" d="M61 17h1v1H61zM188 17h1v1H188zM61 232h1v1H61zM188 232h1v1H188z"/>
<path fill="#E94042" fill-opacity="0.760784" d="M48 26h1v1H48zM201 26h1v1H201zM48 223h1v1H48zM201 223h1v1H201z"/>
<path fill="#E94043" fill-opacity="0.360784" d="M36 36h1v1H36zM213 36h1v1H213zM36 213h1v1H36zM213 213h1v1H213z"/>
<path fill="#E94141" fill-opacity="0.231373" d="M51 23h1v1H51zM198 23h1v1H198zM51 226h1v1H51zM198 226h1v1H198z"/>
<path fill="#E94141" fill-opacity="0.278431" d="M81 7h1v1H81zM168 7h1v1H168zM81 242h1v1H81zM168 242h1v1H168z"/>
<path fill="#E94142" fill-opacity="0.756863" d="M26 48h1v1H26zM223 48h1v1H223zM26 201h1v1H26zM223 201h1v1H223z"/>
<path fill="#E94142" fill-opacity="0.8" d="M55 21h1v1H55zM194 21h1v1H194zM55 228h1v1H55zM194 228h1v1H194z"/>
<path fill="#E94142" fill-opacity="0.890196" d="M24 51h1v1H24zM225 51h1v1H225zM24 198h1v1H24zM225 198h1v1H225z"/>
<path fill="#E94242" fill-opacity="0.454902" d="M249 112h1v1H249zM249 137h1v1H249zM112 249h1v1H112zM137 249h1v1H137z"/>
<path fill="#EA4043" fill-opacity="0.282353" d="M7 81h1v1H7zM242 81h1v1H242zM7 168h1v1H7zM242 168h1v1H242z"/>
<path fill="#EA4044" fill-opacity="0.235294" d="M23 51h1v1H23zM226 51h1v1H226zM23 198h1v1H23zM226 198h1v1H226z"/>
<path fill="#EA5252" d="M51 184h1v1H51zM83 184h1v1H83zM147 184h1v1H147zM195 184h1v1H195z"/>
<path fill="#EA5556" d="M101 67h1v1H101zM126 137h1v1H126zM52 153h1v1H52zM141 183h1v1H141z"/>
<path fill="#EB5859" d="M119 38h1v1H119zM113 46h1v1H113zM64 132h1v1H64zM115 156h1v1H115z"/>
<path fill="#EB5B5C" d="M150 78h1v1H150zM151 86h1v1H151zM76 111h1v1H76zM201 166h1v1H201z"/>
<path fill="#EC6566" d="M108 55h1v1H108zM142 109h1v1H142zM59 141h1v1H59zM153 145h1v1H153z"/>
<path fill="#EE4444" fill-opacity="0.0588235" d="M75 9h1v1H75zM174 9h1v1H174zM75 240h1v1H75zM174 240h1v1H174z"/>
<path fill="#EE6F70" d="M141 61h1v1H141zM87 92h1v1H87zM190 147h1v1H190zM145 159h1v1H145z"/>
<path fill="#EE7374" d="M99 71h1v1H99zM139 114h1v1H139zM50 157h1v1H50zM205 177h1v1H205z"/>
<path fill="#EF4040" fill-opacity="0.0627451" d="M9 75h1v1H9zM240 75h1v1H240zM9 174h1v1H9zM240 174h1v1H240z"/>
<path fill="#EF7879" d="M111 50h1v1H111zM62 136h1v1H62zM152 147h1v1H152zM205 176h1v1H205z"/>
<path fill="#F08081" d="M146 70h1v1H146zM82 101h1v1H82zM195 156h1v1H195zM204 172h1v1H204z"/>
<path fill="#F08384" d="M130 42h1v1H130zM90 87h1v1H90zM187 142h1v1H187zM142 183h1v1H142z"/>
<path fill="#F08787" d="M98 73h1v1H98zM177 125h1v1H177zM179 128h1v1H179zM49 159h1v1H49z"/>
<path fill="#F39A9A" d="M93 82h1v1H93zM137 117h1v1H137zM184 137h1v1H184zM44 168h1v1H44z"/>
<path fill="#F39B9B" d="M143 163h1v1H143zM137 175h1v1H137zM42 180h1v1H42zM138 180h1v1H138z"/>
<path fill="#F5AFAF" d="M92 84h1v1H92zM43 170h1v1H43zM41 176h1v1H41zM47 183h1v1H47z"/>
<path fill="#F5AFB0" d="M136 53h1v1H136zM185 139h1v1H185zM139 181h1v1H139zM143 183h1v1H143z"/>
<path fill="#F6B6B6" d="M108 56h1v1H108zM127 134h1v1H127zM59 142h1v1H59zM87 183h1v1H87z"/>
<path fill="#F8C4C4" d="M128 40h1v1H128zM178 127h1v1H178zM109 165h1v1H109zM198 183h1v1H198z"/>
<path fill="#F8C5C5" d="M133 48h1v1H133zM95 79h1v1H95zM182 134h1v1H182zM46 165h1v1H46z"/>
<path fill="#F9CBCB" d="M111 51h1v1H111zM128 132h1v1H128zM62 137h1v1H62zM97 179h1v1H97z"/>
<path fill="#FAD3D3" d="M146 71h1v1H146zM82 102h1v1H82zM195 157h1v1H195zM106 170h1v1H106z"/>
<path fill="#FAD6D6" d="M138 57h1v1H138zM136 118h1v1H136zM187 143h1v1H187zM197 183h1v1H197z"/>
<path fill="#FAD7D7" d="M134 50h1v1H134zM94 81h1v1H94zM183 136h1v1H183zM45 167h1v1H45z"/>
<path fill="#FBDBDB" d="M106 60h1v1H106zM57 146h1v1H57zM140 169h1v1H140zM103 174h1v1H103z"/>
<path fill="#FBDFDF" d="M144 104h1v1H144zM90 182h1v1H90zM51 183h33v1H51zM147 183h49v1H147z"/>
<path fill="#FBE2E2" d="M147 73h1v1H147zM81 104h1v1H81zM133 123h1v1H133zM196 159h1v1H196z"/>
<path fill="#FCE3E3" d="M143 66h1v1H143zM148 75h1v1H148zM85 97h1v1H85zM192 152h1v1H192z"/>
<path fill="#FCE5E5" d="M118 40h1v1H118zM93 83h1v1H93zM122 142h1v1H122zM44 169h1v1H44z"/>
<path fill="#FCE6E6" d="M150 84h1v1H150zM137 116h1v1H137zM48 162h1v1H48zM138 179h1v1H138z"/>
<path fill="#FCE6E7" d="M97 76h1v1H97zM180 131h1v1H180zM143 164h1v1H143zM42 179h1v1H42z"/>
<path fill="#FCE9E9" d="M167 124h1v1H167zM126 135h1v1H126zM154 145h1v1H154zM139 171h1v1H139z"/>
<path fill="#FDEBEB" d="M113 48h1v1H113zM150 86h1v1H150zM115 154h1v1H115zM203 180h1v1H203z"/>
<path fill="#FF5555" fill-opacity="0.0117647" d="M85 5h1v1H85zM164 5h1v1H164zM85 244h1v1H85zM164 244h1v1H164z"/>
<path fill="#EA4F50" d="M73 116h1v1H73zM162 129h1v1H162zM118 151h1v1H118z"/>
<path fill="#EB5758" d="M109 53h1v1H109zM60 139h1v1H60zM205 174h1v1H205z"/>
<path fill="#EB5A5B" d="M151 85h1v1H151zM145 104h1v1H145zM72 118h1v1H72z"/>
<path fill="#EB5D5E" d="M146 157h1v1H146zM205 178h1v1H205zM137 179h1v1H137z"/>
<path fill="#EC5F60" d="M140 59h1v1H140zM88 90h1v1H88zM189 145h1v1H189z"/>
<path fill="#EC6465" d="M104 62h1v1H104zM127 135h1v1H127zM55 148h1v1H55z"/>
<path fill="#ED6667" d="M112 48h1v1H112zM63 134h1v1H63zM102 176h1v1H102z"/>
<path fill="#ED696A" d="M122 37h1v1H122zM71 120h1v1H71zM131 128h1v1H131z"/>
<path fill="#EE7677" d="M107 57h1v1H107zM58 143h1v1H58zM113 159h1v1H113z"/>
<path fill="#EF797A" d="M115 43h1v1H115zM66 129h1v1H66zM92 182h1v1H92z"/>
<path fill="#EF7B7C" d="M150 79h1v1H150zM70 122h1v1H70zM117 152h1v1H117z"/>
<path fill="#EF7E7F" d="M147 100h1v1H147zM78 108h1v1H78zM199 163h1v1H199z"/>
<path fill="#F08282" d="M142 63h1v1H142zM86 94h1v1H86zM191 149h1v1H191z"/>
<path fill="#F08586" d="M134 49h1v1H134zM94 80h1v1H94zM183 135h1v1H183z"/>
<path fill="#F18889" d="M102 66h1v1H102zM155 142h1v1H155zM53 152h1v1H53z"/>
<path fill="#F18C8C" d="M110 52h1v1H110zM61 138h1v1H61zM114 157h1v1H114z"/>
<path fill="#F18D8E" d="M65 131h1v1H65zM129 131h1v1H129zM96 180h1v1H96z"/>
<path fill="#F18F90" d="M148 98h1v1H148zM69 124h1v1H69zM140 182h1v1H140z"/>
<path fill="#F29393" d="M77 110h1v1H77zM162 130h1v1H162zM200 165h1v1H200z"/>
<path fill="#F29495" d="M150 92h1v1H150zM81 103h1v1H81zM147 156h1v1H147z"/>
<path fill="#F39899" d="M139 58h1v1H139zM122 143h1v1H122zM188 144h1v1H188z"/>
<path fill="#F39C9C" d="M131 44h1v1H131zM97 75h1v1H97zM180 130h1v1H180z"/>
<path fill="#F39D9E" d="M101 68h1v1H101zM150 80h1v1H150zM52 154h1v1H52z"/>
<path fill="#F4A1A1" d="M109 54h1v1H109zM60 140h1v1H60zM139 170h1v1H139z"/>
<path fill="#F4A3A3" d="M113 47h1v1H113zM148 74h1v1H148zM115 155h1v1H115z"/>
<path fill="#F5AAAA" d="M80 105h1v1H80zM197 160h1v1H197zM137 176h1v1H137z"/>
<path fill="#F5ACAC" d="M144 67h1v1H144zM193 153h1v1H193zM146 158h1v1H146z"/>
<path fill="#F6B2B3" d="M150 91h1v1H150zM51 156h1v1H51zM142 165h1v1H142z"/>
<path fill="#F6B4B5" d="M104 63h1v1H104zM55 149h1v1H55zM112 160h1v1H112z"/>
<path fill="#F8C2C2" d="M141 62h1v1H141zM168 123h1v1H168zM190 148h1v1H190z"/>
<path fill="#F8C7C7" d="M139 113h1v1H139zM156 141h1v1H156zM201 182h1v1H201z"/>
<path fill="#F8C8C8" d="M103 65h1v1H103zM54 151h1v1H54zM141 167h1v1H141z"/>
<path fill="#F9CCCC" d="M152 148h1v1H152zM86 183h1v1H86zM144 183h1v1H144z"/>
<path fill="#F9CECE" d="M125 38h1v1H125zM70 123h1v1H70zM203 171h1v1H203z"/>
<path fill="#F9D1D1" d="M78 109h1v1H78zM132 125h1v1H132zM199 164h1v1H199z"/>
<path fill="#FAD4D4" d="M142 64h1v1H142zM86 95h1v1H86zM191 150h1v1H191z"/>
<path fill="#FCE5E6" d="M135 52h1v1H135zM158 138h1v1H158zM184 138h1v1H184z"/>
<path fill="#FCE8E8" d="M149 78h1v1H149zM111 161h1v1H111zM42 173h1v1H42z"/>
<path fill="#FCE8E9" d="M105 62h1v1H105zM177 126h1v1H177zM56 148h1v1H56z"/>
<path fill="#FDEDED" d="M145 102h1v1H145zM150 152h1v1H150zM202 181h1v1H202z"/>
<path fill="#FDEEEE" d="M80 106h1v1H80zM175 124h1v1H175zM166 125h1v1H166z"/>
<path fill="#E74141" fill-opacity="0.294118" d="M94 246h1v1H94zM155 246h1v1H155z"/>
<path fill="#E74142" fill-opacity="0.635294" d="M77 9h1v1H77zM172 9h1v1H172z"/>
<path fill="#E83F41" d="M128 38h1v1H128zM108 53h1v1H108z"/>
<path fill="#E84042" fill-opacity="0.745098" d="M2 101h1v1H2zM2 148h1v1H2z"/>
<path fill="#E84141" fill-opacity="0.262745" d="M0 110h1v1H0zM0 139h1v1H0z"/>
<path fill="#E84141" fill-opacity="0.611765" d="M243 85h1v1H243zM243 164h1v1H243z"/>
<path fill="#E94141" fill-opacity="0.4" d="M74 239h1v1H74zM175 239h1v1H175z"/>
<path fill="#EA5050" d="M149 97h1v1H149zM133 125h1v1H133z"/>
<path fill="#EA5151" d="M147 71h1v1H147zM196 157h1v1H196z"/>
<path fill="#EA5555" d="M128 39h1v1H128zM151 88h1v1H151z"/>
<path fill="#EB5D5D" d="M134 123h1v1H134zM197 159h1v1H197z"/>
<path fill="#EB5E5E" d="M84 97h1v1H84zM41 179h1v1H41z"/>
<path fill="#EB5E5F" d="M144 66h1v1H144zM193 152h1v1H193z"/>
<path fill="#EC6263" d="M124 37h1v1H124zM51 155h1v1H51z"/>
<path fill="#EC6364" d="M112 161h1v1H112zM104 174h1v1H104z"/>
<path fill="#ED6869" d="M67 127h1v1H67zM116 154h1v1H116z"/>
<path fill="#ED6C6D" d="M79 106h1v1H79zM198 161h1v1H198z"/>
<path fill="#ED6E6E" d="M145 68h1v1H145zM194 154h1v1H194z"/>
<path fill="#EE7373" d="M156 140h1v1H156zM89 183h1v1H89z"/>
<path fill="#EF7D7D" d="M74 115h1v1H74zM203 170h1v1H203z"/>
<path fill="#EF7D7E" d="M149 96h1v1H149zM132 126h1v1H132z"/>
<path fill="#EF7E7E" d="M148 154h1v1H148zM106 171h1v1H106z"/>
<path fill="#F08182" d="M166 124h1v1H166zM121 145h1v1H121z"/>
<path fill="#F08283" d="M159 135h1v1H159zM41 174h1v1H41z"/>
<path fill="#F08383" d="M136 119h1v1H136zM46 183h1v1H46z"/>
<path fill="#F08484" d="M138 56h1v1H138zM144 161h1v1H144z"/>
<path fill="#F08585" d="M45 166h1v1H45zM203 181h1v1H203z"/>
<path fill="#F18989" d="M140 112h1v1H140zM137 178h1v1H137z"/>
<path fill="#F18A8B" d="M106 59h1v1H106zM57 145h1v1H57z"/>
<path fill="#F18C8D" d="M149 76h1v1H149zM176 124h1v1H176z"/>
<path fill="#F18E8F" d="M151 149h1v1H151zM44 182h1v1H44z"/>
<path fill="#F29595" d="M147 72h1v1H147zM196 158h1v1H196z"/>
<path fill="#F39D9D" d="M111 162h1v1H111zM99 178h1v1H99z"/>
<path fill="#F39FA0" d="M105 61h1v1H105zM154 144h1v1H154z"/>
<path fill="#F4A1A2" d="M41 175h1v1H41zM199 183h1v1H199z"/>
<path fill="#F4A2A3" d="M171 122h1v1H171zM64 133h1v1H64z"/>
<path fill="#F4A5A5" d="M130 129h1v1H130zM137 177h1v1H137z"/>
<path fill="#F4A6A7" d="M145 103h1v1H145zM72 119h1v1H72z"/>
<path fill="#F4A8A8" d="M76 112h1v1H76zM201 167h1v1H201z"/>
<path fill="#F5A9AA" d="M119 148h1v1H119zM138 172h1v1H138z"/>
<path fill="#F5ADAE" d="M88 91h1v1H88zM189 146h1v1H189z"/>
<path fill="#F5AEAE" d="M140 60h1v1H140zM108 167h1v1H108z"/>
<path fill="#F5AEAF" d="M105 172h1v1H105zM43 181h1v1H43z"/>
<path fill="#F6B1B2" d="M132 46h1v1H132zM138 115h1v1H138z"/>
<path fill="#F6B8B8" d="M112 49h1v1H112zM63 135h1v1H63z"/>
<path fill="#F7B9B9" d="M127 39h1v1H127zM164 127h1v1H164z"/>
<path fill="#F7BEBF" d="M79 107h1v1H79zM198 162h1v1H198z"/>
<path fill="#F8C1C2" d="M87 93h1v1H87zM135 120h1v1H135z"/>
<path fill="#F8C3C3" d="M149 77h1v1H149zM91 86h1v1H91z"/>
<path fill="#F8C3C4" d="M137 55h1v1H137zM186 141h1v1H186z"/>
<path fill="#F8C6C7" d="M99 72h1v1H99zM50 158h1v1H50z"/>
<path fill="#F9C9CA" d="M107 58h1v1H107zM58 144h1v1H58z"/>
<path fill="#F9CACA" d="M150 90h1v1H150zM113 158h1v1H113z"/>
<path fill="#F9CDCD" d="M115 44h1v1H115zM143 106h1v1H143z"/>
<path fill="#F9CFCF" d="M150 82h1v1H150zM117 151h1v1H117z"/>
<path fill="#FAD5D5" d="M159 136h1v1H159zM101 176h1v1H101z"/>
<path fill="#FAD5D6" d="M90 88h1v1H90zM148 97h1v1H148z"/>
<path fill="#FBDADA" d="M117 41h1v1H117zM95 180h1v1H95z"/>
<path fill="#FBDCDC" d="M110 53h1v1H110zM61 139h1v1H61z"/>
<path fill="#FBE0E0" d="M149 94h1v1H149zM73 118h1v1H73z"/>
<path fill="#FCE7E7" d="M131 45h1v1H131zM52 155h1v1H52z"/>
<path fill="#FDEDEE" d="M76 113h1v1H76zM201 168h1v1H201z"/>
<path fill="#FDF1F2" d="M96 78h1v1H96zM47 164h1v1H47z"/>
<path fill="#FEF7F8" d="M145 70h1v1H145zM194 156h1v1H194z"/>
<path fill="#FEFBFB" d="M107 59h1v1H107zM58 145h1v1H58z"/>
<path fill="#E84141" fill-opacity="0.352941" d="M249 138h1v1H249z"/>
<path fill="#E84242" d="M99 179h1v1H99z"/>
<path fill="#E84343" d="M135 122h1v1H135z"/>
<path fill="#E94949" d="M191 148h1v1H191z"/>
<path fill="#E94D4D" d="M110 51h1v1H110z"/>
<path fill="#EA5353" d="M137 118h1v1H137z"/>
<path fill="#EA5657" d="M154 143h1v1H154z"/>
<path fill="#EB5757" d="M139 169h1v1H139z"/>
<path fill="#EB5B5B" d="M101 177h1v1H101z"/>
<path fill="#EB5C5C" d="M119 149h1v1H119z"/>
<path fill="#EC5F5F" d="M108 168h1v1H108z"/>
<path fill="#EC6161" d="M164 126h1v1H164z"/>
<path fill="#EC6262" d="M142 164h1v1H142z"/>
<path fill="#EC6363" d="M100 69h1v1H100z"/>
<path fill="#EC6464" d="M138 171h1v1H138z"/>
<path fill="#ED6A6A" d="M178 126h1v1H178z"/>
<path fill="#ED6B6B" d="M202 168h1v1H202z"/>
<path fill="#ED6D6D" d="M120 147h1v1H120z"/>
<path fill="#ED6E6F" d="M135 121h1v1H135z"/>
<path fill="#EE7171" d="M98 179h1v1H98z"/>
<path fill="#EE7172" d="M173 122h1v1H173z"/>
<path fill="#EE7272" d="M46 164h1v1H46z"/>
<path fill="#EE7475" d="M141 166h1v1H141z"/>
<path fill="#EE7575" d="M54 150h1v1H54z"/>
<path fill="#EE7576" d="M103 64h1v1H103z"/>
<path fill="#EF7778" d="M128 133h1v1H128z"/>
<path fill="#EF7979" d="M143 107h1v1H143z"/>
<path fill="#EF7A7B" d="M137 174h1v1H137z"/>
<path fill="#EF7C7C" d="M165 125h1v1H165z"/>
<path fill="#EF7C7D" d="M163 128h1v1H163z"/>
<path fill="#F08686" d="M110 164h1v1H110z"/>
<path fill="#F08788" d="M126 38h1v1H126z"/>
<path fill="#F18788" d="M125 138h1v1H125z"/>
<path fill="#F18A8A" d="M140 168h1v1H140z"/>
<path fill="#F18B8C" d="M41 178h1v1H41z"/>
<path fill="#F18E8E" d="M114 45h1v1H114z"/>
<path fill="#F18F8F" d="M144 105h1v1H144z"/>
<path fill="#F29091" d="M94 181h1v1H94z"/>
<path fill="#F29192" d="M73 117h1v1H73z"/>
<path fill="#F29292" d="M118 150h1v1H118z"/>
<path fill="#F29394" d="M170 122h1v1H170z"/>
<path fill="#F29494" d="M133 124h1v1H133z"/>
<path fill="#F29797" d="M88 183h1v1H88z"/>
<path fill="#F39898" d="M89 89h1v1H89z"/>
<path fill="#F3999A" d="M158 137h1v1H158z"/>
<path fill="#F39A9B" d="M135 51h1v1H135z"/>
<path fill="#F39B9C" d="M48 161h1v1H48z"/>
<path fill="#F39E9F" d="M126 136h1v1H126z"/>
<path fill="#F39F9F" d="M56 147h1v1H56z"/>
<path fill="#F4A0A1" d="M141 110h1v1H141z"/>
<path fill="#F4A2A2" d="M120 38h1v1H120z"/>
<path fill="#F4A4A5" d="M68 126h1v1H68z"/>
<path fill="#F4A6A6" d="M150 151h1v1H150z"/>
<path fill="#F4A9A9" d="M41 177h1v1H41z"/>
<path fill="#F5AAAB" d="M161 132h1v1H161z"/>
<path fill="#F5ABAB" d="M134 122h1v1H134z"/>
<path fill="#F5ABAC" d="M84 98h1v1H84z"/>
<path fill="#F5B0B0" d="M123 141h1v1H123z"/>
<path fill="#F6B2B2" d="M91 182h1v1H91z"/>
<path fill="#F6B3B3" d="M100 70h1v1H100z"/>
<path fill="#F6B4B4" d="M42 172h1v1H42z"/>
<path fill="#F6B5B5" d="M116 42h1v1H116z"/>
<path fill="#F6B5B6" d="M149 95h1v1H149z"/>
<path fill="#F6B7B7" d="M153 146h1v1H153z"/>
<path fill="#F6B7B8" d="M142 108h1v1H142z"/>
<path fill="#F7B9BA" d="M67 128h1v1H67z"/>
<path fill="#F7BABA" d="M150 81h1v1H150z"/>
<path fill="#F7BABB" d="M116 153h1v1H116z"/>
<path fill="#F7BBBB" d="M71 121h1v1H71z"/>
<path fill="#F7BCBC" d="M131 127h1v1H131z"/>
<path fill="#F7C1C1" d="M160 134h1v1H160z"/>
<path fill="#F8C2C3" d="M145 160h1v1H145z"/>
<path fill="#F8C6C6" d="M124 139h1v1H124z"/>
<path fill="#F8C9C9" d="M174 123h1v1H174z"/>
<path fill="#F9CBCC" d="M48 183h1v1H48z"/>
<path fill="#F9CCCD" d="M66 130h1v1H66z"/>
<path fill="#F9CDCE" d="M104 173h1v1H104z"/>
<path fill="#F9CFD0" d="M74 116h1v1H74z"/>
<path fill="#F9D0D0" d="M163 129h1v1H163z"/>
<path fill="#F9D1D2" d="M148 155h1v1H148z"/>
<path fill="#F9D2D2" d="M147 99h1v1H147z"/>
<path fill="#FAD3D4" d="M93 181h1v1H93z"/>
<path fill="#FAD4D5" d="M121 144h1v1H121z"/>
<path fill="#FAD6D7" d="M144 162h1v1H144z"/>
<path fill="#FAD8D9" d="M85 183h1v1H85z"/>
<path fill="#FAD9DA" d="M102 67h1v1H102z"/>
<path fill="#FADADA" d="M155 143h1v1H155z"/>
<path fill="#FBDADB" d="M140 111h1v1H140z"/>
<path fill="#FBDCDD" d="M114 156h1v1H114z"/>
<path fill="#FBDEDF" d="M69 125h1v1H69z"/>
<path fill="#FBE1E2" d="M138 173h1v1H138z"/>
<path fill="#FCE2E3" d="M147 157h1v1H147z"/>
<path fill="#FCE7E8" d="M101 69h1v1H101z"/>
<path fill="#FCE9EA" d="M60 141h1v1H60z"/>
<path fill="#FCEBEB" d="M64 134h1v1H64z"/>
<path fill="#FDEBEC" d="M68 127h1v1H68z"/>
<path fill="#FDECEC" d="M130 128h1v1H130z"/>
<path fill="#FDECED" d="M72 120h1v1H72z"/>
<path fill="#FDEEEF" d="M197 161h1v1H197z"/>
<path fill="#FDF2F3" d="M142 166h1v1H142z"/>
</svg>
