<svg xmlns="http://www.w3.org/2000/svg" shape-rendering="crispEdges" viewBox="0 0 250 250">
  <path fill="#e84142" d="M124 0h2v1h-2zm-11 1h24v1h-24zm-8 1h40v1h-40zm-5 1h50v1h-50zm-5 1h60v1H95zm-4 1h68v1H91zm-3 1h74v1H88zm-3 1h80v1H85zm-3 1h86v1H82zm-2 1h90v1H80zm-3 1h96v1H77zm-2 1h100v1H75zm-2 1h104v1H73zm-2 1h108v1H71zm-2 1h112v1H69zm-2 1h116v1H67zm-2 1h120v1H65zm-2 1h124v1H63zm-2 1h128v1H61zm-1 1h130v1H60zm-2 1h134v1H58zm-1 1h136v1H57zm-2 1h140v1H55zm-1 1h142v1H54zm-2 1h146v1H52zm-1 1h148v1H51zm-1 1h150v1H50zm-2 1h154v1H48zm-1 1h156v1H47zm-1 1h158v1H46zm-1 1h160v1H45zm-2 1h164v1H43zm-1 1h166v1H42zm-1 1h168v1H41zm-1 1h170v1H40zm-1 1h172v1H39zm-1 1h83v1H38zm88 0h86v1h-86zm-89 1h82v1H37zm91 0h85v1h-85zm-92 1h82v1H36zm93 0h85v1h-85zm-94 1h82v1H35zm95 0h85v1h-85zm-96 1h82v1H34zm97 0h85v1h-85zm-98 1h82v1H33zm99 0h85v1h-85zM32 42h83v1H32zm100 0h86v1h-86zM31 43h83v1H31zm102 0h86v1h-86zM31 44h82v1H31zm102 0h86v1h-86zM30 45h83v1H30zm104 0h86v1h-86zM29 46h83v1H29zm105 0h87v1h-87zM28 47h85v1H28zm107 0h87v1h-87zM27 48h84v1H27zm109 0h87v1h-87zM26 49h85v1H26zm110 0h88v1h-88zM26 50h84v1H26zm111 0h87v1h-87zM25 51h84v1H25zm112 0h88v1h-88zM24 52h85v1H24zm114 0h88v1h-88zM24 53h84v1H24zm114 0h88v1h-88zM23 54h86v1H23zm116 0h88v1h-88zM22 55h85v1H22zm118 0h88v1h-88zM21 56h86v1H21zm119 0h89v1h-89zM21 57h85v1H21zm120 0h88v1h-88zM20 58h85v1H20zm121 0h89v1h-89zM20 59h85v1H20zm122 0h88v1h-88zM19 60h85v1H19zm123 0h89v1h-89zM18 61h87v1H18zm125 0h89v1h-89zM18 62h85v1H18zm126 0h88v1h-88zM17 63h86v1H17zm127 0h89v1h-89zM17 64h85v1H17zm128 0h88v1h-88zM16 65h85v1H16zm129 0h89v1h-89zM15 66h86v1H15zm131 0h89v1h-89zM15 67h85v1H15zm131 0h89v1h-89zM14 68h86v1H14zm133 0h89v1h-89zM14 69h85v1H14zm134 0h88v1h-88zM13 70h86v1H13zm135 0h89v1h-89zM13 71h85v1H13zm136 0h88v1h-88zM12 72h85v1H12zm137 0h89v1h-89zM12 73h85v1H12zm138 0h88v1h-88zM12 74h84v1H12zm137 0h89v1h-89zM11 75h85v1H11zm140 0h88v1h-88zM11 76h84v1H11zm140 0h88v1h-88zM10 77h85v1H10zm141 0h89v1h-89zM10 78h84v1H10zm142 0h88v1h-88zM9 79h84v1H9zm143 0h89v1h-89zM9 80h84v1H9zm143 0h89v1h-89zM9 81h83v1H9zm143 0h89v1h-89zM8 82h84v1H8zm144 0h90v1h-90zM8 83h83v1H8zm145 0h89v1h-89zM8 84h83v1H8zm145 0h89v1h-89zM7 85h83v1H7zm146 0h90v1h-90zM7 86h82v1H7zm146 0h90v1h-90zM7 87h82v1H7zm146 0h90v1h-90zM6 88h82v1H6zm147 0h91v1h-91zM6 89h82v1H6zm147 0h91v1h-91zM6 90h81v1H6zm146 0h92v1h-92zM5 91h82v1H5zm146 0h94v1h-94zM5 92h81v1H5zm147 0h93v1h-93zM5 93h80v1H5zm147 0h93v1h-93zM5 94h80v1H5zm147 0h93v1h-93zM4 95h80v1H4zm147 0h95v1h-95zM4 96h80v1H4zm147 0h95v1h-95zM4 97h79v1H4zm147 0h95v1h-95zM4 98h79v1H4zm146 0h96v1h-96zM3 99h79v1H3zm147 0h97v1h-97zM3 100h78v1H3zm146 0h98v1h-98zM3 101h78v1H3zm146 0h98v1h-98zM3 102h77v1H3zm145 0h99v1h-99zM3 103h77v1H3zm144 0h100v1H147zM3 104h76v1H3zm144 0h100v1H147zM2 105h77v1H2zm144 0h102v1H146zM2 106h76v1H2zm144 0h102v1H146zM2 107h75v1H2zm143 0h103v1H145zM2 108h75v1H2zm142 0h104v1H144zM2 109h74v1H2zm142 0h104v1H144zM2 110h74v1H2zm140 0h106v1H142zM2 111h73v1H2zm141 0h105v1H143zM2 112h73v1H2zm140 0h106v1H142zM1 113h73v1H1zm141 0h107v1H142zM1 114h72v1H1zm140 0h108v1H141zM1 115h72v1H1zm139 0h109v1H140zM1 116h71v1H1zm139 0h109v1H140zM1 117h71v1H1zm138 0h110v1H139zM1 118h70v1H1zm138 0h110v1H139zM1 119h70v1H1zm137 0h111v1H138zM1 120h69v1H1zm137 0h111v1H138zM1 121h69v1H1zm136 0h31v1h-31zm38 0h74v1h-74zM1 122h68v1H1zm135 0h31v1h-31zm40 0h73v1h-73zM1 123h67v1H1zm135 0h30v1h-30zm40 0h73v1h-73zM0 124h68v1H0zm135 0h31v1h-31zm43 0h72v1h-72zM0 125h67v1H0zm135 0h29v1h-29zm44 0h71v1h-71zM1 126h67v1H1zm133 0h29v1h-29zm46 0h69v1h-69zM1 127h65v1H1zm133 0h29v1h-29zm47 0h68v1h-68zM1 128h65v1H1zm132 0h29v1h-29zm48 0h68v1h-68zM1 129h64v1H1zm130 0h30v1h-30zm51 0h67v1h-67zM1 130h63v1H1zm131 0h29v1h-29zm50 0h67v1h-67zM1 131h63v1H1zm130 0h29v1h-29zm52 0h66v1h-66zM1 132h62v1H1zm130 0h29v1h-29zm52 0h66v1h-66zM1 133h63v1H1zm129 0h29v1h-29zm54 0h65v1h-65zM1 134h61v1H1zm128 0h29v1h-29zm56 0h64v1h-64zM1 135h61v1H1zm128 0h29v1h-29zm56 0h64v1h-64zM1 136h60v1H1zm126 0h30v1h-30zm59 0h63v1h-63zM2 137h58v1H2zm126 0h29v1h-29zm58 0h62v1h-62zM2 138h58v1H2zm125 0h29v1h-29zm60 0h61v1h-61zM2 139h57v1H2zm125 0h29v1h-29zm60 0h61v1h-61zM2 140h58v1H2zm124 0h29v1h-29zm62 0h60v1h-60zM2 141h56v1H2zm123 0h29v1h-29zm64 0h59v1h-59zM2 142h56v1H2zm123 0h29v1h-29zm64 0h59v1h-59zM2 143h55v1H2zm122 0h29v1h-29zm66 0h58v1h-58zM2 144h54v1H2zm122 0h30v1h-30zm66 0h58v1h-58zM3 145h53v1H3zm120 0h29v1h-29zm68 0h56v1h-56zM3 146h52v1H3zm120 0h29v1h-29zm68 0h56v1h-56zM3 147h53v1H3zm119 0h29v1h-29zm70 0h55v1h-55zM3 148h51v1H3zm118 0h29v1h-29zm72 0h54v1h-54zM3 149h51v1H3zm118 0h29v1h-29zm72 0h54v1h-54zM3 150h50v1H3zm117 0h29v1h-29zm74 0h53v1h-53zM4 151h48v1H4zm116 0h29v1h-29zm74 0h52v1h-52zM4 152h48v1H4zm115 0h29v1h-29zm76 0h51v1h-51zM4 153h47v1H4zm114 0h29v1h-29zm77 0h51v1h-51zM4 154h47v1H4zm114 0h29v1h-29zm78 0h50v1h-50zM5 155h45v1H5zm111 0h30v1h-30zm81 0h48v1h-48zM5 156h45v1H5zm112 0h29v1h-29zm80 0h48v1h-48zM5 157h44v1H5zm111 0h29v1h-29zm82 0h47v1h-47zM5 158h43v1H5zm111 0h29v1h-29zm82 0h47v1h-47zM6 159h42v1H6zm109 0h29v1h-29zm84 0h45v1h-45zM6 160h41v1H6zm108 0h29v1h-29zm85 0h45v1h-45zM6 161h41v1H6zm108 0h29v1h-29zm86 0h44v1h-44zM7 162h39v1H7zm106 0h29v1h-29zm88 0h42v1h-42zM7 163h39v1H7zm106 0h29v1h-29zm88 0h42v1h-42zM7 164h38v1H7zm105 0h29v1h-29zm90 0h41v1h-41zM8 165h36v1H8zm104 0h29v1h-29zm90 0h40v1h-40zM8 166h36v1H8zm103 0h29v1h-29zm92 0h39v1h-39zM8 167h35v1H8zm102 0h29v1h-29zm93 0h39v1h-39zM9 168h34v1H9zm101 0h29v1h-29zm94 0h37v1h-37zM9 169h33v1H9zm100 0h29v1h-29zm96 0h36v1h-36zM9 170h33v1H9zm100 0h30v1h-30zm96 0h36v1h-36zm-195 1h31v1H10zm98 0h29v1h-29zm98 0h34v1h-34zm-196 1h31v1H10zm97 0h31v1h-31zm99 0h34v1h-34zm-195 1h29v1H11zm96 0h29v1h-29zm99 0h33v1h-33zm-195 1h29v1H11zm95 0h30v1h-30zm101 0h32v1h-32zm-195 1h28v1H12zm93 0h31v1h-31zm102 0h31v1h-31zm-195 1h29v1H12zm92 0h32v1h-32zm103 0h31v1h-31zm-195 1h28v1H12zm91 0h33v1h-33zm104 0h31v1h-31zm-194 1h27v1H13zm89 0h34v1h-34zm105 0h30v1h-30zm-194 1h27v1H13zm88 0h35v1h-35zm105 0h31v1h-31zm-192 1h28v1H14zm85 0h39v1H99zm107 0h30v1h-30zm-192 1h27v1H14zm84 0h39v1H98zm106 0h32v1h-32zm-189 1h27v1H15zm81 0h42v1H96zm107 0h32v1h-32zm-188 1h28v1H15zm79 0h45v1H94zm109 0h32v1h-32zm-187 1h29v1H16zm31 0h1v1h-1zm44 0h50v1H91zm52 0h1v1h-1zm59 0h32v1h-32zm-185 1h32v1H17zm69 0h59v1H86zm112 0h35v1h-35zm-181 1h216v1H17zm1 1h214v1H18zm0 1h214v1H18zm1 1h212v1H19zm1 1h210v1H20zm0 1h210v1H20zm1 1h208v1H21zm0 1h208v1H21zm1 1h206v1H22zm1 1h204v1H23zm1 1h202v1H24zm0 1h202v1H24zm1 1h200v1H25zm1 1h198v1H26zm0 1h198v1H26zm1 1h196v1H27zm1 1h194v1H28zm1 1h192v1H29zm1 1h190v1H30zm1 1h188v1H31zm0 1h188v1H31zm1 1h186v1H32zm1 1h184v1H33zm1 1h182v1H34zm1 1h180v1H35zm1 1h178v1H36zm1 1h176v1H37zm1 1h174v1H38zm1 1h172v1H39zm1 1h170v1H40zm1 1h168v1H41zm1 1h166v1H42zm1 1h164v1H43zm2 1h160v1H45zm1 1h158v1H46zm1 1h156v1H47zm1 1h154v1H48zm2 1h150v1H50zm1 1h148v1H51zm1 1h146v1H52zm2 1h142v1H54zm1 1h140v1H55zm2 1h136v1H57zm1 1h134v1H58zm2 1h130v1H60zm1 1h128v1H61zm2 1h124v1H63zm2 1h120v1H65zm2 1h116v1H67zm2 1h112v1H69zm2 1h108v1H71zm2 1h104v1H73zm2 1h100v1H75zm2 1h96v1H77zm3 1h90v1H80zm2 1h86v1H82zm3 1h80v1H85zm3 1h74v1H88zm3 1h68v1H91zm4 1h60v1H95zm5 1h50v1h-50zm5 1h40v1h-40zm8 1h24v1h-24zm11 1h2v1h-2z"/>
  <path fill="#fff" d="M121 39h5v1h-5zm-2 1h9v1h-9zm-1 1h11v1h-11zm-1 1h12v1h-12zm0 1h13v1h-13zm-1 1h14v1h-14zm0 1h15v1h-15zm-1 1h17v1h-17zm-1 1h18v1h-18zm0 1h19v1h-19zm-1 1h20v1h-20zm0 1h21v1h-21zm-1 1h22v1h-22zm0 1h23v1h-23zm-1 1h25v1h-25zm-1 1h26v1h-26zm0 1h27v1h-27zm-1 1h28v1h-28zm0 1h29v1h-29zm-1 1h30v1h-30zm0 1h31v1h-31zm-1 1h33v1h-33zm-1 1h34v1h-34zm0 1h35v1h-35zm-1 1h36v1h-36zm0 1h37v1h-37zm-1 1h38v1h-38zm0 1h39v1h-39zm-1 1h41v1h-41zm0 1h41v1h-41zm-1 1h43v1h-43zm-1 1h44v1h-44zm0 1h45v1h-45zm-1 1h46v1h-46zm0 1h47v1h-47zm-1 1h49v1H99zm0 1h49v1H99zm-1 1h50v1H98zm-1 1h52v1H97zm0 1h52v1H97zm-1 1h53v1H96zm0 1h54v1H96zm-1 1h55v1H95zm0 1h55v1H95zm-1 1h56v1H94zm-1 1h57v1H93zm0 1h57v1H93zm-1 1h58v1H92zm0 1h58v1H92zm-1 1h59v1H91zm0 1h59v1H91zm-1 1h60v1H90zm-1 1h61v1H89zm0 1h61v1H89zm-1 1h61v1H88zm0 1h61v1H88zm-1 1h62v1H87zm0 1h61v1H87zm-1 1h62v1H86zm-1 1h62v1H85zm0 1h62v1H85zm-1 1h62v1H84zm0 1h62v1H84zm-1 1h62v1H83zm0 1h62v1H83zm-1 1h62v1H82zm-1 1h62v1H81zm0 1h62v1H81zm-1 1h62v1H80zm0 1h62v1H80zm-1 1h62v1H79zm0 1h62v1H79zm-1 1h62v1H78zm-1 1h62v1H77zm0 1h62v1H77zm-1 1h62v1H76zm0 1h62v1H76zm-1 1h62v1H75zm0 1h61v1H75zm-1 1h62v1H74zm-1 1h62v1H73zm0 1h62v1H73zm-1 1h62v1H72zm0 1h62v1H72zm-1 1h62v1H71zm99 0h3v1h-3zm-99 1h61v1H71zm97 0h7v1h-7zm-98 1h62v1H70zm97 0h9v1h-9zm-98 1h62v1H69zm97 0h11v1h-11zm-97 1h62v1H69zm96 0h13v1h-13zm-97 1h62v1H68zm97 0h13v1h-13zm-97 1h62v1H68zm96 0h15v1h-15zm-97 1h62v1H67zm97 0h15v1h-15zm-97 1h61v1H67zm96 0h17v1h-17zm-97 1h62v1H66zm96 0h19v1h-19zm-97 1h62v1H65zm97 0h19v1h-19zm-97 1h62v1H65zm96 0h21v1h-21zm-97 1h62v1H64zm97 0h21v1h-21zm-97 1h61v1H64zm96 0h23v1h-23zm-97 1h62v1H63zm97 0h23v1h-23zm-97 1h61v1H63zm96 0h25v1h-25zm-97 1h62v1H62zm96 0h27v1h-27zm-97 1h62v1H61zm97 0h27v1h-27zm-97 1h62v1H61zm96 0h29v1h-29zm-97 1h62v1H60zm97 0h29v1h-29zm-97 1h61v1H60zm96 0h31v1h-31zm-97 1h62v1H59zm96 0h32v1h-32zm-96 1h61v1H59zm96 0h33v1h-33zm-97 1h62v1H58zm96 0h35v1h-35zm-97 1h62v1H57zm97 0h35v1h-35zm-97 1h62v1H57zm96 0h37v1h-37zm-97 1h62v1H56zm97 0h37v1h-37zm-97 1h61v1H56zm96 0h39v1h-39zm-97 1h62v1H55zm96 0h40v1h-40zm-96 1h61v1H55zm96 0h41v1h-41zm-97 1h62v1H54zm96 0h43v1h-43zm-96 1h61v1H54zm96 0h43v1h-43zm-97 1h62v1H53zm96 0h45v1h-45zm-97 1h62v1H52zm97 0h45v1h-45zm-97 1h61v1H52zm96 0h47v1h-47zm-97 1h62v1H51zm96 0h48v1h-48zm-96 1h61v1H51zm96 0h49v1h-49zm-97 1h62v1H50zm96 0h51v1h-51zm-96 1h61v1H50zm96 0h51v1h-51zm-97 1h61v1H49zm96 0h53v1h-53zm-97 1h62v1H48zm97 0h53v1h-53zm-97 1h61v1H48zm96 0h55v1h-55zm-97 1h62v1H47zm96 0h56v1h-56zm-96 1h61v1H47zm96 0h57v1h-57zm-97 1h62v1H46zm96 0h59v1h-59zm-96 1h61v1H46zm96 0h59v1h-59zm-97 1h61v1H45zm96 0h61v1h-61zm-97 1h62v1H44zm96 0h62v1h-62zm-96 1h61v1H44zm96 0h63v1h-63zm-97 1h62v1H43zm96 0h64v1h-64zm-96 1h61v1H43zm96 0h65v1h-65zm-96 1h60v1H43zm96 0h65v1h-65zm-97 1h60v1H42zm96 0h66v1h-66zm-96 1h59v1H42zm96 0h66v1h-66zm-96 1h57v1H42zm96 0h66v1h-66zm-95 1h55v1H43zm96 0h65v1h-65zm-96 1h53v1H43zm96 0h65v1h-65zm-95 1h50v1H44zm96 0h63v1h-63zm-95 1h47v1H45zm96 0h61v1h-61zm-94 1h42v1H47zm96 0h57v1h-57z"/>
  <path fill="#e83f40" d="M122 36h1v1h-1zm2 0h1v1h-1zm2 1h1v1h-1zm-8 1h1v1h-1zm11 1h1v1h-1zm-13 1h1v1h-1zm-1 1h1v1h-1zm16 1h1v1h-1zm-18 3h1v1h-1zm20 0h1v1h-1zm-21 1h1v1h-1zm22 1h1v1h-1zm-23 1h1v1h-1zm24 1h1v1h-1zm-26 3h1v1h-1zm28 0h1v1h-1zm1 2h1v1h-1zm-31 1h1v1h-1zm32 1h1v1h-1zm-34 3h1v1h-1zm36 0h1v1h-1zm1 2h1v1h-1zm-39 1h1v1h-1zm40 1h1v1h-1zm-42 3h1v1h-1zm44 0h1v1h-1zm1 2h1v1h-1zm-47 1h1v1h-1zm48 1h1v1h-1zm-50 3h1v1h-1zm52 0h1v1h-1zm1 2h1v1h-1zm-55 1h1v1h-1zm-1 2h1v1h-1zm57 0h1v1h-1zm-58 2h1v1h-1zm58 0h1v1h-1zm-60 3h1v1h-1zm-1 2h1v1h-1zm62 0h1v1h-1zm0 1h1v1h-1zm-63 1h1v1h-1zm63 0h1v1h-1zm-65 3h1v1h-1zm-1 2h1v1h-1zm-1 2h1v1h-1zm-2 3h1v1h-1zm66 1h1v1h-1zm-67 1h1v1h-1zm66 1h1v1h-1zm-67 1h1v1h-1zm66 1h1v1h-1zm-67 1h1v1h-1zm-1 1h1v1h-1zm67 0h1v1h-1zm-1 1h1v1h-1zm-67 1h1v1h-1zm-1 2h1v1h-1zm66 1h1v1h-1zm-67 1h1v1h-1zm-1 1h1v1h-1zm66 1h1v1h-1zm-67 1h1v1h-1zm66 1h1v1h-1zm-1 2h1v1h-1zm-67 1h1v1h-1zm-1 1h1v1h-1zm66 1h1v1h-1zm-67 1h1v1h-1zm66 1h1v1h-1zm33 0h1v1h-1zm-2 1h1v1h-1zm8 0h1v1h-1zm-40 1h1v1h-1zm-67 1h1v1h-1zm66 0h1v1h-1zm-67 1h1v1h-1zm97 0h1v1h-1zm-31 1h1v1h-1zm30 0h1v1h-1zm16 0h1v1h-1zm-113 1h1v1h-1zm66 1h1v1h-1zm48 0h1v1h-1zm-49 2h1v1h-1zm30 0h1v1h-1zm-97 1h1v1h-1zm66 0h1v1h-1zm30 0h1v1h-1zm22 0h1v1h-1zm-119 1h1v1h-1zm96 1h1v1h-1zm24 0h1v1h-1zm-121 1h1v1h-1zm66 1h1v1h-1zm30 0h1v1h-1zm26 0h1v1h-1zm-124 3h1v1h-1zm66 0h1v1h-1zm30 0h1v1h-1zm30 0h1v1h-1zm-61 2h1v1h-1zm30 0h1v1h-1zm32 0h1v1h-1zm-129 1h1v1h-1zm66 1h1v1h-1zm30 0h1v1h-1zm34 0h1v1h-1zm-132 3h1v1h-1zm66 0h1v1h-1zm30 0h1v1h-1zm38 0h1v1h-1zm-69 2h1v1h-1zm70 0h1v1h-1zm-137 1h1v1h-1zm66 1h1v1h-1zm30 0h1v1h-1zm42 0h1v1h-1zm-73 1h1v1h-1zm30 0h1v1h-1zm-97 2h1v1h-1zm96 0h1v1h-1zm46 0h1v1h-1zm-77 2h1v1h-1zm30 0h1v1h-1zm48 0h1v1h-1zm-145 1h1v1h-1zm66 1h1v1h-1zm80 0h1v1h-1zm-147 1h1v1h-1zm66 0h1v1h-1zm30 0h1v1h-1zm-97 2h1v1h-1zm96 0h1v1h-1zm54 0h1v1h-1zm-85 2h1v1h-1zm30 0h1v1h-1zm56 0h1v1h-1zm-153 1h1v1h-1zm154 1h1v1h-1zm-155 1h1v1h-1zm66 0h1v1h-1zm30 0h1v1h-1zm60 1h1v1h-1zm-157 1h1v1h-1zm66 0h1v1h-1zm92 0h1v1h-1zm-93 2h1v1h-1zm30 0h1v1h-1zm64 0h1v1h-1zm-161 1h1v1h-1zm162 1h1v1h-1zm-163 1h1v1h-1zm66 0h1v1h-1zm30 0h1v1h-1zm-97 2h1v1h-1zm65 1h1v1h-1zm-65 1h1v1h-1zm64 0h1v1h-1zm-1 1h1v1h-1zm-1 1h1v1h-1zm34 0h1v1h-1zm-35 1h1v1h-1zm105 0h1v1h-1zm-166 1h1v1h-1zm96 0h1v1h-1zm-38 1h1v1h-1zm107 0h1v1h-1zm-109 1h1v1h-1zm-2 1h1v1h-1zm-50 1h1v1h-1zm158 0h1v1h-1zm-3 1h1v1h-1z"/>
  <path fill="#e84041" d="M121 36h1v1h-1zm4 0h1v1h-1zm-6 1h2v1h-2zm8 0h1v1h-1zm-10 2h1v1h-1zm13 1h1v1h-1zm1 1h1v1h-1zm1 2h1v1h-1zm-19 1h1v1h-1zm19 0h1v1h-1zm3 4h1v1h-1zm1 2h1v1h-1zm-27 1h1v1h-1zm27 0h1v1h-1zm3 4h1v1h-1zm1 2h1v1h-1zm-35 1h1v1h-1zm35 0h1v1h-1zm-36 2h1v1h-1zm39 2h1v1h-1zm1 2h1v1h-1zm-43 1h1v1h-1zm43 0h1v1h-1zm-44 2h1v1h-1zm0 1h1v1h-1zm47 1h1v1h-1zm1 2h1v1h-1zm-51 1h1v1h-1zm51 0h1v1h-1zm-52 2h1v1h-1zm0 1h1v1h-1zm-3 4h1v1h-1zm-1 2h1v1h-1zm0 1h1v1h-1zm60 1h1v1h-1zm0 1h1v1h-1zm-63 2h1v1h-1zm-1 2h1v1h-1zm64 0h1v1h-1zm-64 1h1v1h-1zm64 0h1v1h-1zm-67 4h1v1h-1zm66 1h1v1h-1zm-67 1h1v1h-1zm0 1h1v1h-1zm66 1h1v1h-1zm-1 2h1v1h-1zm-68 1h1v1h-1zm67 1h1v1h-1zm-68 1h1v1h-1zm65 4h1v1h-1zm-68 1h1v1h-1zm-1 2h1v1h-1zm66 2h1v1h-1zm-1 2h1v1h-1zm-68 1h1v1h-1zm-1 2h1v1h-1zm66 1h1v1h-1zm0 1h1v1h-1zm-1 2h1v1h-1zm31 1h1v1h-1zm6 0h1v1h-1zm-106 2h1v1h-1zm98 0h1v1h-1zm-32 2h1v1h-1zm44 0h1v1h-1zm-45 2h1v1h-1zm47 0h1v1h-1zm-19 2h1v1h-1zm20 0h1v1h-1zm-117 1h1v1h-1zm117 0h1v1h-1zm-51 2h1v1h-1zm28 2h1v1h-1zm26 0h1v1h-1zm-27 2h1v1h-1zm28 0h1v1h-1zm-125 1h1v1h-1zm67 0h1v1h-1zm30 0h1v1h-1zm28 0h1v1h-1zm-126 2h1v1h-1zm67 0h1v1h-1zm28 2h1v1h-1zm34 0h1v1h-1zm-65 2h1v1h-1zm30 0h1v1h-1zm36 0h1v1h-1zm-133 1h1v1h-1zm67 0h1v1h-1zm66 0h1v1h-1zm-134 2h1v1h-1zm67 0h1v1h-1zm28 2h1v1h-1zm42 0h1v1h-1zm1 2h1v1h-1zm-141 1h1v1h-1zm67 0h1v1h-1zm74 0h1v1h-1zm-142 2h1v1h-1zm96 0h1v1h-1zm-96 1h1v1h-1zm95 1h1v1h-1zm50 0h1v1h-1zm-50 1h1v1h-1zm51 1h1v1h-1zm-149 1h1v1h-1zm67 0h1v1h-1zm82 0h1v1h-1zm-150 2h1v1h-1zm96 0h1v1h-1zm-96 1h1v1h-1zm65 1h1v1h-1zm30 0h1v1h-1zm58 0h1v1h-1zm-88 1h1v1h-1zm30 0h1v1h-1zm59 1h1v1h-1zm-157 1h1v1h-1zm67 0h1v1h-1zm-68 2h1v1h-1zm96 0h1v1h-1zm-96 1h1v1h-1zm65 1h1v1h-1zm30 0h1v1h-1zm66 0h1v1h-1zm-96 1h1v1h-1zm97 1h1v1h-1zm-99 2h1v1h-1zm30 0h1v1h-1zm70 1h1v1h-1zm-70 2h1v1h-1zm-96 1h1v1h-1zm60 2h1v1h-1zm-59 2h1v1h-1zm56 0h1v1h-1zm40 0h1v1h-1zm-95 1h1v1h-1zm53 0h1v1h-1zm43 0h1v1h-1zm-95 1h1v1h-1zm50 0h1v1h-1zm46 0h2v1h-2zm-94 1h1v1h-1zm45 0h1v1h-1zm51 0h1v1h-1zm60 0h1v1h-1zm-152 1h37v1H49zm96 0h53v1h-53z"/>
  <path fill="#e84142" fill-opacity=".996" d="M99 3h1v1h-1zm51 0h1v1h-1zM79 9h1v1h-1zm91 0h1v1h-1zm-98 3h1v1h-1zm105 0h1v1h-1zM70 13h1v1h-1zm109 0h1v1h-1zM68 14h1v1h-1zm113 0h1v1h-1zM66 15h1v1h-1zm117 0h1v1h-1zM56 21h1v1h-1zm137 0h1v1h-1zM49 26h1v1h-1zm151 0h1v1h-1zM44 30h1v1h-1zm161 0h1v1h-1zM30 44h1v1h-1zm189 0h1v1h-1zM23 53h1v1h-1zm203 0h1v1h-1zM19 59h1v1h-1zm211 0h1v1h-1zM19 190h1v1h-1zm211 0h1v1h-1zm-207 6h1v1h-1zm203 0h1v1h-1zm-196 9h1v1h-1zm189 0h1v1h-1zM44 219h1v1h-1zm161 0h1v1h-1zm-156 4h1v1h-1zm151 0h1v1h-1zm-144 5h1v1h-1zm137 0h1v1h-1zm-127 6h1v1h-1zm117 0h1v1h-1zm-115 1h1v1h-1zm113 0h1v1h-1zm-111 1h1v1h-1zm109 0h1v1h-1zm-107 1h1v1h-1zm105 0h1v1h-1zm-98 3h1v1h-1zm91 0h1v1h-1zm-71 6h1v1h-1zm51 0h1v1h-1z"/>
  <path fill="red" fill-opacity=".004" d="M100 1h1v1h-1zm49 0h1v1h-1zM88 4h1v1h-1zm73 0h1v1h-1zm-89 6h1v1h-1zm105 0h1v1h-1zM66 13h1v1h-1zm117 0h1v1h-1zM50 23h1v1h-1zm149 0h1v1h-1zM37 34h1v1h-1zm175 0h1v1h-1zM34 37h1v1h-1zm181 0h1v1h-1zM17 59h1v1h-1zm215 0h1v1h-1zM12 68h1v1h-1zm225 0h1v1h-1zM6 82h1v1H6zm237 0h1v1h-1zM0 106h1v1H0zm249 0h1v1h-1zM0 143h1v1H0zm249 0h1v1h-1zM6 167h1v1H6zm237 0h1v1h-1zM12 181h1v1h-1zm225 0h1v1h-1zm-220 9h1v1h-1zm215 0h1v1h-1zM34 212h1v1h-1zm181 0h1v1h-1zm-178 3h1v1h-1zm175 0h1v1h-1zM50 226h1v1h-1zm149 0h1v1h-1zM66 236h1v1h-1zm117 0h1v1h-1zm-111 3h1v1h-1zm105 0h1v1h-1zm-89 6h1v1h-1zm73 0h1v1h-1zm-61 3h1v1h-1zm49 0h1v1h-1z"/>
  <path fill="#e83e3f" d="M123 36h1v1h-1zm-9 7h1v1h-1zm-4 7h1v1h-1zm-4 7h1v1h-1zm44 19h1v1h-1zm1 3h1v1h-1zm0 13h1v1h-1zm0 1h1v1h-1zm-1 3h1v1h-1zm-6 11h1v1h-1zm-71 8h1v1h-1zm97 6h4v1h-4zm-101 1h1v1h-1zm-4 7h1v1h-1zm64 4h1v1h-1zm-68 3h1v1h-1zm-4 7h1v1h-1zm94 4h1v1h-1zm-98 3h1v1h-1zm152 22h1v1h-1zm-165 2h1v1h-1zm96 0h1v1h-1zm0 1h1v1h-1zm70 0h1v1h-1zm0 1h1v1h-1zm0 1h1v1h-1zm-166 1h1v1h-1zm96 0h1v1h-1zm-44 5h1v1h-1zm-46 1h1v1h-1zm42 0h2v1h-2zm54 0h1v1h-1zm58 0h1v1h-1z"/>
  <path fill="#e84142" fill-opacity=".976" d="M111 1h1v1h-1zm27 0h1v1h-1zM87 6h1v1h-1zm75 0h1v1h-1zM84 7h1v1h-1zm81 0h1v1h-1zM45 29h1v1h-1zm159 0h1v1h-1zM29 45h1v1h-1zm191 0h1v1h-1zM7 84h1v1H7zm235 0h1v1h-1zM6 87h1v1H6zm237 0h1v1h-1zM1 111h1v1H1zm247 0h1v1h-1zM1 138h1v1H1zm247 0h1v1h-1zM6 162h1v1H6zm237 0h1v1h-1zM7 165h1v1H7zm235 0h1v1h-1zM29 204h1v1h-1zm191 0h1v1h-1zM45 220h1v1h-1zm159 0h1v1h-1zM84 242h1v1h-1zm81 0h1v1h-1zm-78 1h1v1h-1zm75 0h1v1h-1zm-51 5h1v1h-1zm27 0h1v1h-1z"/>
  <path fill="#ff8080" fill-opacity=".008" d="M106 0h1v1h-1zm37 0h1v1h-1zM82 6h1v1h-1zm85 0h1v1h-1zm-97 5h1v1h-1zm109 0h1v1h-1zM68 12h1v1h-1zm113 0h1v1h-1zM59 17h1v1h-1zm131 0h1v1h-1zM36 35h1v1h-1zm177 0h1v1h-1zM35 36h1v1h-1zm179 0h1v1h-1zM5 85h1v1H5zm239 0h1v1h-1zM5 164h1v1H5zm239 0h1v1h-1zM35 213h1v1h-1zm179 0h1v1h-1zm-178 1h1v1h-1zm177 0h1v1h-1zM59 232h1v1h-1zm131 0h1v1h-1zm-122 5h1v1h-1zm113 0h1v1h-1zm-111 1h1v1h-1zm109 0h1v1h-1zm-97 5h1v1h-1zm85 0h1v1h-1zm-61 6h1v1h-1zm37 0h1v1h-1z"/>
  <path fill="#e44040" fill-opacity=".11" d="M97 2h1v1h-1zm55 0h1v1h-1zM86 5h1v1h-1zm77 0h1v1h-1zM48 25h1v1h-1zm153 0h1v1h-1zM25 48h1v1h-1zm199 0h1v1h-1zM10 73h1v1h-1zm229 0h1v1h-1zM6 83h1v1H6zm237 0h1v1h-1zM2 97h1v1H2zm245 0h1v1h-1zM2 152h1v1H2zm245 0h1v1h-1zM6 166h1v1H6zm237 0h1v1h-1zM10 176h1v1h-1zm229 0h1v1h-1zM25 201h1v1h-1zm199 0h1v1h-1zM48 224h1v1h-1zm153 0h1v1h-1zM86 244h1v1h-1zm77 0h1v1h-1zm-66 3h1v1h-1zm55 0h1v1h-1z"/>
  <path fill="#e84142" fill-opacity=".992" d="M123 0h1v1h-1zm3 0h1v1h-1zm-14 1h1v1h-1zm25 0h1v1h-1zM59 19h1v1h-1zm131 0h1v1h-1zM53 23h1v1h-1zm143 0h1v1h-1zM2 104h1v1H2zm245 0h1v1h-1zM1 112h1v1H1zm247 0h1v1h-1zM0 123h1v1H0zm249 0h1v1h-1zM0 126h1v1H0zm249 0h1v1h-1zM1 137h1v1H1zm247 0h1v1h-1zM2 145h1v1H2zm245 0h1v1h-1zM53 226h1v1h-1zm143 0h1v1h-1zm-137 4h1v1h-1zm131 0h1v1h-1zm-78 18h1v1h-1zm25 0h1v1h-1zm-14 1h1v1h-1zm3 0h1v1h-1z"/>
  <path fill="#e64d4d" fill-opacity=".039" d="M107 0h1v1h-1zm35 0h1v1h-1zm-41 1h1v1h-1zm47 0h1v1h-1zM49 24h1v1h-1zm151 0h1v1h-1zM24 49h1v1h-1zm201 0h1v1h-1zM1 101h1v1H1zm247 0h1v1h-1zM0 107h1v1H0zm249 0h1v1h-1zM0 142h1v1H0zm249 0h1v1h-1zM1 148h1v1H1zm247 0h1v1h-1zM24 200h1v1h-1zm201 0h1v1h-1zM49 225h1v1h-1zm151 0h1v1h-1zm-99 23h1v1h-1zm47 0h1v1h-1zm-41 1h1v1h-1zm35 0h1v1h-1z"/>
  <path fill="#e84141" fill-opacity=".871" d="M67 14h1v1h-1zm115 0h1v1h-1zM47 27h1v1h-1zm155 0h1v1h-1zM40 33h1v1h-1zm169 0h1v1h-1zM33 40h1v1h-1zm183 0h1v1h-1zM27 47h1v1h-1zm195 0h1v1h-1zM4 93h1v1H4zm241 0h1v1h-1zM4 156h1v1H4zm241 0h1v1h-1zM27 202h1v1h-1zm195 0h1v1h-1zm-189 7h1v1h-1zm183 0h1v1h-1zm-176 7h1v1h-1zm169 0h1v1h-1zm-162 6h1v1h-1zm155 0h1v1h-1zM67 235h1v1h-1zm115 0h1v1h-1z"/>
  <path fill="#e84142" fill-opacity=".894" d="M109 1h1v1h-1zm31 0h1v1h-1zM51 24h1v1h-1zm147 0h1v1h-1zM39 34h1v1h-1zm171 0h1v1h-1zM34 39h1v1h-1zm181 0h1v1h-1zM18 60h1v1h-1zm213 0h1v1h-1zM1 109h1v1H1zm247 0h1v1h-1zM1 140h1v1H1zm247 0h1v1h-1zM18 189h1v1h-1zm213 0h1v1h-1zM34 210h1v1h-1zm181 0h1v1h-1zm-176 5h1v1h-1zm171 0h1v1h-1zM51 225h1v1h-1zm147 0h1v1h-1zm-89 23h1v1h-1zm31 0h1v1h-1z"/>
  <path fill="#e84043" fill-opacity=".298" d="M94 3h1v1h-1zm61 0h1v1h-1zM76 9h1v1h-1zm97 0h1v1h-1zM57 19h1v1h-1zm135 0h1v1h-1zM39 33h1v1h-1zm171 0h1v1h-1zM9 76h1v1H9zm231 0h1v1h-1zM3 94h1v1H3zm243 0h1v1h-1zM3 155h1v1H3zm243 0h1v1h-1zM9 173h1v1H9zm231 0h1v1h-1zM39 216h1v1h-1zm171 0h1v1h-1zM57 230h1v1h-1zm135 0h1v1h-1zM76 240h1v1h-1zm97 0h1v1h-1z"/>
  <path fill="#fffefe" d="M120 39h1v1h-1zm10 5h1v1h-1zm4 7h1v1h-1zm4 7h1v1h-1zm-36 10h1v1h-1zm-4 7h1v1h-1zm-4 7h1v1h-1zm-4 7h1v1h-1zm46 28h1v1h-1zm43 13h1v1h-1zm-54 6h1v1h-1zm34 1h1v1h-1zm24 0h1v1h-1zm4 7h1v1h-1zM53 154h1v1h-1zm-4 7h1v1h-1zm61 1h1v1h-1zm34 1h1v1h-1zm-99 5h1v1h-1zm-3 10h1v1h-1zm96 0h1v1h-1z"/>
  <path fill="#e74242" fill-opacity=".333" d="M84 6h1v1h-1zm81 0h1v1h-1zM38 34h1v1h-1zm173 0h1v1h-1zM34 38h1v1h-1zm181 0h1v1h-1zM16 62h1v1h-1zm217 0h1v1h-1zM6 84h1v1H6zm237 0h1v1h-1zM6 165h1v1H6zm237 0h1v1h-1zM16 187h1v1h-1zm217 0h1v1h-1zM34 211h1v1h-1zm181 0h1v1h-1zm-177 4h1v1h-1zm173 0h1v1h-1zM84 243h1v1h-1zm81 0h1v1h-1z"/>
  <path fill="#e84042" fill-opacity=".776" d="M116 0h1v1h-1zm17 0h1v1h-1zM80 8h1v1h-1zm89 0h1v1h-1zM42 31h1v1h-1zm165 0h1v1h-1zM31 42h1v1h-1zm187 0h1v1h-1zM0 116h1v1H0zm249 0h1v1h-1zM0 133h1v1H0zm249 0h1v1h-1zM31 207h1v1h-1zm187 0h1v1h-1zM42 218h1v1h-1zm165 0h1v1h-1zM80 241h1v1h-1zm89 0h1v1h-1zm-53 8h1v1h-1zm17 0h1v1h-1z"/>
  <path fill="#e84142" fill-opacity=".937" d="M120 0h1v1h-1zm9 0h1v1h-1zM54 22h1v1h-1zm141 0h1v1h-1zM28 46h1v1h-1zm193 0h1v1h-1zM22 54h1v1h-1zm205 0h1v1h-1zM0 120h1v1H0zm249 0h1v1h-1zM0 129h1v1H0zm249 0h1v1h-1zM22 195h1v1h-1zm205 0h1v1h-1zm-199 8h1v1h-1zm193 0h1v1h-1zM54 227h1v1h-1zm141 0h1v1h-1zm-75 22h1v1h-1zm9 0h1v1h-1z"/>
  <path fill="#e84142" fill-opacity=".941" d="M110 1h1v1h-1zm29 0h1v1h-1zM57 20h1v1h-1zm135 0h1v1h-1zM46 28h1v1h-1zm157 0h1v1h-1zM20 57h1v1h-1zm209 0h1v1h-1zM1 110h1v1H1zm247 0h1v1h-1zM1 139h1v1H1zm247 0h1v1h-1zM20 192h1v1h-1zm209 0h1v1h-1zM46 221h1v1h-1zm157 0h1v1h-1zm-146 8h1v1h-1zm135 0h1v1h-1zm-82 19h1v1h-1zm29 0h1v1h-1z"/>
  <path fill="#e84142" fill-opacity=".831" d="M117 0h1v1h-1zm15 0h1v1h-1zM41 32h1v1h-1zm167 0h1v1h-1zM32 41h1v1h-1zm185 0h1v1h-1zM0 117h1v1H0zm249 0h1v1h-1zM0 132h1v1H0zm249 0h1v1h-1zm-15 52h1v1h-1zM32 208h1v1h-1zm185 0h1v1h-1zm-176 9h1v1h-1zm167 0h1v1h-1zm-91 32h1v1h-1zm15 0h1v1h-1z"/>
  <path fill="#db4949" fill-opacity=".027" d="M96 2h1v1h-1zm57 0h1v1h-1zM92 3h1v1h-1zm65 0h1v1h-1zM3 92h1v1H3zm243 0h1v1h-1zM2 96h1v1H2zm245 0h1v1h-1zM2 153h1v1H2zm245 0h1v1h-1zM3 157h1v1H3zm243 0h1v1h-1zM92 246h1v1h-1zm65 0h1v1h-1zm-61 1h1v1h-1zm57 0h1v1h-1z"/>
  <path fill="#e84142" fill-opacity=".867" d="M102 2h1v1h-1zm45 0h1v1h-1zM71 12h1v1h-1zm107 0h1v1h-1zM14 67h1v1h-1zm221 0h1v1h-1zM2 102h1v1H2zm245 0h1v1h-1zM2 147h1v1H2zm245 0h1v1h-1zM14 182h1v1h-1zm221 0h1v1h-1zM71 237h1v1h-1zm107 0h1v1h-1zm-76 10h1v1h-1zm45 0h1v1h-1z"/>
  <path fill="#e84142" fill-opacity=".91" d="M119 0h1v1h-1zm11 0h1v1h-1zM38 35h1v1h-1zm173 0h1v1h-1zM35 38h1v1h-1zm179 0h1v1h-1zM0 119h1v1H0zm249 0h1v1h-1zM0 130h1v1H0zm249 0h1v1h-1zM35 211h1v1h-1zm179 0h1v1h-1zm-176 3h1v1h-1zm173 0h1v1h-1zm-92 35h1v1h-1zm11 0h1v1h-1z"/>
  <path fill="#e84142" fill-opacity=".957" d="M81 8h1v1h-1zm87 0h1v1h-1zM62 17h1v1h-1zm125 0h1v1h-1zM17 62h1v1h-1zm215 0h1v1h-1zM8 81h1v1H8zm233 0h1v1h-1zM8 168h1v1H8zm233 0h1v1h-1zM17 187h1v1h-1zm215 0h1v1h-1zM62 232h1v1h-1zm125 0h1v1h-1zm-106 9h1v1h-1zm87 0h1v1h-1z"/>
  <path fill="#e84142" fill-opacity=".984" d="M122 0h1v1h-1zm5 0h1v1h-1zM74 11h1v1h-1zm101 0h1v1h-1zM64 16h1v1h-1zm121 0h1v1h-1zM0 122h1v1H0zm249 0h1v1h-1zM0 127h1v1H0zm249 0h1v1h-1zM64 233h1v1h-1zm121 0h1v1h-1zm-111 5h1v1h-1zm101 0h1v1h-1zm-53 11h1v1h-1zm5 0h1v1h-1z"/>
  <path fill="#e84242" fill-opacity=".702" d="M96 3h1v1h-1zm57 0h1v1h-1zM43 30h1v1h-1zm163 0h1v1h-1zM30 43h1v1h-1zm189 0h1v1h-1zM3 96h1v1H3zm243 0h1v1h-1zM3 153h1v1H3zm243 0h1v1h-1zM30 206h1v1h-1zm189 0h1v1h-1zM43 219h1v1h-1zm163 0h1v1h-1zM96 246h1v1h-1zm57 0h1v1h-1z"/>
  <path fill="#e94042" fill-opacity=".498" d="M95 3h1v1h-1zm59 0h1v1h-1zM66 14h1v1h-1zm117 0h1v1h-1zM14 66h1v1h-1zm221 0h1v1h-1zM3 95h1v1H3zm243 0h1v1h-1zM3 154h1v1H3zm243 0h1v1h-1zM14 183h1v1h-1zm221 0h1v1h-1zM66 235h1v1h-1zm117 0h1v1h-1zm-88 11h1v1h-1zm59 0h1v1h-1z"/>
  <path fill="#ea3e45" fill-opacity=".145" d="M71 11h1v1h-1zm107 0h1v1h-1zM42 30h1v1h-1zm165 0h1v1h-1zM30 42h1v1h-1zm189 0h1v1h-1zM11 71h1v1h-1zm227 0h1v1h-1zM11 178h1v1h-1zm227 0h1v1h-1zM30 207h1v1h-1zm189 0h1v1h-1zM42 219h1v1h-1zm165 0h1v1h-1zM71 238h1v1h-1zm107 0h1v1h-1z"/>
  <path fill="#fefafa" d="M126 39h1v1h-1zm-23 27h1v1h-1zm-4 7h1v1h-1zm50 6h1v1h-1zm-1 17h1v1h-1zm-9 16h1v1h-1zm39 16h1v1h-1zm-54 10h1v1h-1zm32 4h1v1h-1zM54 152h1v1h-1zm-4 7h1v1h-1zm91 9h1v1h-1zm62 4h1v1h-1zm-65 2h1v1h-1zm-94 7h1v1h-1zm96 0h1v1h-1z"/>
  <path fill="#f33" fill-opacity=".02" d="M77 8h1v1h-1zm95 0h1v1h-1zM56 19h1v1h-1zm137 0h1v1h-1zM53 21h1v1h-1zm143 0h1v1h-1zM19 56h1v1h-1zm211 0h1v1h-1zM19 193h1v1h-1zm211 0h1v1h-1zM53 228h1v1h-1zm143 0h1v1h-1zm-140 2h1v1h-1zm137 0h1v1h-1zM77 241h1v1h-1zm95 0h1v1h-1z"/>
  <path fill="#ff4040" fill-opacity=".016" d="M45 27h1v1h-1zm159 0h1v1h-1zM27 45h1v1h-1zm195 0h1v1h-1zM21 53h1v1h-1zm207 0h1v1h-1zM8 77h1v1H8zm233 0h1v1h-1zM8 172h1v1H8zm233 0h1v1h-1zM21 196h1v1h-1zm207 0h1v1h-1zm-201 8h1v1h-1zm195 0h1v1h-1zM45 222h1v1h-1zm159 0h1v1h-1z"/>
  <path fill="#fffdfd" d="M142 65h1v1h-1zm4 7h1v1h-1zm2 4h1v1h-1zM86 96h1v1h-1zm61 2h1v1h-1zm-65 5h1v1h-1zm-4 7h1v1h-1zm54 14h1v1h-1zm31 6h1v1h-1zm-42 13h1v1h-1zm70 8h1v1h-1zm-43 5h1v1h-1zm47 2h1v1h-1zm4 7h1v1h-1zm-93 4h1v1h-1zm-12 11h1v1h-1z"/>
  <path fill="#e94043" fill-opacity=".357" d="M111 0h1v1h-1zm27 0h1v1h-1zM37 35h1v1h-1zm175 0h1v1h-1zM35 37h1v1h-1zm179 0h1v1h-1zM0 111h1v1H0zm249 0h1v1h-1zM0 138h1v1H0zm35 74h1v1h-1zm179 0h1v1h-1zm-177 2h1v1h-1zm175 0h1v1h-1zm-101 35h1v1h-1zm27 0h1v1h-1z"/>
  <path fill="#e74143" fill-opacity=".631" d="M114 0h1v1h-1zm21 0h1v1h-1zM9 77h1v1H9zm231 0h1v1h-1zM0 114h1v1H0zm249 0h1v1h-1zM0 135h1v1H0zm249 0h1v1h-1zM9 172h1v1H9zm231 0h1v1h-1zM77 240h1v1h-1zm95 0h1v1h-1zm-58 9h1v1h-1zm21 0h1v1h-1z"/>
  <path fill="#e84243" d="M151 81h1v1h-1zm-1 14h1v1h-1zm-4 8h1v1h-1zm-67 2h1v1h-1zm-4 7h1v1h-1zm-4 7h1v1h-1zm106 5h1v1h-1zm-17 8h1v1h-1zm-40 16h1v1h-1zm29 3h1v1h-1zm49 9h1v1h-1zm4 7h1v1h-1zM91 183h1v1h-1zm-4 1h1v1h-1z"/>
  <path fill="#e84344" d="M137 53h1v1h-1zm4 7h1v1h-1zm4 7h1v1h-1zM91 84h1v1h-1zm-4 7h1v1h-1zm-4 7h1v1h-1zm103 41h1v1h-1zm-62 2h1v1h-1zm66 5h1v1h-1zm4 7h1v1h-1zm-49 5h1v1h-1zm-36 9h1v1h-1zm-67 3h1v1h-1zm-1 2h1v1h-1z"/>
  <path fill="#e84445" d="M133 46h1v1h-1zm-30 17h1v1h-1zm-4 7h1v1h-1zm-4 7h1v1h-1zm44 38h1v1h-1zm43 17h1v1h-1zm-26 7h1v1h-1zM54 149h1v1h-1zm-4 7h1v1h-1zm63 4h1v1h-1zm-67 3h1v1h-1zm95 2h1v1h-1zm64 8h1v1h-1z"/>
  <path fill="#e64242" fill-opacity=".243" d="M98 2h1v1h-1zm53 0h1v1h-1zM90 4h1v1h-1zm69 0h1v1h-1zM2 98h1v1H2zm245 0h1v1h-1zM2 151h1v1H2zm245 0h1v1h-1zM90 245h1v1h-1zm69 0h1v1h-1zm-61 2h1v1h-1zm53 0h1v1h-1z"/>
  <path fill="#e64444" fill-opacity=".118" d="M102 1h1v1h-1zm45 0h1v1h-1zM55 20h1v1h-1zm139 0h1v1h-1zM1 102h1v1H1zm247 0h1v1h-1zM1 147h1v1H1zm247 0h1v1h-1zM55 229h1v1h-1zm139 0h1v1h-1zm-92 19h1v1h-1zm45 0h1v1h-1z"/>
  <path fill="#e74141" fill-opacity=".416" d="M99 2h1v1h-1zm51 0h1v1h-1zM50 24h1v1h-1zm149 0h1v1h-1zM2 99h1v1H2zm245 0h1v1h-1zM2 150h1v1H2zm245 0h1v1h-1zM50 225h1v1h-1zm149 0h1v1h-1zM99 247h1v1h-1zm51 0h1v1h-1z"/>
  <path fill="#e83e46" fill-opacity=".129" d="M93 3h1v1h-1zm63 0h1v1h-1zM14 65h1v1h-1zm221 0h1v1h-1zM3 93h1v1H3zm243 0h1v1h-1zM3 156h1v1H3zm243 0h1v1h-1zM14 184h1v1h-1zm221 0h1v1h-1zM93 246h1v1h-1zm63 0h1v1h-1z"/>
  <path fill="#e84040" fill-opacity=".173" d="M109 0h1v1h-1zm31 0h1v1h-1zM78 8h1v1h-1zm93 0h1v1h-1zM0 109h1v1H0zm249 0h1v1h-1zM0 140h1v1H0zm249 0h1v1h-1zM78 241h1v1h-1zm93 0h1v1h-1zm-62 8h1v1h-1zm31 0h1v1h-1z"/>
  <path fill="#e84141" fill-opacity=".749" d="M52 23h1v1h-1zm145 0h1v1h-1zM23 52h1v1h-1zm203 0h1v1h-1zM10 75h1v1h-1zm229 0h1v1h-1zM10 174h1v1h-1zm229 0h1v1h-1zM23 197h1v1h-1zm203 0h1v1h-1zM52 226h1v1h-1zm145 0h1v1h-1z"/>
  <path fill="#e84142" fill-opacity=".878" d="M118 0h1v1h-1zm13 0h1v1h-1zM69 13h1v1h-1zm111 0h1v1h-1zM0 118h1v1H0zm249 0h1v1h-1zM0 131h1v1H0zm249 0h1v1h-1zM69 236h1v1h-1zm111 0h1v1h-1zm-62 13h1v1h-1zm13 0h1v1h-1z"/>
  <path fill="#e84142" fill-opacity=".898" d="M78 9h1v1h-1zm93 0h1v1h-1zM60 18h1v1h-1zm129 0h1v1h-1zM9 78h1v1H9zm231 0h1v1h-1zM9 171h1v1H9zm231 0h1v1h-1zM60 231h1v1h-1zm129 0h1v1h-1zm-111 9h1v1h-1zm93 0h1v1h-1z"/>
  <path fill="#e84142" fill-opacity=".969" d="M121 0h1v1h-1zm7 0h1v1h-1zM50 25h1v1h-1zm149 0h1v1h-1zM25 50h1v1h-1zm199 0h1v1h-1zM0 121h1v1H0zm0 7h1v1H0zm25 71h1v1h-1zm199 0h1v1h-1zM50 224h1v1h-1zm149 0h1v1h-1z"/>
  <path fill="#e84142" fill-opacity=".988" d="M104 2h1v1h-1zm41 0h1v1h-1zM16 64h1v1h-1zm217 0h1v1h-1zM11 74h1v1h-1zm227 0h1v1h-1zM11 175h1v1h-1zm227 0h1v1h-1zM16 185h1v1h-1zm217 0h1v1h-1zm-129 62h1v1h-1zm41 0h1v1h-1z"/>
  <path fill="#e84242" fill-opacity=".824" d="M108 1h1v1h-1zm33 0h1v1h-1zM11 73h1v1h-1zm227 0h1v1h-1zM1 108h1v1H1zm247 0h1v1h-1zM1 141h1v1H1zm247 0h1v1h-1zM11 176h1v1h-1zm227 0h1v1h-1zm-130 72h1v1h-1zm33 0h1v1h-1z"/>
  <path fill="#e94343" fill-opacity=".224" d="M103 1h1v1h-1zm43 0h1v1h-1zM26 47h1v1h-1zm197 0h1v1h-1zM1 103h1v1H1zm247 0h1v1h-1zM1 146h1v1H1zm247 0h1v1h-1zM26 202h1v1h-1zm197 0h1v1h-1zm-120 46h1v1h-1zm43 0h1v1h-1z"/>
  <path fill="#e94a4b" d="M125 37h1v1h-1zm9 11h1v1h-1zM98 72h1v1h-1zm-4 7h1v1h-1zm80 43h1v1h-1zm5 5h1v1h-1zm4 7h1v1h-1zm-58 5h1v1h-1zm-76 19h1v1h-1zm-4 7h1v1h-1zm65 0h1v1h-1zm91 18h1v1h-1z"/>
  <path fill="#ea4040" fill-opacity=".094" d="M52 22h1v1h-1zm145 0h1v1h-1zM29 43h1v1h-1zm191 0h1v1h-1zM18 58h1v1h-1zm213 0h1v1h-1zM18 191h1v1h-1zm213 0h1v1h-1zM29 206h1v1h-1zm191 0h1v1h-1zM52 227h1v1h-1zm145 0h1v1h-1z"/>
  <path fill="#eb3d3d" fill-opacity=".098" d="M108 0h1v1h-1zm33 0h1v1h-1zM22 52h1v1h-1zm205 0h1v1h-1zM0 108h1v1H0zm249 0h1v1h-1zM0 141h1v1H0zm249 0h1v1h-1zM22 197h1v1h-1zm205 0h1v1h-1zm-119 52h1v1h-1zm33 0h1v1h-1z"/>
  <path fill="#fffcfc" d="M115 45h1v1h-1zm28 60h1v1h-1zm-69 12h1v1h-1zm-4 7h1v1h-1zm82 25h1v1h-1zm-35 1h1v1h-1zm-75 24h1v1h-1zm57 3h1v1h-1zm-56 3h1v1h-1zm96 0h1v1h-1zm-93 2h1v1h-1zm96 0h1v1h-1z"/>
  <path fill="#e84242" fill-opacity=".839" d="M83 7h1v1h-1zm83 0h1v1h-1zM65 15h1v1h-1zm119 0h1v1h-1zM7 83h1v1H7zm235 0h1v1h-1zM7 166h1v1H7zm235 0h1v1h-1zM83 242h1v1h-1zm83 0h1v1h-1z"/>
  <path fill="#e94748" d="M147 101h1v1h-1zm-69 6h1v1h-1zm-4 7h1v1h-1zm58 13h1v1h-1zm16 26h1v1h-1zm51 9h1v1h-1zm4 7h1v1h-1zM48 184h1v1h-1zm38 0h1v1h-1zm58 0h1v1h-1z"/>
  <path fill="#ea5152" d="M143 64h1v1h-1zM85 95h1v1h-1zm107 55h1v1h-1zm-85 20h1v1h-1zm-57 14h1v1h-1zm2 0h31v1H52zm32 0h1v1h-1zm62 0h1v1h-1zm2 0h47v1h-47zm48 0h1v1h-1z"/>
  <path fill="#fef9f9" d="M133 49h1v1h-1zm4 7h1v1h-1zM95 80h1v1h-1zm-4 7h1v1h-1zm91 48h1v1h-1zm4 7h1v1h-1zm-41 19h1v1h-1zm-36 3h1v1h-1zm-63 2h1v1h-1zm158 11h1v1h-1z"/>
  <path fill="#e84242" fill-opacity=".349" d="M104 1h1v1h-1zm41 0h1v1h-1zM27 46h1v1h-1zM1 104h1v1H1zm247 0h1v1h-1zM1 145h1v1H1zm247 0h1v1h-1zM104 248h1v1h-1zm41 0h1v1h-1z"/>
  <path fill="#e9494a" d="M127 38h1v1h-1zm11 17h1v1h-1zm4 7h1v1h-1zm9 20h1v1h-1zm-61 4h1v1h-1zm46 34h1v1h-1zm51 21h1v1h-1zm-43 19h1v1h-1zm-5 22h1v1h-1z"/>
  <path fill="#ea5455" d="M131 43h1v1h-1zM97 74h1v1h-1zm53 20h1v1h-1zm30 35h1v1h-1zM48 160h1v1h-1zm63 3h1v1h-1zm-6 10h1v1h-1zm-10 8h1v1h-1zm-50 2h1v1h-1z"/>
  <path fill="#fef7f7" d="M123 38h1v1h-1zm6 4h1v1h-1zm20 51h1v1h-1zm-3 7h1v1h-1zm-63 1h1v1h-1zm-4 7h1v1h-1zm70 46h1v1h-1zm49 9h1v1h-1zM89 182h1v1h-1z"/>
  <path fill="#e13c3c" fill-opacity=".067" d="M80 7h1v1h-1zm89 0h1v1h-1zM7 80h1v1H7zm235 0h1v1h-1zM7 169h1v1H7zm235 0h1v1h-1zM80 242h1v1h-1zm89 0h1v1h-1z"/>
  <path fill="#e33939" fill-opacity=".035" d="M61 16h1v1h-1zm127 0h1v1h-1zM16 61h1v1h-1zm217 0h1v1h-1zM16 188h1v1h-1zm217 0h1v1h-1zM61 233h1v1h-1zm127 0h1v1h-1z"/>
  <path fill="#e63e44" fill-opacity=".161" d="M69 12h1v1h-1zm111 0h1v1h-1zM13 67h1v1h-1zm223 0h1v1h-1zM13 182h1v1h-1zm223 0h1v1h-1zM69 237h1v1h-1zm111 0h1v1h-1z"/>
  <path fill="#e64040" fill-opacity=".078" d="M89 4h1v1h-1zm71 0h1v1h-1zM4 89h1v1H4zm241 0h1v1h-1zM4 160h1v1H4zm241 0h1v1h-1zM89 245h1v1h-1zm71 0h1v1h-1z"/>
  <path fill="#e73d3d" fill-opacity=".082" d="M63 15h1v1h-1zm123 0h1v1h-1zM15 63h1v1h-1zm219 0h1v1h-1zM15 186h1v1h-1zm219 0h1v1h-1zM63 234h1v1h-1zm123 0h1v1h-1z"/>
  <path fill="#e74042" fill-opacity=".545" d="M113 0h1v1h-1zm23 0h1v1h-1zM0 113h1v1H0zm249 0h1v1h-1zM0 136h1v1H0zm249 0h1v1h-1zM113 249h1v1h-1zm23 0h1v1h-1z"/>
  <path fill="#e74142" fill-opacity=".588" d="M100 2h1v1h-1zm49 0h1v1h-1zM2 100h1v1H2zm245 0h1v1h-1zM2 149h1v1H2zm245 0h1v1h-1zm-147 98h1v1h-1zm49 0h1v1h-1z"/>
  <path fill="#e74343" fill-opacity=".255" d="M40 32h1v1h-1zm169 0h1v1h-1zM32 40h1v1h-1zm185 0h1v1h-1zM32 209h1v1h-1zm185 0h1v1h-1zm-177 8h1v1h-1zm169 0h1v1h-1z"/>
  <path fill="#e84042" fill-opacity=".482" d="M45 28h1v1h-1zm159 0h1v1h-1zM28 45h1v1h-1zm193 0h1v1h-1zM28 204h1v1h-1zm193 0h1v1h-1zM45 221h1v1h-1zm159 0h1v1h-1z"/>
  <path fill="#e84042" fill-opacity=".561" d="M56 20h1v1h-1zm137 0h1v1h-1zM20 56h1v1h-1zm209 0h1v1h-1zM20 193h1v1h-1zm209 0h1v1h-1zM56 229h1v1h-1zm137 0h1v1h-1z"/>
  <path fill="#e84042" fill-opacity=".576" d="M88 5h1v1h-1zm73 0h1v1h-1zM5 88h1v1H5zm239 0h1v1h-1zM5 161h1v1H5zm239 0h1v1h-1zM88 244h1v1h-1zm73 0h1v1h-1z"/>
  <path fill="#e84042" fill-opacity=".729" d="M107 1h1v1h-1zm35 0h1v1h-1zM1 107h1v1H1zm247 0h1v1h-1zM1 142h1v1H1zm247 0h1v1h-1zM107 248h1v1h-1zm35 0h1v1h-1z"/>
  <path fill="#e84141" fill-opacity=".431" d="M64 15h1v1h-1zm121 0h1v1h-1zM15 64h1v1h-1zm219 0h1v1h-1zM15 185h1v1h-1zm219 0h1v1h-1zM64 234h1v1h-1zm121 0h1v1h-1z"/>
  <path fill="#e84142" fill-opacity=".604" d="M44 29h1v1h-1zm161 0h1v1h-1zM29 44h1v1h-1zm191 0h1v1h-1zM29 205h1v1h-1zm191 0h1v1h-1zM44 220h1v1h-1zm161 0h1v1h-1z"/>
  <path fill="#e84142" fill-opacity=".62" d="M106 1h1v1h-1zm37 0h1v1h-1zM1 106h1v1H1zm247 0h1v1h-1zM1 143h1v1H1zm247 0h1v1h-1zM106 248h1v1h-1zm37 0h1v1h-1z"/>
  <path fill="#e84142" fill-opacity=".694" d="M92 4h1v1h-1zm65 0h1v1h-1zM4 92h1v1H4zm241 0h1v1h-1zM4 157h1v1H4zm241 0h1v1h-1zM92 245h1v1h-1zm65 0h1v1h-1z"/>
  <path fill="#e84142" fill-opacity=".769" d="M63 16h1v1h-1zm123 0h1v1h-1zM19 58h1v1h-1zm211 0h1v1h-1zM19 191h1v1h-1zm211 0h1v1h-1zM63 233h1v1h-1zm123 0h1v1h-1z"/>
  <path fill="#e84142" fill-opacity=".773" d="M58 19h1v1h-1zm133 0h1v1h-1zM8 80h1v1H8zm233 0h1v1h-1zM8 169h1v1H8zm233 0h1v1h-1zM58 230h1v1h-1zm133 0h1v1h-1z"/>
  <path fill="#e84142" fill-opacity=".875" d="M93 4h1v1h-1zm63 0h1v1h-1zM13 69h1v1h-1zm223 0h1v1h-1zM13 180h1v1h-1zm223 0h1v1h-1zM93 245h1v1h-1zm63 0h1v1h-1z"/>
  <path fill="#e84142" fill-opacity=".918" d="M37 36h1v1h-1zm175 0h1v1h-1zM36 37h1v1h-1zm177 0h1v1h-1zM36 212h1v1h-1zm177 0h1v1h-1zm-176 1h1v1h-1zm175 0h1v1h-1z"/>
  <path fill="#e84142" fill-opacity=".945" d="M103 2h1v1h-1zm43 0h1v1h-1zM2 103h1v1H2zm245 0h1v1h-1zM2 146h1v1H2zm245 0h1v1h-1zM103 247h1v1h-1zm43 0h1v1h-1z"/>
  <path fill="#e84142" fill-opacity=".949" d="M90 5h1v1h-1zm69 0h1v1h-1zM5 90h1v1H5zm239 0h1v1h-1zM5 159h1v1H5zm239 0h1v1h-1zM90 244h1v1h-1zm69 0h1v1h-1z"/>
  <path fill="#e84142" fill-opacity=".953" d="M98 3h1v1h-1zm53 0h1v1h-1zM3 98h1v1H3zm243 0h1v1h-1zM3 151h1v1H3zm243 0h1v1h-1zM98 246h1v1h-1zm53 0h1v1h-1z"/>
  <path fill="#e84142" fill-opacity=".961" d="M76 10h1v1h-1zm97 0h1v1h-1zM10 76h1v1h-1zm229 0h1v1h-1zM10 173h1v1h-1zm229 0h1v1h-1zM76 239h1v1h-1zm97 0h1v1h-1z"/>
  <path fill="#e84142" fill-opacity=".973" d="M94 4h1v1h-1zm61 0h1v1h-1zM4 94h1v1H4zm241 0h1v1h-1zM4 155h1v1H4zm241 0h1v1h-1zM94 245h1v1h-1zm61 0h1v1h-1z"/>
  <path fill="#e84143" fill-opacity=".478" d="M72 11h1v1h-1zm105 0h1v1h-1zM11 72h1v1h-1zm227 0h1v1h-1zM11 177h1v1h-1zm227 0h1v1h-1zM72 238h1v1h-1zm105 0h1v1h-1z"/>
  <path fill="#e84143" fill-opacity=".525" d="M70 12h1v1h-1zm109 0h1v1h-1zM12 70h1v1h-1zm225 0h1v1h-1zM12 179h1v1h-1zm225 0h1v1h-1zM70 237h1v1h-1zm109 0h1v1h-1z"/>
  <path fill="#e84143" fill-opacity=".6" d="M49 25h1v1h-1zm151 0h1v1h-1zM25 49h1v1h-1zm199 0h1v1h-1zM25 200h1v1h-1zm199 0h1v1h-1zM49 224h1v1h-1zm151 0h1v1h-1z"/>
  <path fill="#e84242" fill-opacity=".302" d="M33 39h1v1h-1zm183 0h1v1h-1zM19 57h1v1h-1zm211 0h1v1h-1zM19 192h1v1h-1zm211 0h1v1h-1zM33 210h1v1h-1zm183 0h1v1h-1z"/>
  <path fill="#e84242" fill-opacity=".855" d="M97 3h1v1h-1zm55 0h1v1h-1zM3 97h1v1H3zm243 0h1v1h-1zM3 152h1v1H3zm243 0h1v1h-1zM97 246h1v1h-1zm55 0h1v1h-1z"/>
  <path fill="#e94042" fill-opacity=".714" d="M115 0h1v1h-1zm19 0h1v1h-1zM0 115h1v1H0zm249 0h1v1h-1zM0 134h1v1H0zm249 0h1v1h-1zM115 249h1v1h-1zm19 0h1v1h-1z"/>
  <path fill="#e94141" fill-opacity=".322" d="M87 5h1v1h-1zm75 0h1v1h-1zM5 87h1v1H5zm239 0h1v1h-1zM5 162h1v1H5zm239 0h1v1h-1zM87 244h1v1h-1zm75 0h1v1h-1z"/>
  <path fill="#e94141" fill-opacity=".49" d="M105 1h1v1h-1zm39 0h1v1h-1zM1 105h1v1H1zm247 0h1v1h-1zM1 144h1v1H1zm247 0h1v1h-1zM105 248h1v1h-1zm39 0h1v1h-1z"/>
  <path fill="#e94141" fill-opacity=".537" d="M53 22h1v1h-1zm143 0h1v1h-1zM22 53h1v1h-1zm205 0h1v1h-1zM22 196h1v1h-1zm205 0h1v1h-1zM53 227h1v1h-1zm143 0h1v1h-1z"/>
  <path fill="#e94141" fill-opacity=".58" d="M82 7h1v1h-1zm85 0h1v1h-1zM7 82h1v1H7zm235 0h1v1h-1zM7 167h1v1H7zm235 0h1v1h-1zM82 242h1v1h-1zm85 0h1v1h-1z"/>
  <path fill="#e94142" fill-opacity=".804" d="M89 5h1v1h-1zm71 0h1v1h-1zM5 89h1v1H5zm239 0h1v1h-1zM5 160h1v1H5zm239 0h1v1h-1zM89 244h1v1h-1zm71 0h1v1h-1z"/>
  <path fill="#e94142" fill-opacity=".847" d="M86 6h1v1h-1zm77 0h1v1h-1zM6 86h1v1H6zm237 0h1v1h-1zM6 163h1v1H6zm237 0h1v1h-1zM86 243h1v1h-1zm77 0h1v1h-1z"/>
  <path fill="#e94143" fill-opacity=".494" d="M59 18h1v1h-1zm131 0h1v1h-1zM18 59h1v1h-1zm213 0h1v1h-1zM18 190h1v1h-1zm213 0h1v1h-1zM59 231h1v1h-1zm131 0h1v1h-1z"/>
  <path fill="#e94242" fill-opacity=".533" d="M68 13h1v1h-1zm113 0h1v1h-1zM13 68h1v1h-1zm223 0h1v1h-1zM13 181h1v1h-1zm223 0h1v1h-1zM68 236h1v1h-1zm113 0h1v1h-1z"/>
  <path fill="#e94343" fill-opacity=".09" d="M58 18h1v1h-1zm133 0h1v1h-1zM43 29h1v1h-1zm163 0h1v1h-1zM43 220h1v1h-1zm163 0h1v1h-1zM58 231h1v1h-1zm133 0h1v1h-1z"/>
  <path fill="#e94849" d="M146 69h1v1h-1zM86 93h1v1h-1zm-4 7h1v1h-1zm86 22h1v1h-1zm-9 12h1v1h-1zm-38 12h1v1h-1zm74 9h1v1h-1zM43 182h1v1h-1z"/>
  <path fill="#ea4040" fill-opacity=".047" d="M44 28h1v1h-1zm161 0h1v1h-1zM28 44h1v1h-1zm193 0h1v1h-1zM28 205h1v1h-1zm193 0h1v1h-1zM44 221h1v1h-1zm161 0h1v1h-1z"/>
  <path fill="#ec4242" fill-opacity=".106" d="M83 6h1v1h-1zm83 0h1v1h-1zm-93 4h1v1h-1zm103 0h1v1h-1zM73 239h1v1h-1zm103 0h1v1h-1zm-93 4h1v1h-1zm83 0h1v1h-1z"/>
  <path fill="#ee7071" d="M123 37h1v1h-1zm-5 2h1v1h-1zm-1 1h1v1h-1zm20 14h1v1h-1zM91 85h1v1h-1zm95 55h1v1h-1zm-77 26h1v1h-1zm93 16h1v1h-1z"/>
  <path fill="#fbdddd" d="M121 38h1v1h-1zm-7 8h1v1h-1zm36 37h1v1h-1zm-85 49h1v1h-1zm37 43h1v1h-1zm-57 7h1v1h-1zm96 0h1v1h-1zm55 1h1v1h-1z"/>
  <path fill="#fdefef" d="M124 38h1v1h-1zm20 30h1v1h-1zM84 99h1v1h-1zm50 22h1v1h-1zm27 12h1v1h-1zm-42 14h1v1h-1zm74 7h1v1h-1zm-95 24h1v1h-1z"/>
  <path fill="#fef6f6" d="M75 115h1v1h-1zm-4 7h1v1h-1zm102 1h1v1h-1zm-42 3h1v1h-1zm33 2h1v1h-1zm-48 24h1v1h-1zm86 18h1v1h-1zm-2 12h1v1h-1z"/>
  <path fill="#e84043" fill-opacity=".345" d="M46 27h1v1h-1zm157 0h1v1h-1zm19 19h1v1h-1zM27 203h1v1h-1zm195 0h1v1h-1zM46 222h1v1h-1zm157 0h1v1h-1z"/>
  <path fill="#e94647" d="M130 41h1v1h-1zm20 36h1v1h-1zm1 13h1v1h-1zm-81 31h1v1h-1zm93 6h1v1h-1zm-97 1h1v1h-1zm51 25h1v1h-1z"/>
  <path fill="#e94b4c" d="M102 65h1v1h-1zm38 48h1v1h-1zm15 28h1v1h-1zM53 151h1v1h-1zm87 16h1v1h-1zm-98 14h1v1h-1zm96 0h1v1h-1z"/>
  <path fill="#e94d4e" d="M114 44h1v1h-1zm30 62h1v1h-1zm-79 24h1v1h-1zm64 2h1v1h-1zm22 16h1v1h-1zm53 23h1v1h-1zm-107 9h1v1h-1z"/>
  <path fill="#ea5253" d="M121 37h1v1h-1zm8 3h1v1h-1zm10 17h1v1h-1zM89 88h1v1h-1zm69 48h1v1h-1zm30 7h1v1h-1zm-66 1h1v1h-1z"/>
  <path fill="#ee7273" d="M133 47h1v1h-1zM95 78h1v1h-1zm55 15h1v1h-1zm25 30h1v1h-1zm7 10h1v1h-1zm-58 7h1v1h-1zm76 43h1v1h-1z"/>
  <path fill="#fef4f4" d="M112 50h1v1h-1zm-4 7h1v1h-1zm61 66h1v1h-1zm-42 10h1v1h-1zm-64 3h1v1h-1zm-4 7h1v1h-1zm94 4h1v1h-1z"/>
  <path fill="#fef8f8" d="M141 63h1v1h-1zM87 94h1v1h-1zm48 25h1v1h-1zm25 16h1v1h-1zm-40 10h1v1h-1zm70 4h1v1h-1zm-98 32h1v1h-1z"/>
  <path fill="#fffbfb" d="M111 52h1v1h-1zm-45 79h1v1h-1zm62 0h1v1h-1zm-66 7h1v1h-1zm51 19h1v1h-1zm91 19h1v1h-1zm-108 3h1v1h-1z"/>
  <path fill="#e74042" fill-opacity=".467" d="M4 91h1v1H4zm241 0h1v1h-1zM4 158h1v1H4zm241 0h1v1h-1zM91 245h1v1h-1zm67 0h1v1h-1z"/>
  <path fill="#e83e40" d="M102 64h1v1h-1zm-4 7h1v1h-1zm64 57h1v1h-1zm-44 24h1v1h-1zm-4 7h1v1h-1zm26 7h1v1h-1z"/>
  <path fill="#e84142" fill-opacity=".741" d="M101 2h1v1h-1zm47 0h1v1h-1zm99 99h1v1h-1zm0 47h1v1h-1zm-146 99h1v1h-1zm47 0h1v1h-1z"/>
  <path fill="#e84143" fill-opacity=".616" d="M85 6h1v1h-1zm79 0h1v1h-1zM6 85h1v1H6zm0 79h1v1H6zm79 79h1v1h-1zm79 0h1v1h-1z"/>
  <path fill="#e84242" fill-opacity=".259" d="M110 0h1v1h-1zm29 0h1v1h-1zm110 110h1v1h-1zm0 29h1v1h-1zM110 249h1v1h-1zm29 0h1v1h-1z"/>
  <path fill="#e84242" fill-opacity=".471" d="M91 4h1v1h-1zm67 0h1v1h-1zM79 8h1v1h-1zm91 0h1v1h-1zM79 241h1v1h-1zm91 0h1v1h-1z"/>
  <path fill="#e94043" fill-opacity=".404" d="M74 10h1v1h-1zm101 0h1v1h-1zM10 74h1v1h-1zm229 0h1v1h-1zM10 175h1v1h-1zm229 0h1v1h-1z"/>
  <path fill="#e94546" d="M115 42h1v1h-1zm-4 7h1v1h-1zm32 59h1v1h-1zm-81 27h1v1h-1zm90 11h1v1h-1zm53 33h1v1h-1z"/>
  <path fill="#e94c4d" d="M106 58h1v1h-1zm-45 79h1v1h-1zm-4 7h1v1h-1zm57 14h1v1h-1zm-14 20h1v1h-1zm97 6h1v1h-1z"/>
  <path fill="#ea4e4f" d="M151 89h1v1h-1zm-82 34h1v1h-1zm24 59h1v1h-1zm-44 2h1v1h-1zm36 0h1v1h-1zm60 0h1v1h-1z"/>
  <path fill="#ea5051" d="M151 83h1v1h-1zm-3 16h1v1h-1zm-67 3h1v1h-1zm-4 7h1v1h-1zm70 46h1v1h-1zm53 9h1v1h-1z"/>
  <path fill="#ea5354" d="M135 50h1v1h-1zM93 81h1v1h-1zm91 55h1v1h-1zm-41 26h1v1h-1zm-99 5h1v1h-1zm46 16h1v1h-1z"/>
  <path fill="#ec6061" d="M136 52h1v1h-1zM92 83h1v1h-1zm65 55h1v1h-1zm28 0h1v1h-1zm-62 4h1v1h-1zm-80 27h1v1h-1z"/>
  <path fill="#ed6d6e" d="M83 99h1v1h-1zm86 23h1v1h-1zm-9 11h1v1h-1zM42 171h1v1h-1zm163 4h1v1h-1zm-1 5h1v1h-1z"/>
  <path fill="#f7bdbd" d="M146 101h1v1h-1zm-71 13h1v1h-1zm74 39h1v1h-1zm53 16h1v1h-1zm2 4h1v1h-1zm0 6h1v1h-1z"/>
  <path fill="#fad8d8" d="M119 39h1v1h-1zm11 4h1v1h-1zM98 74h1v1h-1zm81 55h1v1h-1zM49 160h1v1h-1zm61 3h1v1h-1z"/>
  <path fill="#fce4e4" d="M139 59h1v1h-1zm11 29h1v1h-1zm-61 2h1v1h-1zm99 55h1v1h-1zm-81 23h1v1h-1zm97 6h1v1h-1z"/>
  <path fill="#fdf2f2" d="M132 47h1v1h-1zm-32 24h1v1h-1zm38 43h1v1h-1zm43 19h1v1h-1zm-24 7h1v1h-1zM51 157h1v1h-1z"/>
  <path fill="#e84142" fill-opacity=".835" d="M15 65h1v1h-1zm219 0h1v1h-1zM15 184h1v1h-1zm50 50h1v1h-1zm119 0h1v1h-1z"/>
  <path fill="#e84546" d="M107 56h1v1h-1zm21 78h1v1h-1zm-70 8h1v1h-1zm48 30h1v1h-1zm92 12h1v1h-1z"/>
  <path fill="#eb5657" d="M105 60h1v1h-1zm46 24h1v1h-1zm-10 27h1v1h-1zm-85 35h1v1h-1zm81 27h1v1h-1z"/>
  <path fill="#eb595a" d="M149 75h1v1h-1zm2 12h1v1h-1zm-83 38h1v1h-1zm62 5h1v1h-1zm20 20h1v1h-1z"/>
  <path fill="#eb5c5d" d="M116 41h1v1h-1zm32 32h1v1h-1zm-68 31h1v1h-1zm81 27h1v1h-1zM41 173h1v1h-1z"/>
  <path fill="#ec6162" d="M132 45h1v1h-1zM96 76h1v1h-1zm42 40h1v1h-1zm43 15h1v1h-1zM47 162h1v1h-1z"/>
  <path fill="#ed6a6b" d="M146 102h1v1h-1zm-71 11h1v1h-1zm92 10h1v1h-1zm-18 29h1v1h-1zm-46 23h1v1h-1z"/>
  <path fill="#f29697" d="M143 65h1v1h-1zM85 96h1v1h-1zm87 26h1v1h-1zm20 29h1v1h-1zm-85 18h1v1h-1z"/>
  <path fill="#f6b1b1" d="M129 41h1v1h-1zM96 77h1v1h-1zm85 55h1v1h-1zm-24 7h1v1h-1zM47 163h1v1h-1z"/>
  <path fill="#f7c0c0" d="M145 69h1v1h-1zm-62 31h1v1h-1zm37 46h1v1h-1zm74 9h1v1h-1zm-94 22h1v1h-1z"/>
  <path fill="#fad9d9" d="M150 89h1v1h-1zm-25 48h1v1h-1zm-72 16h1v1h-1zm-4 30h1v1h-1zm96 0h1v1h-1z"/>
  <path fill="#fbdede" d="M129 130h1v1h-1zm22 20h1v1h-1zM50 183h1v1h-1zm34 0h1v1h-1zm62 0h1v1h-1z"/>
  <path fill="#fbe1e1" d="M77 111h1v1h-1zm88 15h1v1h-1zm-3 5h1v1h-1zm-44 18h1v1h-1zm82 17h1v1h-1z"/>
  <path fill="#fceaea" d="M109 55h1v1h-1zm41 30h1v1h-1zm0 2h1v1h-1zm-9 22h1v1h-1zm63 69h1v1h-1z"/>
  <path fill="#fdf0f0" d="M140 61h1v1h-1zM88 92h1v1h-1zm101 55h1v1h-1zm-43 12h1v1h-1zM43 171h1v1h-1z"/>
  <path fill="#fdf1f1" d="M136 54h1v1h-1zM92 85h1v1h-1zm31 55h1v1h-1zm62 0h1v1h-1zm-77 26h1v1h-1z"/>
  <path fill="#fef3f3" d="M122 38h1v1h-1zm-18 26h1v1h-1zm72 61h1v1h-1zM55 150h1v1h-1zm57 9h1v1h-1z"/>
  <path fill="#fef5f5" d="M116 43h1v1h-1zm26 64h1v1h-1zm-75 22h1v1h-1zm38 42h1v1h-1zm99 4h1v1h-1z"/>
  <path fill="#e53e46" fill-opacity=".114" d="M5 86h1v1H5zm239 0h1v1h-1zM5 163h1v1H5zm239 0h1v1h-1z"/>
  <path fill="#e64040" fill-opacity=".157" d="M67 13h1v1h-1zm115 0h1v1h-1zM67 236h1v1h-1zm115 0h1v1h-1z"/>
  <path fill="#e64040" fill-opacity=".204" d="M31 41h1v1h-1zm187 0h1v1h-1zM31 208h1v1h-1zm187 0h1v1h-1z"/>
  <path fill="#e64141" fill-opacity=".2" d="M41 31h1v1h-1zm167 0h1v1h-1zM41 218h1v1h-1zm167 0h1v1h-1z"/>
  <path fill="#e64242" fill-opacity=".122" d="M20 55h1v1h-1zm209 0h1v1h-1zM20 194h1v1h-1zm209 0h1v1h-1z"/>
  <path fill="#e74040" fill-opacity=".125" d="M65 14h1v1h-1zm119 0h1v1h-1zM65 235h1v1h-1zm119 0h1v1h-1z"/>
  <path fill="#e74043" fill-opacity=".329" d="M62 16h1v1h-1zm125 0h1v1h-1zM62 233h1v1h-1zm125 0h1v1h-1z"/>
  <path fill="#e74043" fill-opacity=".42" d="M24 50h1v1h-1zm201 0h1v1h-1zM24 199h1v1h-1zm201 0h1v1h-1z"/>
  <path fill="#e74141" fill-opacity=".247" d="M4 90h1v1H4zm241 0h1v1h-1zM4 159h1v1H4zm241 0h1v1h-1z"/>
  <path fill="#e74141" fill-opacity=".459" d="M112 0h1v1h-1zm25 0h1v1h-1zM0 112h1v1H0zm0 25h1v1H0z"/>
  <path fill="#e74141" fill-opacity=".765" d="M16 63h1v1h-1zm217 0h1v1h-1zM16 186h1v1h-1zm217 0h1v1h-1z"/>
  <path fill="#e74242" fill-opacity=".212" d="M17 60h1v1h-1zm215 0h1v1h-1zM17 189h1v1h-1zm215 0h1v1h-1z"/>
  <path fill="#e74343" fill-opacity=".165" d="M12 69h1v1h-1zm225 0h1v1h-1zM12 180h1v1h-1zm225 0h1v1h-1z"/>
  <path fill="#e74343" fill-opacity=".208" d="M60 17h1v1h-1zm129 0h1v1h-1zM60 232h1v1h-1zm129 0h1v1h-1z"/>
  <path fill="#e83e44" fill-opacity=".176" d="M8 78h1v1H8zm233 0h1v1h-1zM8 171h1v1H8zm233 0h1v1h-1z"/>
  <path fill="#e84040" fill-opacity=".22" d="M47 26h1v1h-1zm155 0h1v1h-1zM47 223h1v1h-1zm155 0h1v1h-1z"/>
  <path fill="#e84141" fill-opacity=".306" d="M54 21h1v1h-1zm141 0h1v1h-1zM54 228h1v1h-1zm141 0h1v1h-1z"/>
  <path fill="#e84141" fill-opacity=".31" d="M21 54h1v1h-1zm207 0h1v1h-1zM21 195h1v1h-1zm207 0h1v1h-1z"/>
  <path fill="#e84141" fill-opacity=".475" d="M8 79h1v1H8zm233 0h1v1h-1zM8 170h1v1H8zm233 0h1v1h-1z"/>
  <path fill="#e84142" fill-opacity=".651" d="M17 61h1v1h-1zm215 0h1v1h-1zM17 188h1v1h-1zm215 0h1v1h-1z"/>
  <path fill="#e84142" fill-opacity=".753" d="M75 10h1v1h-1zm99 0h1v1h-1zM75 239h1v1h-1zm99 0h1v1h-1z"/>
  <path fill="#e84142" fill-opacity=".827" d="M73 11h1v1h-1zm103 0h1v1h-1zM73 238h1v1h-1zm103 0h1v1h-1z"/>
  <path fill="#e84142" fill-opacity=".863" d="M12 71h1v1h-1zm225 0h1v1h-1zM12 178h1v1h-1zm225 0h1v1h-1z"/>
  <path fill="#e84142" fill-opacity=".965" d="M249 121h1v1h-1zm0 7h1v1h-1zM121 249h1v1h-1zm7 0h1v1h-1z"/>
  <path fill="#e84143" fill-opacity=".796" d="M21 55h1v1h-1zm207 0h1v1h-1zM21 194h1v1h-1zm207 0h1v1h-1z"/>
  <path fill="#e84242" fill-opacity=".655" d="M61 17h1v1h-1zm127 0h1v1h-1zM61 232h1v1h-1zm127 0h1v1h-1z"/>
  <path fill="#e94042" fill-opacity=".761" d="M48 26h1v1h-1zm153 0h1v1h-1zM48 223h1v1h-1zm153 0h1v1h-1z"/>
  <path fill="#e94043" fill-opacity=".361" d="M36 36h1v1h-1zm177 0h1v1h-1zM36 213h1v1h-1zm177 0h1v1h-1z"/>
  <path fill="#e94141" fill-opacity=".231" d="M51 23h1v1h-1zm147 0h1v1h-1zM51 226h1v1h-1zm147 0h1v1h-1z"/>
  <path fill="#e94141" fill-opacity=".278" d="M81 7h1v1h-1zm87 0h1v1h-1zM81 242h1v1h-1zm87 0h1v1h-1z"/>
  <path fill="#e94142" fill-opacity=".757" d="M26 48h1v1h-1zm197 0h1v1h-1zM26 201h1v1h-1zm197 0h1v1h-1z"/>
  <path fill="#e94142" fill-opacity=".8" d="M55 21h1v1h-1zm139 0h1v1h-1zM55 228h1v1h-1zm139 0h1v1h-1z"/>
  <path fill="#e94142" fill-opacity=".89" d="M24 51h1v1h-1zm201 0h1v1h-1zM24 198h1v1h-1zm201 0h1v1h-1z"/>
  <path fill="#e94242" fill-opacity=".455" d="M249 112h1v1h-1zm0 25h1v1h-1zM112 249h1v1h-1zm25 0h1v1h-1z"/>
  <path fill="#ea4043" fill-opacity=".282" d="M7 81h1v1H7zm235 0h1v1h-1zM7 168h1v1H7zm235 0h1v1h-1z"/>
  <path fill="#ea4044" fill-opacity=".235" d="M23 51h1v1h-1zm203 0h1v1h-1zM23 198h1v1h-1zm203 0h1v1h-1z"/>
  <path fill="#ea5252" d="M51 184h1v1h-1zm32 0h1v1h-1zm64 0h1v1h-1zm48 0h1v1h-1z"/>
  <path fill="#ea5556" d="M101 67h1v1h-1zm25 70h1v1h-1zm-74 16h1v1h-1zm89 30h1v1h-1z"/>
  <path fill="#eb5859" d="M119 38h1v1h-1zm-6 8h1v1h-1zm-49 86h1v1h-1zm51 24h1v1h-1z"/>
  <path fill="#eb5b5c" d="M150 78h1v1h-1zm1 8h1v1h-1zm-75 25h1v1h-1zm125 55h1v1h-1z"/>
  <path fill="#ec6566" d="M108 55h1v1h-1zm34 54h1v1h-1zm-83 32h1v1h-1zm94 4h1v1h-1z"/>
  <path fill="#e44" fill-opacity=".059" d="M75 9h1v1h-1zm99 0h1v1h-1zM75 240h1v1h-1zm99 0h1v1h-1z"/>
  <path fill="#ee6f70" d="M141 61h1v1h-1zM87 92h1v1h-1zm103 55h1v1h-1zm-45 12h1v1h-1z"/>
  <path fill="#ee7374" d="M99 71h1v1h-1zm40 43h1v1h-1zm-89 43h1v1h-1zm155 20h1v1h-1z"/>
  <path fill="#ef4040" fill-opacity=".063" d="M9 75h1v1H9zm231 0h1v1h-1zM9 174h1v1H9zm231 0h1v1h-1z"/>
  <path fill="#ef7879" d="M111 50h1v1h-1zm-49 86h1v1h-1zm90 11h1v1h-1zm53 29h1v1h-1z"/>
  <path fill="#f08081" d="M146 70h1v1h-1zm-64 31h1v1h-1zm113 55h1v1h-1zm9 16h1v1h-1z"/>
  <path fill="#f08384" d="M130 42h1v1h-1zM90 87h1v1h-1zm97 55h1v1h-1zm-45 41h1v1h-1z"/>
  <path fill="#f08787" d="M98 73h1v1h-1zm79 52h1v1h-1zm2 3h1v1h-1zM49 159h1v1h-1z"/>
  <path fill="#f39a9a" d="M93 82h1v1h-1zm44 35h1v1h-1zm47 20h1v1h-1zM44 168h1v1h-1z"/>
  <path fill="#f39b9b" d="M143 163h1v1h-1zm-6 12h1v1h-1zm-95 5h1v1h-1zm96 0h1v1h-1z"/>
  <path fill="#f5afaf" d="M92 84h1v1h-1zm-49 86h1v1h-1zm-2 6h1v1h-1zm6 7h1v1h-1z"/>
  <path fill="#f5afb0" d="M136 53h1v1h-1zm49 86h1v1h-1zm-46 42h1v1h-1zm4 2h1v1h-1z"/>
  <path fill="#f6b6b6" d="M108 56h1v1h-1zm19 78h1v1h-1zm-68 8h1v1h-1zm28 41h1v1h-1z"/>
  <path fill="#f8c4c4" d="M128 40h1v1h-1zm50 87h1v1h-1zm-69 38h1v1h-1zm89 18h1v1h-1z"/>
  <path fill="#f8c5c5" d="M133 48h1v1h-1zM95 79h1v1h-1zm87 55h1v1h-1zM46 165h1v1h-1z"/>
  <path fill="#f9cbcb" d="M111 51h1v1h-1zm17 81h1v1h-1zm-66 5h1v1h-1zm35 42h1v1h-1z"/>
  <path fill="#fad3d3" d="M146 71h1v1h-1zm-64 31h1v1h-1zm113 55h1v1h-1zm-89 13h1v1h-1z"/>
  <path fill="#fad6d6" d="M138 57h1v1h-1zm-2 61h1v1h-1zm51 25h1v1h-1zm10 40h1v1h-1z"/>
  <path fill="#fad7d7" d="M134 50h1v1h-1zM94 81h1v1h-1zm89 55h1v1h-1zM45 167h1v1h-1z"/>
  <path fill="#fbdbdb" d="M106 60h1v1h-1zm-49 86h1v1h-1zm83 23h1v1h-1zm-37 5h1v1h-1z"/>
  <path fill="#fbdfdf" d="M144 104h1v1h-1zm-54 78h1v1h-1zm-39 1h33v1H51zm96 0h49v1h-49z"/>
  <path fill="#fbe2e2" d="M147 73h1v1h-1zm-66 31h1v1h-1zm52 19h1v1h-1zm63 36h1v1h-1z"/>
  <path fill="#fce3e3" d="M143 66h1v1h-1zm5 9h1v1h-1zM85 97h1v1h-1zm107 55h1v1h-1z"/>
  <path fill="#fce5e5" d="M118 40h1v1h-1zM93 83h1v1h-1zm29 59h1v1h-1zm-78 27h1v1h-1z"/>
  <path fill="#fce6e6" d="M150 84h1v1h-1zm-13 32h1v1h-1zm-89 46h1v1h-1zm90 17h1v1h-1z"/>
  <path fill="#fce6e7" d="M97 76h1v1h-1zm83 55h1v1h-1zm-37 33h1v1h-1zM42 179h1v1h-1z"/>
  <path fill="#fce9e9" d="M167 124h1v1h-1zm-41 11h1v1h-1zm28 10h1v1h-1zm-15 26h1v1h-1z"/>
  <path fill="#fdebeb" d="M113 48h1v1h-1zm37 38h1v1h-1zm-35 68h1v1h-1zm88 26h1v1h-1z"/>
  <path fill="#f55" fill-opacity=".012" d="M85 5h1v1h-1zm79 0h1v1h-1zM85 244h1v1h-1zm79 0h1v1h-1z"/>
  <path fill="#ea4f50" d="M73 116h1v1h-1zm89 13h1v1h-1zm-44 22h1v1h-1z"/>
  <path fill="#eb5758" d="M109 53h1v1h-1zm-49 86h1v1h-1zm145 35h1v1h-1z"/>
  <path fill="#eb5a5b" d="M151 85h1v1h-1zm-6 19h1v1h-1zm-73 14h1v1h-1z"/>
  <path fill="#eb5d5e" d="M146 157h1v1h-1zm59 21h1v1h-1zm-68 1h1v1h-1z"/>
  <path fill="#ec5f60" d="M140 59h1v1h-1zM88 90h1v1h-1zm101 55h1v1h-1z"/>
  <path fill="#ec6465" d="M104 62h1v1h-1zm23 73h1v1h-1zm-72 13h1v1h-1z"/>
  <path fill="#ed6667" d="M112 48h1v1h-1zm-49 86h1v1h-1zm39 42h1v1h-1z"/>
  <path fill="#ed696a" d="M122 37h1v1h-1zm-51 83h1v1h-1zm60 8h1v1h-1z"/>
  <path fill="#ee7677" d="M107 57h1v1h-1zm-49 86h1v1h-1zm55 16h1v1h-1z"/>
  <path fill="#ef797a" d="M115 43h1v1h-1zm-49 86h1v1h-1zm26 53h1v1h-1z"/>
  <path fill="#ef7b7c" d="M150 79h1v1h-1zm-80 43h1v1h-1zm47 30h1v1h-1z"/>
  <path fill="#ef7e7f" d="M147 100h1v1h-1zm-69 8h1v1h-1zm121 55h1v1h-1z"/>
  <path fill="#f08282" d="M142 63h1v1h-1zM86 94h1v1h-1zm105 55h1v1h-1z"/>
  <path fill="#f08586" d="M134 49h1v1h-1zM94 80h1v1h-1zm89 55h1v1h-1z"/>
  <path fill="#f18889" d="M102 66h1v1h-1zm53 76h1v1h-1zM53 152h1v1h-1z"/>
  <path fill="#f18c8c" d="M110 52h1v1h-1zm-49 86h1v1h-1zm53 19h1v1h-1z"/>
  <path fill="#f18d8e" d="M65 131h1v1h-1zm64 0h1v1h-1zm-33 49h1v1h-1z"/>
  <path fill="#f18f90" d="M148 98h1v1h-1zm-79 26h1v1h-1zm71 58h1v1h-1z"/>
  <path fill="#f29393" d="M77 110h1v1h-1zm85 20h1v1h-1zm38 35h1v1h-1z"/>
  <path fill="#f29495" d="M150 92h1v1h-1zm-69 11h1v1h-1zm66 53h1v1h-1z"/>
  <path fill="#f39899" d="M139 58h1v1h-1zm-17 85h1v1h-1zm66 1h1v1h-1z"/>
  <path fill="#f39c9c" d="M131 44h1v1h-1zM97 75h1v1h-1zm83 55h1v1h-1z"/>
  <path fill="#f39d9e" d="M101 68h1v1h-1zm49 12h1v1h-1zm-98 74h1v1h-1z"/>
  <path fill="#f4a1a1" d="M109 54h1v1h-1zm-49 86h1v1h-1zm79 30h1v1h-1z"/>
  <path fill="#f4a3a3" d="M113 47h1v1h-1zm35 27h1v1h-1zm-33 81h1v1h-1z"/>
  <path fill="#f5aaaa" d="M80 105h1v1h-1zm117 55h1v1h-1zm-60 16h1v1h-1z"/>
  <path fill="#f5acac" d="M144 67h1v1h-1zm49 86h1v1h-1zm-47 5h1v1h-1z"/>
  <path fill="#f6b2b3" d="M150 91h1v1h-1zm-99 65h1v1h-1zm91 9h1v1h-1z"/>
  <path fill="#f6b4b5" d="M104 63h1v1h-1zm-49 86h1v1h-1zm57 11h1v1h-1z"/>
  <path fill="#f8c2c2" d="M141 62h1v1h-1zm27 61h1v1h-1zm22 25h1v1h-1z"/>
  <path fill="#f8c7c7" d="M139 113h1v1h-1zm17 28h1v1h-1zm45 41h1v1h-1z"/>
  <path fill="#f8c8c8" d="M103 65h1v1h-1zm-49 86h1v1h-1zm87 16h1v1h-1z"/>
  <path fill="#f9cccc" d="M152 148h1v1h-1zm-66 35h1v1h-1zm58 0h1v1h-1z"/>
  <path fill="#f9cece" d="M125 38h1v1h-1zm-55 85h1v1h-1zm133 48h1v1h-1z"/>
  <path fill="#f9d1d1" d="M78 109h1v1h-1zm54 16h1v1h-1zm67 39h1v1h-1z"/>
  <path fill="#fad4d4" d="M142 64h1v1h-1zM86 95h1v1h-1zm105 55h1v1h-1z"/>
  <path fill="#fce5e6" d="M135 52h1v1h-1zm23 86h1v1h-1zm26 0h1v1h-1z"/>
  <path fill="#fce8e8" d="M149 78h1v1h-1zm-38 83h1v1h-1zm-69 12h1v1h-1z"/>
  <path fill="#fce8e9" d="M105 62h1v1h-1zm72 64h1v1h-1zM56 148h1v1h-1z"/>
  <path fill="#fdeded" d="M145 102h1v1h-1zm5 50h1v1h-1zm52 29h1v1h-1z"/>
  <path fill="#fdeeee" d="M80 106h1v1h-1zm95 18h1v1h-1zm-9 1h1v1h-1z"/>
  <path fill="#e74141" fill-opacity=".294" d="M94 246h1v1h-1zm61 0h1v1h-1z"/>
  <path fill="#e74142" fill-opacity=".635" d="M77 9h1v1h-1zm95 0h1v1h-1z"/>
  <path fill="#e83f41" d="M128 38h1v1h-1zm-20 15h1v1h-1z"/>
  <path fill="#e84042" fill-opacity=".745" d="M2 101h1v1H2zm0 47h1v1H2z"/>
  <path fill="#e84141" fill-opacity=".263" d="M0 110h1v1H0zm0 29h1v1H0z"/>
  <path fill="#e84141" fill-opacity=".612" d="M243 85h1v1h-1zm0 79h1v1h-1z"/>
  <path fill="#e94141" fill-opacity=".4" d="M74 239h1v1h-1zm101 0h1v1h-1z"/>
  <path fill="#ea5050" d="M149 97h1v1h-1zm-16 28h1v1h-1z"/>
  <path fill="#ea5151" d="M147 71h1v1h-1zm49 86h1v1h-1z"/>
  <path fill="#ea5555" d="M128 39h1v1h-1zm23 49h1v1h-1z"/>
  <path fill="#eb5d5d" d="M134 123h1v1h-1zm63 36h1v1h-1z"/>
  <path fill="#eb5e5e" d="M84 97h1v1h-1zm-43 82h1v1h-1z"/>
  <path fill="#eb5e5f" d="M144 66h1v1h-1zm49 86h1v1h-1z"/>
  <path fill="#ec6263" d="M124 37h1v1h-1zM51 155h1v1h-1z"/>
  <path fill="#ec6364" d="M112 161h1v1h-1zm-8 13h1v1h-1z"/>
  <path fill="#ed6869" d="M67 127h1v1h-1zm49 27h1v1h-1z"/>
  <path fill="#ed6c6d" d="M79 106h1v1h-1zm119 55h1v1h-1z"/>
  <path fill="#ed6e6e" d="M145 68h1v1h-1zm49 86h1v1h-1z"/>
  <path fill="#ee7373" d="M156 140h1v1h-1zm-67 43h1v1h-1z"/>
  <path fill="#ef7d7d" d="M74 115h1v1h-1zm129 55h1v1h-1z"/>
  <path fill="#ef7d7e" d="M149 96h1v1h-1zm-17 30h1v1h-1z"/>
  <path fill="#ef7e7e" d="M148 154h1v1h-1zm-42 17h1v1h-1z"/>
  <path fill="#f08182" d="M166 124h1v1h-1zm-45 21h1v1h-1z"/>
  <path fill="#f08283" d="M159 135h1v1h-1zM41 174h1v1h-1z"/>
  <path fill="#f08383" d="M136 119h1v1h-1zm-90 64h1v1h-1z"/>
  <path fill="#f08484" d="M138 56h1v1h-1zm6 105h1v1h-1z"/>
  <path fill="#f08585" d="M45 166h1v1h-1zm158 15h1v1h-1z"/>
  <path fill="#f18989" d="M140 112h1v1h-1zm-3 66h1v1h-1z"/>
  <path fill="#f18a8b" d="M106 59h1v1h-1zm-49 86h1v1h-1z"/>
  <path fill="#f18c8d" d="M149 76h1v1h-1zm27 48h1v1h-1z"/>
  <path fill="#f18e8f" d="M151 149h1v1h-1zM44 182h1v1h-1z"/>
  <path fill="#f29595" d="M147 72h1v1h-1zm49 86h1v1h-1z"/>
  <path fill="#f39d9d" d="M111 162h1v1h-1zm-12 16h1v1h-1z"/>
  <path fill="#f39fa0" d="M105 61h1v1h-1zm49 83h1v1h-1z"/>
  <path fill="#f4a1a2" d="M41 175h1v1h-1zm158 8h1v1h-1z"/>
  <path fill="#f4a2a3" d="M171 122h1v1h-1zM64 133h1v1h-1z"/>
  <path fill="#f4a5a5" d="M130 129h1v1h-1zm7 48h1v1h-1z"/>
  <path fill="#f4a6a7" d="M145 103h1v1h-1zm-73 16h1v1h-1z"/>
  <path fill="#f4a8a8" d="M76 112h1v1h-1zm125 55h1v1h-1z"/>
  <path fill="#f5a9aa" d="M119 148h1v1h-1zm19 24h1v1h-1z"/>
  <path fill="#f5adae" d="M88 91h1v1h-1zm101 55h1v1h-1z"/>
  <path fill="#f5aeae" d="M140 60h1v1h-1zm-32 107h1v1h-1z"/>
  <path fill="#f5aeaf" d="M105 172h1v1h-1zm-62 9h1v1h-1z"/>
  <path fill="#f6b1b2" d="M132 46h1v1h-1zm6 69h1v1h-1z"/>
  <path fill="#f6b8b8" d="M112 49h1v1h-1zm-49 86h1v1h-1z"/>
  <path fill="#f7b9b9" d="M127 39h1v1h-1zm37 88h1v1h-1z"/>
  <path fill="#f7bebf" d="M79 107h1v1h-1zm119 55h1v1h-1z"/>
  <path fill="#f8c1c2" d="M87 93h1v1h-1zm48 27h1v1h-1z"/>
  <path fill="#f8c3c3" d="M149 77h1v1h-1zm-58 9h1v1h-1z"/>
  <path fill="#f8c3c4" d="M137 55h1v1h-1zm49 86h1v1h-1z"/>
  <path fill="#f8c6c7" d="M99 72h1v1h-1zm-49 86h1v1h-1z"/>
  <path fill="#f9c9ca" d="M107 58h1v1h-1zm-49 86h1v1h-1z"/>
  <path fill="#f9caca" d="M150 90h1v1h-1zm-37 68h1v1h-1z"/>
  <path fill="#f9cdcd" d="M115 44h1v1h-1zm28 62h1v1h-1z"/>
  <path fill="#f9cfcf" d="M150 82h1v1h-1zm-33 69h1v1h-1z"/>
  <path fill="#fad5d5" d="M159 136h1v1h-1zm-58 40h1v1h-1z"/>
  <path fill="#fad5d6" d="M90 88h1v1h-1zm58 9h1v1h-1z"/>
  <path fill="#fbdada" d="M117 41h1v1h-1zM95 180h1v1h-1z"/>
  <path fill="#fbdcdc" d="M110 53h1v1h-1zm-49 86h1v1h-1z"/>
  <path fill="#fbe0e0" d="M149 94h1v1h-1zm-76 24h1v1h-1z"/>
  <path fill="#fce7e7" d="M131 45h1v1h-1zM52 155h1v1h-1z"/>
  <path fill="#fdedee" d="M76 113h1v1h-1zm125 55h1v1h-1z"/>
  <path fill="#fdf1f2" d="M96 78h1v1h-1zm-49 86h1v1h-1z"/>
  <path fill="#fef7f8" d="M145 70h1v1h-1zm49 86h1v1h-1z"/>
  <path fill="#fefbfb" d="M107 59h1v1h-1zm-49 86h1v1h-1z"/>
  <path fill="#e84141" fill-opacity=".353" d="M249 138h1v1h-1z"/>
  <path fill="#e84242" d="M99 179h1v1h-1z"/>
  <path fill="#e84343" d="M135 122h1v1h-1z"/>
  <path fill="#e94949" d="M191 148h1v1h-1z"/>
  <path fill="#e94d4d" d="M110 51h1v1h-1z"/>
  <path fill="#ea5353" d="M137 118h1v1h-1z"/>
  <path fill="#ea5657" d="M154 143h1v1h-1z"/>
  <path fill="#eb5757" d="M139 169h1v1h-1z"/>
  <path fill="#eb5b5b" d="M101 177h1v1h-1z"/>
  <path fill="#eb5c5c" d="M119 149h1v1h-1z"/>
  <path fill="#ec5f5f" d="M108 168h1v1h-1z"/>
  <path fill="#ec6161" d="M164 126h1v1h-1z"/>
  <path fill="#ec6262" d="M142 164h1v1h-1z"/>
  <path fill="#ec6363" d="M100 69h1v1h-1z"/>
  <path fill="#ec6464" d="M138 171h1v1h-1z"/>
  <path fill="#ed6a6a" d="M178 126h1v1h-1z"/>
  <path fill="#ed6b6b" d="M202 168h1v1h-1z"/>
  <path fill="#ed6d6d" d="M120 147h1v1h-1z"/>
  <path fill="#ed6e6f" d="M135 121h1v1h-1z"/>
  <path fill="#ee7171" d="M98 179h1v1h-1z"/>
  <path fill="#ee7172" d="M173 122h1v1h-1z"/>
  <path fill="#ee7272" d="M46 164h1v1h-1z"/>
  <path fill="#ee7475" d="M141 166h1v1h-1z"/>
  <path fill="#ee7575" d="M54 150h1v1h-1z"/>
  <path fill="#ee7576" d="M103 64h1v1h-1z"/>
  <path fill="#ef7778" d="M128 133h1v1h-1z"/>
  <path fill="#ef7979" d="M143 107h1v1h-1z"/>
  <path fill="#ef7a7b" d="M137 174h1v1h-1z"/>
  <path fill="#ef7c7c" d="M165 125h1v1h-1z"/>
  <path fill="#ef7c7d" d="M163 128h1v1h-1z"/>
  <path fill="#f08686" d="M110 164h1v1h-1z"/>
  <path fill="#f08788" d="M126 38h1v1h-1z"/>
  <path fill="#f18788" d="M125 138h1v1h-1z"/>
  <path fill="#f18a8a" d="M140 168h1v1h-1z"/>
  <path fill="#f18b8c" d="M41 178h1v1h-1z"/>
  <path fill="#f18e8e" d="M114 45h1v1h-1z"/>
  <path fill="#f18f8f" d="M144 105h1v1h-1z"/>
  <path fill="#f29091" d="M94 181h1v1h-1z"/>
  <path fill="#f29192" d="M73 117h1v1h-1z"/>
  <path fill="#f29292" d="M118 150h1v1h-1z"/>
  <path fill="#f29394" d="M170 122h1v1h-1z"/>
  <path fill="#f29494" d="M133 124h1v1h-1z"/>
  <path fill="#f29797" d="M88 183h1v1h-1z"/>
  <path fill="#f39898" d="M89 89h1v1h-1z"/>
  <path fill="#f3999a" d="M158 137h1v1h-1z"/>
  <path fill="#f39a9b" d="M135 51h1v1h-1z"/>
  <path fill="#f39b9c" d="M48 161h1v1h-1z"/>
  <path fill="#f39e9f" d="M126 136h1v1h-1z"/>
  <path fill="#f39f9f" d="M56 147h1v1h-1z"/>
  <path fill="#f4a0a1" d="M141 110h1v1h-1z"/>
  <path fill="#f4a2a2" d="M120 38h1v1h-1z"/>
  <path fill="#f4a4a5" d="M68 126h1v1h-1z"/>
  <path fill="#f4a6a6" d="M150 151h1v1h-1z"/>
  <path fill="#f4a9a9" d="M41 177h1v1h-1z"/>
  <path fill="#f5aaab" d="M161 132h1v1h-1z"/>
  <path fill="#f5abab" d="M134 122h1v1h-1z"/>
  <path fill="#f5abac" d="M84 98h1v1h-1z"/>
  <path fill="#f5b0b0" d="M123 141h1v1h-1z"/>
  <path fill="#f6b2b2" d="M91 182h1v1h-1z"/>
  <path fill="#f6b3b3" d="M100 70h1v1h-1z"/>
  <path fill="#f6b4b4" d="M42 172h1v1h-1z"/>
  <path fill="#f6b5b5" d="M116 42h1v1h-1z"/>
  <path fill="#f6b5b6" d="M149 95h1v1h-1z"/>
  <path fill="#f6b7b7" d="M153 146h1v1h-1z"/>
  <path fill="#f6b7b8" d="M142 108h1v1h-1z"/>
  <path fill="#f7b9ba" d="M67 128h1v1h-1z"/>
  <path fill="#f7baba" d="M150 81h1v1h-1z"/>
  <path fill="#f7babb" d="M116 153h1v1h-1z"/>
  <path fill="#f7bbbb" d="M71 121h1v1h-1z"/>
  <path fill="#f7bcbc" d="M131 127h1v1h-1z"/>
  <path fill="#f7c1c1" d="M160 134h1v1h-1z"/>
  <path fill="#f8c2c3" d="M145 160h1v1h-1z"/>
  <path fill="#f8c6c6" d="M124 139h1v1h-1z"/>
  <path fill="#f8c9c9" d="M174 123h1v1h-1z"/>
  <path fill="#f9cbcc" d="M48 183h1v1h-1z"/>
  <path fill="#f9cccd" d="M66 130h1v1h-1z"/>
  <path fill="#f9cdce" d="M104 173h1v1h-1z"/>
  <path fill="#f9cfd0" d="M74 116h1v1h-1z"/>
  <path fill="#f9d0d0" d="M163 129h1v1h-1z"/>
  <path fill="#f9d1d2" d="M148 155h1v1h-1z"/>
  <path fill="#f9d2d2" d="M147 99h1v1h-1z"/>
  <path fill="#fad3d4" d="M93 181h1v1h-1z"/>
  <path fill="#fad4d5" d="M121 144h1v1h-1z"/>
  <path fill="#fad6d7" d="M144 162h1v1h-1z"/>
  <path fill="#fad8d9" d="M85 183h1v1h-1z"/>
  <path fill="#fad9da" d="M102 67h1v1h-1z"/>
  <path fill="#fadada" d="M155 143h1v1h-1z"/>
  <path fill="#fbdadb" d="M140 111h1v1h-1z"/>
  <path fill="#fbdcdd" d="M114 156h1v1h-1z"/>
  <path fill="#fbdedf" d="M69 125h1v1h-1z"/>
  <path fill="#fbe1e2" d="M138 173h1v1h-1z"/>
  <path fill="#fce2e3" d="M147 157h1v1h-1z"/>
  <path fill="#fce7e8" d="M101 69h1v1h-1z"/>
  <path fill="#fce9ea" d="M60 141h1v1h-1z"/>
  <path fill="#fcebeb" d="M64 134h1v1h-1z"/>
  <path fill="#fdebec" d="M68 127h1v1h-1z"/>
  <path fill="#fdecec" d="M130 128h1v1h-1z"/>
  <path fill="#fdeced" d="M72 120h1v1h-1z"/>
  <path fill="#fdeeef" d="M197 161h1v1h-1z"/>
  <path fill="#fdf2f3" d="M142 166h1v1h-1z"/>
</svg>
