<svg xmlns="http://www.w3.org/2000/svg" fill="none" viewBox="0 0 600 600">
  <radialGradient id="a" cx="0" cy="0" r="1" gradientTransform="rotate(54.17 -42.31 263.4)scale(497.082)" gradientUnits="userSpaceOnUse">
    <stop offset="0" stop-color="#fffcd0"/>
    <stop offset="1" stop-color="#f0bb0b"/>
  </radialGradient>
  <path fill="#fbf7c0" d="M300 600c165.69 0 300-134.31 300-300S465.69 0 300 0 0 134.31 0 300s134.31 300 300 300"/>
  <path fill="url(#a)" fill-opacity=".35" d="M300 600c165.69 0 300-134.31 300-300S465.69 0 300 0 0 134.31 0 300s134.31 300 300 300"/>
  <path fill="#f1bb08" d="m387.161 285.588-.188-40.758h.147l-34.62-20.38-59.32 34.98-58.966-34.98-34.597 20.38v40.758l59.323 34.808v69.787l34.45 20.189 34.45-20.19v-69.786zM293.2 120.046l-93.603 55.187 34.45 20.38 59.153-34.978 59.323 34.977 34.45-20.379zM174.886 369.629l-.19-69.617-34.429-20.359v110.545l93.773 54.997v-40.758zm-.19-98.666v-40.568l34.62-20.38-34.62-20.378-34.45 20.379v40.568zm118.498-81.326-34.45 20.379 34.45 20.379 34.617-20.38zm-59.159 145.185-34.45-20.38v40.757l34.45 20.19zm59.153 104.594-34.45-20.38v40.57l34.45 20.377 34.619-20.378v-40.569zm118.476-249.78-34.45 20.38 34.45 20.379v40.568l34.619-20.38v-40.567zm34.64 89.998-34.45 20.378-.19 69.617-59.133 34.788v40.758l93.774-54.999zm-59.342 75.565-34.45 20.19v-40.567l34.45-20.38z"/>
</svg>
