<svg xmlns="http://www.w3.org/2000/svg" width="32" height="32" viewBox="0 0 48 48" fill="none">
    <circle cx="24" cy="24" r="23" fill="#F7F7F7" stroke="#3B344D" stroke-width="2"/>
    <circle cx="24" cy="24" r="19" stroke="#6C6877" stroke-width="2.2"/>
    <path d="M10.9 15.3A17 17 0 0 1 15.3 10.9" stroke="#3B344D" stroke-width="2.2"/>
    <path d="M32.7 10.9A17 17 0 0 1 37.1 15.3" stroke="#3B344D" stroke-width="2.2"/>
    <path d="M10.9 32.7A17 17 0 0 0 15.3 37.1" stroke="#3B344D" stroke-width="2.2"/>
    <path d="M32.7 37.1A17 17 0 0 0 37.1 32.7" stroke="#3B344D" stroke-width="2.2"/>
    <path fill="#F7931A" d="M22 10.5h3v5.1h2.1v-5.1h3v5.4c3.7.8 5.7 2.9 5.7 5.8 0 2.1-1.1 3.7-3.1 4.6 2.6.8 4 2.7 4 5.4 0 3.6-2.6 5.9-6.8 6.5v5.3h-3v-5.1h-2.1v5.1h-3v-5.1H16v-4.1h2.7V19.7H16v-4.1h6v-5.1Z"/>
    <path fill="#FFFFFF" d="M24.6 19.8h3.4c1.7 0 2.7.8 2.7 2.1s-1 2.1-2.7 2.1h-3.4v-4.2ZM24.6 28h4c1.9 0 3 .9 3 2.4s-1.1 2.4-3 2.4h-4V28Z"/>
</svg>
