<svg xmlns="http://www.w3.org/2000/svg" width="32" height="32" viewBox="0 0 48 48" fill="none">
    <rect width="48" height="48" fill="#FFFFFF"/>
    <circle cx="24" cy="24" r="24" fill="#D9FBF5"/>
    <path fill="#022D26" d="M7.05 22.45C7.11 20.44 7.69 19.15 8.28 18.12C8.87 17.08 9.64 16.46 10.58 16.26C11.53 16.05 12.5 15.9 13.96 16.88C15.41 17.86 17.81 21.26 19.32 22.14C20.83 23.02 21.9 22.53 23 22.14C24.1 21.75 24.72 21.45 25.92 19.82C27.12 18.19 28.91 13.78 30.21 12.39C31.51 10.99 32.61 11.35 33.74 11.46C34.86 11.56 35.99 12.1 36.96 13.01C37.93 13.91 38.95 15.35 39.57 16.88C40.18 18.4 40.51 20.26 40.64 22.14C40.77 24.03 40.79 26.19 40.33 28.18C39.87 30.17 38.93 32.67 37.88 34.06C36.83 35.46 35.27 36.26 34.04 36.54C32.82 36.83 31.92 37.08 30.52 35.77C29.11 34.45 27.02 30.17 25.61 28.65C24.2 27.12 23.26 26.84 22.08 26.63C20.91 26.43 19.91 26.35 18.56 27.41C17.2 28.46 15.13 31.95 13.96 32.98C12.78 34.01 12.27 33.68 11.5 33.6C10.73 33.52 9.94 33.08 9.35 32.52C8.77 31.95 8.36 31.87 7.97 30.19C7.59 28.52 7 24.46 7.05 22.45Z"/>
</svg>
