<svg xmlns="http://www.w3.org/2000/svg" fill="none" viewBox="0 0 48 48">
  <path fill="#fff" d="M0 0h48v48H0z"/>
  <circle cx="24" cy="24" r="24" fill="#d9fbf5"/>
  <path fill="#022d26" d="M7.05 22.45c.06-2.01.64-3.3 1.23-4.33.59-1.04 1.36-1.66 2.3-1.86.95-.21 1.92-.36 3.38.62 1.45.98 3.85 4.38 5.36 5.26s2.58.39 3.68 0 1.72-.69 2.92-2.32 2.99-6.04 4.29-7.43c1.3-1.4 2.4-1.04 3.53-.93 1.12.1 2.25.64 3.22 1.55.97.9 1.99 2.34 2.61 3.87.61 1.52.94 3.38 1.07 5.26.13 1.89.15 4.05-.31 6.04s-1.4 4.49-2.45 5.88c-1.05 1.4-2.61 2.2-3.84 2.48-1.22.29-2.12.54-3.52-.77-1.41-1.32-3.5-5.6-4.91-7.12-1.41-1.53-2.35-1.81-3.53-2.02-1.17-.2-2.17-.28-3.52.78-1.36 1.05-3.43 4.54-4.6 5.57-1.18 1.03-1.69.7-2.46.62s-1.56-.52-2.15-1.08c-.58-.57-.99-.65-1.38-2.33-.38-1.67-.97-5.73-.92-7.74"/>
</svg>
