<svg xmlns="http://www.w3.org/2000/svg" fill="none" viewBox="0 0 24 24">
  <path fill="url(#a)" d="M12.323 3a8.64 8.64 0 0 1 5.45 2.098L7.745 15.144z"/>
  <path fill="url(#b)" d="M12.323 3a8.64 8.64 0 0 1 5.45 2.098L7.745 15.144z"/>
  <path fill="url(#c)" d="m13.143 12.023 5.782-5.805a9.095 9.095 0 0 1 0 11.565z"/>
  <path fill="url(#d)" d="m13.143 12.023 5.782-5.805a9.095 9.095 0 0 1 0 11.565z"/>
  <path fill="url(#e)" d="m3.017 11.438 7.043-7.07-5.018 13.364a9.07 9.07 0 0 1-2.025-6.294"/>
  <path fill="url(#f)" d="m3.017 11.438 7.043-7.07-5.018 13.364a9.07 9.07 0 0 1-2.025-6.294"/>
  <path fill="url(#g)" d="m6.247 18.902 5.788-5.754 5.782 5.754A9 9 0 0 1 12.035 21a9 9 0 0 1-5.788-2.098"/>
  <path fill="url(#h)" d="m6.247 18.902 5.788-5.754 5.782 5.754A9 9 0 0 1 12.035 21a9 9 0 0 1-5.788-2.098"/>
  <defs>
    <linearGradient id="a" x1="10.644" x2="10.644" y1="3" y2="29.679" gradientUnits="userSpaceOnUse">
      <stop stop-color="#ff8300"/>
      <stop offset=".51" stop-color="#e91a00"/>
      <stop offset="1" stop-color="#7c0000"/>
    </linearGradient>
    <linearGradient id="b" x1="24.777" x2="2.431" y1="35.932" y2="10.378" gradientUnits="userSpaceOnUse">
      <stop stop-color="#9d0097" stop-opacity=".85"/>
      <stop offset="1" stop-color="#9d0097" stop-opacity="0"/>
    </linearGradient>
    <linearGradient id="c" x1=".384" x2=".384" y1="-2.008" y2="26.008" gradientUnits="userSpaceOnUse">
      <stop stop-color="#ff8300"/>
      <stop offset=".51" stop-color="#e91a00"/>
      <stop offset="1" stop-color="#7c0000"/>
    </linearGradient>
    <linearGradient id="d" x1="18.425" x2="-4.023" y1="32.574" y2="1.369" gradientUnits="userSpaceOnUse">
      <stop stop-color="#9d0097" stop-opacity=".85"/>
      <stop offset="1" stop-color="#9d0097" stop-opacity="0"/>
    </linearGradient>
    <linearGradient id="e" x1="25.948" x2="25.948" y1="1.159" y2="25.402" gradientUnits="userSpaceOnUse">
      <stop stop-color="#ff8300"/>
      <stop offset=".51" stop-color="#e91a00"/>
      <stop offset="1" stop-color="#7c0000"/>
    </linearGradient>
    <linearGradient id="f" x1="46.025" x2="28.568" y1="31.084" y2="-.128" gradientUnits="userSpaceOnUse">
      <stop stop-color="#9d0097" stop-opacity=".85"/>
      <stop offset="1" stop-color="#9d0097" stop-opacity="0"/>
    </linearGradient>
    <linearGradient id="g" x1="11.952" x2="11.952" y1="-20.261" y2="21" gradientUnits="userSpaceOnUse">
      <stop offset=".51" stop-color="#e91a00"/>
      <stop offset="1" stop-color="#7c0000"/>
    </linearGradient>
    <linearGradient id="h" x1="19.875" x2="4.688" y1="25.219" y2="10.875" gradientUnits="userSpaceOnUse">
      <stop stop-color="#9d0097" stop-opacity=".85"/>
      <stop offset="1" stop-color="#9d0097" stop-opacity="0"/>
    </linearGradient>
  </defs>
</svg>
