<svg xmlns="http://www.w3.org/2000/svg" viewBox="0 0 500 500">
  <path fill="#fff" d="M0 0h500v500H0z"/>
  <path d="M479.9 152.9c-12.7-29.7-30.5-56.3-53.7-79.5-23.1-23.1-49.3-41-79-53.7C316.3 6.6 283.6 0 250 0c-34 0-66.8 6.5-97.3 19.6C123 32.3 96.4 50.2 73.3 73.4c-23.1 23.1-41 49.8-53.7 79.5C6.5 183.4 0 216.2 0 250.2c0 33.6 6.5 66.4 19.6 97.4 12.7 29.7 30.5 56.3 53.7 79.5 23.1 23.1 49.7 41 79.4 53.3 31 13.1 63.7 19.6 97.3 19.6s66.3-6.5 97.3-19.6c29.7-12.7 56.3-30.6 79.4-53.7s41-49.8 53.7-79.5c13.1-31 19.6-63.7 19.6-97.4 0-33.6-7-66.4-20.1-96.9m-312.8 73.7c10-40.2 46.7-69.4 89.9-69.4h173.6c11.3 21.4 18.3 45 20.9 69.4zm284.5 47.2c-2.6 24.5-10 48-20.9 69.4H257c-43.2 0-79.4-29.7-89.9-69.4zM106.5 106.6c38.4-38.4 89.4-59.4 143.5-59.4s105.1 21 143.5 59.4l3.5 3.5H257c-37.5 0-72.4 14.4-99 41-20.9 21-34.5 47.2-38.8 75.5H48.4c5.3-45.4 25.3-87.3 58.1-120M250 453.2c-54.1 0-105.1-21-143.5-59.4-32.7-32.7-52.8-75.1-58-120.1h70.7c4.8 28.4 18.3 54.6 38.8 75.5 26.6 26.6 61.5 41 99 41h140l-3.5 3.5c-38.4 38.6-89.4 59.5-143.5 59.5"/>
</svg>
