<svg xmlns="http://www.w3.org/2000/svg" viewBox="0 0 48 48">
  <path d="m34.976 6.442 1.548 1.769-16.532-2.098-1.548-1.768z"/>
  <path d="m35.563 6.75 1.548 1.768a.93.93 0 0 0-.587-.308l-1.548-1.768c.24.03.444.144.587.308"/>
  <path fill="#fff" d="M37.102 8.508a.92.92 0 0 1 .216.803L35.77 7.542a.92.92 0 0 0-.216-.802z"/>
  <path d="m17.267 5.195 1.548 1.769-6.583 33.494-1.548-1.769z"/>
  <path d="m12.439 41.25-1.549-1.768a.92.92 0 0 1-.206-.793l1.548 1.769a.92.92 0 0 0 .207.792"/>
  <path fill="#fff" d="M13.025 41.558a.93.93 0 0 1-.578-.298L10.9 39.492a.93.93 0 0 0 .578.297z"/>
  <path fill="#fff" d="m28.01 41.886 1.548 1.769-16.532-2.098-1.549-1.768zm7.76-34.344 1.548 1.768-6.583 33.495-1.548-1.769z"/>
  <path fill="#fff" d="M29.185 41.037a1.08 1.08 0 0 1-1.176.85L11.476 39.79a.916.916 0 0 1-.793-1.1l6.582-33.494a1.08 1.08 0 0 1 1.177-.85l16.533 2.097a.915.915 0 0 1 .793 1.1z"/>
  <path d="m30.374 9.586-2.781-.353a.49.49 0 0 0-.4.137l-1.96 1.91a.16.16 0 0 1-.133.045.14.14 0 0 1-.11-.077L23.876 8.95a.42.42 0 0 0-.33-.23l-2.942-.374c-.365-.046-.658.336-.504.656l2.334 4.867a.15.15 0 0 1-.036.173l-4.225 4.116c-.275.266-.143.706.224.752l2.992.38a.49.49 0 0 0 .404-.142l1.988-1.988a.16.16 0 0 1 .136-.048.14.14 0 0 1 .11.077l1.146 2.39c.06.128.183.215.329.233l3.014.383c.365.046.659-.337.502-.66l-2.444-5.03a.15.15 0 0 1 .034-.173l3.998-3.998c.268-.268.134-.702-.23-.748m-9.742 24.782a2.4 2.4 0 0 1-.91-.301 2.2 2.2 0 0 1-.663-.611 2.4 2.4 0 0 1-.34-.896 3.2 3.2 0 0 1 .036-1.142q.123-.619.4-1.08.282-.475.668-.767.405-.305.867-.432.48-.126.982-.061.503.063.896.3.406.237.66.625.27.376.355.897.089.507-.033 1.127a3.5 3.5 0 0 1-.403 1.095 2.7 2.7 0 0 1-.683.766 2.5 2.5 0 0 1-.864.417q-.465.128-.968.063m1.608-8.178a7.2 7.2 0 0 0-2.493.102 6.2 6.2 0 0 0-2.137.922A6 6 0 0 0 16 28.806a5.8 5.8 0 0 0-.876 2.151c-.158.805-.154 1.551.009 2.263q.258 1.071.92 1.93a5.3 5.3 0 0 0 1.682 1.392q1.034.549 2.332.713a7.1 7.1 0 0 0 2.492-.102 6.3 6.3 0 0 0 2.134-.907 5.9 5.9 0 0 0 1.6-1.61 5.7 5.7 0 0 0 .891-2.149q.237-1.207-.023-2.265a4.8 4.8 0 0 0-.908-1.912q-.66-.858-1.68-1.406t-2.331-.714m8.078-2.842-13.6-1.725a.575.575 0 0 0-.625.452.487.487 0 0 0 .422.585l13.6 1.725a.57.57 0 0 0 .625-.452.486.486 0 0 0-.421-.585"/>
  <path fill="#fff" d="m29.187 41.037 1.548 1.768a1.08 1.08 0 0 1-1.177.85l-1.548-1.768a1.08 1.08 0 0 0 1.177-.85"/>
  <path fill-rule="evenodd" d="M11.098 41.097a2.16 2.16 0 0 1-1.753-2.578l6.583-33.494c.25-1.269 1.495-2.169 2.776-2.006l16.533 2.097a2.16 2.16 0 0 1 1.385.726L38.17 7.61c.426.487.626 1.163.487 1.87l-6.583 33.495c-.25 1.268-1.495 2.169-2.776 2.006l-16.533-2.097a2.2 2.2 0 0 1-1.385-.726l-1.548-1.769a2.18 2.18 0 0 0 1.266.708m16.912.79-16.533-2.098a.916.916 0 0 1-.793-1.1l6.583-33.494a1.08 1.08 0 0 1 1.177-.85l16.532 2.097c.544.069.9.563.794 1.1l-6.583 33.495a1.08 1.08 0 0 1-1.177.85"/>
  <path fill="#fff" stroke="#000" stroke-width=".03" d="m35.342 22.656-.673 3.42-1.615-1.273.664-3.375zm.302-1.537-.194.984-1.623-1.228.19-.973zm1.069-5.441-.475 2.417-1.621-1.24.49-2.496z"/>
</svg>
