<svg xmlns="http://www.w3.org/2000/svg" width="32" height="32" viewBox="0 0 36 32.6809" fill="none" preserveAspectRatio="xMidYMid meet">
<g clip-path="url(#abstract_clip0)">
<path d="M23.7744 21.9115L30.9434 29.0844L27.5798 32.4501L20.4106 25.2772C19.796 24.6622 18.9858 24.3267 18.1141 24.3267C17.2424 24.3267 16.4322 24.6622 15.8175 25.2772L8.64846 32.4501L5.28466 29.0844L12.4537 21.9115H23.7688H23.7744Z" fill="black"/>
<path d="M24.9702 19.8429L34.7599 22.465L35.9893 17.8638L26.1996 15.2418C25.3614 15.0181 24.6629 14.4814 24.2271 13.7266C23.7912 12.9775 23.6795 12.0998 23.903 11.2611L26.5236 1.46612L21.9249 0.236149L19.3043 10.0312L24.9646 19.8374L24.9702 19.8429Z" fill="black"/>
<path d="M11.2636 19.8429L1.4739 22.465L0.244598 17.8638L10.0343 15.2418C10.8724 15.0181 11.5709 14.4814 12.0068 13.7266C12.4426 12.9775 12.5544 12.0998 12.3309 11.2611L9.71021 1.46612L14.3089 0.236149L16.9296 10.0312L11.2692 19.8374L11.2636 19.8429Z" fill="black"/>
</g>
<defs>
<clipPath id="abstract_clip0">
<rect width="36" height="32.6809" fill="white"/>
</clipPath>
</defs>
</svg>
