<svg xmlns="http://www.w3.org/2000/svg" viewBox="0 0 48 48" fill="black">
 <path d="M29.7744 29.5712L36.9434 36.7441L33.5798 40.1097L26.4106 32.9368C25.796 32.3218 24.9858 31.9864 24.1141 31.9864C23.2424 31.9864 22.4322 32.3218 21.8175 32.9368L14.6485 40.1097L11.2847 36.7441L18.4537 29.5712H29.7689H29.7744Z" />
 <path d="M30.9702 27.5027L40.7599 30.1248L41.9892 25.5235L32.1995 22.9015C31.3613 22.6779 30.6628 22.1411 30.227 21.3864C29.7912 20.6372 29.6794 19.7595 29.9029 18.9209L32.5235 9.12584L27.9248 7.89587L25.3042 17.6909L30.9646 27.4971L30.9702 27.5027Z" />
 <path d="M17.2636 27.5027L7.47393 30.1248L6.24463 25.5235L16.0343 22.9015C16.8725 22.6779 17.571 22.1411 18.0068 21.3864C18.4426 20.6372 18.5544 19.7595 18.3309 18.9209L15.7102 9.12584L20.3089 7.89587L22.9296 17.6909L17.2692 27.4971L17.2636 27.5027Z" />
</svg>
