<svg xmlns="http://www.w3.org/2000/svg" viewBox="0 0 48 48" fill="black">
  <path d="M13.4003 11.938H8.9014L6 36.0619H9.6186L10.0424 30.8134H12.0636L12.4874 36.0619H16.3017L13.4003 11.938ZM10.3032 27.6186L10.6944 22.6633L10.9878 18.4905H11.0856L11.379 22.6633L11.8028 27.6186H10.3032ZM20.4163 36.0619H24.2957V26.9666H25.502C28.2728 26.9666 29.9682 25.3366 29.9682 22.4351V16.502C29.9682 13.568 28.2728 11.938 25.502 11.938H20.4163V36.0619ZM25.176 24.0652H24.3282V14.8394H25.176C25.8279 14.8394 26.0886 15.4262 26.0886 16.502V22.4351C26.0886 23.4783 25.8279 24.0652 25.176 24.0652ZM34.4368 11.938V36.0619H42V32.8671H38.3163V25.4669H41.6088V22.2723H38.3163V15.1328H42V11.938H34.4368Z" />
</svg>