<svg xmlns="http://www.w3.org/2000/svg" viewBox="0 0 48 48" fill="black">
  <path d="M27.0168 27.087L25.047 32.4803C24.9892 32.6295 24.9892 32.7961 25.047 32.9453L28.4291 42.2281L32.3436 39.9676L27.6483 27.087C27.5405 26.7876 27.1246 26.7876 27.0168 27.087Z" />
  <path d="M30.9552 18.0122C30.8474 17.7127 30.4315 17.7127 30.3237 18.0122L28.3539 23.4055C28.2961 23.5547 28.2961 23.7212 28.3539 23.8705L33.8964 39.0703L37.8109 36.8098L30.9552 18.0122Z" />
  <path d="M24.0005 6.20307C24.1006 6.20307 24.1921 6.2281 24.2826 6.27816L39.208 14.8957C39.3823 14.9958 39.4901 15.1778 39.4901 15.378V32.6131C39.4901 32.8124 39.3823 32.9954 39.208 33.0955L24.2826 41.7217C24.1998 41.7718 24.0996 41.7968 24.0005 41.7968C23.9013 41.7968 23.8089 41.7718 23.7184 41.7217L8.80063 33.1042C8.62637 33.004 8.51855 32.8221 8.51855 32.6218V15.378C8.51855 15.1788 8.62637 14.9958 8.80063 14.8957L23.7261 6.27816C23.8089 6.2281 23.909 6.20307 24.0005 6.20307ZM24.0005 3.68549C23.469 3.68549 22.9366 3.82701 22.463 4.10139L7.53751 12.7189C6.59016 13.2667 6 14.2815 6 15.378V32.6131C6 33.7097 6.59016 34.7322 7.53751 35.2809L22.463 43.8985C22.9366 44.1729 23.4681 44.3144 24.0005 44.3144C24.5329 44.3144 25.0643 44.1729 25.538 43.8985L40.4635 35.2809C41.4195 34.7322 42.001 33.7184 42.001 32.6131V15.378C42.001 14.2815 41.4108 13.259 40.4635 12.7103L25.5457 4.10139C25.0634 3.82701 24.5319 3.68549 23.9995 3.68549H24.0005Z" />
  <path d="M22.7451 14.1477H18.9644C18.6823 14.1477 18.4243 14.322 18.3328 14.5877L10.2217 36.8262L14.1362 39.0867L23.0695 14.5963C23.1446 14.3807 22.9867 14.1477 22.7451 14.1477Z" />
  <path d="M29.3687 14.1477H25.588C25.3059 14.1477 25.0479 14.322 24.9564 14.5877L15.6909 39.984L19.6054 42.2445L29.6844 14.605C29.7672 14.3807 29.6016 14.1477 29.3687 14.1477Z" />
</svg>