<svg width="48" height="48" viewBox="0 0 48 48" fill="none"
    xmlns="http://www.w3.org/2000/svg">
    <g clip-path="url(#clip0_7228_31111)">
        <path class="st_w" id="path-1" d="M28.0395 38.0426H38.7501C39.6952 38.0426 40.2866 37.0191 39.8135 36.2011L34.4581 26.926C33.985 26.108 32.8046 26.108 32.3314 26.926L26.9761 36.2011C26.503 37.0191 27.0944 38.0426 28.0395 38.0426Z" fill="white"/>
        <path class="st_w" id="path-2" d="M29.3795 18.129L24.9779 10.5038C24.5334 9.7331 23.4203 9.7331 22.9758 10.5038L8.17228 36.1436C7.68543 36.9878 8.2943 38.0412 9.268 38.0412H18.0823C19.0224 38.0412 19.8903 37.5394 20.3597 36.7264L29.3795 21.1037C29.9112 20.1835 29.9112 19.0492 29.3795 18.129Z" fill="white"/>
    </g>
    <defs>
        <clipPath id="clip0_7228_31111">
            <rect width="32" height="28.2646" fill="white" transform="translate(8 9.86768)"/>
        </clipPath>
    </defs>
</svg>
