<svg xmlns="http://www.w3.org/2000/svg" viewBox="0 0 48 48" fill="black">
  <path d="M8.00001 10.528C8.00001 9.66199 8.00001 9.22924 8.16325 8.89599C8.3195 8.577 8.57725 8.31925 8.89625 8.163C9.22925 8 9.66199 8 10.528 8H37.4718C38.3375 8 38.7708 8 39.1038 8.16325C39.4225 8.3195 39.6803 8.57725 39.8368 8.89624C39.9998 9.22924 39.9998 9.66224 39.9998 10.5282V37.472C39.9998 38.3378 39.9998 38.771 39.8368 39.104C39.6803 39.4228 39.4225 39.6805 39.1038 39.837C38.7708 40 38.3375 40 37.4718 40H10.528C9.66199 40 9.22925 40 8.896 39.837C8.577 39.6805 8.31925 39.4228 8.163 39.104C7.99976 38.771 7.99976 38.3378 7.99976 37.472V10.528H8.00001Z" />
</svg>