<svg xmlns="http://www.w3.org/2000/svg" viewBox="0 0 48 48" fill="black" >
  <path d="M12.9999 14.738C12.9999 14.1426 12.9999 13.8451 13.1122 13.616C13.2196 13.3967 13.3968 13.2195 13.6161 13.1121C13.845 13 14.1425 13 14.7379 13H33.2618C33.857 13 34.1548 13 34.3838 13.1122C34.6029 13.2197 34.7801 13.3969 34.8877 13.6162C34.9998 13.8451 34.9998 14.1428 34.9998 14.7382V33.262C34.9998 33.8572 34.9998 34.1551 34.8877 34.384C34.7801 34.6031 34.6029 34.7803 34.3838 34.8879C34.1548 35 33.857 35 33.2618 35H14.7379C14.1425 35 13.845 35 13.6159 34.8879C13.3966 34.7803 13.2194 34.6031 13.112 34.384C12.9998 34.1551 12.9998 33.8572 12.9998 33.262V14.738H12.9999Z" />
</svg>
