<svg xmlns="http://www.w3.org/2000/svg" width="32" height="32" viewBox="0 0 48 48" fill="none" preserveAspectRatio="xMidYMid meet">
<g>
<path d="M23.1049 22.7848C23.0785 22.7051 23.0601 22.6233 23.0458 22.5407C23.0393 22.5025 23.0317 22.4644 23.023 22.4266C23.0042 22.3445 22.9833 22.2628 22.9607 22.1816C23.335 21.6358 25.1241 18.7894 23.0881 16.9626C20.8285 14.935 18.1884 17.5926 18.1884 17.5926L18.1966 17.6044C17.0099 17.2571 15.7232 17.2163 14.4714 17.5925C14.4559 17.5769 11.8244 14.941 9.57149 16.9626C7.31778 18.9848 9.75141 22.2565 9.76409 22.2736C9.73821 22.3504 9.71729 22.4291 9.70349 22.5088C9.45966 23.9089 7.79991 24.3409 7.79991 26.7796C7.79991 29.2183 9.53624 31.2241 13.0803 31.2241H14.5345C14.5411 31.2331 15.14 32.0506 16.3695 32.0496C17.5108 32.0488 18.2646 31.2311 18.2711 31.2241H19.6588C23.2028 31.2241 24.9391 29.2654 24.9391 26.7796C24.9391 24.5086 23.4997 23.9777 23.1049 22.7848Z" fill="black"/>
<path d="M40.0416 19.9982C40.0416 19.9982 40.3051 17.6478 38.3017 17.1428V16.2001H36.7501V17.1192C34.6366 17.5695 34.909 19.9982 34.909 19.9982V20.4012C34.909 20.4012 34.6365 22.8305 36.7508 23.2803L36.7506 25.298C34.5229 25.6889 34.8044 28.1974 34.8044 28.1974V28.6004C34.8044 28.6004 34.5319 31.029 36.6454 31.4792V32.3985H38.197V31.4558C40.2007 30.9508 39.937 28.6004 39.937 28.6004C40.0246 28.6004 40.0956 28.532 40.0956 28.4477V28.3501C40.0956 28.2658 40.0246 28.1974 39.937 28.1974C39.937 28.1974 40.1984 25.8674 38.223 25.3487V23.2803H38.1997C40.314 22.8305 40.0415 20.4012 40.0415 20.4012C40.129 20.4012 40.2001 20.3327 40.2001 20.2484V20.1509C40.2001 20.0666 40.1291 19.9982 40.0416 19.9982ZM38.7772 28.1974H38.6352C38.5477 28.1974 38.4766 28.2658 38.4766 28.3501V28.4477C38.4766 28.532 38.5477 28.6004 38.6352 28.6004H38.7772C38.7772 30.0584 38.2744 30.3037 38.1053 30.345C38.0775 30.3518 38.0505 30.3319 38.0505 30.3043V29.8395C38.0505 29.5826 37.8805 29.4419 37.7106 29.3654C37.4957 29.2686 37.2455 29.2686 37.0307 29.3654C36.8608 29.4419 36.6907 29.5826 36.6907 29.8395V30.3043C36.6907 30.3315 36.6643 30.3518 36.6369 30.3452C36.4687 30.3046 35.9641 30.0612 35.9641 28.6004V28.1974C35.9641 26.7394 36.4668 26.4941 36.636 26.4527C36.6637 26.446 36.6907 26.4659 36.6907 26.4935V26.9582C36.6907 27.2151 36.8608 27.3559 37.0307 27.4324C37.2455 27.5291 37.4957 27.5291 37.7106 27.4324C37.8805 27.3559 38.0505 27.2151 38.0505 26.9582V26.4935C38.0505 26.4662 38.077 26.4459 38.1043 26.4526C38.2726 26.4932 38.7772 26.7365 38.7772 28.1974ZM38.7398 20.4012H38.8817C38.8817 21.862 38.3772 22.1055 38.209 22.146C38.1816 22.1526 38.1551 22.1323 38.1551 22.1051V21.6404C38.1551 21.3835 37.9852 21.2427 37.8151 21.1661C37.6003 21.0695 37.3501 21.0695 37.1353 21.1661C36.9653 21.2427 36.7954 21.3835 36.7954 21.6404V22.1051C36.7954 22.1327 36.7684 22.1525 36.7405 22.1458C36.5714 22.1045 36.0688 21.8591 36.0688 20.4012V19.9982C36.0688 18.5374 36.5733 18.2939 36.7415 18.2534C36.7689 18.2468 36.7954 18.2672 36.7954 18.2943V18.759C36.7954 19.016 36.9653 19.1567 37.1353 19.2332C37.3501 19.33 37.6003 19.33 37.8151 19.2332C37.9852 19.1567 38.1551 19.016 38.1551 18.759V18.2943C38.1551 18.2667 38.1821 18.2468 38.2099 18.2536C38.3791 18.2949 38.8817 18.5402 38.8817 19.9982H38.7398C38.6522 19.9982 38.5812 20.0666 38.5812 20.1509V20.2484C38.5812 20.3327 38.6522 20.4012 38.7398 20.4012Z" fill="black"/>
<path d="M32.2771 24.1489C32.2771 24.1489 32.5511 21.7061 30.4176 21.2662V19.0715C32.4943 18.6028 32.2249 16.2001 32.2249 16.2001C32.2249 16.2001 31.0602 16.2001 31.065 16.2001C31.065 17.6609 30.5605 17.9044 30.3922 17.9449C30.3649 17.9516 30.3384 17.9311 30.3384 17.904V17.4392C30.3384 17.1824 30.1684 17.0416 29.9984 16.965C29.7836 16.8683 29.5334 16.8683 29.3185 16.965C29.1486 17.0416 28.9786 17.1824 28.9786 17.4392V17.904C28.9786 17.9316 28.9516 17.9514 28.9238 17.9447C28.7547 17.9034 28.252 17.6581 28.252 16.2001C28.2569 16.2001 27.0922 16.2001 27.0922 16.2001C27.0922 16.2001 26.8126 18.6933 29.0182 19.0957V21.2632C26.8693 21.6952 27.1444 24.1488 27.1444 24.1488V24.5518C27.1444 24.5518 26.8693 27.0055 29.0182 27.4375V29.5042C26.8126 29.9066 27.0922 32.3998 27.0922 32.3998C27.0922 32.3998 28.2568 32.3998 28.252 32.3998C28.252 30.9389 28.7566 30.6955 28.9248 30.655C28.9522 30.6483 28.9786 30.6686 28.9786 30.6959V31.1606C28.9786 31.4175 29.1486 31.5583 29.3185 31.6348C29.5334 31.7315 29.7836 31.7315 29.9984 31.6348C30.1684 31.5583 30.3384 31.4175 30.3384 31.1606V30.6959C30.3384 30.6683 30.3654 30.6484 30.3932 30.6551C30.5623 30.6965 31.065 30.9418 31.065 32.3998C31.0601 32.3998 32.2249 32.3998 32.2249 32.3998C32.2249 32.3998 32.4943 29.9971 30.4176 29.5283V27.4344C32.5511 26.9945 32.2771 24.5517 32.2771 24.5517C32.3647 24.5517 32.4358 24.4833 32.4358 24.3989V24.3014C32.4358 24.2171 32.3647 24.1489 32.2771 24.1489ZM30.9754 24.5519H31.1173C31.1173 26.0127 30.6127 26.2562 30.4445 26.2967C30.4171 26.3033 30.3907 26.283 30.3907 26.2558V25.7911C30.3907 25.5341 30.2207 25.3934 30.0508 25.3169C29.8359 25.2201 29.5857 25.2201 29.3709 25.3169C29.2009 25.3934 29.0309 25.5341 29.0309 25.7911V26.2558C29.0309 26.2834 29.0039 26.3033 28.9761 26.2965C28.807 26.2552 28.3043 26.0099 28.3043 24.5519V24.1489C28.3043 22.6881 28.8088 22.4446 28.9771 22.4041C29.0044 22.3975 29.0309 22.4179 29.0309 22.445V22.9097C29.0309 23.1666 29.2009 23.3074 29.3709 23.384C29.5857 23.4806 29.8359 23.4806 30.0508 23.384C30.2207 23.3074 30.3907 23.1666 30.3907 22.9097V22.445C30.3907 22.4174 30.4177 22.3976 30.4455 22.4043C30.6146 22.4456 31.1173 22.691 31.1173 24.1489H30.9754C30.8878 24.1489 30.8168 24.2173 30.8168 24.3017V24.3992C30.8168 24.4835 30.8878 24.5519 30.9754 24.5519Z" fill="black"/>
</g>
</svg>
