<svg xmlns="http://www.w3.org/2000/svg" viewBox="0 0 48 48" fill="black">
  <path d="M37.527 20.4723C38.0927 16.6896 35.2128 14.6562 31.2747 13.2997L32.5522 8.17565L29.4331 7.39842L28.1894 12.3876C27.3694 12.1831 26.5273 11.9904 25.6903 11.7993L26.943 6.77723L23.8258 6L22.5475 11.1224C21.8689 10.9679 21.2024 10.8152 20.5558 10.6543L20.5594 10.6382L16.258 9.56407L15.4283 12.8956C15.4283 12.8956 17.7424 13.426 17.6937 13.4587C18.9568 13.7739 19.1852 14.6101 19.1473 15.2728L17.692 21.1103C17.779 21.1324 17.8918 21.1644 18.0163 21.2144C17.9122 21.1886 17.8015 21.1604 17.6866 21.1328L15.6468 29.3104C15.4925 29.6941 15.1006 30.2701 14.2175 30.0514C14.2488 30.0967 11.9505 29.4856 11.9505 29.4856L10.4019 33.0561L14.461 34.068C15.2161 34.2573 15.9561 34.4555 16.6848 34.6418L15.3941 39.8246L18.5097 40.6019L19.7879 35.474C20.639 35.7051 21.465 35.9182 22.2737 36.1191L20.9997 41.2228L24.1191 42L25.4097 36.8269C30.7285 37.8335 34.7279 37.4276 36.4113 32.6167C37.7678 28.7434 36.3438 26.5092 33.5455 25.0523C35.5836 24.5823 37.1188 23.2418 37.5281 20.4727L37.5271 20.4721L37.527 20.4723ZM30.4004 30.4657C29.4364 34.339 22.9149 32.2452 20.8005 31.7202L22.5133 24.8538C24.6276 25.3816 31.4078 26.4262 30.4005 30.4657H30.4004ZM31.365 20.4162C30.4857 23.9394 25.0577 22.1495 23.2969 21.7106L24.8499 15.4832C26.6107 15.9221 32.281 16.7413 31.3653 20.4162H31.365Z" />
</svg>