<svg xmlns="http://www.w3.org/2000/svg" viewBox="0 0 48 48" fill="black">
  <path d="M14.5805 11.5142L24.0536 6L33.5266 11.5142L30.0439 13.5512L24.0536 10.0742L18.0633 13.5512L14.5805 11.5142ZM33.5266 18.4683L30.0439 16.4312L24.0536 19.9083L18.0633 16.4312L14.5805 18.4683V22.5424L20.5708 26.0195V32.9736L24.0536 35.0107L27.5363 32.9736V26.0195L33.5266 22.5424V18.4683ZM33.5266 29.4966V25.4225L30.0439 27.4595V31.5337L33.5266 29.4966ZM35.9994 30.9366L30.0091 34.4137V38.4878L39.4821 32.9736V21.9454L35.9994 23.9825V30.9366ZM32.5167 14.9912L35.9994 17.0283V21.1025L39.4821 19.0654V14.9912L35.9994 12.9541L32.5167 14.9912ZM20.5708 35.8888V39.9629L24.0536 42L27.5363 39.9629V35.8888L24.0536 37.9258L20.5708 35.8888ZM14.5805 29.4966L18.0633 31.5337V27.4595L14.5805 25.4225V29.4966ZM20.5708 14.9912L24.0536 17.0283L27.5363 14.9912L24.0536 12.9541L20.5708 14.9912ZM12.1077 17.0283L15.5905 14.9912L12.1077 12.9541L8.625 14.9912V19.0654L12.1077 21.1025V17.0283ZM12.1077 23.9825L8.625 21.9454V32.9736L18.0981 38.4878V34.4137L12.1077 30.9366V23.9825Z" />
</svg>