<svg xmlns="http://www.w3.org/2000/svg" viewBox="0 0 48 48" fill="black" >
 <path d="M31.4417 6H16.5417L5.9917 16.55V31.4667L16.5417 42H31.4584L42.0084 31.45V16.55L31.4417 6ZM39.7417 30.5167L30.5084 39.75H17.475L8.2417 30.5167V17.4833L17.475 8.25H30.525L39.7584 17.4833L39.7417 30.5167Z" />
 <path d="M29.3084 11.1666H18.6751L11.1584 18.6833V29.3L18.6751 36.8166H29.2918L36.8084 29.3V21.9666H34.5584V28.3833L29.2251 33.7166L27.9584 30.6666L31.5084 27.1166V26.1666H29.2751H29.2584V26.1833L26.1751 29.2666H21.8084L18.7251 26.1833V21.8166L21.8084 18.7333H26.1751L29.2584 21.8166V21.85H29.2918H31.5084V20.8833L27.9751 17.3333L29.2418 14.2833L30.9251 15.95C30.8418 16.2 30.8084 16.45 30.8084 16.7166C30.8084 18.0833 31.9251 19.2 33.2918 19.2C34.6584 19.2 35.7751 18.0833 35.7751 16.7166C35.7751 15.35 34.6584 14.2333 33.2918 14.2333C33.0251 14.2333 32.7584 14.2833 32.5251 14.35L29.3084 11.1666ZM20.8251 13.4166H27.1584L25.8918 16.4666H22.0918L20.8251 13.4166ZM16.4584 25.9L13.4084 27.1666V20.8333L16.4584 22.1V25.9ZM22.0918 31.5166H25.8918L27.1584 34.5666H20.8251L22.0918 31.5166ZM20.0084 30.6666L18.7418 33.7166L14.2751 29.25L17.3251 27.9833L20.0084 30.6666ZM17.3251 20.0166L14.2751 18.75L18.7418 14.2833L20.0084 17.3333L17.3251 20.0166Z" />
</svg>
