<svg xmlns="http://www.w3.org/2000/svg" viewBox="0 0 48 48" fill="black">
  <path d="M10.4593 26.016V42H25.1945C27.917 42 30.2728 41.5275 32.264 40.5892C34.2553 39.6465 35.8798 38.3618 37.142 36.7305C38.402 35.1015 39.3403 33.1935 39.9545 31.0088C40.5688 28.824 40.8748 26.4862 40.8748 24C40.8902 21.6325 40.5798 19.2741 39.9523 16.9913C39.3403 14.8088 38.402 12.8985 37.1398 11.2695C35.8798 9.63825 34.2553 8.3535 32.264 7.41075C30.2728 6.4725 27.9148 6 25.1923 6H10.457V20.8725H7.12476V26.016H10.4593ZM16.6828 20.8748V11.1435H22.805C25.2283 11.1435 27.2105 11.4697 28.754 12.1267C30.2975 12.7815 31.508 13.6882 32.3878 14.8492C33.2875 16.0566 33.9001 17.4533 34.1788 18.933C34.4938 20.4968 34.6513 22.1842 34.6513 24C34.6621 25.7005 34.5038 27.3978 34.1788 29.067C33.8638 30.6308 33.2675 31.992 32.3878 33.1507C31.508 34.3118 30.2953 35.2185 28.754 35.8733C27.2105 36.5303 25.2283 36.8565 22.805 36.8565H16.6828V26.016H26.3893V20.8748H16.6828Z" />
</svg>