<svg xmlns="http://www.w3.org/2000/svg" viewBox="0 0 48 48" fill="black">
 <path d="m29.04.572-.144.288c4.992 2.16 7.824 6.624 7.824 11.52 0 5.28-3.456 10.08-10.176 14.16l-1.104.672c-5.04 3.072-7.584 6.528-7.584 10.704 0 5.376 4.224 9.312 10.032 9.312C37.2 47.228 48 37.292 48 24.044c0-2.16-.288-4.272-.816-6.288l-.336.096c.144 1.104.192 1.92.192 2.688 0 7.824-4.416 14.544-11.808 19.008l-.72.432c-1.584.912-2.928 1.44-4.272 1.44-1.776 0-3.12-1.152-3.12-2.832 0-1.44.96-2.88 4.08-4.704l.912-.528c6.912-4.032 10.752-9.696 10.752-15.984 0-7.968-5.952-14.544-13.824-16.8ZM18.96 47.468l.144-.288c-4.992-2.16-7.824-6.624-7.824-11.52 0-5.28 3.456-10.08 10.176-14.16l1.104-.672c5.04-3.072 7.584-6.528 7.584-10.704 0-5.376-4.224-9.312-10.032-9.312C10.8.812 0 10.748 0 23.996c0 2.16.288 4.272.816 6.288l.336-.096c-.144-1.104-.192-1.92-.192-2.688 0-7.824 4.416-14.544 11.808-19.008l.72-.432c1.584-.912 2.928-1.44 4.272-1.44 1.776 0 3.12 1.152 3.12 2.832 0 1.44-.96 2.88-4.08 4.704l-.912.528C8.976 18.716 5.136 24.38 5.136 30.668c0 7.968 5.952 14.544 13.824 16.8Z"/>
</svg>
