<svg xmlns="http://www.w3.org/2000/svg" width="32" height="32" viewBox="0 0 36 36" fill="none" preserveAspectRatio="xMidYMid meet">
<g clip-path="url(#ink_clip0)">
<path fill-rule="evenodd" clip-rule="evenodd" d="M36 18C36 8.05889 27.9411 -4.34542e-07 18 0C8.05889 4.34542e-07 -4.34542e-07 8.05889 0 18C4.34542e-07 27.9411 8.05889 36 18 36C27.9411 36 36 27.9411 36 18ZM20.5691 31.4715C20.5691 32.6926 19.5669 33.6852 18.1443 33.7137C18.1049 33.714 18.0654 33.7142 18.0259 33.7143H17.9741C9.30722 33.7003 2.28571 26.6701 2.28571 18C2.28571 9.32126 9.32123 2.28574 18 2.28574C18.0468 2.28574 18.0936 2.28595 18.1403 2.28636C19.7456 2.31495 20.5691 3.30748 20.5691 4.52851C20.5691 5.77127 19.4706 6.6857 18.3067 6.6857C17.1429 6.68574 17.0857 6.68574 15.9717 6.77498C14.8576 6.86426 13.7056 7.77874 13.7056 9.01778C13.7056 10.2642 14.7181 11.2679 15.9717 11.2679H25.8519C27.1018 11.2679 28.1143 12.2717 28.1143 13.5107C28.1143 14.7498 27.1018 15.7535 25.8519 15.7535H10.6337C9.38016 15.7535 8.36766 16.761 8.36766 18.0037C8.36766 19.2428 9.38016 20.2465 10.6337 20.2465H18.3067C19.5566 20.2465 20.5691 21.2502 20.5691 22.4929C20.5691 23.732 19.5566 24.7357 18.3067 24.7357H15.9717C14.7181 24.7357 13.7056 25.7395 13.7056 26.9785C13.7056 28.2213 14.7433 29.1284 15.9717 29.2213C16.0685 29.2287 16.157 29.2354 16.2386 29.2416C16.6709 29.2746 16.9071 29.2926 17.1436 29.3025C17.4285 29.3143 17.7138 29.3143 18.3429 29.3143C19.5927 29.3143 20.5691 30.2324 20.5691 31.4715Z" fill="black"/>
</g>
<defs>
<clipPath id="ink_clip0">
<rect width="36" height="36" fill="white"/>
</clipPath>
</defs>
</svg>
