<svg xmlns="http://www.w3.org/2000/svg" viewBox="0 0 48 48" fill="black">
 <path d="M42 24C42 14.0589 33.9411 6 24 6C14.0589 6 6 14.0589 6 24C6 33.9411 14.0589 42 24 42C33.9411 42 42 33.9411 42 24ZM26.5691 37.4715C26.5691 38.6926 25.5669 39.6852 24.1443 39.7137C24.1049 39.714 24.0654 39.7142 24.0259 39.7143H23.9741C15.3072 39.7003 8.28571 32.6701 8.28571 24C8.28571 15.3213 15.3212 8.28574 24 8.28574C24.0468 8.28574 24.0936 8.28595 24.1403 8.28636C25.7456 8.31495 26.5691 9.30748 26.5691 10.5285C26.5691 11.7713 25.4706 12.6857 24.3067 12.6857C23.1429 12.6857 23.0857 12.6857 21.9717 12.775C20.8576 12.8643 19.7056 13.7787 19.7056 15.0178C19.7056 16.2642 20.7181 17.2679 21.9717 17.2679H31.8519C33.1018 17.2679 34.1143 18.2717 34.1143 19.5107C34.1143 20.7498 33.1018 21.7535 31.8519 21.7535H16.6337C15.3802 21.7535 14.3677 22.761 14.3677 24.0037C14.3677 25.2428 15.3802 26.2465 16.6337 26.2465H24.3067C25.5566 26.2465 26.5691 27.2502 26.5691 28.4929C26.5691 29.732 25.5566 30.7357 24.3067 30.7357H21.9717C20.7181 30.7357 19.7056 31.7395 19.7056 32.9785C19.7056 34.2213 20.7433 35.1284 21.9717 35.2213C22.0685 35.2287 22.157 35.2354 22.2386 35.2416C22.6709 35.2746 22.9071 35.2926 23.1436 35.3025C23.4285 35.3143 23.7138 35.3143 24.3429 35.3143C25.5927 35.3143 26.5691 36.2324 26.5691 37.4715Z" />
</svg>
