<svg xmlns="http://www.w3.org/2000/svg" width="32" height="32" viewBox="0 0 48 48" fill="none" preserveAspectRatio="xMidYMid meet">
<g>
<path d="M28.5736 39.8985H40.6998C41.7697 39.8985 42.4393 38.7397 41.9037 37.8136L35.8406 27.3128C35.3049 26.3866 33.9685 26.3866 33.4328 27.3128L27.3697 37.8136C26.834 38.7397 27.5036 39.8985 28.5736 39.8985Z" fill="black"/>
<path d="M30.0905 17.3532L25.1073 8.72027C24.604 7.84767 23.3437 7.84767 22.8405 8.72027L6.08058 37.7486C5.52939 38.7044 6.21873 39.897 7.32112 39.897H17.3003C18.3646 39.897 19.3472 39.3289 19.8786 38.4083L30.0905 20.721C30.6924 19.6792 30.6924 18.395 30.0905 17.3532Z" fill="black"/>
</g>
</svg>
