<svg xmlns="http://www.w3.org/2000/svg" viewBox="0 0 48 48" fill="black">
  <path d="M24.6069 24.9267L22.0401 33.6001H35.7675C35.8767 33.5998 35.9845 33.6249 36.0823 33.6734C36.1801 33.722 36.2652 33.7927 36.331 33.8798C36.3967 33.967 36.4413 34.0683 36.4611 34.1757C36.4809 34.283 36.4755 34.3936 36.4452 34.4985L35.267 38.6208C35.2103 38.8174 35.0913 38.9903 34.9279 39.1134C34.7645 39.2365 34.5655 39.3033 34.3609 39.3036H13.3616L16.9192 27.3087L12.9919 28.5254L13.8313 25.6736L17.7637 24.4544L22.7485 7.61846C22.8021 7.42122 22.9186 7.24683 23.0802 7.12176C23.2419 6.99669 23.44 6.92776 23.6443 6.92542H28.9628C29.0721 6.92553 29.1799 6.95102 29.2777 6.99989C29.3754 7.04875 29.4605 7.11965 29.5262 7.207C29.5919 7.29434 29.6364 7.39575 29.6563 7.50324C29.6761 7.61072 29.6707 7.72134 29.6405 7.82638L25.454 22.0672L29.3812 20.8505L28.5393 23.7023L24.6069 24.9267Z" />
</svg>