<svg xmlns="http://www.w3.org/2000/svg" viewBox="0 0 48 48" fill="black">
 <path d="M13.4096 18.6228L7.95036 15.843C7.52201 16.6815 7.16201 17.561 6.87036 18.4587L12.6987 20.3453C12.8901 19.7529 13.1271 19.1742 13.4096 18.6228Z" />
 <path d="M18.0439 13.724L21.0652 18.9326C21.5072 18.6774 21.9812 18.4815 22.4687 18.3493L20.9057 12.5347C21.3022 12.4298 21.7077 12.3387 22.1179 12.2749L21.1563 6.22327C20.2267 6.36909 19.3017 6.59238 18.4085 6.88403L20.2768 12.6167C19.6799 12.8126 19.1012 13.0542 18.5452 13.3367L15.8019 7.97314C14.968 8.40149 14.1568 8.8982 13.4004 9.45415L17.0095 14.3985C17.3422 14.1569 17.6885 13.9336 18.0439 13.724Z" />
 <path d="M34.2714 18.0395L29.0627 21.0653C29.3179 21.5073 29.5184 21.9812 29.6506 22.4688L35.4653 20.9012C35.5746 21.2977 35.6612 21.7033 35.725 22.1088L41.7767 21.1473C41.6308 20.2177 41.4076 19.2926 41.1114 18.3995L35.3833 20.2769C35.1873 19.68 34.9458 19.1012 34.6633 18.5453L40.0268 15.7929C39.5984 14.959 39.1017 14.1478 38.5458 13.3914L33.6015 17.005C33.8384 17.3377 34.0617 17.684 34.2714 18.0395Z" />
 <path d="M32.1479 7.94584C31.3094 7.51749 30.4299 7.15749 29.5322 6.86584L27.6501 12.6942C28.238 12.8856 28.8167 13.1226 29.3727 13.4051L32.1479 7.94584Z" />
 <path d="M29.9696 13.6192L26.9119 18.9281C27.3539 19.1833 27.764 19.4977 28.124 19.8577L36.7002 11.2496C36.0349 10.5843 35.3103 9.96912 34.5539 9.41772L31.0177 14.2982C30.6805 14.0522 30.3341 13.8243 29.9696 13.6192Z" />
 <path d="M13.6193 18.0212L18.9236 21.0835C19.1788 20.6415 19.4933 20.2313 19.8533 19.8668L11.2543 11.286C10.5889 11.9513 9.97376 12.6759 9.42236 13.4323L14.2983 16.9731C14.0568 17.3103 13.8289 17.6612 13.6193 18.0212Z" />
 <path d="M25.8546 12.1701L26.7797 6.21418C25.8637 6.07291 24.9295 6 23.9954 6H23.9817V18.1489H23.9954C24.5057 18.1489 25.0161 18.2127 25.5037 18.3448L27.0759 12.4253C26.6749 12.3159 26.2693 12.2339 25.8546 12.1701Z" />
 <path d="M18.3448 22.4916L12.4253 20.9149C12.3205 21.3159 12.2339 21.7261 12.1701 22.1362L6.21418 21.2066C6.07291 22.1225 6 23.0658 6 24H18.1489C18.1489 23.485 18.2172 22.9792 18.3448 22.4916Z" />
 <path d="M34.5903 29.3772L40.0496 32.1569C40.4779 31.3185 40.8379 30.439 41.1296 29.5412L35.3012 27.6547C35.1098 28.2471 34.8729 28.8258 34.5903 29.3772Z" />
 <path d="M29.9514 34.2714L26.9302 29.0627C26.4881 29.3179 26.0142 29.5139 25.5266 29.646L27.0896 35.4607C26.6932 35.5655 26.2876 35.6567 25.8775 35.7205L26.839 41.7721C27.7686 41.6263 28.6937 41.403 29.5869 41.1114L27.7185 35.3787C28.3155 35.1827 28.8942 34.9412 29.4502 34.6587L32.198 40.0222C33.0319 39.5939 33.8431 39.0972 34.5995 38.5412L30.9904 33.5924C30.6577 33.843 30.3114 34.0663 29.9514 34.2714Z" />
 <path d="M13.7285 29.9605L18.9371 26.9302C18.6819 26.4881 18.4814 26.0142 18.3492 25.5266L12.5345 27.0942C12.4252 26.6977 12.3386 26.2922 12.2748 25.8866L6.22314 26.8481C6.36897 27.7778 6.59226 28.7028 6.88846 29.596L12.6166 27.7231C12.8125 28.3155 13.054 28.8988 13.3366 29.4547L7.97302 32.2071C8.40137 33.041 8.89808 33.8522 9.45403 34.6086L14.3983 30.995C14.1614 30.6623 13.9381 30.316 13.7285 29.9605Z" />
 <path d="M15.8521 40.0541C16.6905 40.4824 17.57 40.8424 18.4677 41.1341L20.3498 35.3057C19.7619 35.1143 19.1832 34.8774 18.6272 34.5948L15.8521 40.0541Z" />
 <path d="M18.0258 34.3807L21.0835 29.0718C20.6415 28.8166 20.2314 28.5022 19.8714 28.1422L11.2952 36.7503C11.9605 37.4156 12.685 38.0308 13.4415 38.5822L16.9777 33.7017C17.3149 33.9432 17.6658 34.1711 18.0258 34.3807Z" />
 <path d="M34.3763 29.9787L29.072 26.9164C28.8168 27.3584 28.5023 27.7685 28.1423 28.1331L36.7459 36.7138C37.4112 36.0485 38.0264 35.324 38.5778 34.5675L33.7018 31.0268C33.9433 30.685 34.1712 30.3387 34.3763 29.9787Z" />
 <path d="M22.4916 29.6552L20.9194 35.5746C21.3204 35.6795 21.7306 35.766 22.1407 35.8298L21.2156 41.7858C22.1316 41.9271 23.0658 42 23.9999 42H24.0136V29.8511H23.9999C23.4896 29.8511 22.9792 29.7827 22.4916 29.6552Z" />
 <path d="M29.8512 24C29.8512 24.5149 29.7874 25.0208 29.6553 25.5084L35.5748 27.0851C35.6796 26.6841 35.7662 26.2739 35.83 25.8638L41.7859 26.7934C41.9272 25.8775 42.0001 24.9342 42.0001 24H29.8512Z" />
</svg>
