<svg xmlns="http://www.w3.org/2000/svg" viewBox="0 0 48 48" fill="black">
  <path d="M27.5154 33.9883C28.621 33.9883 29.514 33.096 29.514 31.9954C29.514 30.8947 28.621 30.0024 27.5154 30.0024C26.4183 30.0024 25.5254 30.8947 25.5254 31.9954C25.5254 33.096 26.4183 33.9883 27.5154 33.9883Z" />
  <path d="M20.3531 34.0476C21.4587 34.0476 22.3432 33.1553 22.3432 32.0547C22.3432 30.954 21.4587 30.0618 20.3531 30.0618C19.256 30.0618 18.363 30.954 18.363 32.0547C18.363 33.1553 19.256 34.0476 20.3531 34.0476Z" />
  <path d="M15.99 13.2272H20.7378C21.6313 15.6441 23.9626 22.4922 24.1328 22.8738C24.1753 22.683 26.5237 15.2201 27.1874 13.2696H32.1224V30.2943C31.5098 29.955 30.8971 29.6159 30.2334 29.2342C29.7739 29.0011 29.3485 28.7466 28.8806 28.5558C28.838 25.2484 28.7955 21.9621 28.6934 18.5275C28.0297 20.4993 25.7408 27.4533 25.5536 27.6441H22.4991C22.4991 27.6441 19.5295 19.206 19.3849 18.8244C19.3424 22.0682 19.2998 25.312 19.1892 28.6618C17.3684 29.5946 16.2878 30.1247 15.9475 30.2518V13.2272H15.99Z" />
  <path d="M24.0043 8.86219C32.3342 8.86219 39.1411 15.6466 39.1411 24C39.1411 32.3534 32.3597 39.1378 24.0043 39.1378C15.6488 39.1378 8.8674 32.3534 8.8674 24C8.8674 15.6466 15.6488 8.86219 24.0043 8.86219ZM24.0043 6C14.0577 6 6 14.0566 6 24C6 33.9434 14.0577 42 24.0043 42C33.9423 42 42 33.9434 42 24C42 14.0566 33.9423 6 24.0043 6Z" />
</svg>