<svg width="48" height="48" viewBox="0 0 48 48" xmlns="http://www.w3.org/2000/svg">
 <g fill="black">
  <path d="M27.1249 32.8784C28.1076 32.8784 28.9013 32.0853 28.9013 31.1069C28.9013 30.1286 28.1076 29.3354 27.1249 29.3354C26.1497 29.3354 25.356 30.1286 25.356 31.1069C25.356 32.0853 26.1497 32.8784 27.1249 32.8784Z" />
  <path d="M20.7587 32.9311C21.7414 32.9311 22.5277 32.138 22.5277 31.1596C22.5277 30.1813 21.7414 29.3882 20.7587 29.3882C19.7835 29.3882 18.9897 30.1813 18.9897 31.1596C18.9897 32.138 19.7835 32.9311 20.7587 32.9311Z" />
  <path d="M16.8796 14.4242H21.0999C21.894 16.5726 23.9663 22.6598 24.1176 22.9989C24.1554 22.8294 26.2428 16.1957 26.8328 14.4619H31.2195V29.595C30.6749 29.2934 30.1303 28.9919 29.5404 28.6526C29.1319 28.4454 28.7538 28.2192 28.3378 28.0496C28.3 25.1097 28.2622 22.1886 28.1715 19.1356C27.5815 20.8883 25.547 27.0697 25.3806 27.2393H22.6654C22.6654 27.2393 20.0258 19.7387 19.8972 19.3995C19.8595 22.2828 19.8216 25.1662 19.7233 28.1439C18.1048 28.973 17.1443 29.4442 16.8418 29.5572V14.4242H16.8796Z" />
  <path d="M24.0038 10.5442C31.4082 10.5442 37.4588 16.5748 37.4588 24C37.4588 31.4252 31.4309 37.4558 24.0038 37.4558C16.5767 37.4558 10.5488 31.4252 10.5488 24C10.5488 16.5748 16.5767 10.5442 24.0038 10.5442ZM24.0038 8C15.1624 8 8 15.1614 8 24C8 32.8386 15.1624 40 24.0038 40C32.8376 40 40 32.8386 40 24C40 15.1614 32.8376 8 24.0038 8Z" />
 </g>
</svg>
