<svg xmlns="http://www.w3.org/2000/svg" viewBox="0 0 48 48" fill="black">
  <path d="M41.9766 21.7746C41.3963 21.3358 40.7931 20.9288 40.1688 20.5552C39.8998 20.385 39.6496 20.1867 39.422 19.9638C38.9555 19.5035 38.1784 18.6957 37.9252 18.1988C37.7608 17.894 37.8278 17.3117 37.9559 16.7661C38.1745 15.8096 38.008 14.8054 37.4924 13.9707L36.6816 12.6477C36.3075 12.0458 36.0078 11.401 35.7883 10.7272C35.5074 9.86206 35.0198 9.07839 34.3677 8.44398C33.0478 7.15452 29.3929 6.5235 26.3597 6.41984C26.1722 6.36515 25.9819 6.32038 25.7896 6.28571C24.4361 6.05403 22.9973 5.67603 21.7017 5.926C19.7843 6.28267 17.8425 6.88322 16.3945 8.36472C16.0897 8.66956 15.6446 8.80673 15.3306 9.09025C14.7057 9.65418 13.8674 9.65418 13.3126 10.2791C12.9864 10.6449 12.837 11.8338 11.9865 12.288C10.5782 13.044 9.54781 13.8732 9.19724 14.2969C8.93812 14.617 8.73997 14.9889 8.49003 15.315C8.24005 15.6412 7.02068 16.2296 6.66097 16.5679C6.39202 16.8663 6.19676 17.2236 6.09087 17.6112C5.98498 17.9987 5.97142 18.4057 6.05131 18.7994C6.07264 18.8939 6.08789 18.9701 6.10007 19.031C6.24031 19.5492 6.61828 20.4851 6.52991 20.9149C6.42928 21.424 5.11849 25.2162 8.05409 26.2282C8.32194 26.3089 8.55696 26.473 8.72478 26.697C8.8926 26.9207 8.98447 27.1924 8.98688 27.4721C9.04684 27.9785 9.19217 28.4711 9.41671 28.9293C9.61179 29.3007 9.8995 29.6159 10.252 29.8437C10.628 30.2021 10.9832 30.5816 11.3159 30.9807C12.3523 32.8981 12.0627 33.8555 14.0594 34.5078C14.5691 34.6761 15.0587 34.9001 15.5196 35.1754C16.0804 35.5135 16.6816 35.7797 17.309 35.968L17.3883 35.9954C17.8303 34.9314 18.2753 33.9192 18.7235 32.9681C17.5674 31.8401 16.7425 30.4168 16.3384 28.853C15.9342 27.2892 15.9663 25.6443 16.4311 24.0975C16.4408 24.0644 16.4588 24.0343 16.4832 24.01C16.5077 23.9857 16.538 23.968 16.5711 23.9586C16.6043 23.9492 16.6394 23.9483 16.673 23.956C16.7066 23.9638 16.7377 23.9799 16.7633 24.003C17.5133 24.6614 19.7934 27.033 19.5252 31.3191C20.3147 29.7431 21.0799 28.3562 21.781 27.1733C20.9343 25.7888 20.4805 24.1998 20.4681 22.5769C20.4558 20.954 20.8854 19.3583 21.7109 17.961C21.7297 17.9321 21.7554 17.9083 21.7858 17.8919C21.8161 17.8754 21.8501 17.8668 21.8846 17.8668C21.9192 17.8668 21.9531 17.8754 21.9835 17.8919C22.0138 17.9083 22.0396 17.9321 22.0584 17.961C22.5858 18.7414 24.0124 21.3143 23.1284 24.9876C23.7716 24.006 24.2929 23.2805 24.6312 22.8263C25.5458 16.7295 30.1549 14.7328 31.3652 14.3091C31.3976 14.2971 31.4325 14.2935 31.4664 14.2986C31.5007 14.3038 31.5329 14.3175 31.5603 14.3385C31.5877 14.3595 31.6094 14.3871 31.6231 14.4188C31.6371 14.4504 31.6428 14.485 31.6395 14.5194C31.45 16.3749 30.7745 18.1475 29.681 19.6584C28.5875 21.1694 27.1148 22.3651 25.4116 23.125C24.7684 23.9694 24.1526 24.8595 23.5613 25.7742C25.6006 24.1767 28.463 23.4268 30.8409 24.003C30.8743 24.0108 30.9055 24.0268 30.9312 24.0497C30.9571 24.0725 30.9767 24.1015 30.9886 24.1339C31.0003 24.1663 31.0038 24.201 30.9988 24.2351C30.9937 24.2693 30.9803 24.3015 30.9597 24.3291C30.2767 25.2437 27.5577 28.2921 22.4242 27.5847C21.5615 29.0451 20.7659 30.5235 20.0647 31.9348C22.2748 30.2643 25.5061 29.6212 28.012 30.4654C28.0454 30.4758 28.0757 30.4946 28.0999 30.5196C28.1243 30.5449 28.1419 30.5756 28.1508 30.6096C28.16 30.6432 28.1603 30.679 28.152 30.7129C28.144 30.7469 28.127 30.7782 28.1034 30.8038C27.326 31.6423 24.3295 34.392 19.4002 33.3006C18.9368 34.2791 18.2479 35.8825 17.9126 36.6752C17.7967 36.9495 17.6901 37.2238 17.6077 37.5041C17.3913 38.1505 17.0956 38.9584 16.745 39.7662C16.6964 39.8812 16.6718 40.0051 16.6728 40.1299C16.6738 40.255 16.7004 40.3783 16.751 40.4927C16.8015 40.6068 16.875 40.7095 16.9667 40.7944C17.0585 40.879 17.1667 40.9443 17.2846 40.9857C21.1725 42.375 25.3944 42.5316 29.3745 41.4337C29.5061 41.3961 29.6274 41.3294 29.7298 41.2386C29.832 41.148 29.9127 41.0354 29.966 40.9094C30.0483 40.7143 30.1305 40.5281 30.1305 40.5281C30.1305 40.5281 31.8498 36.5349 32.103 34.7944C32.1757 34.246 32.346 33.7155 32.6058 33.2273C32.7404 32.983 32.9352 32.7772 33.1715 32.6288C33.4077 32.4805 33.6778 32.395 33.9563 32.3798C35.264 32.3098 38.0533 32.1269 39.0684 31.8067C40.4187 31.3769 39.8337 28.92 39.7604 28.6579C39.6871 28.3958 40.4098 27.7768 40.559 27.4173C40.7085 27.0574 40.1932 26.9356 39.9829 26.5391C39.7726 26.143 40.5042 25.8624 40.6079 25.5028C40.7115 25.1431 40.3701 24.7529 40.2328 24.4877C40.139 24.295 40.0744 24.0896 40.0407 23.878C40.0407 23.878 41.0284 23.1555 41.5649 22.6982C42.1017 22.241 41.9918 21.866 41.9888 21.7837" />
</svg>