<svg xmlns="http://www.w3.org/2000/svg" viewBox="0 0 48 48" fill="black">
  <path d="M24 6C14.0598 6 6 14.0598 6 24C6 33.9402 14.0598 42 24 42C33.9402 42 42 33.9402 42 24C42 14.0598 33.9402 6 24 6ZM24 33.1649V39.8901C17.0822 39.8901 11.4726 34.2804 11.4726 27.3627C11.4726 20.4448 17.0822 14.8352 24 14.8352V8.10989C30.9178 8.10989 36.5275 13.7196 36.5275 20.6373C36.5275 27.5552 30.9178 33.1649 24 33.1649ZM30.1978 23.9419V24.058C27.4655 25.4189 25.4189 27.4654 24.0581 30.1978H23.942C22.5811 27.4654 20.5345 25.4189 17.8022 24.058V23.9419C20.5345 22.5811 22.5811 20.5345 23.942 17.8022H24.0581C25.4189 20.5345 27.4655 22.5811 30.1978 23.9419Z" />
</svg>