<svg width="48" height="48" viewBox="0 0 48 48" fill="none" xmlns="http://www.w3.org/2000/svg">
<path d="M37.1244 13.6193L27.7607 9.4668L21.4192 10.9231V11.3606L29.4561 15.5855L37.1244 13.6917V13.6193Z" fill="url(#paint0_linear_320_51)"/>
<path d="M39.9267 27.0228L28.4247 21.7781L19.0601 24.2551V24.8374L28.94 30.2289L40.0001 27.0228H39.9267Z" fill="url(#paint1_linear_320_51)"/>
<path d="M21.4192 11.3607L27.7607 9.90343L34.8394 8.3004V4.07544L21.4192 6.98989V11.3607Z" fill="black"/>
<path d="M37.1246 13.6184L29.4563 15.5131L19.0601 18.0625V24.8379L28.4247 22.3609L37.1246 20.0296V13.6184Z" fill="black"/>
<path d="M8 36.3477C10.2116 39.4805 13.1614 42.1033 16.6265 43.9246L39.9267 36.4211V27.0229L28.8667 30.229L8 36.2753V36.3477Z" fill="black"/>
<defs>
<linearGradient id="paint0_linear_320_51" x1="24.5601" y1="14.3619" x2="33.9836" y2="14.3619" gradientUnits="userSpaceOnUse">
<stop/>
<stop offset="1" stop-opacity="0.01"/>
</linearGradient>
<linearGradient id="paint1_linear_320_51" x1="23.1637" y1="21.9112" x2="35.7389" y2="21.9112" gradientUnits="userSpaceOnUse">
<stop/>
<stop offset="1" stop-opacity="0.01"/>
</linearGradient>
</defs>
</svg>
