<svg xmlns="http://www.w3.org/2000/svg" viewBox="0 0 48 48" fill="black">
  <path d="M42 24.0965C42 24.279 41.9974 24.4615 41.9923 24.644H41.9712H33.2373V24.2451H24.8108C24.8108 24.1616 24.8134 24.0782 24.8134 23.9974C24.8134 23.9166 24.8134 23.8305 24.8108 23.7497H33.2373V23.3534H33.2504H41.9843C41.9949 23.6011 42 23.8488 42 24.0965ZM24.6622 22.3001L32.9088 21.2859L32.9584 21.6822L41.6662 20.6107C41.583 20.1831 41.4838 19.7607 41.3716 19.3462L32.7992 20.4021L32.8488 20.7984L24.5631 21.8178C24.5997 21.9794 24.6336 22.1411 24.6622 22.3053V22.3001ZM24.232 20.7045L32.1136 18.7361L32.2101 19.122L40.5738 17.0336C40.4017 16.6295 40.2166 16.2306 40.0186 15.8421L31.8997 17.8705L31.9962 18.2564L24.0495 20.243C24.1147 20.3969 24.1747 20.5507 24.232 20.7071V20.7045ZM23.5333 19.2106L30.9012 16.4287L31.042 16.8016L38.8374 13.8581C38.5847 13.4878 38.3186 13.128 38.0372 12.7787L30.5857 15.5918L30.7266 15.9647L23.27 18.7804C23.3612 18.9212 23.4499 19.0646 23.5333 19.2106ZM22.5661 17.8288L29.0736 14.4369L29.2561 14.7914L36.452 11.0397C36.1208 10.719 35.7767 10.414 35.4221 10.1194L28.659 13.6443L28.8415 13.9988L22.2245 17.4481C22.3392 17.5733 22.4539 17.6984 22.5634 17.8288H22.5661ZM20.9965 16.3375L26.8888 12.591L27.1025 12.9273L33.6048 8.79229C33.1954 8.53157 32.7784 8.28911 32.3483 8.06228L26.4116 11.8375L26.6254 12.1738L20.5637 16.0272C20.7123 16.1263 20.8557 16.2306 20.9991 16.3375H20.9965ZM19.6043 15.4667L24.5423 11.4177L24.7952 11.7254L30.3563 7.1628C29.8844 6.98291 29.3995 6.82126 28.9093 6.68047L23.9765 10.7268L24.2294 11.0345L19.1115 15.232C19.2784 15.305 19.4426 15.3833 19.6043 15.4667ZM17.761 14.7497L21.6614 10.8676L21.9403 11.1492L26.8966 6.22422C26.3595 6.13557 25.8146 6.07039 25.2619 6.02868L21.0356 10.2341L21.3146 10.5156L17.1953 14.6141C17.3856 14.6533 17.5733 14.6976 17.761 14.7497ZM15.6049 14.4238L18.7152 10.6538L19.0229 10.9067L23.0718 6C22.4566 6.02868 21.8491 6.08864 21.252 6.17729L18.0269 10.0855L18.3346 10.3384L14.9661 14.4212C15.06 14.4186 15.1564 14.416 15.2503 14.416C15.3702 14.416 15.4875 14.416 15.6049 14.4212V14.4238ZM13.7407 14.5359L16.1367 10.8285L16.4705 11.0449L19.367 6.56055C18.7048 6.73262 18.0582 6.94119 17.4273 7.18366L15.3885 10.341L15.7222 10.5574L13.0681 14.6663C13.2897 14.6141 13.5139 14.5698 13.7407 14.5333V14.5359ZM11.6706 15.1121L13.394 11.8818L13.7433 12.0695L16.0246 7.79635C15.292 8.15353 14.5881 8.55764 13.9154 9.00609L12.604 11.462L12.956 11.6498L10.9276 15.4511C11.1674 15.3285 11.4151 15.2164 11.668 15.1147L11.6706 15.1121ZM10.1845 15.8708L10.9172 13.7903L11.2926 13.9232L12.7161 9.88209C11.9939 10.4557 11.3161 11.0814 10.6877 11.7567L10.075 13.4956L10.4505 13.6286L9.49102 16.3505C9.71525 16.1811 9.94466 16.022 10.1819 15.8734L10.1845 15.8708ZM8.3569 17.3595L8.68018 15.8473L9.06865 15.9308L9.72046 12.8856C9.03475 13.7564 8.42729 14.6923 7.90846 15.6805L8.19786 15.743L7.60342 18.2459C7.83546 17.9357 8.08836 17.6385 8.3569 17.3595ZM7.01419 19.1272V17.1249C6.52926 18.405 6.18511 19.998 6 21.5597C6.22682 20.6941 6.57097 19.878 7.01419 19.1272ZM6.01304 26.4872C6.20336 27.8195 6.53708 29.1049 7.00116 30.3276V28.8494C6.57358 28.1194 6.23725 27.3268 6.01304 26.4872ZM7.66599 29.8374L8.18482 32.2569L7.89542 32.3195C8.41424 33.3102 9.02173 34.2436 9.70742 35.1144L9.05563 32.0691L8.66716 32.1526L8.33864 30.6221C8.10139 30.372 7.87456 30.1113 7.66599 29.8348V29.8374ZM9.47276 31.6364L10.4374 34.3741L10.062 34.5069L10.6747 36.2458C11.303 36.9212 11.9809 37.547 12.7031 38.1204L11.2795 34.0793L10.9041 34.2123L10.1689 32.1213C9.93164 31.9703 9.69958 31.8111 9.47538 31.6416L9.47276 31.6364ZM10.9119 32.5411L12.9455 36.3529L12.5936 36.5406L13.905 38.9966C14.5776 39.4449 15.2816 39.8491 16.0142 40.2063L13.7329 35.9331L13.3809 36.1208L11.6524 32.8826C11.3995 32.781 11.1518 32.6662 10.9093 32.5437L10.9119 32.5411ZM13.0524 33.3284L15.7092 37.4427L15.3754 37.659L17.4142 40.8164C18.0452 41.0589 18.6918 41.2674 19.354 41.4394L16.4574 36.9551L16.1237 37.1716L13.7251 33.4589C13.4983 33.4224 13.2714 33.378 13.0498 33.3259L13.0524 33.3284ZM14.9505 33.5788L18.3189 37.6615L18.0113 37.9145L21.2364 41.8228C21.8334 41.9114 22.4409 41.9712 23.0562 42L19.0072 37.0907L18.6996 37.3436L15.5892 33.5737C15.4771 33.5788 15.3624 33.5788 15.2477 33.5788C15.1486 33.5788 15.0469 33.5788 14.9478 33.5737L14.9505 33.5788ZM17.1848 33.3859L21.3016 37.4818L21.0226 37.7632L25.2488 41.9687C25.8016 41.9271 26.3465 41.8618 26.8836 41.7732L21.9299 36.8457L21.6483 37.1297L17.7506 33.2504C17.5655 33.2999 17.3751 33.3467 17.1848 33.3859ZM19.1037 32.7732L24.2164 36.9682L23.9635 37.2758L28.8963 41.3221C29.3864 41.1814 29.8713 41.0196 30.3432 40.8398L24.7795 36.2772L24.5267 36.5848L19.5939 32.5385C19.4322 32.622 19.268 32.7001 19.1011 32.7732H19.1037ZM20.5533 31.9754L26.6072 35.8262L26.3934 36.1626L32.33 39.9377C32.7602 39.711 33.18 39.4657 33.5865 39.2077L27.0843 35.0728L26.8705 35.409L20.9861 31.6678C20.8427 31.7746 20.6993 31.8789 20.5507 31.978L20.5533 31.9754ZM22.2219 30.5571L28.8311 34.0012L28.6486 34.3558L35.4115 37.8806C35.7662 37.586 36.1103 37.281 36.4415 36.9602L29.2456 33.2085L29.0631 33.5631L22.5634 30.1763C22.4539 30.3068 22.3418 30.4344 22.2245 30.5571H22.2219ZM23.2674 29.2222L30.7135 32.0352L30.5728 32.4081L38.0241 35.2212C38.303 34.872 38.569 34.5122 38.8245 34.1419L31.0289 31.1984L30.8882 31.5712L23.5307 28.792C23.4473 28.938 23.3586 29.0814 23.2674 29.2222ZM24.0469 27.7622L31.9805 29.7436L31.8842 30.1296L40.0029 32.158C40.2037 31.7695 40.3886 31.3704 40.5609 30.9665L32.197 28.878L32.1005 29.2639L24.2294 27.2981C24.1721 27.4545 24.1095 27.6083 24.0469 27.7622ZM24.5631 26.1874L32.8357 27.2042L32.7861 27.6005L41.3585 28.6564C41.4708 28.2393 41.5699 27.8169 41.6533 27.3919L32.9453 26.3204L32.8957 26.7167L24.6622 25.7025C24.6336 25.8667 24.5997 26.0284 24.5631 26.19V26.1874Z" />
</svg>