<svg width="48" height="48" viewBox="0 0 48 48" fill="none" xmlns="http://www.w3.org/2000/svg">
<g clip-path="url(#clip0_332_42)">
<path d="M10.5558 42.4702H11.337C11.479 42.4702 11.6211 42.398 11.6685 42.2776C17.5631 27.0135 23.9784 19.4537 28.0029 14.9274C28.1686 14.7348 28.0976 14.5904 27.8608 14.5904H20.6643C20.4038 14.5904 20.1837 14.6963 20.0014 14.9274L14.8406 21.428C14.0831 22.391 13.8938 23.2817 13.8938 24.5577V31.2027C12.2129 35.9938 11.1476 39.2441 10.3665 42.1814C10.3191 42.3691 10.3901 42.4702 10.5558 42.4702ZM36.5252 7.43981C35.4125 6.23605 30.3939 6.18788 28.0738 7.1028C27.591 7.29295 27.1269 7.61555 26.9139 7.80093C24.7833 9.65482 23.363 11.1235 22.0136 12.568C21.8478 12.7365 21.9189 12.905 22.1557 12.905H30.1335C30.8673 12.905 31.2934 13.3384 31.2934 14.0847V23.2336C31.2934 23.4744 31.4828 23.5466 31.6249 23.3299L36.4305 16.9497C37.2117 15.9145 37.4484 15.6015 37.6614 14.157C37.9455 12.0383 37.7798 8.78813 36.5252 7.43981ZM26.2274 31.7084L29.5179 26.1949C29.589 26.0505 29.6126 25.8819 29.6126 25.7616V16.5645C29.6126 16.3238 29.4469 16.2276 29.2813 16.4201C24.3336 22.0298 20.4748 27.9284 16.9002 35.0308C16.8102 35.2089 16.9239 35.3678 17.137 35.2957L24.5229 32.9844C25.3562 32.7243 25.8249 32.3825 26.2274 31.7084Z" fill="black"/>
</g>
<defs>
<clipPath id="clip0_332_42">
<rect width="27.4286" height="36" fill="white" transform="translate(10.3521 6.47021)"/>
</clipPath>
</defs>
</svg>
