<svg xmlns="http://www.w3.org/2000/svg" viewBox="0 0 48 48" fill="black">
 <path d="M10 7.39343V31.6099C10.0003 32.0622 10.1024 32.5088 10.2989 32.9164C10.4954 33.3241 10.7812 33.6824 11.1351 33.9652L22.5811 43.1294C22.9837 43.451 23.4842 43.6262 24 43.6262C24.5158 43.6262 25.0162 43.451 25.419 43.1294L36.8648 33.9652C37.2189 33.6824 37.5046 33.3241 37.701 32.9164C37.8976 32.5088 37.9997 32.0622 38 31.6099V7.39343C38 6.5926 37.6811 5.82456 37.1134 5.2583C36.5457 4.69203 35.7758 4.3739 34.973 4.3739H13.027C12.2242 4.3739 11.4543 4.69203 10.8866 5.2583C10.3189 5.82456 10 6.5926 10 7.39343Z" />
 <path d="M32.1072 18.3286V13.0379C32.1072 12.3363 31.8337 11.6635 31.3471 11.1674C30.8604 10.6713 30.2003 10.3926 29.512 10.3926H18.4828C17.7945 10.3926 17.1345 10.6713 16.6478 11.1674C16.1611 11.6635 15.8877 12.3363 15.8877 13.0379V28.3891C15.8879 28.7853 15.9755 29.1765 16.144 29.5336C16.3124 29.8908 16.5574 30.2048 16.8609 30.4525L20.8768 33.7392C20.9245 33.7787 20.9821 33.8035 21.0431 33.8109C21.1041 33.8182 21.1658 33.8078 21.2212 33.7807C21.2766 33.7537 21.3233 33.7112 21.3559 33.6582C21.3885 33.6052 21.4057 33.5439 21.4055 33.4813V22.6273C21.4055 22.5395 21.4397 22.4555 21.5006 22.3935C21.5614 22.3314 21.6439 22.2965 21.7299 22.2965H24.6495C25.1656 22.2965 25.6607 22.5056 26.0257 22.8777C26.3907 23.2497 26.5957 23.7543 26.5957 24.2806V33.4813C26.5959 33.5436 26.6131 33.6046 26.6457 33.6573C26.6782 33.71 26.7247 33.7523 26.7798 33.7793C26.8349 33.8062 26.8963 33.8168 26.957 33.8096C27.0177 33.8025 27.0753 33.7782 27.1229 33.7392L31.1388 30.4525C31.4423 30.2048 31.6873 29.8908 31.8557 29.5336C32.0242 29.1765 32.1117 28.7853 32.112 28.3891V23.6192C32.112 22.9176 31.8385 22.2448 31.3519 21.7487C30.8652 21.2527 30.2051 20.9738 29.5169 20.9738C30.2043 20.9725 30.8631 20.6933 31.3488 20.1973C31.8344 19.7014 32.1072 19.0293 32.1072 18.3286ZM24.6462 19.6513H21.7267C21.6407 19.6513 21.5582 19.6164 21.4973 19.5543C21.4365 19.4923 21.4023 19.4083 21.4023 19.3205V13.3686C21.4023 13.2809 21.4365 13.1968 21.4973 13.1348C21.5582 13.0727 21.6407 13.0379 21.7267 13.0379H26.2681C26.3542 13.0379 26.4366 13.0727 26.4975 13.1348C26.5583 13.1968 26.5925 13.2809 26.5925 13.3686V17.6672C26.5925 18.1935 26.3874 18.6981 26.0225 19.0701C25.6575 19.4422 25.1624 19.6513 24.6462 19.6513Z" fill="white"/>
</svg>
