<svg xmlns="http://www.w3.org/2000/svg" width="32" height="32" viewBox="0 0 28 39.2523" fill="none" preserveAspectRatio="xMidYMid meet">
<g clip-path="url(#ronin_clip0)">
<path fill-rule="evenodd" clip-rule="evenodd" d="M0 3.01953V27.236C0.000283361 27.6883 0.102436 28.1349 0.298912 28.5425C0.495387 28.9502 0.781165 29.3085 1.13514 29.5913L12.5811 38.7555C12.9837 39.0771 13.4842 39.2523 14 39.2523C14.5158 39.2523 15.0162 39.0771 15.419 38.7555L26.8648 29.5913C27.2189 29.3085 27.5046 28.9502 27.701 28.5425C27.8976 28.1349 27.9997 27.6883 28 27.236V3.01953C28 2.2187 27.6811 1.45066 27.1134 0.884397C26.5457 0.318127 25.7758 0 24.973 0H3.02702C2.22421 0 1.45427 0.318127 0.886595 0.884397C0.318917 1.45066 0 2.2187 0 3.01953Z" fill="black"/>
<path d="M22.1071 13.9548V8.66407C22.1071 7.96249 21.8337 7.28964 21.3471 6.79354C20.8603 6.29744 20.2002 6.01874 19.512 6.01874H8.48276C7.7945 6.01874 7.13443 6.29744 6.64775 6.79354C6.16108 7.28964 5.88766 7.96249 5.88766 8.66407V24.0153C5.88791 24.4115 5.97548 24.8027 6.14392 25.1597C6.31236 25.5169 6.55736 25.831 6.86083 26.0786L10.8768 29.3654C10.9244 29.4049 10.9821 29.4296 11.0431 29.4371C11.104 29.4444 11.1658 29.4339 11.2211 29.4068C11.2765 29.3799 11.3232 29.3374 11.3559 29.2844C11.3885 29.2314 11.4057 29.17 11.4055 29.1075V18.2534C11.4055 18.1656 11.4397 18.0816 11.5005 18.0196C11.5614 17.9576 11.6439 17.9227 11.7299 17.9227H14.6494C15.1656 17.9227 15.6607 18.1317 16.0256 18.5039C16.3907 18.8758 16.5957 19.3805 16.5957 19.9067V29.1075C16.5958 29.1698 16.6131 29.2307 16.6457 29.2835C16.6781 29.3362 16.7247 29.3785 16.7798 29.4054C16.8349 29.4324 16.8962 29.443 16.9569 29.4358C17.0177 29.4287 17.0752 29.4044 17.1229 29.3654L21.1388 26.0786C21.4423 25.831 21.6872 25.5169 21.8556 25.1597C22.0242 24.8027 22.1117 24.4115 22.112 24.0153V19.2453C22.112 18.5438 21.8385 17.871 21.3519 17.3748C20.8652 16.8788 20.2051 16.6 19.5169 16.6C20.2043 16.5987 20.8631 16.3195 21.3488 15.8234C21.8343 15.3276 22.1071 14.6554 22.1071 13.9548ZM14.6462 15.2774H11.7267C11.6406 15.2774 11.5581 15.2425 11.4973 15.1805C11.4364 15.1185 11.4023 15.0345 11.4023 14.9467V8.99473C11.4023 8.90703 11.4364 8.82292 11.4973 8.76092C11.5581 8.6989 11.6406 8.66407 11.7267 8.66407H16.2681C16.3542 8.66407 16.4366 8.6989 16.4974 8.76092C16.5583 8.82292 16.5924 8.90703 16.5924 8.99473V13.2934C16.5924 13.8196 16.3874 14.3243 16.0225 14.6963C15.6574 15.0684 15.1623 15.2774 14.6462 15.2774Z" fill="url(#ronin_paint0)"/>
</g>
<defs>
<linearGradient id="ronin_paint0" x1="13.9998" y1="6.01874" x2="13.9998" y2="29.4393" gradientUnits="userSpaceOnUse">
<stop stop-color="white"/>
<stop offset="0.458333" stop-color="white"/>
<stop offset="1" stop-color="white"/>
</linearGradient>
<clipPath id="ronin_clip0">
<rect width="28" height="39.2523" fill="white"/>
</clipPath>
</defs>
</svg>
