<svg xmlns="http://www.w3.org/2000/svg" viewBox="0 0 48 48" fill="black">
 <path d="M23.9336 41.9545C29.2647 41.9545 34.0543 39.6376 37.3488 35.9564C35.8163 34.6255 33.5067 34.5447 31.8752 35.8601L31.5635 36.1115C28.5762 38.52 24.2234 38.1643 21.6675 35.3028C20.2735 33.7421 17.8861 33.5828 16.2967 34.9443L12.703 38.0228C15.7809 40.4833 19.6853 41.9545 23.9336 41.9545ZM29.7668 33.2493C32.6122 30.9552 36.6115 31.0374 39.3481 33.2532C40.9838 30.5451 41.9249 27.371 41.9249 23.9773C41.9249 20.2062 40.7629 16.7065 38.7771 13.8158C37.497 13.5434 36.1095 13.8615 35.0562 14.7942L34.7564 15.0596C31.8836 17.6034 27.519 17.4488 24.8336 14.7082C23.369 13.2135 20.9767 13.1644 19.4519 14.5978L15.2699 18.5291L12.9694 16.0857L17.1514 12.1544C20.0077 9.4693 24.489 9.56124 27.2326 12.3612C28.6661 13.8242 30.9961 13.9068 32.5297 12.5488L32.8295 12.2834C33.7604 11.4591 34.8375 10.9034 35.9652 10.6111C32.7777 7.74453 28.5595 6 23.9336 6C14.8005 6 7.25684 12.8 6.09687 21.6095C8.87096 20.2793 12.2928 20.7912 14.5547 23.1057C15.9826 24.5667 18.2818 24.7209 19.8923 23.4637L22.2306 21.6384C25.1691 19.3444 29.3233 19.4555 32.1349 21.9032L36.6872 25.8662L34.4817 28.3956L29.9294 24.4326C28.3307 23.0408 25.9685 22.9776 24.2975 24.2821L21.9594 26.1073C19.0003 28.4173 14.776 28.1339 12.1526 25.4495C10.627 23.8885 8.13199 23.834 6.53968 25.327L6.03369 25.8013C6.41236 29.5562 7.94736 32.9699 10.2775 35.6818L14.1114 32.3974C17.0887 29.8469 21.561 30.1454 24.1724 33.069C25.5368 34.5965 27.8605 34.7864 29.4552 33.5006L29.7668 33.2493Z" />
</svg>
