<svg xmlns="http://www.w3.org/2000/svg" width="32" height="32" viewBox="0 0 35.9327 36" fill="none" preserveAspectRatio="xMidYMid meet">
<g clip-path="url(#sei_clip0)">
<path fill-rule="evenodd" clip-rule="evenodd" d="M17.8999 35.9545C23.231 35.9545 28.0207 33.6376 31.3151 29.9564C29.7826 28.6255 27.473 28.5447 25.8415 29.8601L25.5299 30.1115C22.5425 32.52 18.1898 32.1643 15.6338 29.3028C14.2398 27.7421 11.8524 27.5828 10.263 28.9443L6.66931 32.0228C9.74725 34.4833 13.6516 35.9545 17.8999 35.9545ZM23.7332 27.2493C26.5785 24.9552 30.5778 25.0374 33.3144 27.2532C34.9501 24.5451 35.8912 21.371 35.8912 17.9773C35.8912 14.2062 34.7292 10.7065 32.7434 7.81577C31.4633 7.54338 30.0758 7.86152 29.0225 8.79416L28.7228 9.05962C25.8499 11.6034 21.4853 11.4488 18.7999 8.70823C17.3353 7.21353 14.943 7.1644 13.4182 8.59781L9.23626 12.5291L6.93569 10.0857L11.1177 6.1544C13.974 3.4693 18.4553 3.56124 21.1989 6.36123C22.6324 7.82425 24.9624 7.90681 26.496 6.54882L26.7958 6.28337C27.7267 5.45907 28.8038 4.90337 29.9315 4.6111C26.744 1.74453 22.5258 0 17.8999 0C8.76677 0 1.22315 6.80003 0.0631826 15.6095C2.83726 14.2793 6.25908 14.7912 8.52096 17.1057C9.94892 18.5667 12.2481 18.7209 13.8587 17.4637L16.1969 15.6384C19.1354 13.3444 23.2896 13.4555 26.1012 15.9032L30.6535 19.8662L28.448 22.3956L23.8957 18.4326C22.297 17.0408 19.9348 16.9776 18.2638 18.2821L15.9257 20.1073C12.9666 22.4173 8.74235 22.1339 6.11887 19.4495C4.59334 17.8885 2.0983 17.834 0.50599 19.327L0 19.8013C0.37867 23.5562 1.91367 26.9699 4.24377 29.6818L8.07773 26.3974C11.055 23.8469 15.5273 24.1454 18.1387 27.069C19.5031 28.5965 21.8268 28.7864 23.4215 27.5006L23.7332 27.2493Z" fill="black"/>
</g>
<defs>
<clipPath id="sei_clip0">
<rect width="35.9327" height="36" fill="white"/>
</clipPath>
</defs>
</svg>
