<svg xmlns="http://www.w3.org/2000/svg" viewBox="0 0 48 48" fill="black">
  <path d="M4.2981 11.5187L10.893 13.6211L24.036 6L39.3283 14.9351V27.8121L40.8518 29.1261L38.0675 28.0217V15.4857L24.036 7.52359L10.9994 14.9601L4.2981 11.5187Z" />
  <path d="M43.7017 36.4843L37.1068 34.382L23.9638 41.9999L8.67467 33.068V20.1909L7.14795 18.877L9.93547 19.9813V32.5142L23.9638 40.4763L37.0004 33.0398L43.7017 36.4843Z" />
  <path d="M12.0504 17.0533V28.3348L23.8575 22.4844L15.8328 22.45L15.8673 19.2276L23.6448 14.6725C23.6448 14.6725 23.8888 14.5317 24.38 14.6725C24.8712 14.8132 31.2127 19.0524 31.2127 19.0524L36.5375 16.39L34.1535 16.3212L24.2893 10.3301C24.2893 10.3301 23.9576 10.1549 23.6417 10.3301C23.3257 10.5053 12.0442 17.0564 12.0442 17.0564L12.0504 17.0533Z" />
  <path d="M35.8771 31.3787V20.0972L24.0701 25.9475L32.0948 25.9819L32.0603 29.2043L24.2828 33.7595C24.2828 33.7595 24.0388 33.9002 23.5476 33.7595C23.0564 33.6187 16.7149 29.3795 16.7149 29.3795L11.3901 32.0419L13.7741 32.1107L23.6383 38.1019C23.6383 38.1019 23.97 38.2771 24.2859 38.1019C24.6019 37.9267 35.8834 31.3755 35.8834 31.3755L35.8771 31.3787Z" />
</svg>
