<svg xmlns="http://www.w3.org/2000/svg" viewBox="0 0 48 48" fill="black" >
  <path d="M41.8147 33.047L35.8717 39.256C35.7426 39.3909 35.5862 39.4985 35.4125 39.572C35.2388 39.6454 35.0515 39.6833 34.8621 39.6832H6.68993C6.5555 39.6832 6.42401 39.645 6.3116 39.5732C6.19919 39.5013 6.11076 39.3991 6.05718 39.279C6.0036 39.1589 5.9872 39.0262 6.00999 38.8971C6.03279 38.768 6.09379 38.6483 6.1855 38.5525L12.1329 32.3435C12.2617 32.209 12.4175 32.1017 12.5906 32.0282C12.7638 31.9547 12.9506 31.9166 13.1394 31.9163H41.3101C41.4445 31.9163 41.576 31.9546 41.6885 32.0264C41.8008 32.0982 41.8891 32.2005 41.943 32.3206C41.9964 32.4407 42.0128 32.5734 41.99 32.7024C41.9672 32.8315 41.9063 32.9513 41.8147 33.047ZM35.8717 20.5438C35.7426 20.4089 35.5862 20.3014 35.4125 20.2279C35.2388 20.1544 35.0515 20.1165 34.8621 20.1166H6.68993C6.5555 20.1166 6.42401 20.1549 6.3116 20.2267C6.19919 20.2985 6.11076 20.4007 6.05718 20.5208C6.0036 20.6409 5.9872 20.7737 6.00999 20.9027C6.03279 21.0318 6.09379 21.1515 6.1855 21.2473L12.1329 27.4563C12.2617 27.5909 12.4175 27.6982 12.5906 27.7717C12.7638 27.8451 12.9506 27.8832 13.1394 27.8835H41.3101C41.4445 27.8835 41.576 27.8453 41.6885 27.7734C41.8008 27.7016 41.8891 27.5994 41.943 27.4793C41.9964 27.3592 42.0128 27.2264 41.99 27.0974C41.9672 26.9684 41.9063 26.8486 41.8147 26.7528L35.8717 20.5438ZM6.68993 16.0838H34.8621C35.0515 16.0839 35.2388 16.046 35.4125 15.9725C35.5862 15.899 35.7426 15.7915 35.8717 15.6566L41.8147 9.44758C41.9063 9.35183 41.9672 9.23207 41.99 9.10301C42.0128 8.97396 41.9964 8.84122 41.943 8.72112C41.8891 8.60102 41.8008 8.49878 41.6885 8.42697C41.576 8.35516 41.4445 8.3169 41.3101 8.31689H13.1394C12.9506 8.31721 12.7638 8.35528 12.5906 8.42876C12.4175 8.50224 12.2617 8.60956 12.1329 8.74408L6.18703 14.9531C6.09541 15.0488 6.03444 15.1684 6.01159 15.2973C5.98874 15.4262 6.00501 15.5588 6.0584 15.6789C6.1118 15.7989 6.19999 15.9012 6.31217 15.9731C6.42435 16.045 6.55563 16.0835 6.68993 16.0838Z" />
</svg>
