<svg xmlns="http://www.w3.org/2000/svg" viewBox="0 0 48 48" fill="black">
  <path d="M23.9775 25.6519C25.4632 24.7513 27.5821 23.505 29.2481 23.505C31.9145 23.505 34.1439 25.3928 34.1439 28.9791C34.1439 34.7001 27.3426 39.9747 17.732 37.6773C17.7003 37.6696 17.6692 37.6938 17.6692 37.7262V40.2987V40.6118V40.8189C17.6692 40.8399 17.6819 40.8583 17.7015 40.8659C19.0265 41.3614 20.4257 41.705 21.8777 41.8752C33.1378 43.1989 42.8666 33.8064 41.9386 22.5065C41.6725 19.2664 40.5762 16.2868 38.8092 13.7664C38.7959 13.7473 38.7723 13.7353 38.7393 13.7524L23.9865 22.2798C22.3096 23.2363 20.3813 24.433 18.7184 24.433C16.0521 24.433 13.8226 22.5453 13.8226 18.959C13.8226 13.2373 20.6246 7.96335 30.2352 10.2615C30.2669 10.2691 30.2974 10.2456 30.2974 10.2125V7.16747C30.2974 7.14651 30.2847 7.12745 30.265 7.12046C28.3132 6.39636 26.2032 6 23.9998 6C14.0589 6 6 14.0586 6 23.9999C6 27.771 7.16044 31.2708 9.14277 34.1628C9.15801 34.1844 9.18723 34.1914 9.2101 34.1781L23.9775 25.6519Z" />
</svg>