<svg xmlns="http://www.w3.org/2000/svg" viewBox="0 0 48 48" fill="black">
  <path d="M37.5118 29.9264C37.5118 37.4847 31.4494 42 23.9693 42C16.489 42 11.2822 37.5337 10.3044 31.8405H17.198C17.9558 34 20.4247 35.5706 23.9693 35.5706C27.9049 35.5706 30.7405 33.5828 30.7405 30.0491C30.7405 26.5153 27.9783 24.6994 23.9448 24.6994V29.681C16.3424 29.681 10.5244 25.362 10.5244 18.1472C10.5244 10.9325 16.1224 6 23.9937 6C31.4494 6 36.5829 10.4417 37.0963 15.9141H30.4472C29.9094 13.9509 27.7338 12.454 24.1404 12.454C19.7647 12.454 17.3446 14.4908 17.3446 17.9509C17.3446 21.4111 20.1314 23.0798 23.9448 23.0798V17.8528C32.2072 17.8528 37.5118 22.8098 37.5118 29.9264Z" />
</svg>