<svg width="48" height="48" viewBox="0 0 48 48" fill="none" xmlns="http://www.w3.org/2000/svg">
<path fill-rule="evenodd" clip-rule="evenodd" d="M33.3941 20.6812C35.0257 22.7298 36.0014 25.3206 36.0014 28.1388C36.0014 30.957 34.9961 33.6269 33.3216 35.687L33.1765 35.865L33.1387 35.6392C33.1057 35.448 33.0678 35.2536 33.0233 35.0591C32.1844 31.374 29.4519 28.2146 24.9542 25.6551C21.9168 23.9312 20.1781 21.8579 19.7215 19.4995C19.4265 17.975 19.6457 16.4439 20.0693 15.132C20.4929 13.8218 21.1224 12.7225 21.6581 12.0616L23.4083 9.9224C23.7149 9.54664 24.2901 9.54664 24.5966 9.9224L33.3957 20.6812H33.3941ZM36.1613 18.5436L24.4334 4.20519C24.2093 3.9316 23.7907 3.9316 23.5665 4.20519L11.8404 18.5436L11.8025 18.5914C9.64513 21.2695 8.35303 24.6728 8.35303 28.3778C8.35303 37.0055 15.3591 44 24 44C32.6409 44 39.647 37.0055 39.647 28.3778C39.647 24.6728 38.3549 21.2695 36.1975 18.593L36.1596 18.5452L36.1613 18.5436ZM14.6471 20.635L15.6953 19.3512L15.7266 19.5885C15.7513 19.7764 15.7826 19.9642 15.8189 20.1538C16.4979 23.7153 18.9222 26.6835 22.9749 28.9826C26.4985 30.9883 28.5504 33.294 29.1404 35.8222C29.3876 36.877 29.4305 37.9152 29.3233 38.8234L29.3167 38.8794L29.2657 38.9041C27.6752 39.6804 25.8871 40.1171 23.9983 40.1171C17.3714 40.1171 11.9986 34.7542 11.9986 28.1371C11.9986 25.2958 12.9891 22.6869 14.6438 20.6317L14.6471 20.635Z" fill="black"/>
</svg>
