<svg xmlns="http://www.w3.org/2000/svg" viewBox="0 0 48 48" fill="black">
  <path d="M33.0144 8.42444C30.2476 6.82669 27.2524 6 24 6C20.7476 6 17.753 6.79855 14.9856 8.42444C12.2188 10.0503 10.0503 12.2182 8.42444 14.9856C6.79855 17.7524 6 20.7476 6 24C6 27.2524 6.79855 30.247 8.42444 33.0144C10.0503 35.7812 12.2182 37.9497 14.9856 39.5756C17.7524 41.2015 20.7476 42 24 42C27.2524 42 30.247 41.2015 33.0144 39.5756C35.7812 37.9497 37.9497 35.7818 39.5756 33.0144C41.2015 30.247 42 27.2524 42 24C42 20.7476 41.2015 17.753 39.5756 14.9856C37.9497 12.2188 35.7818 10.0503 33.0144 8.42444ZM25.1127 30.5042C23.0876 30.5042 21.4617 29.9335 20.2063 28.7644C19.3508 27.9659 18.8088 26.9959 18.5234 25.855H37.9215C37.7219 27.5097 37.2369 29.0498 36.4953 30.5049H25.0846H25.1134L25.1127 30.5042ZM18.5516 22.2026C18.8081 21.0899 19.3789 20.1205 20.2063 19.3213C21.4329 18.1516 23.0876 17.5527 25.1127 17.5527H36.5804C37.322 19.0078 37.7782 20.5479 37.9497 22.2026H18.5516ZM11.8477 16.8399C13.1031 14.6721 14.786 12.9604 16.9257 11.6769C19.0654 10.3933 21.4329 9.7656 24 9.7656C26.5671 9.7656 28.9353 10.3933 31.0743 11.6769C32.1583 12.3327 33.1564 13.1031 34.0126 13.9874H24.9412C22.8873 13.9874 21.0617 14.4155 19.464 15.271C17.8663 16.1265 16.6115 17.2961 15.7272 18.8081C15.0995 19.8639 14.7002 21.0048 14.5294 22.2314H10.0791C10.3076 20.3201 10.8777 18.5228 11.8477 16.8687V16.8399ZM31.0743 36.3231C28.9346 37.6067 26.5671 38.2344 24 38.2344C21.4329 38.2344 19.0647 37.6067 16.9257 36.3231C14.786 35.0396 13.0743 33.3279 11.8477 31.1601C10.9065 29.5342 10.3076 27.7656 10.0791 25.8825H14.5294C14.7002 27.1091 15.1001 28.25 15.7272 29.3057C16.6115 30.7889 17.8669 31.9874 19.464 32.8429C21.0617 33.6984 22.8873 34.1265 24.9412 34.1265H33.9268C33.0713 34.982 32.1295 35.7242 31.0743 36.3513V36.3225V36.3231Z" />
</svg>