<svg xmlns="http://www.w3.org/2000/svg" viewBox="0 0 48 48" fill="black">
 <path d="M34.9762 6.4422L36.5243 8.21056L19.9921 6.11321L18.4438 4.34485L34.9762 6.4422Z" />
 <path d="M35.5632 6.74952L37.1113 8.51787C36.9681 8.3543 36.7644 8.24063 36.5242 8.21013L34.9761 6.44177C35.2162 6.47227 35.4199 6.58572 35.5632 6.74952Z" />
 <path d="M37.1022 8.50798C37.2891 8.71522 37.3777 9.00586 37.3176 9.31083L35.7696 7.54247C35.8296 7.23751 35.741 6.94686 35.5542 6.73962C36.0186 7.27008 36.6379 7.97752 37.1022 8.50798Z" fill="white"/>
 <path d="M17.267 5.19519L18.8151 6.96378L12.2322 40.4577L10.6841 38.6891L17.267 5.19519Z" />
 <path d="M12.4386 41.2503L10.8905 39.482C10.7097 39.2757 10.6251 38.9894 10.6842 38.6893L12.2323 40.4577C12.1734 40.7577 12.258 41.044 12.4386 41.2503Z" />
 <path d="M13.0254 41.5575C12.7902 41.5276 12.5902 41.4182 12.4475 41.2601L10.8994 39.4918C11.0421 39.6501 11.2421 39.7594 11.4774 39.7891C11.9418 40.3196 12.561 41.027 13.0254 41.5575Z" fill="white"/>
 <path d="M28.0099 41.8861L29.5582 43.6547L13.0256 41.5573L11.4775 39.7889L28.0099 41.8861Z" fill="white"/>
 <path d="M35.7697 7.54211L37.3178 9.31047L30.7349 42.8046L29.1868 41.0363L35.7697 7.54211Z" fill="white"/>
 <path d="M29.1853 41.0371C29.0797 41.575 28.5518 41.9562 28.0086 41.8873L11.4762 39.79C10.9331 39.7211 10.5771 39.2276 10.6829 38.69L17.2654 5.19564C17.371 4.65778 17.899 4.27634 18.4421 4.34519L34.9745 6.44254C35.5176 6.51139 35.8736 7.00512 35.7678 7.54274L29.1853 41.0371Z" fill="white"/>
 <path d="M30.3742 9.58567L27.5925 9.23287C27.4495 9.21486 27.3014 9.26568 27.1937 9.36989L25.2332 11.2792C25.1957 11.3161 25.1457 11.3307 25.0998 11.3249C25.0541 11.3191 25.0121 11.293 24.9906 11.2484L23.8749 8.95032C23.8127 8.82325 23.6898 8.738 23.5457 8.71974L20.6035 8.34639C20.2381 8.29995 19.9447 8.68162 20.0987 9.00208L22.4328 13.8687C22.459 13.9252 22.4454 13.9948 22.3973 14.0419L18.1719 18.1583C17.8969 18.4245 18.0291 18.8642 18.3959 18.9105L21.3881 19.2901C21.5337 19.3086 21.6837 19.2564 21.7918 19.1485L23.7805 17.1595C23.8186 17.1212 23.869 17.106 23.9158 17.1117C23.9625 17.1175 24.0041 17.1441 24.0262 17.1891L25.1723 19.5787C25.2328 19.7067 25.3555 19.7936 25.5009 19.8121L28.5147 20.1945C28.8801 20.2408 29.1737 19.8578 29.0172 19.5357L26.573 14.5049C26.5466 14.4495 26.559 14.3799 26.6069 14.3325L30.6048 10.3338C30.8732 10.0655 30.7395 9.63211 30.3742 9.58567Z" />
 <path d="M20.6344 34.3683C20.2988 34.3258 19.995 34.2257 19.7236 34.0668C19.4629 33.9092 19.2417 33.7059 19.0614 33.4559C18.8927 33.1965 18.7796 32.8989 18.7205 32.5602C18.6645 32.2125 18.6756 31.832 18.7569 31.4182C18.838 31.0058 18.9726 30.6452 19.1571 30.3386C19.3452 30.0218 19.5669 29.7651 19.825 29.5708C20.0941 29.3682 20.384 29.2231 20.6921 29.139C21.0113 29.0549 21.3388 29.0348 21.6744 29.0776C22.0101 29.1201 22.3085 29.2196 22.5705 29.3774C22.8422 29.535 23.0609 29.7448 23.2298 30.0028C23.4101 30.2528 23.5281 30.5525 23.5855 30.9004C23.6437 31.2378 23.6332 31.6139 23.5522 32.0265C23.4709 32.4403 23.3356 32.8051 23.149 33.1221C22.9627 33.4296 22.7357 33.684 22.4663 33.888C22.2084 34.0825 21.9213 34.2211 21.602 34.3052C21.2922 34.3905 20.9703 34.4108 20.6344 34.3683ZM22.2419 26.1896C21.3762 26.0799 20.5456 26.114 19.7493 26.2922C18.9634 26.4717 18.2508 26.7794 17.6123 27.2143C16.976 27.6398 16.4375 28.1707 16.0002 28.8063C15.5741 29.4352 15.2823 30.1521 15.1242 30.9571C14.966 31.7619 14.97 32.5085 15.1326 33.22C15.3045 33.9342 15.6119 34.578 16.0525 35.1499C16.4947 35.7122 17.0561 36.1761 17.7347 36.5415C18.4241 36.9081 19.2012 37.1447 20.067 37.2546C20.942 37.3658 21.7723 37.3327 22.5593 37.1535C23.3452 36.9739 24.0569 36.6715 24.6933 36.2459C25.3315 35.8112 25.8655 35.274 26.2937 34.6358C26.731 34.0003 27.0279 33.284 27.1844 32.487C27.3426 31.6821 27.3349 30.927 27.1611 30.2221C26.9983 29.5105 26.695 28.8726 26.2529 28.3103C25.8123 27.7384 25.2523 27.2692 24.5734 26.904C23.8935 26.5385 23.117 26.3007 22.2419 26.1896Z" />
 <path d="M30.3209 23.3481L16.7207 21.6229C16.4326 21.5864 16.1514 21.7894 16.0953 22.0749C16.0392 22.3605 16.2287 22.6231 16.5168 22.6595L30.117 24.3848C30.407 24.4216 30.6859 24.2199 30.7424 23.9327C30.7985 23.6475 30.6109 23.3849 30.3209 23.3481Z" />
 <path d="M29.1867 41.0365L30.7348 42.8049C30.6292 43.3427 30.1013 43.7239 29.5581 43.655L28.01 41.8867C28.5532 41.9555 29.0811 41.5744 29.1867 41.0365Z" fill="white"/>
 <path d="M11.0982 41.097C9.88401 40.8796 9.10321 39.7484 9.3449 38.5192L15.9276 5.02532C16.1771 3.75646 17.4227 2.85634 18.7045 3.01899L35.2369 5.11635C36.2375 5.24334 36.9689 5.981 37.1228 6.90225C37.0561 6.50268 36.8807 6.13766 36.6219 5.84203L38.17 7.61038C38.5963 8.09741 38.7963 8.77273 38.657 9.48063L32.0741 42.9745C31.8246 44.2432 30.579 45.1435 29.2975 44.9808L12.7651 42.8838C12.1985 42.812 11.718 42.5438 11.3801 42.1579L9.83197 40.3895C10.1461 40.7483 10.5831 41.0049 11.0982 41.097ZM28.0099 41.8868L11.4775 39.7895C10.9343 39.7206 10.5783 39.2269 10.6841 38.689L17.2671 5.19513C17.3727 4.65728 17.9004 4.27583 18.4438 4.34468L34.9762 6.44203C35.5195 6.51089 35.8755 7.00462 35.7697 7.54247L29.1868 41.0366C29.0812 41.5745 28.5533 41.9557 28.0099 41.8868Z" fill-rule="evenodd" />
 <path d="M35.3418 22.6558L34.6691 26.0766L33.054 24.8035L33.7176 21.4279L35.3418 22.6558ZM35.6437 21.1194L35.4501 22.103L33.8267 20.875L34.0169 19.9021L35.6437 21.1194ZM36.7125 15.6775L36.2384 18.0949L34.6166 16.8555L35.1072 14.3593L36.7125 15.6775Z" fill="white" stroke="black" stroke-width="0.029582"/>
</svg>
