<svg width="42" height="42" viewBox="0 0 42 42" fill="none"
    xmlns="http://www.w3.org/2000/svg">
    <rect width="42" height="42" fill="white"/>
    <g transform="translate(7.43 2) scale(0.9048)">
        <path d="M25.6762 3.4422L27.2243 5.21056L10.6921 3.11321L9.1438 1.34485L25.6762 3.4422Z" fill="black"/>
        <path d="M26.2631 3.74952L27.8112 5.51787C27.668 5.3543 27.4643 5.24063 27.2241 5.21013L25.676 3.44177C25.9162 3.47227 26.1199 3.58572 26.2631 3.74952Z" fill="black"/>
        <path d="M27.8022 5.50798C27.9891 5.71522 28.0776 6.00586 28.0176 6.31083L26.4695 4.54247C26.5295 4.23751 26.441 3.94686 26.2542 3.73962C26.7185 4.27008 27.3378 4.97752 27.8022 5.50798Z" fill="white"/>
        <path d="M7.967 2.19519L9.51509 3.96378L2.93213 37.4577L1.38403 35.6891L7.967 2.19519Z" fill="black"/>
        <path d="M3.13851 38.2503L1.59042 36.482C1.40961 36.2757 1.32505 35.9894 1.38415 35.6893L2.93224 37.4577C2.87338 37.7577 2.95794 38.044 3.13851 38.2503Z" fill="black"/>
        <path d="M3.7254 38.5575C3.49015 38.5276 3.29019 38.4182 3.14746 38.2601L1.59937 36.4918C1.7421 36.6501 1.94206 36.7594 2.1773 36.7891C2.6417 37.3196 3.26099 38.027 3.7254 38.5575Z" fill="white"/>
        <path d="M18.7099 38.8861L20.2582 40.6547L3.72558 38.5573L2.17749 36.7889L18.7099 38.8861Z" fill="white"/>
        <path d="M26.4696 4.54211L28.0178 6.31047L21.4348 39.8046L19.8867 38.0363L26.4696 4.54211Z" fill="white"/>
        <path d="M19.8852 38.0371C19.7797 38.575 19.2517 38.9562 18.7086 38.8873L2.17619 36.79C1.63307 36.7211 1.27706 36.2276 1.38288 35.69L7.96537 2.19564C8.07096 1.65778 8.59892 1.27634 9.14206 1.34519L25.6744 3.44254C26.2176 3.51139 26.5736 4.00512 26.4677 4.54274L19.8852 38.0371Z" fill="white"/>
        <g>
            <path d="M21.0742 6.58567L18.2924 6.23287C18.1494 6.21486 18.0014 6.26568 17.8937 6.36989L15.9332 8.27917C15.8956 8.31614 15.8457 8.3307 15.7998 8.32492C15.754 8.31914 15.712 8.29303 15.6905 8.24845L14.5748 5.95032C14.5127 5.82325 14.3898 5.738 14.2456 5.71974L11.3034 5.34639C10.938 5.29995 10.6446 5.68162 10.7986 6.00208L13.1328 10.8687C13.1589 10.9252 13.1454 10.9948 13.0973 11.0419L8.87182 15.1583C8.59688 15.4245 8.7291 15.8642 9.09584 15.9105L12.0881 16.2901C12.2337 16.3086 12.3836 16.2564 12.4918 16.1485L14.4804 14.1595C14.5185 14.1212 14.5689 14.106 14.6157 14.1117C14.6624 14.1175 14.704 14.1441 14.7262 14.1891L15.8723 16.5787C15.9328 16.7067 16.0554 16.7936 16.2009 16.8121L19.2147 17.1945C19.5801 17.2408 19.8736 16.8578 19.7171 16.5357L17.2729 11.5049C17.2465 11.4495 17.259 11.3799 17.3068 11.3325L21.3047 7.33377C21.5731 7.06553 21.4395 6.63211 21.0742 6.58567Z" fill="black"/>
            <path d="M11.3344 31.3683C10.9987 31.3258 10.695 31.2257 10.4236 31.0668C10.1628 30.9092 9.94167 30.7059 9.76132 30.4559C9.59265 30.1965 9.47958 29.8989 9.42045 29.5602C9.36442 29.2125 9.37559 28.832 9.4569 28.4182C9.53796 28.0058 9.67253 27.6452 9.85708 27.3386C10.0452 27.0218 10.2668 26.7651 10.525 26.5708C10.794 26.3682 11.084 26.2231 11.3921 26.139C11.7112 26.0549 12.0387 26.0348 12.3744 26.0776C12.7101 26.1201 13.0084 26.2196 13.2705 26.3774C13.5422 26.535 13.7608 26.7448 13.9297 27.0028C14.1101 27.2528 14.228 27.5525 14.2855 27.9004C14.3437 28.2378 14.3332 28.6139 14.2521 29.0265C14.1708 29.4403 14.0356 29.8051 13.8489 30.1221C13.6627 30.4296 13.4356 30.684 13.1663 30.888C12.9084 31.0825 12.6213 31.2211 12.302 31.3052C11.9922 31.3905 11.6703 31.4108 11.3344 31.3683ZM12.9418 23.1896C12.0761 23.0799 11.2456 23.114 10.4493 23.2922C9.66337 23.4717 8.95072 23.7794 8.31224 24.2143C7.67591 24.6398 7.13745 25.1707 6.70014 25.8063C6.27405 26.4352 5.98227 27.1521 5.82413 27.9571C5.66597 28.7619 5.66995 29.5085 5.83254 30.22C6.00447 30.9342 6.31189 31.578 6.75247 32.1499C7.19468 32.7122 7.75603 33.1761 8.43462 33.5415C9.12401 33.9081 9.90118 34.1447 10.767 34.2546C11.642 34.3658 12.4722 34.3327 13.2592 34.1535C14.0451 33.9739 14.7569 33.6715 15.3933 33.2459C16.0314 32.8112 16.5655 32.274 16.9936 31.6358C17.4309 31.0003 17.7279 30.284 17.8844 29.487C18.0425 28.6821 18.0348 27.927 17.861 27.2221C17.6982 26.5105 17.395 25.8726 16.9528 25.3103C16.5122 24.7384 15.9523 24.2692 15.2734 23.904C14.5934 23.5385 13.8169 23.3007 12.9418 23.1896Z" fill="black"/>
            <path d="M21.0208 20.3481L7.42064 18.6229C7.13257 18.5864 6.85136 18.7894 6.79524 19.0749C6.73913 19.3605 6.92868 19.6231 7.21674 19.6595L20.8169 21.3848C21.1069 21.4216 21.3859 21.2199 21.4423 20.9327C21.4984 20.6475 21.3109 20.3849 21.0208 20.3481Z" fill="black"/>
        </g>
        <path d="M19.8866 38.0365L21.4348 39.8049C21.3292 40.3427 20.8012 40.7239 20.2581 40.655L18.71 38.8867C19.2531 38.9555 19.781 38.5744 19.8866 38.0365Z" fill="white"/>
        <path fill-rule="evenodd" clip-rule="evenodd" d="M1.79812 38.097C0.583962 37.8796 -0.196842 36.7484 0.04485 35.5192L6.62758 2.02532C6.87707 0.756463 8.12265 -0.143658 9.40446 0.0189927L25.9368 2.11635C26.9374 2.24334 27.6688 2.981 27.8227 3.90225C27.756 3.50268 27.5806 3.13766 27.3218 2.84203L28.87 4.61038C29.2963 5.09741 29.4963 5.77273 29.357 6.48063L22.7741 39.9745C22.5245 41.2432 21.279 42.1435 19.9974 41.9808L3.46506 39.8838C2.89843 39.812 2.418 39.5438 2.08002 39.1579L0.531924 37.3895C0.846061 37.7483 1.28307 38.0049 1.79812 38.097ZM18.7098 38.8868L2.17742 36.7895C1.63429 36.7206 1.27828 36.2269 1.3841 35.689L7.96706 2.19513C8.07265 1.65728 8.60033 1.27583 9.14372 1.34468L25.6761 3.44203C26.2195 3.51089 26.5755 4.00462 26.4696 4.54247L19.8867 38.0366C19.7811 38.5745 19.2532 38.9557 18.7098 38.8868Z" fill="black"/>
        <path d="M26.0417 19.6558L25.3691 23.0766L23.7539 21.8035L24.4175 18.4279L26.0417 19.6558ZM26.3436 18.1194L26.15 19.103L24.5266 17.875L24.7169 16.9021L26.3436 18.1194ZM27.4124 12.6775L26.9383 15.0949L25.3166 13.8555L25.8071 11.3593L27.4124 12.6775Z" fill="white" stroke="black" stroke-width="0.029582"/>
    </g>
</svg>
