<svg xmlns="http://www.w3.org/2000/svg" viewBox="0 0 48 48" fill="black">
  <path d="M14.2807 12.0936H14.9356V10.4094H14.2807C13.5863 10.4088 12.8986 10.5451 12.2569 10.8106C11.6152 11.076 11.0322 11.4654 10.5412 11.9564C10.0501 12.4475 9.66077 13.0305 9.39531 13.6722C9.12985 14.3138 8.99353 15.0015 8.99415 15.696V19.5322C8.99555 20.3445 8.68619 21.1265 8.12947 21.7181C7.57277 22.3096 6.81088 22.6657 6 22.7134L6.04678 23.5556L6 24.3977C6.81088 24.4454 7.57277 24.8017 8.12947 25.3931C8.68619 25.9846 8.99555 26.7667 8.99415 27.579V32C8.99166 33.467 9.57173 34.875 10.6069 35.9146C11.642 36.9541 13.0476 37.5401 14.5146 37.5439V35.8596C13.4974 35.859 12.5219 35.4547 11.8026 34.7354C11.0833 34.0161 10.679 33.0406 10.6784 32.0234V27.579C10.6791 26.7855 10.4854 26.0039 10.1144 25.3025C9.74328 24.6013 9.20608 24.0015 8.54971 23.5556C9.20421 23.1079 9.73999 22.5077 10.1108 21.8067C10.4817 21.1058 10.6764 20.3252 10.6784 19.5322V15.696C10.6827 14.7419 11.0636 13.8281 11.7382 13.1535C12.4128 12.4789 13.3266 12.0979 14.2807 12.0936Z" />
  <path d="M33.7425 12.0936H33.0876V10.4094H33.7425C35.1413 10.4131 36.4814 10.9721 37.4683 11.9633C38.4553 12.9546 39.0082 14.2972 39.0057 15.696V19.5322C39.0043 20.3445 39.3137 21.1265 39.8704 21.7181C40.4271 22.3096 41.189 22.6657 41.9998 22.7135L41.9531 23.5556L41.9998 24.3977C41.189 24.4454 40.4271 24.8016 39.8704 25.3932C39.3137 25.9846 39.0043 26.7667 39.0057 27.579V32C39.0082 33.4671 38.4281 34.8751 37.3929 35.9146C36.3578 36.9541 34.9523 37.5401 33.4852 37.5439V35.8596C34.5025 35.859 35.4779 35.4547 36.1972 34.7354C36.9165 34.016 37.3209 33.0406 37.3215 32.0234V27.579C37.3208 26.7854 37.5144 26.004 37.8856 25.3026C38.2565 24.6012 38.7938 24.0014 39.4501 23.5556C38.7957 23.1079 38.2598 22.5077 37.8891 21.8067C37.5182 21.1058 37.3234 20.3252 37.3215 19.5322V15.696C37.3239 15.2242 37.2332 14.7565 37.0545 14.3199C36.8759 13.8833 36.6127 13.4862 36.2802 13.1515C35.9477 12.8168 35.5523 12.5511 35.1168 12.3695C34.6814 12.188 34.2144 12.0942 33.7425 12.0936Z" />
  <path d="M30.1403 17.1931H32.6433L27.4269 22.082C26.491 22.9288 25.2738 23.3978 24.0117 23.3978C22.7496 23.3978 21.5323 22.9288 20.5964 22.082L15.3801 17.1931H17.883L21.8363 20.889C22.4266 21.4308 23.1987 21.7314 24 21.7314C24.8013 21.7314 25.5734 21.4308 26.1638 20.889L30.1403 17.1931Z" fill="black"/>
  <path d="M17.8596 30.76H15.3567L20.5965 25.8477C21.5272 24.9905 22.7462 24.5146 24.0117 24.5146C25.277 24.5146 26.4961 24.9905 27.4268 25.8477L32.6666 30.76H30.1637L26.1871 27.0174C25.5967 26.4756 24.8246 26.175 24.0234 26.175C23.2221 26.175 22.4499 26.4756 21.8596 27.0174L17.8596 30.76Z" fill="black"/>
</svg>